<?xml version="1.0" encoding="UTF-8"?>
<svg width="1183px" height="687px" viewBox="0 0 1183 687" version="1.1" xmlns="http://www.w3.org/2000/svg" xmlns:xlink="http://www.w3.org/1999/xlink">
    <!-- Generator: Sketch 41 (35326) - http://www.bohemiancoding.com/sketch -->
    <title>2010_EUI_sketch</title>
    <desc>Created with Sketch.</desc>
    <defs>
        <rect id="path-1" x="972" y="71" width="75" height="17"></rect>
        <mask id="mask-2" maskContentUnits="userSpaceOnUse" maskUnits="objectBoundingBox" x="0" y="0" width="75" height="17" fill="white">
            <use xlink:href="#path-1"></use>
        </mask>
        <rect id="path-3" x="972" y="114" width="75" height="17"></rect>
        <mask id="mask-4" maskContentUnits="userSpaceOnUse" maskUnits="objectBoundingBox" x="0" y="0" width="75" height="17" fill="white">
            <use xlink:href="#path-3"></use>
        </mask>
        <rect id="path-5" x="972" y="157" width="75" height="17"></rect>
        <mask id="mask-6" maskContentUnits="userSpaceOnUse" maskUnits="objectBoundingBox" x="0" y="0" width="75" height="17" fill="white">
            <use xlink:href="#path-5"></use>
        </mask>
    </defs>
    <g id="Page-1" stroke="none" stroke-width="1" fill="none" fill-rule="evenodd">
        <g id="Group" transform="translate(0.000000, 48.000000)">
            <g transform="translate(54.000000, 5.000000)" opacity="0.8">
                <g id="DPR-→-Campus-3.00" transform="translate(0.000000, 128.000000)" fill="#F85868">
                    <path d="M0,272.99653 C52.8438329,272.99653 105.142244,262.313183 153.752502,241.588476 L645.463123,31.9504501 C694.321368,11.120015 746.886582,0.382166566 800,0.382166566 L800,2.38216657 C747.156167,2.38216657 694.857756,13.0655134 646.247498,33.7902204 L154.536877,243.428246 C105.678632,264.258681 53.1134182,274.99653 1.687539e-14,274.99653 L0,272.99653 Z" id="Shape"></path>
                </g>
                <g id="ACS-→-Site-3.00" transform="translate(0.000000, 558.000000)" fill="#FBBFAD">
                    <path d="M0,0.290050475 C49.0112066,0.290050475 98.022136,0.523216952 147.031124,0.989541991 L652.987905,5.80376739 C701.99055,6.27003208 750.995137,6.50316838 800,6.50316838 L800,8.50316838 C750.988793,8.50316838 701.977864,8.2700019 652.968876,7.80367686 L147.012095,2.98945146 C98.0094496,2.52318677 49.0048634,2.29005047 1.35633171e-12,2.29005047 L0,0.290050475 Z" id="Shape"></path>
                </g>
                <g id="DSNY-→-Campus-3.00" transform="translate(0.000000, 128.000000)" fill="#FBBFAD">
                    <path d="M6.31088724e-30,216.079429 C51.4116976,216.079429 102.48349,207.745935 151.228501,191.403151 L648.135738,24.8046088 C697.085672,8.39312 748.372169,0.0245926373 800,0.0245926373 L800,2.02459264 C748.588302,2.02459264 697.51651,10.3580862 648.771499,26.7008703 L151.864262,193.299413 C102.914328,209.710902 51.6278312,218.079429 -4.08562073e-14,218.079429 L6.31088724e-30,216.079429 Z" id="Shape"></path>
                </g>
                <g id="HRA-→-Museum-3.00" transform="translate(0.000000, 344.000000)" fill="#3BB332">
                    <path d="M0,188.380027 C50.8178975,188.380027 101.379693,181.182815 150.179138,167.002798 L649.262791,21.980355 C698.243576,7.74764437 748.993261,0.523687387 800,0.523687387 L800,2.52368739 C749.182102,2.52368739 698.620307,9.72089924 649.820862,23.9009163 L150.737209,168.923359 C101.756424,183.15607 51.0067389,190.380027 -1.99840144e-14,190.380027 L0,188.380027 Z" id="Shape"></path>
                </g>
                <g id="DOC-→-Museum-3.00" transform="translate(0.000000, 101.000000)" fill="#F85868">
                    <path d="M0,0.819841444 C49.7365818,0.819841444 99.3835967,5.03731594 148.407487,13.4269396 L651.929876,99.5964247 C700.842324,107.966977 750.37648,112.174864 800,112.174864 L800,114.174864 C750.263418,114.174864 700.616403,109.95739 651.592513,101.567766 L148.070124,15.398281 C99.1576763,7.02772871 49.6235198,2.81984144 4.58522109e-14,2.81984144 L0,0.819841444 Z" id="Shape"></path>
                </g>
                <g id="DCLA-→-Hall-3.00" transform="translate(0.000000, 469.000000)" fill="#FBBFAD">
                    <path d="M0,5.39020409 C49.0047585,5.39020409 98.0093125,5.19000076 147.012435,4.78959911 L652.971223,0.655439399 C701.979793,0.254993239 750.989794,0.0547676524 800,0.0547676524 L800,2.05476765 C750.995242,2.05476765 701.990688,2.25497099 652.987565,2.65537264 L147.028777,6.78953235 C98.0202068,7.18997851 49.0102057,7.39020409 1.65238656e-12,7.39020409 L0,5.39020409 Z" id="Shape"></path>
                </g>
                <g id="ACS-→-School-3.00" transform="translate(0.000000, 544.000000)" fill="#3BB332">
                    <path d="M0,13.9324765 C49.009016,13.9324765 98.0167157,13.4245189 147.015203,12.4086853 L652.943342,1.91981532 C701.955646,0.903695362 750.977165,0.395594448 800,0.395594448 L800,2.39559445 C750.990984,2.39559445 701.983284,2.90355213 652.984797,3.91938565 L147.056658,14.4082557 C98.0443542,15.4243756 49.0228354,15.9324765 5.70099523e-13,15.9324765 L0,13.9324765 Z" id="Shape"></path>
                </g>
                <g id="DPR-→-Storage-3.00" transform="translate(0.000000, 375.000000)" fill="#F85868">
                    <path d="M1.26217745e-29,30.6449909 C49.0405041,30.6449909 98.0744189,29.508165 147.062231,27.2354293 L652.845081,3.77018972 C701.863768,1.49602159 750.928587,0.358479179 800,0.358479179 L800,2.35847918 C750.959496,2.35847918 701.925581,3.49530509 652.937769,5.76804079 L147.154919,29.2332804 C98.1362318,31.5074485 49.0714125,32.6449909 -9.61453139e-14,32.6449909 L1.26217745e-29,30.6449909 Z" id="Shape"></path>
                </g>
                <g id="DCLA-→-XX-Center-4.00" transform="translate(0.000000, 441.000000)" fill="#3BB332">
                    <path d="M0,32.9730345 C49.0461589,32.9730345 98.0848524,31.7629255 147.071316,29.3438122 L652.830038,4.36777609 C701.849358,1.94704016 750.920944,0.736119493 800,0.736119493 L800,2.73611949 C750.953841,2.73611949 701.915148,3.94622849 652.928684,6.36534184 L147.169962,31.3413779 C98.1506417,33.7621138 49.079056,34.9730345 -2.08166817e-14,34.9730345 L0,32.9730345 Z" id="Shape"></path>
                </g>
                <g id="OCME-→-Museum-4.00" transform="translate(0.000000, 331.000000)" fill="#F85868">
                    <path d="M1.26217745e-29,44.1005925 C49.0854514,44.1005925 98.1575241,42.4800691 147.136033,39.2416702 L652.732018,5.81228398 C701.75445,2.57098093 750.870529,0.949004225 800,0.949004225 L800,2.94900422 C750.914549,2.94900422 701.842476,4.56952767 652.863967,7.80792657 L147.267982,41.2373128 C98.2455503,44.4786158 49.1294706,46.1005925 -8.92619312e-14,46.1005925 L1.26217745e-29,44.1005925 Z" id="Shape"></path>
                </g>
                <g id="DOHMH-→-Museum-4.00" transform="translate(0.000000, 339.000000)" fill="#F85868">
                    <path d="M0,82.2449663 C49.3295404,82.2449663 98.6108157,79.1604421 147.555364,73.0094486 L652.195252,9.58999208 C701.222522,3.42860277 750.587088,0.338865419 800,0.338865419 L800,2.33886542 C750.67046,2.33886542 701.389184,5.4233896 652.444636,11.5743831 L147.804748,74.9938396 C98.7774781,81.1552289 49.4129124,84.2449663 2.90878432e-14,84.2449663 L0,82.2449663 Z" id="Shape"></path>
                </g>
                <g id="DCAS-→-Office-4.00" transform="translate(0.000000, 524.000000)" fill="#FFE674">
                    <path d="M0,47.6253909 C49.1042377,47.6253909 98.192333,45.8450612 147.16756,42.2879099 L652.687559,5.57116045 C701.711,2.01050724 750.847421,0.228424864 800,0.228424864 L800,2.22842486 C750.895762,2.22842486 701.807667,4.00875456 652.83244,7.56590587 L147.312441,44.2826553 C98.2890002,47.8433085 49.1525792,49.6253909 -1.52766688e-13,49.6253909 L0,47.6253909 Z" id="Shape"></path>
                </g>
                <g id="NYPD-→-FDNY-facilities-4.00" transform="translate(0.000000, 413.000000)" fill="#3BB332">
                    <path d="M0,75.9174576 C49.2762317,75.9174576 98.5117097,73.0844127 147.462717,67.4323466 L652.307879,9.1410389 C701.335039,3.48017999 750.647111,0.642727821 800,0.642727821 L800,2.64272782 C750.723768,2.64272782 701.48829,5.47577271 652.537283,11.1278389 L147.692121,69.4191465 C98.6649614,75.0800054 49.3528893,77.9174576 1.19237953e-13,77.9174576 L0,75.9174576 Z" id="Shape"></path>
                </g>
                <g id="HHC-→-Museum-4.00" transform="translate(0.000000, 328.000000)" fill="#FBBFAD">
                    <path d="M0,4.05519285 C49.0047663,4.05519285 98.0094222,3.90808886 147.013305,3.61388287 L652.974687,0.576228336 C701.982573,0.28199832 750.991231,0.134882317 800,0.134882317 L800,2.13488232 C750.995234,2.13488232 701.990578,2.28198631 652.986695,2.57619229 L147.025313,5.61384683 C98.0174271,5.90807684 49.0087687,6.05519285 -3.9026421e-13,6.05519285 L0,4.05519285 Z" id="Shape"></path>
                </g>
                <g id="FDNY-→-Museum-4.00" transform="translate(0.000000, 300.000000)" fill="#F85868">
                    <path d="M0,0.543177703 C49.059868,0.543177703 98.1144518,1.56144144 147.13206,3.59731108 L652.950936,24.6057065 C701.940893,26.6404277 750.967806,27.6581171 800,27.6581171 L800,29.6581171 C750.940132,29.6581171 701.885548,28.6398533 652.86794,26.6039837 L147.049064,5.59558828 C98.0591067,3.56086705 49.032194,2.5431777 -1.75970349e-14,2.5431777 L0,0.543177703 Z" id="Shape"></path>
                </g>
                <g id="HHC-→-Hospital-5.00" transform="translate(0.000000, 187.000000)" fill="#FFE674">
                    <path d="M0,144.518832 C50.0639706,144.518832 99.9772592,139.033858 148.846529,128.16208 L650.719155,16.5122038 C699.73102,5.60870286 749.789949,0.107724804 800,0.107724804 L800,2.1077248 C749.936029,2.1077248 700.022741,7.5926984 651.153471,18.4644768 L149.280845,130.114353 C100.26898,141.017854 50.2100509,146.518832 2.10942375e-14,146.518832 L0,144.518832 Z" id="Shape"></path>
                </g>
                <g id="FIT-→-XX-Center-5.00" transform="translate(0.000000, 443.000000)" fill="#FFE674">
                    <path d="M0,78.1305344 C49.2939625,78.1305344 98.5446693,75.2113742 147.493495,69.3883831 L652.270249,9.33973931 C701.297481,3.50742086 750.627078,0.583584792 800,0.583584792 L800,2.58358479 C750.706038,2.58358479 701.455331,5.50274493 652.506505,11.3257361 L147.729751,71.3743799 C98.7025186,77.2066983 49.3729218,80.1305344 7.54951657e-15,80.1305344 L0,78.1305344 Z" id="Shape"></path>
                </g>
                <g id="NYPD-→-Storage-6.00" transform="translate(0.000000, 375.000000)" fill="#3BB332">
                    <path d="M0,113.321501 C49.635973,113.321501 99.1808478,109.072504 148.092019,100.621043 L651.567444,13.6245026 C700.591086,5.15360798 750.249889,0.894840072 800,0.894840072 L800,2.89484007 C750.364027,2.89484007 700.819152,7.14383741 651.907981,15.5952979 L148.432556,102.591839 C99.4089143,111.062733 49.750111,115.321501 3.04201109e-14,115.321501 L0,113.321501 Z" id="Shape"></path>
                </g>
                <g id="DCAS-→-Hall-6.00" transform="translate(0.000000, 469.000000)" fill="#F85868">
                    <path d="M0,102.029434 C49.5141162,102.029434 98.954124,98.2011512 147.87802,90.5788104 L651.814094,12.065593 C700.839851,4.42738232 750.382794,0.591128546 800,0.591128546 L800,2.59112855 C750.485884,2.59112855 701.045876,6.41941175 652.12198,14.0417525 L148.185906,92.5549699 C99.1601489,100.193181 49.6172057,104.029434 -5.79536419e-14,104.029434 L0,102.029434 Z" id="Shape"></path>
                </g>
                <g id="DHS-→-Campus-6.00" transform="translate(0.000000, 55.000000)" fill="#FFE674">
                    <path d="M0,22.6380918 C49.0222912,22.6380918 98.0409077,21.7892631 147.033808,20.0919874 L652.896947,2.56721903 C701.91292,0.86914397 750.954622,0.01991551 800,0.01991551 L800,2.01991551 C750.977709,2.01991551 701.959092,2.86874422 652.966192,4.56601995 L147.103053,22.0907883 C98.0870797,23.7888634 49.045378,24.6380918 -2.77791679e-13,24.6380918 L0,22.6380918 Z" id="Shape"></path>
                </g>
                <g id="HHC-→-XX-Center-7.00" transform="translate(0.000000, 332.000000)" fill="#F85868">
                    <path d="M1.26217745e-29,0.710745049 C49.6298258,0.710745049 99.183776,4.58886742 148.209365,12.3097003 L652.101772,91.6655876 C701.024441,99.3702121 750.474362,103.240193 800,103.240193 L800,105.240193 C750.370174,105.240193 700.816224,101.362071 651.790635,93.6412378 L147.898228,14.2853506 C98.9755589,6.58072606 49.5256376,2.71074505 -9.96980276e-14,2.71074505 L1.26217745e-29,0.710745049 Z" id="Shape"></path>
                </g>
                <g id="DPR-→-FDNY-facilities-7.00" transform="translate(0.000000, 406.000000)" fill="#FFE674">
                    <path d="M0,0.240947495 C49.0118557,0.240947495 98.0233844,0.49412315 147.032624,1.00046433 L652.988038,6.22776552 C701.99039,6.73403554 750.995032,6.98717562 800,6.98717562 L800,8.98717562 C750.988144,8.98717562 701.976616,8.73399996 652.967376,8.22765879 L147.011962,3.00035759 C98.0096095,2.49408757 49.0049682,2.2409475 -5.12603848e-13,2.2409475 L0,0.240947495 Z" id="Shape"></path>
                </g>
                <g id="DEP-→-Museum-9.00" transform="translate(0.000000, 65.000000)" fill="#FFE674">
                    <path d="M1.57772181e-30,0.971429747 C50.1671948,0.971429747 100.188888,6.36713529 149.202084,17.0654573 L651.224423,126.644043 C700.09751,137.311783 749.976212,142.692064 800,142.692064 L800,144.692064 C749.832805,144.692064 699.811112,139.296358 650.797916,128.598036 L148.775577,19.0194512 C99.9024899,8.35171122 50.0237877,2.97142975 -1.34336986e-14,2.97142975 L1.57772181e-30,0.971429747 Z" id="Shape"></path>
                </g>
                <g id="ACS-→-FDNY-facilities-10.0" transform="translate(0.000000, 414.000000)" fill="#3BB332">
                    <path d="M0,135.887063 C49.9325397,135.887063 99.7326981,130.751791 148.614521,120.562294 L650.977348,15.843922 C699.993412,5.62644139 749.930334,0.477066989 800,0.477066989 L800,2.47706699 C750.06746,2.47706699 700.267302,7.61233873 651.385479,17.8018366 L149.022652,122.520208 C100.006588,132.737689 50.0696663,137.887063 -1.19904087e-14,137.887063 L0,135.887063 Z" id="Shape"></path>
                </g>
                <g id="EDC-→-Museum-10.0" transform="translate(0.000000, 331.000000)" fill="#FBBFAD">
                    <path d="M0,32.4935261 C49.0465866,32.4935261 98.0856419,31.2780831 147.072006,28.8483165 L652.828914,3.76233036 C701.848279,1.33092684 750.920372,0.114665057 800,0.114665057 L800,2.11466506 C750.953413,2.11466506 701.914358,3.33010802 652.927994,5.75987465 L147.171086,30.8458608 C98.1517206,33.2772643 49.0796284,34.4935261 -2.73281398e-13,34.4935261 L0,32.4935261 Z" id="Shape"></path>
                </g>
                <g id="DOT-→-Storage-11.0" transform="translate(0.000000, 374.000000)" fill="#3BB332">
                    <path d="M0,15.3894634 C49.0103962,15.3894634 98.0192051,14.8316511 147.016905,13.7161348 L652.937574,2.19798678 C701.950445,1.08212507 750.974428,0.524140012 800,0.524140012 L800,2.52414001 C750.989604,2.52414001 701.980795,3.08195235 652.983095,4.19746866 L147.062426,15.7156167 C98.0495553,16.8314784 49.0255715,17.3894634 1.78246307e-13,17.3894634 L0,15.3894634 Z" id="Shape"></path>
                </g>
                <g id="DFTA-→-XX-Center-11.0" transform="translate(0.000000, 442.000000)" fill="#F85868">
                    <path d="M0,67.4042766 C49.2148551,67.4042766 98.397652,64.8929337 147.356542,59.880044 L652.439744,8.16468885 C701.466317,3.14486903 750.717107,0.630054315 800,0.630054315 L800,2.63005432 C750.785145,2.63005432 701.602348,5.1413972 652.643458,10.1542869 L147.560256,61.8696421 C98.5336828,66.8894619 49.2828926,69.4042766 1.19904087e-14,69.4042766 L0,67.4042766 Z" id="Shape"></path>
                </g>
                <g id="FDNY-→-Hospital-12.0" transform="translate(0.000000, 186.000000)" fill="#FFE674">
                    <path d="M0,113.589647 C49.6485107,113.589647 99.2041768,109.299647 148.114066,100.767513 L651.542232,12.9464874 C700.565618,4.39455424 750.236279,0.0945986723 800,0.0945986723 L800,2.09459867 C750.351489,2.09459867 700.795823,6.38459922 651.885934,14.9167334 L148.457768,102.737759 C99.434382,111.289692 49.763721,115.589647 1.13242749e-14,115.589647 L0,113.589647 Z" id="Shape"></path>
                </g>
                <g id="DCAS-→-Museum-12.0" transform="translate(0.000000, 347.000000)" fill="#3BB332">
                    <path d="M0,222.956713 C51.5535632,222.956713 102.747083,214.369627 151.479018,197.547964 L647.868392,26.2004701 C696.81027,9.3063369 748.224338,0.682257091 800,0.682257091 L800,2.68225709 C748.446437,2.68225709 697.252917,11.2693427 648.520982,28.0910061 L152.131608,199.4385 C103.18973,216.332633 51.7756622,224.956713 -4.75175455e-14,224.956713 L0,222.956713 Z" id="Shape"></path>
                </g>
                <g id="HRA-→-Office-15.0" transform="translate(0.000000, 523.000000)" fill="#FFE674">
                    <path d="M0,12.3598096 C49.0078738,12.3598096 98.0146674,11.8996307 147.0139,10.9793336 L652.948543,1.47693614 C701.960293,0.556403955 750.979606,0.0961074231 800,0.0961074231 L800,2.09610742 C750.992126,2.09610742 701.985333,2.55628639 652.9861,3.47658348 L147.051457,12.9789809 C98.0397068,13.8995131 49.0203937,14.3598096 1.69031455e-14,14.3598096 L0,12.3598096 Z" id="Shape"></path>
                </g>
                <g id="HRA-→-XX-Center-16.0" transform="translate(0.000000, 444.000000)" fill="#FFE674">
                    <path d="M0,89.5123443 C49.3888726,89.5123443 98.7211509,86.1705267 147.658818,79.5097891 L652.071455,10.8559202 C701.098517,4.18301558 750.520909,0.835093543 800,0.835093543 L800,2.83509354 C750.611127,2.83509354 701.278849,6.17691113 652.341182,12.8376487 L147.928545,81.4915176 C98.9014834,88.1644223 49.4790905,91.5123443 -1.95399252e-14,91.5123443 L0,89.5123443 Z" id="Shape"></path>
                </g>
                <g id="DCLA-→-Museum-18.0" transform="translate(0.000000, 340.000000)" fill="#F85868">
                    <path d="M0,132.589208 C49.8802907,132.589208 99.6348079,127.586042 148.516446,117.654835 L651.056395,15.554575 C700.078625,5.59480461 749.976245,0.577248039 800,0.577248039 L800,2.72269161 C750.119709,2.72269161 700.365192,7.72585819 651.483554,17.6570646 L148.943605,119.757325 C99.9213752,129.717095 50.0237552,134.734652 -4.95159469e-14,134.734652 L0,132.589208 Z" id="Shape"></path>
                </g>
                <g id="DSNY-→-Museum-18.0" transform="translate(0.000000, 329.000000)" fill="#3BB332">
                    <path d="M0,16.2582158 C49.0109965,16.2582158 98.0201806,15.6621437 147.016679,14.4701316 L652.931141,2.16198381 C701.945029,0.969548657 750.971608,0.373264937 800,0.373264937 L800,2.51870851 C750.989003,2.51870851 701.979819,3.11478067 652.983321,4.30679274 L147.068859,16.6149405 C98.0549705,17.8073757 49.0283918,18.4036594 4.32154312e-14,18.4036594 L0,16.2582158 Z" id="Shape"></path>
                </g>
                <g id="DOHMH-→-XX-Center-19.0" transform="translate(0.000000, 422.000000)" fill="#FFE674">
                    <path d="M0,0.483348878 C49.0333738,0.483348878 98.0644837,1.14968182 147.079749,2.48216315 L652.981792,16.2351241 C701.976549,17.5670479 750.987143,18.233102 800,18.233102 L800,20.4977369 C750.966626,20.4977369 701.935516,19.8314039 652.920251,18.4989226 L147.018208,4.74596169 C98.0234513,3.4140379 49.0128571,2.74798376 2.81302759e-13,2.74798376 L0,0.483348878 Z" id="Shape"></path>
                </g>
                <g id="ACS-→-Museum-19.0" transform="translate(0.000000, 345.000000)" fill="#3BB332">
                    <path d="M0,203.026472 C51.0989789,203.026472 101.900466,195.250996 150.660141,179.967023 L648.662495,23.8655982 C697.641392,8.51290877 748.671281,0.702474351 800,0.702474351 L800,2.96710923 C748.901021,2.96710923 698.099534,10.7425853 649.339859,26.0265584 L151.337505,182.127983 C102.358608,197.480672 51.3287187,205.291107 4.04121181e-14,205.291107 L0,203.026472 Z" id="Shape"></path>
                </g>
                <g id="NYPD-→-Museum-22.0" transform="translate(0.000000, 342.000000)" fill="#FBBFAD">
                    <path d="M0,144.341718 C50.0294605,144.341718 99.9099651,138.890044 148.758298,128.083226 L650.675281,17.0430907 C699.709612,6.19512412 749.780044,0.722691611 800,0.722691611 L800,3.34490042 C749.97054,3.34490042 700.090035,8.79657481 651.241702,19.6033928 L149.324719,130.643528 C100.290388,141.491495 50.2199556,146.963927 4.70734562e-14,146.963927 L0,144.341718 Z" id="Shape"></path>
                </g>
                <g id="DOT-→-Museum-22.0" transform="translate(0.000000, 333.000000)" fill="#F85868">
                    <path d="M0,54.1117024 C49.1283925,54.1117024 98.2358906,52.0857956 147.19734,48.0391451 L652.586671,6.26885466 C701.619964,2.21626636 750.799519,0.187386844 800,0.187386844 L800,2.80959565 C750.871607,2.80959565 701.764109,4.83550248 652.80266,8.88215297 L147.413329,50.6524434 C98.380036,54.7050317 49.2004805,56.7339112 -1.27009514e-13,56.7339112 L0,54.1117024 Z" id="Shape"></path>
                </g>
                <g id="HHC-→-Campus-26.0" transform="translate(0.000000, 125.000000)" fill="#F85868">
                    <path d="M0,204.12188 C51.0786103,204.12188 101.856843,196.310554 150.573856,180.958777 L648.494741,24.0532138 C697.513103,8.60647556 748.605433,0.746831623 800,0.746831623 L800,3.84580567 C748.92139,3.84580567 698.143157,11.6571312 649.426144,27.0089082 L151.505259,183.914471 C102.486897,199.36121 51.3945666,207.220854 4.4408921e-16,207.220854 L0,204.12188 Z" id="Shape"></path>
                </g>
                <g id="DCAS-→-Court-26.0" transform="translate(0.000000, 572.000000)" fill="#FFE674">
                    <path d="M0,0.863773523 C49.0244867,0.863773523 98.0478384,1.33553595 147.063246,2.27899527 L652.996393,12.0173075 C701.991923,12.9603842 750.995394,13.4319553 800,13.4319553 L800,16.5309294 C750.975513,16.5309294 701.952162,16.059167 652.936754,15.1157076 L147.003607,5.3773954 C98.008077,4.43431868 49.0046057,3.96274757 8.39939229e-13,3.96274757 L0,0.863773523 Z" id="Shape"></path>
                </g>
                <g id="ACS-→-XX-Center-28.0" transform="translate(0.000000, 446.000000)" fill="#3BB332">
                    <path d="M0,105.48302 C49.513313,105.48302 98.9477244,101.533092 147.832823,93.6708244 L651.637234,12.643163 C700.697574,4.7527109 750.309195,0.788624019 800,0.788624019 L800,4.12598069 C750.486687,4.12598069 701.052276,8.07590811 652.167177,15.938176 L148.362766,96.9658374 C99.3024262,104.856289 49.6908053,108.820376 2.08721929e-14,108.820376 L0,105.48302 Z" id="Shape"></path>
                </g>
                <g id="DPR-→-XX-Center-30.0" transform="translate(0.000000, 407.000000)" fill="#FBBFAD">
                    <path d="M0,0.658117079 C49.0782536,0.658117079 98.1504613,1.74749973 147.180365,3.92546013 L652.978317,26.3935423 C701.955359,28.5691546 750.97466,29.6573627 800,29.6573627 L800,33.233102 C750.921746,33.233102 701.849539,32.1437193 652.819635,29.9657589 L147.021683,7.49767675 C98.0446409,5.32206451 49.0253402,4.23385637 3.59101637e-13,4.23385637 L0,0.658117079 Z" id="Shape"></path>
                </g>
                <g id="ACS-→-inc-33.0" transform="translate(0.000000, 499.000000)" fill="#3BB332">
                    <path d="M0,55.8203764 C49.1171861,55.8203764 98.2124044,53.7433426 147.154083,49.5948415 L652.513704,6.75844891 C701.565873,2.60058218 750.771928,0.518859384 800,0.518859384 L800,4.4521726 C750.882814,4.4521726 701.787596,6.52920632 652.845917,10.6777075 L147.486296,53.5141001 C98.4341272,57.6719668 49.2280723,59.7536896 -1.38777878e-13,59.7536896 L0,55.8203764 Z" id="Shape"></path>
                </g>
                <g id="DPR-→-Museum-36.0" transform="translate(0.000000, 335.000000)" fill="#F85868">
                    <path d="M0,67.1753168 C49.1733735,67.1753168 98.3151053,64.6813806 147.235833,59.7031183 L652.329762,8.30384018 C701.394826,3.31088999 750.681545,0.809595655 800,0.809595655 L800,5.1004828 C750.826627,5.1004828 701.684895,7.59441902 652.764167,12.5726813 L147.670238,63.9719595 C98.6051745,68.9649096 49.3184548,71.466204 1.46549439e-14,71.466204 L0,67.1753168 Z" id="Shape"></path>
                </g>
                <g id="DHS-→-Museum-40.0" transform="translate(0.000000, 78.000000)" fill="#FBBFAD">
                    <path d="M0,0.995665771 C50.0841016,0.995665771 100.045255,5.95258764 149.15294,15.7939526 L651.783888,116.523086 C700.583129,126.302637 750.230476,131.228425 800,131.228425 L800,135.996077 C749.915898,135.996077 699.954745,131.039155 650.84706,121.19779 L148.216112,20.4686571 C99.4168711,10.6891056 49.7695238,5.76331815 -8.8817842e-15,5.76331815 L0,0.995665771 Z" id="Shape"></path>
                </g>
                <g id="FDNY-→-Campus-45.0" transform="translate(0.000000, 120.000000)" fill="#FBBFAD">
                    <path d="M0,174.51089 C50.4108847,174.51089 100.602702,167.878843 149.283505,154.78546 L649.323387,20.2927304 C698.458478,7.07715963 749.118683,0.383222692 800,0.383222692 L800,5.74683162 C749.589115,5.74683162 699.397298,12.3788786 650.716495,25.4722624 L150.676613,159.964992 C101.541522,173.180562 50.8813171,179.874499 3.61932706e-14,179.874499 L0,174.51089 Z" id="Shape"></path>
                </g>
                <g id="DSNY-→-Storage-48.0" transform="translate(0.000000, 347.000000)" fill="#FBBFAD">
                    <path d="M0,0.403659406 C49.0634639,0.403659406 98.1235288,1.22037152 147.159806,2.85345633 L653.030624,19.7007782 C702.003447,21.3317497 751.000026,22.1474049 800,22.1474049 L800,27.8685878 C750.936536,27.8685878 701.876471,27.0518757 652.840194,25.4187909 L146.969376,8.57146906 C97.9965532,6.94049752 48.9999739,6.12484227 1.0896839e-13,6.12484227 L0,0.403659406 Z" id="Shape"></path>
                </g>
                <g id="BPL-→-Library-59.0" transform="translate(0.000000, 586.000000)" fill="#FFE674">
                    <path d="M1.26217745e-29,0.735474845 C49.069915,0.735474845 98.1364922,1.54484852 147.179711,3.1632656 L653.052227,19.8569645 C702.018159,21.4728312 751.007413,22.2809294 800,22.2809294 L800,29.3132167 C750.930085,29.3132167 701.863508,28.503843 652.820289,26.8854259 L146.947773,10.191727 C97.9818406,8.5758603 48.9925865,7.76776211 -7.81597009e-14,7.76776211 L1.26217745e-29,0.735474845 Z" id="Shape"></path>
                </g>
                <g id="QPL-→-Library-61.0" transform="translate(0.000000, 624.000000)" fill="#FBBFAD">
                    <polygon id="Shape" points="0 0.729330115 800 0.729330115 800 8 0 8"></polygon>
                </g>
                <g id="DOC-→-Campus-68.0" transform="translate(0.000000, 56.000000)" fill="#F85868">
                    <path d="M1.26217745e-29,38.5360454 C49.0064455,38.5360454 98.0024429,37.1050774 146.925357,34.2449706 L652.60162,4.68237929 C701.68204,1.81306446 750.835779,0.377489439 800,0.377489439 L800,8.48249849 C750.993554,8.48249849 701.997557,9.91346654 653.074643,12.7735733 L147.39838,42.3361646 C98.3179598,45.2054795 49.1642208,46.6410545 -1.13270504e-13,46.6410545 L1.26217745e-29,38.5360454 Z" id="Shape"></path>
                </g>
                <g id="NYPD-→-inc-74.0" transform="translate(0.000000, 490.000000)" fill="#F85868">
                    <polygon id="Shape" points="0 0.155840237 800 0.698702474 800 9.51885938 0 8.97599715"></polygon>
                </g>
                <g id="NYPL-→-Library-79.0" transform="translate(0.000000, 604.000000)" fill="#FBBFAD">
                    <path d="M0,0.540489384 C49.0381495,0.540489384 98.0754649,0.944977485 147.106942,1.75391241 L653.048387,10.1010749 C702.028092,10.9091556 751.013629,11.3132167 800,11.3132167 L800,20.7293301 C750.96185,20.7293301 701.924535,20.324842 652.893058,19.5159071 L146.951613,11.1687446 C97.9719082,10.3606638 48.9863707,9.95660284 -3.54521967e-13,9.95660284 L0,0.540489384 Z" id="Shape"></path>
                </g>
                <g id="FDNY-→-FDNY-facilities-139" transform="translate(0.000000, 301.000000)" fill="#FBBFAD">
                    <path d="M2.5243549e-29,0.781560323 C49.900351,0.781560323 99.7348305,4.4051966 149.110286,11.6238817 L653.286415,85.334365 C701.868242,92.4370217 750.901715,96.002414 800,96.002414 L800,112.570006 C750.099649,112.570006 700.265169,108.94637 650.889714,101.727685 L146.713585,28.0172013 C98.1317581,20.9145447 49.0982854,17.3491524 -1.03916875e-13,17.3491524 L2.5243549e-29,0.781560323 Z" id="Shape"></path>
                </g>
                <g id="DEP-→-Campus-146" transform="translate(0.000000, 38.000000)" fill="#F85868">
                    <path d="M0,11.0331377 C48.9644139,11.0331377 97.9279949,10.6292578 146.885746,9.82153918 L652.827191,1.47437672 C701.880622,0.665079591 750.939894,0.26041038 800,0.26041038 L800,17.6623416 C751.035586,17.6623416 702.072005,18.0662215 653.114254,18.8739401 L147.172809,27.2211025 C98.1193782,28.0303996 49.0601064,28.4350689 -7.10688453e-13,28.4350689 L0,11.0331377 Z" id="Shape"></path>
                </g>
                <g id="DCLA-→-Campus-311" transform="translate(0.000000, 129.000000)" fill="#F85868">
                    <path d="M0,306.520711 C51.2026465,306.520711 101.748489,294.994339 147.889154,272.796366 L636.040475,37.9499534 C687.195015,13.3398386 743.23342,0.56095353 800,0.56095353 L800,37.6294508 C748.797354,37.6294508 698.251511,49.155823 652.110846,71.3537958 L163.959525,306.200208 C112.804985,330.810323 56.7665805,343.589208 2.13162821e-14,343.589208 L0,306.520711 Z" id="Shape"></path>
                </g>
                <g id="CUNY-→-Campus-321" fill="#FFE674">
                    <polygon id="Shape" points="0 0 800 0 800 38.2604104 0 38.2604104"></polygon>
                </g>
                <g id="DOE-→-Campus-469" transform="translate(0.000000, 64.000000)" fill="#3BB332">
                    <path d="M0,49.7713557 C48.4358842,49.7713557 96.8545516,47.9453114 145.152849,44.2971131 L650.6367,6.11553255 C700.335987,2.36151089 750.159135,0.482498491 800,0.482498491 L800,56.3832227 C751.564116,56.3832227 703.145448,58.209267 654.847151,61.8574653 L149.3633,100.039046 C99.6640133,103.793067 49.8408647,105.67208 1.89237515e-13,105.67208 L0,49.7713557 Z" id="Shape"></path>
                </g>
                <g id="DOE-→-Museum-957" transform="translate(0.000000, 169.000000)" fill="#3BB332">
                    <path d="M-2.83661983e-14,0.672079881 C50.414485,0.672079881 100.814239,2.39538967 151.110977,5.83899056 L656.680396,40.4531495 C704.383804,43.7191963 752.184916,45.3536512 800,45.3536512 L800,159.419734 C749.585515,159.419734 699.185761,157.696425 648.889023,154.252824 L143.319604,119.638665 C95.6161957,116.372618 47.8150837,114.738163 -1.13686838e-13,114.738163 L-2.83661983e-14,0.672079881 Z" id="Shape"></path>
                </g>
            </g>
            <g>
                <g id="DOE" transform="translate(21.000000, 113.771356)">
                    <text fill="#000000" font-family="Helvetica" font-size="13" font-weight="normal">
                        <tspan x="0" y="89.9834061">DOE</tspan>
                    </text>
                    <path d="M33,5 L33,174.966807" id="Shape" stroke="#000000" fill="#000000"></path>
                    <rect id="Rectangle-path" x="28" y="0" width="10" height="174.966807"></rect>
                </g>
                <g id="Museum" transform="translate(849.000000, 208.155703)">
                    <text fill="#000000" font-family="Helvetica" font-size="13" font-weight="normal">
                        <tspan x="9" y="75.6208496">Museum</tspan>
                    </text>
                    <path d="M5,5 L5,146.241702" id="Shape" stroke="#000000" fill="#000000"></path>
                    <rect id="Rectangle-path" x="0" y="0" width="10" height="146.241702"></rect>
                </g>
                <g id="Campus" transform="translate(849.000000, 0.000000)">
                    <text fill="#000000" font-family="Helvetica" font-size="13" font-weight="normal">
                        <tspan x="9" y="88.3147278">Campus</tspan>
                    </text>
                    <path d="M5,5 L5,171.629451" id="Shape" stroke="#000000" fill="#000000"></path>
                    <rect id="Rectangle-path" style="mix-blend-mode: darken;" x="0" y="0" width="20" height="171.629451"></rect>
                </g>
                <g id="CUNY" transform="translate(13.000000, 0.000000)">
                    <text fill="#000000" font-family="Helvetica" font-size="13" font-weight="normal">
                        <tspan x="0" y="24.1302052">CUNY</tspan>
                    </text>
                    <path d="M41,5 L41,43.2604104" id="Shape" stroke="#000000" fill="#000000"></path>
                    <rect id="Rectangle-path" x="36" y="0" width="10" height="43.2604104"></rect>
                </g>
                <g id="DCLA" transform="translate(15.000000, 435.520711)">
                    <text fill="#000000" font-family="Helvetica" font-size="13" font-weight="normal">
                        <tspan x="0" y="25.0241394">DCLA</tspan>
                    </text>
                    <path d="M39,5 L39,45.04828" id="Shape" stroke="#000000" fill="#000000"></path>
                    <rect id="Rectangle-path" x="34" y="0" width="10" height="45.04828"></rect>
                </g>
                <g id="DEP" transform="translate(23.000000, 49.033138)">
                    <text fill="#000000" font-family="Helvetica" font-size="13" font-weight="normal">
                        <tspan x="0" y="14.2373266">DEP</tspan>
                    </text>
                    <path d="M31,5 L31,23.474653" id="Shape" stroke="#000000" fill="#000000"></path>
                    <rect id="Rectangle-path" x="26" y="0" width="10" height="23.474653"></rect>
                </g>
                <g id="FDNY" transform="translate(14.000000, 294.510890)">
                    <text fill="#000000" font-family="Helvetica" font-size="13" font-weight="normal">
                        <tspan x="0" y="16.9191313">FDNY</tspan>
                    </text>
                    <path d="M40,5 L40,28.8382619" id="Shape" stroke="#000000" fill="#000000"></path>
                    <rect id="Rectangle-path" x="35" y="0" width="10" height="28.8382619"></rect>
                </g>
                <g id="FDNY-facilities" transform="translate(849.000000, 397.002414)">
                    <text fill="#000000" font-family="Helvetica" font-size="13" font-weight="normal">
                        <tspan x="9" y="14.535305">FDNY facilities</tspan>
                    </text>
                    <path d="M5,5 L5,24.0706095" id="Shape" stroke="#000000" fill="#000000"></path>
                    <rect id="Rectangle-path" x="0" y="0" width="10" height="24.0706095"></rect>
                </g>
                <g id="NYPL" transform="translate(16.000000, 600.540489)">
                    <text fill="#000000" font-family="Helvetica" font-size="13" font-weight="normal">
                        <tspan x="0" y="13.7080569">NYPL</tspan>
                    </text>
                    <path d="M38,9 L38,18.4161135" id="Shape" stroke="#000000" fill="#000000"></path>
                    <rect id="Rectangle-path" x="33" y="4" width="10" height="14.4161135"></rect>
                </g>
                <g id="Library" transform="translate(849.000000, 608.280929)">
                    <text fill="#000000" font-family="Helvetica" font-size="13" font-weight="normal">
                        <tspan x="9" y="16.8595352">Library</tspan>
                    </text>
                    <path d="M5,5 L5,28.7190706" id="Shape" stroke="#000000" fill="#000000"></path>
                    <rect id="Rectangle-path" x="0" y="0" width="10" height="28.7190706"></rect>
                </g>
                <g id="NYPD" transform="translate(13.000000, 484.341718)">
                    <text fill="#000000" font-family="Helvetica" font-size="13" font-weight="normal">
                        <tspan x="0" y="13.3171396">NYPD</tspan>
                    </text>
                    <path d="M41,7 L41,19.6342788" id="Shape" stroke="#000000" fill="#000000"></path>
                    <rect id="Rectangle-path" x="36" y="2" width="10" height="17.6342788"></rect>
                </g>
                <g id="inc" transform="translate(849.000000, 488.698702)">
                    <text fill="#000000" font-family="Helvetica" font-size="13" font-weight="normal">
                        <tspan x="9" y="13.3767352">inc</tspan>
                    </text>
                    <path d="M5,7 L5,19.7534701" id="Shape" stroke="#000000" fill="#000000"></path>
                    <rect id="Rectangle-path" x="0" y="2" width="10" height="17.7534701"></rect>
                </g>
                <g id="DOC" transform="translate(21.000000, 90.536045)">
                    <text fill="#000000" font-family="Helvetica" font-size="13" font-weight="normal">
                        <tspan x="0" y="13.2312913">DOC</tspan>
                    </text>
                    <path d="M33,9 L33,17.462583" id="Shape" stroke="#000000" fill="#000000"></path>
                    <rect id="Rectangle-path" x="28" y="4" width="10" height="13.462583"></rect>
                </g>
                <g id="QPL" transform="translate(23.000000, 619.729330)">
                    <text fill="#000000" font-family="Helvetica" font-size="13" font-weight="normal">
                        <tspan x="0" y="13.635335">QPL</tspan>
                    </text>
                    <path d="M31,10 L31,17.2706699" id="Shape" stroke="#000000" fill="#000000"></path>
                    <rect id="Rectangle-path" x="26" y="5" width="10" height="12.2706699"></rect>
                </g>
                <g id="BPL" transform="translate(25.000000, 581.735475)">
                    <text fill="#000000" font-family="Helvetica" font-size="13" font-weight="normal">
                        <tspan x="0" y="13.5161436">BPL</tspan>
                    </text>
                    <path d="M29,10 L29,17.0322873" id="Shape" stroke="#000000" fill="#000000"></path>
                    <rect id="Rectangle-path" x="24" y="5" width="10" height="12.0322873"></rect>
                </g>
                <g id="DSNY" transform="translate(13.000000, 340.900642)">
                    <text fill="#000000" font-family="Helvetica" font-size="13" font-weight="normal">
                        <tspan x="0" y="13.1121001">DSNY</tspan>
                    </text>
                    <path d="M41,9 L41,17.2242004" id="Shape" stroke="#000000" fill="#000000"></path>
                    <rect id="Rectangle-path" x="36" y="4" width="10" height="13.2242004"></rect>
                </g>
                <g id="Storage" transform="translate(849.000000, 365.147405)">
                    <text fill="#000000" font-family="Helvetica" font-size="13" font-weight="normal">
                        <tspan x="9" y="13.0525045">Storage</tspan>
                    </text>
                    <path d="M5,9 L5,17.1050091" id="Shape" stroke="#000000" fill="#000000"></path>
                    <rect id="Rectangle-path" x="0" y="4" width="10" height="13.1050091"></rect>
                </g>
                <g id="DHS" transform="translate(22.000000, 72.280518)">
                    <text fill="#000000" font-family="Helvetica" font-size="13" font-weight="normal">
                        <tspan x="0" y="13.7414002">DHS</tspan>
                    </text>
                    <path d="M32,11 L32,16.4828002" id="Shape" stroke="#000000" fill="#000000"></path>
                    <rect id="Rectangle-path" x="27" y="6" width="10" height="10.4828002"></rect>
                </g>
                <g id="DPR" transform="translate(22.000000, 397.817743)">
                    <text fill="#000000" font-family="Helvetica" font-size="13" font-weight="normal">
                        <tspan x="0" y="13.7080569">DPR</tspan>
                    </text>
                    <path d="M32,9 L32,18.4161135" id="Shape" stroke="#000000" fill="#000000"></path>
                    <rect id="Rectangle-path" x="27" y="4" width="10" height="14.4161135"></rect>
                </g>
                <g id="ACS" transform="translate(23.000000, 545.026472)">
                    <text fill="#000000" font-family="Helvetica" font-size="13" font-weight="normal">
                        <tspan x="0" y="13.7211828">ACS</tspan>
                    </text>
                    <path d="M31,8 L31,19.4423657" id="Shape" stroke="#000000" fill="#000000"></path>
                    <rect id="Rectangle-path" x="26" y="3" width="10" height="16.4423657"></rect>
                </g>
                <g id="XX-Center" transform="translate(849.000000, 434.823024)">
                    <text fill="#000000" font-family="Helvetica" font-size="13" font-weight="normal">
                        <tspan x="9" y="13.1514788">XX Center</tspan>
                    </text>
                    <path d="M5,6 L5,20.3029572" id="Shape" stroke="#000000" fill="#000000"></path>
                    <rect id="Rectangle-path" x="0" y="1" width="10" height="19.3029572"></rect>
                </g>
                <g id="HHC" transform="translate(21.000000, 323.121880)">
                    <text fill="#000000" font-family="Helvetica" font-size="13" font-weight="normal">
                        <tspan x="0" y="13.5030174">HHC</tspan>
                    </text>
                    <path d="M33,11 L33,16.006035" id="Shape" stroke="#000000" fill="#000000"></path>
                    <rect id="Rectangle-path" x="28" y="6" width="10" height="10.006035"></rect>
                </g>
                <g id="DCAS" transform="translate(13.000000, 564.241565)">
                    <text fill="#000000" font-family="Helvetica" font-size="13" font-weight="normal">
                        <tspan x="0" y="13.8605914">DCAS</tspan>
                    </text>
                    <path d="M41,11 L41,16.7211829" id="Shape" stroke="#000000" fill="#000000"></path>
                    <rect id="Rectangle-path" x="36" y="6" width="10" height="10.7211829"></rect>
                </g>
                <g id="Court" transform="translate(849.000000, 578.431955)">
                    <text fill="#000000" font-family="Helvetica" font-size="13" font-weight="normal">
                        <tspan x="9" y="13.549487">Court</tspan>
                    </text>
                    <path d="M5,12 L5,15.098974" id="Shape" stroke="#000000" fill="#000000"></path>
                    <rect id="Rectangle-path" x="0" y="7" width="10" height="8.09897405"></rect>
                </g>
                <g id="DOT" transform="translate(22.000000, 380.111702)">
                    <text fill="#000000" font-family="Helvetica" font-size="13" font-weight="normal">
                        <tspan x="0" y="13.9666567">DOT</tspan>
                    </text>
                    <path d="M32,12 L32,15.9333132" id="Shape" stroke="#000000" fill="#000000"></path>
                    <rect id="Rectangle-path" x="27" y="7" width="10" height="8.93331322"></rect>
                </g>
                <g id="DOHMH" transform="translate(0.000000, 415.006584)">
                    <text fill="#000000" font-family="Helvetica" font-size="13" font-weight="normal">
                        <tspan x="0" y="13.3707001">DOHMH</tspan>
                    </text>
                    <path d="M54,12 L54,14.7414001" id="Shape" stroke="#000000" fill="#000000"></path>
                    <rect id="Rectangle-path" x="49" y="7" width="10" height="7.74140012"></rect>
                </g>
                <g id="HRA" transform="translate(22.000000, 527.201240)">
                    <text fill="#000000" font-family="Helvetica" font-size="13" font-weight="normal">
                        <tspan x="0" y="13.0262523">HRA</tspan>
                    </text>
                    <path d="M32,11 L32,15.0525045" id="Shape" stroke="#000000" fill="#000000"></path>
                    <rect id="Rectangle-path" x="27" y="6" width="10" height="9.05250453"></rect>
                </g>
                <g id="Office" transform="translate(849.000000, 516.202173)">
                    <text fill="#000000" font-family="Helvetica" font-size="13" font-weight="normal">
                        <tspan x="9" y="13.1323174">Office</tspan>
                    </text>
                    <path d="M5,12 L5,14.2646349" id="Shape" stroke="#000000" fill="#000000"></path>
                    <rect id="Rectangle-path" x="0" y="7" width="10" height="7.26463488"></rect>
                </g>
                <g id="Hospital" transform="translate(849.000000, 179.379451)">
                    <text fill="#000000" font-family="Helvetica" font-size="13" font-weight="normal">
                        <tspan x="9" y="13.0131261">Hospital</tspan>
                    </text>
                    <path d="M5,12 L5,14.0262523" id="Shape" stroke="#000000" fill="#000000"></path>
                    <rect id="Rectangle-path" x="0" y="7" width="10" height="7.02625226"></rect>
                </g>
                <g id="DFTA" transform="translate(17.000000, 501.748724)">
                    <text fill="#000000" font-family="Helvetica" font-size="13" font-weight="normal">
                        <tspan x="0" y="13.6555523">DFTA</tspan>
                    </text>
                    <path d="M37,13 L37,14.3111044" id="Shape" stroke="#000000" fill="#000000"></path>
                    <rect id="Rectangle-path" x="32" y="8" width="10" height="6.31110441"></rect>
                </g>
                <g id="EDC" transform="translate(22.000000, 355.897570)">
                    <text fill="#000000" font-family="Helvetica" font-size="13" font-weight="normal">
                        <tspan x="0" y="13.5959566">EDC</tspan>
                    </text>
                    <path d="M32,13 L32,14.1919131" id="Shape" stroke="#000000" fill="#000000"></path>
                    <rect id="Rectangle-path" x="27" y="8" width="10" height="6.1919131"></rect>
                </g>
                <g id="Hall" transform="translate(849.000000, 461.875981)">
                    <text fill="#000000" font-family="Helvetica" font-size="13" font-weight="normal">
                        <tspan x="9" y="13.5363609">Hall</tspan>
                    </text>
                    <path d="M5,13 L5,14.0727218" id="Shape" stroke="#000000" fill="#000000"></path>
                    <rect id="Rectangle-path" x="0" y="8" width="10" height="6.07272179"></rect>
                </g>
                <g id="FIT" transform="translate(30.000000, 513.832556)">
                    <text fill="#000000" font-family="Helvetica" font-size="13" font-weight="normal">
                        <tspan x="0" y="13.2979783">FIT</tspan>
                    </text>
                    <path d="M24,13 L24,14" id="Shape" stroke="#000000" fill="#000000"></path>
                    <rect id="Rectangle-path" x="19" y="8" width="10" height="6"></rect>
                </g>
                <g id="OCME" transform="translate(11.000000, 367.862210)">
                    <text fill="#000000" font-family="Helvetica" font-size="13" font-weight="normal">
                        <tspan x="0" y="13.2383826">OCME</tspan>
                    </text>
                    <path d="M43,13 L43,14" id="Shape" stroke="#000000" fill="#000000"></path>
                    <rect id="Rectangle-path" x="38" y="8" width="10" height="6"></rect>
                </g>
                <g id="School" transform="translate(849.000000, 537.216807)">
                    <text fill="#000000" font-family="Helvetica" font-size="13" font-weight="normal">
                        <tspan x="9" y="13.178787">School</tspan>
                    </text>
                    <path d="M5,13 L5,14" id="Shape" stroke="#000000" fill="#000000"></path>
                    <rect id="Rectangle-path" x="0" y="8" width="10" height="6"></rect>
                </g>
                <g id="Site" transform="translate(849.000000, 557.324381)">
                    <text fill="#000000" font-family="Helvetica" font-size="13" font-weight="normal">
                        <tspan x="9" y="13.178787">Site</tspan>
                    </text>
                    <path d="M5,13 L5,14" id="Shape" stroke="#000000" fill="#000000"></path>
                    <rect id="Rectangle-path" x="0" y="8" width="10" height="6"></rect>
                </g>
            </g>
        </g>
        <use id="Rectangle" stroke="#979797" mask="url(#mask-2)" stroke-width="2" fill="#63C35B" xlink:href="#path-1"></use>
        <text id="EUI-&lt;-183" font-family="Helvetica" font-size="14" font-weight="normal" fill="#000000">
            <tspan x="1069.34863" y="83">EUI &lt; 183</tspan>
        </text>
        <use id="Rectangle" stroke="#979797" mask="url(#mask-4)" stroke-width="2" fill="#FFEB90" xlink:href="#path-3"></use>
        <text id="307.1-&lt;-EUI-&lt;-307" font-family="Helvetica" font-size="14" font-weight="normal" fill="#000000">
            <tspan x="1069.35938" y="126">307.1 &lt; EUI &lt; 307</tspan>
        </text>
        <use id="Rectangle" stroke="#979797" mask="url(#mask-6)" stroke-width="2" fill="#FA7A87" xlink:href="#path-5"></use>
        <text id="307-&lt;-EUI-&lt;-851" font-family="Helvetica" font-size="14" font-weight="normal" fill="#000000">
            <tspan x="1069.03516" y="169">307 &lt; EUI &lt; 851</tspan>
        </text>
        <text id="2010-Source-EUI-(kBt" font-family="Helvetica" font-size="24" font-weight="normal" fill="#000000">
            <tspan x="321.589992" y="23">2010 Source EUI (kBtu/sq.ft.)</tspan>
        </text>
        <text id="957-buildings" font-family="Helvetica-Bold, Helvetica" font-size="14" font-weight="bold" fill="#000000">
            <tspan x="740" y="333">957 buildings</tspan>
        </text>
        <text id="311-buildings" font-family="Helvetica-Bold, Helvetica" font-size="14" font-weight="bold" fill="#000000">
            <tspan x="740" y="206">311 buildings</tspan>
        </text>
    </g>
</svg>