<?xml version="1.0" standalone="no"?><!DOCTYPE svg PUBLIC "-//W3C//DTD SVG 1.1//EN" "http://www.w3.org/Graphics/SVG/1.1/DTD/svg11.dtd"><svg xmlns="http://www.w3.org/2000/svg" width="1280" height="1500" viewBox="0 0 1280 1500" style="font-family: &quot;Helvetica Neue&quot;, Helvetica, Arial, sans-serif;"><g class="sankey" transform="translate(100,10)"><g class="groups"/><g class="links"><g class="link" style="opacity: 0.8;"><path d="M0,1234.2359963269053 A15571.693326747949 15571.693326747949 0.01274757947443228 0 1 198.4960221724652,1235.5011853688036 L881.5294722959922,1244.2086802212993 A15569.693326747949 15569.693326747949 0.01274757947443228 0 0 1080,1245.4737067646156 L1080,1247.4737067646156 A15571.693326747949 15571.693326747949 0.01274757947443228 0 1 881.5039778275349,1246.2085177227173 L198.4705277040079,1237.5010228702215 A15569.693326747949 15569.693326747949 0.01274757947443228 0 0 0,1236.2359963269053 Z" style="fill: rgb(251, 191, 173);"/><title>DOC → Court
3.00</title></g><g class="link" style="opacity: 0.8;"><path d="M0,959.7467095194368 A1693.0954305969483 1693.0954305969483 0.11789844861723386 0 0 199.15120691267194,947.9932827674801 L880.6135420751126,867.2755904700361 A1695.0954305969483 1695.0954305969483 0.11789844861723386 0 1 1080,855.5082797673705 L1080,857.5082797673705 A1693.0954305969483 1693.0954305969483 0.11789844861723386 0 0 880.8487930873281,869.2617065193272 L199.38645792488742,949.9793988167711 A1695.0954305969483 1695.0954305969483 0.11789844861723386 0 1 0,961.7467095194368 Z" style="fill: rgb(248, 88, 104);"/><title>DPR → Storage
3.00</title></g><g class="link" style="opacity: 0.8;"><path d="M0,894.71028466483 A570.5772796815007 570.5772796815007 0.36967777118044953 0 0 206.15812436289207,856.1642633205776 L873.1192456561946,597.7218285310801 A572.5772796815007 572.5772796815007 0.36967777118044953 0 1 1080,559.0406948270584 L1080,561.0406948270584 A570.5772796815007 570.5772796815007 0.36967777118044953 0 0 873.8418756371079,599.5867161713109 L206.88075434380534,858.0291509608084 A572.5772796815007 572.5772796815007 0.36967777118044953 0 1 0,896.71028466483 Z" style="fill: rgb(255, 230, 116);"/><title>ACS → School
3.00</title></g><g class="link" style="opacity: 0.8;"><path d="M0,1193.6224364860727 A4115.969534103463 4115.969534103463 0.04825975527084059 0 0 198.5585875138862,1188.8303119567051 L881.3449304369302,1155.8536052086938 A4117.969534103463 4117.969534103463 0.04825975527084059 0 1 1080,1151.0591521273338 L1080,1153.0591521273338 A4115.969534103463 4115.969534103463 0.04825975527084059 0 0 881.4414124861138,1157.8512766567014 L198.65506956306984,1190.8279834047128 A4117.969534103463 4117.969534103463 0.04825975527084059 0 1 0,1195.6224364860727 Z" style="fill: rgb(255, 230, 116);"/><title>DHS → Residence
3.00</title></g><g class="link" style="opacity: 0.8;"><path d="M0,580.7476277930823 A7816.19609450903 7816.19609450903 0.025396845583039784 0 0 198.4853864819821,578.2270409546463 L881.4638252869955,560.8778127646599 A7818.19609450903 7818.19609450903 0.025396845583039784 0 1 1080,558.3565809611264 L1080,560.3565809611264 A7816.19609450903 7816.19609450903 0.025396845583039784 0 0 881.5146135180179,562.8771677995624 L198.53617471300444,580.2263959895488 A7818.19609450903 7818.19609450903 0.025396845583039784 0 1 0,582.7476277930823 Z" style="fill: rgb(59, 179, 50);"/><title>DSNY → School
3.00</title></g><g class="link" style="opacity: 0.8;"><path d="M0,1160.0780532598715 A1586.060365296691 1586.060365296691 0.12596239321870883 0 0 199.25606552030922,1147.512048524552 L880.4926753600757,1061.2451193462116 A1588.060365296691 1588.060365296691 0.12596239321870883 0 1 1080,1048.6632690541778 L1080,1050.6632690541778 A1586.060365296691 1586.060365296691 0.12596239321870883 0 0 880.7439344796908,1063.2292737894973 L199.50732463992415,1149.4962029678377 A1588.060365296691 1588.060365296691 0.12596239321870883 0 1 0,1162.0780532598715 Z" style="fill: rgb(251, 191, 173);"/><title>DCAS → FDNY 
 Facilities
3.00</title></g><g class="link" style="opacity: 0.8;"><path d="M0,824.6342209978573 A2266.5822137284144 2266.5822137284144 0.0879119507491879 0 1 199.00309968508725,833.3872343867669 L881.1724978277492,893.5130511315803 A2264.5822137284144 2264.5822137284144 0.0879119507491879 0 0 1080,902.2583409856136 L1080,904.2583409856136 A2266.5822137284144 2266.5822137284144 0.0879119507491879 0 1 880.9969003149128,895.505327596704 L198.82750217225072,835.3795108518906 A2264.5822137284144 2264.5822137284144 0.0879119507491879 0 0 0,826.6342209978573 Z" style="fill: rgb(59, 179, 50);"/><title>HRA → Others
3.00</title></g><g class="link" style="opacity: 0.8;"><path d="M0,869.3752678298132 A5080.5151414784195 5080.5151414784195 0.03910054025559617 0 1 198.6002727019523,873.2584515557119 L881.4779084537658,899.9729516043654 A5078.5151414784195 5078.5151414784195 0.03910054025559617 0 0 1080,903.8546066727883 L1080,905.8546066727883 A5080.5151414784195 5080.5151414784195 0.03910054025559617 0 1 881.3997272980478,901.9714229468897 L198.5220915462342,875.2569228982361 A5078.5151414784195 5078.5151414784195 0.03910054025559617 0 0 0,871.3752678298132 Z" style="fill: rgb(248, 88, 104);"/><title>DOHMH → Others
3.00</title></g><g class="link" style="opacity: 0.8;"><path d="M0,1094.152280379553 A1649.2595291131438 1649.2595291131438 0.12107193423787499 0 0 199.19156901464297,1082.0792749111629 L880.5668782576045,999.1783867253808 A1651.2595291131438 1651.2595291131438 0.12107193423787499 0 1 1080,987.0907407407406 L1080,989.0907407407406 A1649.2595291131438 1649.2595291131438 0.12107193423787499 0 0 880.8084309853571,1001.1637462091306 L199.43312174239557,1084.064634394913 A1651.2595291131438 1651.2595291131438 0.12107193423787499 0 1 0,1096.152280379553 Z" style="fill: rgb(255, 230, 116);"/><title>FDNY → Center
3.00</title></g><g class="link" style="opacity: 0.8;"><path d="M0,581.4317416590144 A1021.4048333418554 1021.4048333418554 0.19800661500768668 0 1 200.92594530855595,601.3893232317281 L879.4674852661774,737.5288953422495 A1019.4048333418554 1019.4048333418554 0.19800661500768668 0 0 1080,757.4473982246708 L1080,759.4473982246708 A1021.4048333418554 1021.4048333418554 0.19800661500768668 0 1 879.074054691444,739.4898166519571 L200.53251473382258,603.3502445414357 A1019.4048333418554 1019.4048333418554 0.19800661500768668 0 0 0,583.4317416590144 Z" style="fill: rgb(59, 179, 50);"/><title>DSNY → Office
3.00</title></g><g class="link" style="opacity: 0.8;"><path d="M0,1061.6340679522498 A1276.8265634231361 1276.8265634231361 0.1570734802851903 0 0 199.73192156874313,1045.9154430377066 L879.9552216544786,938.1829463391063 A1278.8265634231361 1278.8265634231361 0.1570734802851903 0 1 1080,922.4397000306091 L1080,924.4397000306091 A1276.8265634231361 1276.8265634231361 0.1570734802851903 0 0 880.2680784312569,940.1583249451522 L200.04477834552142,1047.8908216437526 A1278.8265634231361 1278.8265634231361 0.1570734802851903 0 1 0,1063.6340679522498 Z" style="fill: rgb(248, 88, 104);"/><title>HHC → Others
4.00</title></g><g class="link" style="opacity: 0.8;"><path d="M0,848.2589531680441 A3202.064813228507 3202.064813228507 0.062111176143122115 0 1 198.7561605693897,854.4334277347523 L881.3679819275069,896.885855820637 A3200.064813228507 3200.064813228507 0.062111176143122115 0 0 1080,903.056473829201 L1080,905.056473829201 A3202.064813228507 3202.064813228507 0.062111176143122115 0 1 881.2438394306103,898.8819992624927 L198.63201807249317,856.4295711766081 A3200.064813228507 3200.064813228507 0.062111176143122115 0 0 0,850.2589531680441 Z" style="fill: rgb(248, 88, 104);"/><title>OCME → Others
4.00</title></g><g class="link" style="opacity: 0.8;"><path d="M0,713.8533823079279 A3948.896290781609 3948.896290781609 0.05033120164419436 0 1 198.6687917342954,718.8540575160736 L881.4318281742082,753.2473885552455 A3946.896290781609 3946.896290781609 0.05033120164419436 0 0 1080,758.2455310682583 L1080,760.2455310682583 A3948.896290781609 3948.896290781609 0.05033120164419436 0 1 881.3312082657046,755.2448558601126 L198.56817182579184,720.8515248209407 A3946.896290781609 3946.896290781609 0.05033120164419436 0 0 0,715.8533823079279 Z" style="fill: rgb(59, 179, 50);"/><title>DOT → Office
4.00</title></g><g class="link" style="opacity: 0.8;"><path d="M0,1023.9850015304562 A22381.75652643316 22381.75652643316 0.008867589458810166 0 0 198.4696271380912,1023.1050221773279 L881.512637915422,1017.0479184091615 A22383.75652643316 22383.75652643316 0.008867589458810166 0 1 1080,1016.1678604224057 L1080,1018.1678604224057 A22381.75652643316 22381.75652643316 0.008867589458810166 0 0 881.5303728619089,1019.047839775534 L198.48736208457797,1025.1049435437003 A22383.75652643316 22383.75652643316 0.008867589458810166 0 1 0,1025.9850015304562 Z" style="fill: rgb(255, 230, 116);"/><title>NYPD → FDNY 
 Facilities
4.00</title></g><g class="link" style="opacity: 0.8;"><path d="M0,1221.1238138965412 A2535.2852813522627 2535.2852813522627 0.07847291753772412 0 0 198.74710543738385,1213.3216770818801 L881.0961097566621,1159.6655766249387 A2537.2852813522627 2537.2852813522627 0.07847291753772412 0 1 1080,1151.8572849709212 L1080,1153.8572849709212 A2535.2852813522627 2535.2852813522627 0.07847291753772412 0 0 881.2528945626161,1161.6594217855823 L198.90389024333783,1215.3155222425237 A2537.2852813522627 2537.2852813522627 0.07847291753772412 0 1 0,1223.1238138965412 Z" style="fill: rgb(248, 88, 104);"/><title>DOC → Residence
4.00</title></g><g class="link" style="opacity: 0.8;"><path d="M0,677.8005815733089 A1027.8163559472284 1027.8163559472284 0.1967248235352559 0 1 200.8953198748816,697.6251062019454 L879.4955968851261,832.8718567027117 A1025.8163559472284 1025.8163559472284 0.1967248235352559 0 0 1080,852.657805325987 L1080,854.657805325987 A1027.8163559472284 1027.8163559472284 0.1967248235352559 0 1 879.1046801251184,834.8332806973506 L200.50440311487395,699.5865301965842 A1025.8163559472284 1025.8163559472284 0.1967248235352559 0 0 0,679.8005815733089 Z" style="fill: rgb(59, 179, 50);"/><title>DCLA → Storage
4.00</title></g><g class="link" style="opacity: 0.8;"><path d="M0,1156.7715029078665 A503.312895619488 503.312895619488 0.4281588691310645 0 0 208.97378886825038,1111.3383147038978 L870.195817987894,809.5602047102836 A505.312895619488 505.312895619488 0.4281588691310645 0 1 1080,763.9464799510254 L1080,765.9464799510254 A503.312895619488 503.312895619488 0.4281588691310645 0 0 871.0262111317496,811.3796681549941 L209.8041820121059,1113.1577781486083 A505.312895619488 505.312895619488 0.4281588691310645 0 1 0,1158.7715029078665 Z" style="fill: rgb(255, 230, 116);"/><title>DCAS → Office
4.00</title></g><g class="link" style="opacity: 0.8;"><path d="M0,1093.3541475359657 A1053.6629171045645 1053.6629171045645 0.1913484205863294 0 0 200.38864560223982,1074.123409742834 L879.2309886425471,942.6190922825555 A1055.6629171045645 1055.6629171045645 0.1913484205863294 0 1 1080,923.3518518518517 L1080,925.3518518518517 A1053.6629171045645 1053.6629171045645 0.1913484205863294 0 0 879.6113543977601,944.5825896449834 L200.76901135745288,1076.0869071052618 A1055.6629171045645 1055.6629171045645 0.1913484205863294 0 1 0,1095.3541475359657 Z" style="fill: rgb(248, 88, 104);"/><title>FDNY → Others
4.00</title></g><g class="link" style="opacity: 0.8;"><path d="M0,559.5172941536578 A592.3196920354434 592.3196920354434 0.35565950329608587 0 1 206.25085250402446,596.5864090490808 L874.4455648370748,844.7909760163645 A590.3196920354434 590.3196920354434 0.35565950329608587 0 0 1080,881.7349250076521 L1080,883.7349250076521 A592.3196920354434 592.3196920354434 0.35565950329608587 0 1 873.7491474959755,846.6658101122291 L205.55443516292524,598.4612431449453 A590.3196920354434 590.3196920354434 0.35565950329608587 0 0 0,561.5172941536578 Z" style="fill: rgb(251, 191, 173);"/><title>CUNY → Others
5.00</title></g><g class="link" style="opacity: 0.8;"><path d="M0,1018.8541475359657 A1100.4813382060415 1100.4813382060415 0.18295278317065344 0 0 200.21482413410743,1000.4879602897046 L879.4213081342316,874.8199972968412 A1102.4813382060415 1102.4813382060415 0.18295278317065344 0 1 1080,856.4204315886133 L1080,858.4204315886133 A1100.4813382060415 1100.4813382060415 0.18295278317065344 0 0 879.7851758658926,876.7866188348744 L200.57869186576838,1002.4545818277378 A1102.4813382060415 1102.4813382060415 0.18295278317065344 0 1 0,1020.8541475359657 Z" style="fill: rgb(59, 179, 50);"/><title>NYPD → Storage
5.00</title></g><g class="link" style="opacity: 0.8;"><path d="M0,1129.2701254973983 A8384.696227961651 8384.696227961651 0.02367983331108725 0 1 198.52965409048778,1131.6208098989985 L881.5177011502253,1147.7968766127956 A8382.696227961651 8382.696227961651 0.02367983331108725 0 0 1080,1150.1470003060913 L1080,1152.1470003060913 A8384.696227961651 8384.696227961651 0.02367983331108725 0 1 881.4703459095122,1149.7963159044912 L198.48229884977474,1133.620249190694 A8382.696227961651 8382.696227961651 0.02367983331108725 0 0 0,1131.2701254973983 Z" style="fill: rgb(255, 230, 116);"/><title>FDNY → Residence
5.00</title></g><g class="link" style="opacity: 0.8;"><path d="M0,997.3957759412305 A13186.08577190456 13186.08577190456 0.015052182538371373 0 0 198.47187523799428,995.9020302907784 L881.4980215336981,985.6202195360752 A13188.08577190456 13188.08577190456 0.015052182538371373 0 1 1080,984.1262473217017 L1080,986.1262473217017 A13186.08577190456 13186.08577190456 0.015052182538371373 0 0 881.5281247620056,987.6199929721538 L198.50197846630195,997.901803726857 A13188.08577190456 13188.08577190456 0.015052182538371373 0 1 0,999.3957759412305 Z" style="fill: rgb(248, 88, 104);"/><title>FIT → Center
5.00</title></g><g class="link" style="opacity: 0.8;"><path d="M0,687.6062136516682 A591.3346421007893 591.3346421007893 0.3563317530069967 0 1 206.2804493037169,724.7522279518455 L874.417228236604,973.446531733555 A589.3346421007893 589.3346421007893 0.3563317530069967 0 0 1080,1010.4669115396387 L1080,1012.4669115396387 A591.3346421007893 591.3346421007893 0.3563317530069967 0 1 873.7195506962831,975.3208972394614 L205.58277176339598,726.6265934577518 A589.3346421007893 589.3346421007893 0.3563317530069967 0 0 0,689.6062136516682 Z" style="fill: rgb(59, 179, 50);"/><title>DCLA → FDNY 
 Facilities
6.00</title></g><g class="link" style="opacity: 0.8;"><path d="M0,1219.9836241199876 A1051.9426894474996 1051.9426894474996 0.19167186395421543 0 0 200.39551127234344,1200.7195201694153 L879.223487912151,1068.9901695707053 A1053.9426894474996 1053.9426894474996 0.19167186395421543 0 1 1080,1049.689439853076 L1080,1051.689439853076 A1051.9426894474996 1051.9426894474996 0.19167186395421543 0 0 879.6044887276565,1070.9535438036482 L200.77651208784906,1202.6828944023582 A1053.9426894474996 1053.9426894474996 0.19167186395421543 0 1 0,1221.9836241199876 Z" style="fill: rgb(248, 88, 104);"/><title>DOC → FDNY 
 Facilities
6.00</title></g><g class="link" style="opacity: 0.8;"><path d="M0,973.885062748699 A4271.49787430157 4271.49787430157 0.046521292443083784 0 1 198.64393180366497,978.5064824853597 L881.449077223917,1010.2943957718904 A4269.49787430157 4269.49787430157 0.046521292443083784 0 0 1080,1014.913651668197 L1080,1016.913651668197 A4271.49787430157 4271.49787430157 0.046521292443083784 0 1 881.3560681963351,1012.2922319315363 L198.55092277608296,980.5043186450056 A4269.49787430157 4269.49787430157 0.046521292443083784 0 0 0,975.885062748699 Z" style="fill: rgb(59, 179, 50);"/><title>DPR → FDNY 
 Facilities
7.00</title></g><g class="link" style="opacity: 0.8;"><path d="M0,975.5953474135292 A1037.884316305383 1037.884316305383 0.19474581207891029 0 1 200.84842347091814,995.2145878069771 L879.5386108455573,1129.0833194211873 A1035.884316305383 1035.884316305383 0.19474581207891029 0 0 1080,1148.6647535965717 L1080,1150.6647535965717 A1037.884316305383 1037.884316305383 0.19474581207891029 0 1 879.1515765290819,1131.0455132031238 L200.4613891544427,997.1767815889136 A1035.884316305383 1035.884316305383 0.19474581207891029 0 0 0,977.5953474135292 Z" style="fill: rgb(255, 230, 116);"/><title>DPR → Residence
8.00</title></g><g class="link" style="opacity: 0.8;"><path d="M0,1091.9859198041017 A781.5389097254969 781.5389097254969 0.26167233406438606 0 0 202.18123873401711,1065.381321206995 L877.3013686289227,884.5753594904015 A783.5389097254969 783.5389097254969 0.26167233406438606 0 1 1080,857.9026782981326 L1080,859.9026782981326 A781.5389097254969 781.5389097254969 0.26167233406438606 0 0 877.818761265983,886.5072768952396 L202.6986313710773,1067.3132386118327 A783.5389097254969 783.5389097254969 0.26167233406438606 0 1 0,1093.9859198041017 Z" style="fill: rgb(255, 230, 116);"/><title>FDNY → Storage
8.00</title></g><g class="link" style="opacity: 0.8;"><path d="M0,1063.0901438628712 A2271.2290528023354 2271.2290528023354 0.08765195900732903 0 0 198.82285922316743,1054.370954231019 L880.997479274144,994.4234107281801 A2273.2813944001314 2273.2813944001314 0.08765195900732903 0 1 1080,985.6963422099784 L1080,987.7486838077746 A2271.2290528023354 2271.2290528023354 0.08765195900732903 0 0 881.1771407768325,996.4678734396267 L199.00252072585602,1056.4154169424655 A2273.2813944001314 2273.2813944001314 0.08765195900732903 0 1 0,1065.142485460667 Z" style="fill: rgb(248, 88, 104);"/><title>HHC → Center
9.00</title></g><g class="link" style="opacity: 0.8;"><path d="M0,715.3094582185491 A1282.3253996733774 1282.3253996733774 0.15663802437248497 0 1 200.0405547293242,731.0085487102992 L880.2796070266713,838.4399168918347 A1280.2730580755815 1280.2730580755815 0.15663802437248497 0 0 1080,854.1138812366084 L1080,856.1662228344046 A1282.3253996733774 1282.3253996733774 0.15663802437248497 0 1 879.9594452706758,840.4671323426545 L199.7203929733286,733.035764161119 A1280.2730580755815 1280.2730580755815 0.15663802437248497 0 0 0,717.3617998163453 Z" style="fill: rgb(59, 179, 50);"/><title>DOT → Storage
9.00</title></g><g class="link" style="opacity: 0.8;"><path d="M0,1161.4201101928375 A12286.875402343698 12286.875402343698 0.016156598013638668 0 1 198.50547028859648,1163.0237316200019 L881.5276871269972,1174.0600073157223 A12284.823060745903 12284.823060745903 0.016156598013638668 0 0 1080,1175.6633608815425 L1080,1177.7157024793385 A12286.875402343698 12286.875402343698 0.016156598013638668 0 1 881.4945297114035,1176.112081052174 L198.4723128730028,1165.0758053564537 A12284.823060745903 12284.823060745903 0.016156598013638668 0 0 0,1163.4724517906334 Z" style="fill: rgb(251, 191, 173);"/><title>DCAS → City Hall
9.00</title></g><g class="link" style="opacity: 0.8;"><path d="M0,797.9048056320784 A1719.6368645657803 1719.6368645657803 0.1162034190928829 0 1 199.37826678211397,809.5020767725225 L880.886125155668,889.0540122920129 A1717.3564850126736 1717.3564850126736 0.1162034190928829 0 0 1080,900.6359044995407 L1080,902.9162840526475 A1719.6368645657803 1719.6368645657803 0.1162034190928829 0 1 880.621733217886,891.3190129122033 L199.113874844332,811.767077392713 A1717.3564850126736 1717.3564850126736 0.1162034190928829 0 0 0,800.1851851851851 Z" style="fill: rgb(59, 179, 50);"/><title>EDC → Others
10.0</title></g><g class="link" style="opacity: 0.8;"><path d="M0,937.5780532598715 A4656.560316679722 4656.560316679722 0.04266918054109614 0 1 198.63132673005995,941.8164143009034 L881.475672914271,970.9705183646382 A4654.051899171304 4654.051899171304 0.04266918054109614 0 0 1080,975.206596265687 L1080,977.7150137741046 A4656.560316679722 4656.560316679722 0.04266918054109614 0 1 881.36867326994,973.4766527330727 L198.52432708572908,944.3225486693378 A4654.051899171304 4654.051899171304 0.04266918054109614 0 0 0,940.086470768289 Z" style="fill: rgb(255, 230, 116);"/><title>DFTA → Center
11.0</title></g><g class="link" style="opacity: 0.8;"><path d="M0,825.9762779308234 A1349.7673191641882 1349.7673191641882 0.14866588371034117 0 1 199.9260023476396,840.8647975521576 L880.44554160483,942.7868230197438 A1347.2589016557706 1347.2589016557706 0.14866588371034117 0 0 1080,957.6476737067644 L1080,960.156091215182 A1349.7673191641882 1349.7673191641882 0.14866588371034117 0 1 880.0739976523604,945.2675715938477 L199.5544583951699,843.3455461262615 A1347.2589016557706 1347.2589016557706 0.14866588371034117 0 0 0,828.4846954392409 Z" style="fill: rgb(255, 230, 116);"/><title>HRA → Center
11.0</title></g><g class="link" style="opacity: 0.8;"><path d="M0,1158.227578818488 A783.3100265034283 783.3100265034283 0.26095181005937773 0 0 202.09418658637912,1131.7084992540354 L877.2586410567884,951.4119301815248 A785.8184440118458 785.8184440118458 0.26095181005937773 0 1 1080,924.8079277624731 L1080,927.3163452708907 A783.3100265034283 783.3100265034283 0.26095181005937773 0 0 877.9058134136209,953.8354248353434 L202.74135894321154,1134.131993907854 A785.8184440118458 785.8184440118458 0.26095181005937773 0 1 0,1160.7359963269055 Z" style="fill: rgb(255, 230, 116);"/><title>DCAS → Others
11.0</title></g><g class="link" style="opacity: 0.8;"><path d="M0,1127.191613100704 A21636.752238569872 21636.752238569872 0.009172822475133957 0 0 198.46730400014403,1126.281354044855 L881.5096870540257,1120.0157517904638 A21639.26065607829 21639.26065607829 0.009172822475133957 0 1 1080,1119.1053872053872 L1080,1121.6138047138047 A21636.752238569872 21636.752238569872 0.009172822475133957 0 0 881.532695999856,1122.5240637696536 L198.4903129459744,1128.789666024045 A21639.26065607829 21639.26065607829 0.009172822475133957 0 1 0,1129.7000306091215 Z" style="fill: rgb(251, 191, 173);"/><title>FDNY → Hospital
11.0</title></g><g class="link" style="opacity: 0.8;"><path d="M0,775.0782063054791 A1441.5809447906697 1441.5809447906697 0.13901337600140518 0 1 199.75421478423607,788.9848625907163 L880.5933667869241,884.2450289309219 A1439.0725272822522 1439.0725272822522 0.13901337600140518 0 0 1080,898.1274869911232 L1080,900.6359044995407 A1441.5809447906697 1441.5809447906697 0.13901337600140518 0 1 880.2457852157639,886.7292482143035 L199.40663321307585,791.4690818740979 A1439.0725272822522 1439.0725272822522 0.13901337600140518 0 0 0,777.5866238138966 Z" style="fill: rgb(255, 230, 116);"/><title>DEP → Others
11.0</title></g><g class="link" style="opacity: 0.8;"><path d="M0,685.185644322008 A690.4863565099496 690.4863565099496 0.30010471422625207 0 1 204.1217440592818,716.0465600486428 L876.687207568119,924.1726069191744 A687.7499010462215 687.7499010462215 0.30010471422625207 0 0 1080,954.9112182430363 L1080,957.6476737067644 A690.4863565099496 690.4863565099496 0.30010471422625207 0 1 875.8782559407182,926.7867579801297 L203.31279243188106,718.6607111095981 A687.7499010462215 687.7499010462215 0.30010471422625207 0 0 0,687.9220997857361 Z" style="fill: rgb(59, 179, 50);"/><title>DCLA → Center
12.0</title></g><g class="link" style="opacity: 0.8;"><path d="M0,556.9827058463422 A914.1371370832605 914.1371370832605 0.22242390841178605 0 1 201.65359334565017,579.5019125998191 L879.0003574962401,732.694669593271 A911.1726436642216 911.1726436642216 0.22242390841178605 0 0 1080,755.140847872666 L1080,758.1053412917049 A914.1371370832605 914.1371370832605 0.22242390841178605 0 1 878.3464066543498,735.5861345382281 L200.99964250375996,582.3933775447762 A911.1726436642216 911.1726436642216 0.22242390841178605 0 0 0,559.9471992653812 Z" style="fill: rgb(59, 179, 50);"/><title>CUNY → Office
13.0</title></g><g class="link" style="opacity: 0.8;"><path d="M0,914.2953780226508 A1804.100326261446 1804.100326261446 0.11071796678536105 0 1 199.3384727422765,925.3418399226738 L880.9890797679712,1001.1227150257984 A1801.1358328424074 1801.1358328424074 0.11071796678536105 0 0 1080,1012.1510254055706 L1080,1015.1155188246096 A1804.100326261446 1804.100326261446 0.11071796678536105 0 1 880.6615272577234,1004.0690569245866 L199.01092023202875,928.288181821462 A1801.1358328424074 1801.1358328424074 0.11071796678536105 0 0 0,917.2598714416897 Z" style="fill: rgb(255, 230, 116);"/><title>ACS → FDNY 
 Facilities
13.0</title></g><g class="link" style="opacity: 0.8;"><path d="M0,640.0341291704929 A5457.499157420653 5457.499157420653 0.03639973206282132 0 1 198.60764306481997,643.6491608177193 L881.5085385622185,668.5175544567876 A5454.306626046303 5454.306626046303 0.03639973206282132 0 0 1080,672.1304713804714 L1080,675.3230027548209 A5457.499157420653 5457.499157420653 0.03639973206282132 0 1 881.39235693518,671.7079711075944 L198.49146143778154,646.8395774685262 A5454.306626046303 5454.306626046303 0.03639973206282132 0 0 0,643.2266605448424 Z" style="fill: rgb(251, 191, 173);"/><title>DCLA → Museum
14.0</title></g><g class="link" style="opacity: 0.8;"><path d="M0,593.4915824915824 A649.1090540908741 649.1090540908741 0.32151933955239986 0 1 205.12391873996603,626.7542741969105 L876.1011337504278,850.2409814903285 A645.2324088505926 645.2324088505926 0.32151933955239986 0 0 1080,883.3050198959288 L1080,887.1816651362103 A649.1090540908741 649.1090540908741 0.32151933955239986 0 1 874.876081260034,853.9189734308823 L203.89886624957222,630.4322661374642 A645.2324088505926 645.2324088505926 0.32151933955239986 0 0 0,597.368227731864 Z" style="fill: rgb(59, 179, 50);"/><title>DSNY → Others
17.0</title></g><g class="link" style="opacity: 0.8;"><path d="M0,1020.4242424242424 A1736.1542975224802 1736.1542975224802 0.1148696615416056 0 0 198.99316149382454,1008.9825199369386 L880.5363711708775,930.3477143749051 A1740.2589807180725 1740.2589807180725 0.1148696615416056 0 1 1080,918.8789409243954 L1080,922.9836241199877 A1736.1542975224802 1736.1542975224802 0.1148696615416056 0 0 881.0068385061755,934.4253466072914 L199.46362882912248,1013.060152169325 A1740.2589807180725 1740.2589807180725 0.1148696615416056 0 1 0,1024.5289256198346 Z" style="fill: rgb(248, 88, 104);"/><title>NYPD → Others
18.0</title></g><g class="link" style="opacity: 0.8;"><path d="M0,870.7173247627793 A1971.7808904832127 1971.7808904832127 0.10123808827541225 0 1 199.27851446022513,880.8132370322887 L881.1593730549089,950.0823633439688 A1967.4481693323096 1967.4481693323096 0.10123808827541225 0 0 1080,960.156091215182 L1080,964.4888123660849 A1971.7808904832127 1971.7808904832127 0.10123808827541225 0 1 880.7214855397749,954.3929000965754 L198.84062694509115,885.1237737848953 A1967.4481693323096 1967.4481693323096 0.10123808827541225 0 0 0,875.0500459136822 Z" style="fill: rgb(251, 191, 173);"/><title>DOHMH → Center
19.0</title></g><g class="link" style="opacity: 0.8;"><path d="M0,820.503367003367 A2884.2741458111163 2884.2741458111163 0.0689037421138019 0 0 198.58006090582336,813.6592042856855 L881.0902340924782,766.5571331470009 A2889.062942872641 2889.062942872641 0.0689037421138019 0 1 1080,759.7016069788796 L1080,764.4904040404039 A2884.2741458111163 2884.2741458111163 0.0689037421138019 0 0 881.4199390941766,771.3345667580853 L198.90976590752172,818.43663789677 A2889.062942872641 2889.062942872641 0.0689037421138019 0 1 0,825.2921640648913 Z" style="fill: rgb(251, 191, 173);"/><title>HRA → Office
21.0</title></g><g class="link" style="opacity: 0.8;"><path d="M0,689.2903275176003 A455.39904023536644 455.39904023536644 0.48933169564476287 0 1 214.0539962047742,742.7326878034237 L868.1969113674138,1091.0834232537718 A450.61024317384215 450.61024317384215 0.48933169564476287 0 0 1080,1143.9638047138046 L1080,1148.752601775329 A455.39904023536644 455.39904023536644 0.48933169564476287 0 1 865.9460037952258,1095.3102414895056 L211.80308863258614,746.9595060391573 A450.61024317384215 450.61024317384215 0.48933169564476287 0 0 0,694.0791245791246 Z" style="fill: rgb(59, 179, 50);"/><title>DCLA → Residence
21.0</title></g><g class="link" style="opacity: 0.8;"><path d="M0,1194.9644934190387 A2371.5497239006463 2371.5497239006463 0.08404734400890135 0 1 199.08787083862234,1203.3358252768467 L881.333284573716,1260.8121407625001 A2366.532888883811 2366.532888883811 0.08404734400890135 0 0 1080,1269.1657636975817 L1080,1274.1825987144168 A2371.5497239006463 2371.5497239006463 0.08404734400890135 0 1 880.9121291613777,1265.8112668566089 L198.666715426284,1208.3349513709554 A2366.532888883811 2366.532888883811 0.08404734400890135 0 0 0,1199.9813284358738 Z" style="fill: rgb(251, 191, 173);"/><title>DHS → Shelter
22.0</title></g><g class="link" style="opacity: 0.8;"><path d="M0,717.3617998163453 A1024.3822257869913 1024.3822257869913 0.19771143616872333 0 1 201.2151674165066,737.3181194709541 L879.7702687540965,873.2520668964127 A1019.3653907701563 1019.3653907701563 0.19771143616872333 0 0 1080,893.1106519742882 L1080,898.1274869911233 A1024.3822257869913 1024.3822257869913 0.19771143616872333 0 1 878.7848325834933,878.1711673365145 L200.22973124590348,742.237219911056 A1019.3653907701563 1019.3653907701563 0.19771143616872333 0 0 0,722.3786348331804 Z" style="fill: rgb(248, 88, 104);"/><title>DOT → Others
22.0</title></g><g class="link" style="opacity: 0.8;"><path d="M0,1189.035506580961 A705.1382677065835 705.1382677065835 0.2915187860741988 0 0 202.66185899019476,1159.2846443646488 L875.8307264283224,957.288496701365 A710.3831406787292 710.3831406787292 0.2915187860741988 0 1 1080,927.3163452708906 L1080,932.5612182430363 A705.1382677065835 705.1382677065835 0.2915187860741988 0 0 877.3381410098052,962.3120804593487 L204.16927357167762,1164.3082281226323 A710.3831406787292 710.3831406787292 0.2915187860741988 0 1 0,1194.280379553107 Z" style="fill: rgb(251, 191, 173);"/><title>DHS → Others
23.0</title></g><g class="link" style="opacity: 0.8;"><path d="M0,1163.4724517906336 A2274.2814156534355 2274.2814156534355 0.08767512689548385 0 1 199.14255031944953,1172.2079724688956 L881.3167056778891,1232.1714017516133 A2269.03654268129 2269.03654268129 0.08767512689548385 0 0 1080,1240.886776859504 L1080,1246.1316498316498 A2274.2814156534355 2274.2814156534355 0.08767512689548385 0 1 880.8574496805504,1237.3961291533878 L198.6832943221109,1177.4326998706701 A2269.03654268129 2269.03654268129 0.08767512689548385 0 0 0,1168.7173247627795 Z" style="fill: rgb(251, 191, 173);"/><title>DCAS → Court
23.0</title></g><g class="link" style="opacity: 0.8;"><path d="M0,679.2566574839302 A875.6104698208595 875.6104698208595 0.23314132059160597 0 1 202.2966578662225,702.9459120060609 L879.0731455603187,863.652816734274 A869.6814829827819 869.6814829827819 0.23314132059160597 0 0 1080,887.1816651362104 L1080,893.1106519742881 A875.6104698208595 875.6104698208595 0.23314132059160597 0 1 877.7033421337775,869.4213974521574 L200.9268544396813,708.7144927239443 A869.6814829827819 869.6814829827819 0.23314132059160597 0 0 0,685.1856443220079 Z" style="fill: rgb(59, 179, 50);"/><title>DCLA → Others
26.0</title></g><g class="link" style="opacity: 0.8;"><path d="M0,961.0887664524029 A3621.5301124479497 3621.5301124479497 0.05483214612618026 0 0 198.4767778986689,955.6459488581355 L881.1857883635213,918.1739871518186 A3627.6871372413384 3627.6871372413384 0.05483214612618026 0 1 1080,912.7219161310069 L1080,918.8789409243954 A3621.5301124479497 3621.5301124479497 0.05483214612618026 0 0 881.523222101331,924.3217585186627 L198.81421163647866,961.7937202249797 A3627.6871372413384 3627.6871372413384 0.05483214612618026 0 1 0,967.2457912457913 Z" style="fill: rgb(248, 88, 104);"/><title>DPR → Others
27.0</title></g><g class="link" style="opacity: 0.8;"><path d="M0,617.6864095500459 A5007.649256956677 5007.649256956677 0.03963807480768278 0 0 198.44160185174428,613.7529729965696 L881.3144094421889,586.6710245680268 A5013.806281750066 5013.806281750066 0.03963807480768278 0 1 1080,582.7327517600245 L1080,588.889776553413 A5007.649256956677 5007.649256956677 0.03963807480768278 0 0 881.5583981482557,592.8232131068893 L198.685590557811,619.9051615354321 A5013.806281750066 5013.806281750066 0.03963807480768278 0 1 0,623.8434343434344 Z" style="fill: rgb(248, 88, 104);"/><title>DCLA → Aquareium
27.0</title></g><g class="link" style="opacity: 0.8;"><path d="M0,1130.840220385675 A2540.8553511042596 2540.8553511042596 0.07842653649396225 0 1 199.06627151884712,1138.650263016607 L881.4161077589564,1192.2745852178082 A2534.698326310871 2534.698326310871 0.07842653649396225 0 0 1080,1200.0657024793386 L1080,1206.2227272727268 A2540.8553511042596 2540.8553511042596 0.07842653649396225 0 1 880.9337284811528,1198.4126846417948 L198.58389224104357,1144.7883624405936 A2534.698326310871 2534.698326310871 0.07842653649396225 0 0 0,1136.9972451790632 Z" style="fill: rgb(255, 230, 116);"/><title>FDNY → Island 
 Campus
27.0</title></g><g class="link" style="opacity: 0.8;"><path d="M0,1065.1424854606673 A3705.4615055137933 3705.4615055137933 0.05368057165260942 0 1 198.81577502765913,1070.4800394770652 L881.5390495305901,1107.164258365135 A3698.848404809784 3698.848404809784 0.05368057165260942 0 0 1080,1112.4922865013773 L1080,1119.1053872053872 A3705.4615055137933 3705.4615055137933 0.05368057165260942 0 1 881.1842249723409,1113.7678331889892 L198.46095046940985,1077.0836143009194 A3698.848404809784 3698.848404809784 0.05368057165260942 0 0 0,1071.7555861646772 Z" style="fill: rgb(248, 88, 104);"/><title>HHC → Hospital
29.0</title></g><g class="link" style="opacity: 0.8;"><path d="M0,967.2457912457912 A16716.833644640745 16716.833644640745 0.011875893704318852 0 1 198.52267285763494,968.4246221810844 L881.5585698681653,976.5366652594691 A16709.992505981423 16709.992505981423 0.011875893704318852 0 0 1080,977.7150137741045 L1080,984.5561524334249 A16716.833644640745 16716.833644640745 0.011875893704318852 0 1 881.4773271423651,983.3773214981318 L198.44143013183484,975.265278419747 A16709.992505981423 16709.992505981423 0.011875893704318852 0 0 0,974.0869299051117 Z" style="fill: rgb(251, 191, 173);"/><title>DPR → Center
30.0</title></g><g class="link" style="opacity: 0.8;"><path d="M0,632.736914600551 A17956.460534905294 17956.460534905294 0.011055929515836338 0 1 198.52131764165838,633.8343446267581 L881.5593582047159,641.3862727621007 A17949.163320335356 17949.163320335356 0.011055929515836338 0 0 1080,642.4832568105295 L1080,649.7804713804713 A17956.460534905294 17956.460534905294 0.011055929515836338 0 1 881.4786823583415,648.6830413542642 L198.44064179528417,641.1311132189217 A17949.163320335356 17949.163320335356 0.011055929515836338 0 0 0,640.0341291704929 Z" style="fill: rgb(255, 230, 116);"/><title>DCLA → Harbor
32.0</title></g><g class="link" style="opacity: 0.8;"><path d="M0,896.0523415977962 A19138.31876300754 19138.31876300754 0.01037304987222809 0 1 198.51917483863383,897.0819754808072 L881.5588835812443,904.1674345783147 A19130.79351048229 19130.79351048229 0.01037304987222809 0 0 1080,905.1966636057543 L1080,912.7219161310068 A19138.31876300754 19138.31876300754 0.01037304987222809 0 1 881.480825161366,911.6922822479958 L198.44111641875566,904.6068231504883 A19130.79351048229 19130.79351048229 0.01037304987222809 0 0 0,903.5775941230486 Z" style="fill: rgb(255, 230, 116);"/><title>ACS → Others
33.0</title></g><g class="link" style="opacity: 0.8;"><path d="M0,623.8434343434344 A13879.12823022567 13879.12823022567 0.014296924656867382 0 0 198.42209080216293,622.424997341171 L881.4507641122199,612.659122463013 A13888.021710482786 13888.021710482786 0.014296924656867382 0 1 1080,611.2397765534129 L1080,620.1332568105295 A13879.12823022567 13879.12823022567 0.014296924656867382 0 0 881.5779091978371,621.5516938127929 L198.54923588778018,631.3175686909509 A13888.021710482786 13888.021710482786 0.014296924656867382 0 1 0,632.736914600551 Z" style="fill: rgb(59, 179, 50);"/><title>DCLA → Garden
39.0</title></g><g class="link" style="opacity: 0.8;"><path d="M0,582.7737985919804 A717.9895159530687 717.9895159530687 0.28935994871288084 0 1 204.87029658235855,612.6229897589061 L878.1879034573766,813.0803279587539 A707.2717320534665 707.2717320534665 0.28935994871288084 0 0 1080,842.4839455157636 L1080,853.2017294153658 A717.9895159530687 717.9895159530687 0.28935994871288084 0 1 875.1297034176415,823.35253824844 L201.8120965426234,622.8952000485923 A707.2717320534665 707.2717320534665 0.28935994871288084 0 0 0,593.4915824915826 Z" style="fill: rgb(251, 191, 173);"/><title>DSNY → Storage
47.0</title></g><g class="link" style="opacity: 0.8;"><path d="M0,903.5775941230486 A2886.8728648909578 2886.8728648909578 0.06902753523805383 0 1 199.1155061833596,910.4525504659689 L881.6237286448473,957.6393799377432 A2876.1550809913556 2876.1550809913556 0.06902753523805383 0 0 1080,964.488812366085 L1080,975.2065962656872 A2886.8728648909578 2886.8728648909578 0.06902753523805383 0 1 880.8844938166404,968.3316399227668 L198.37627135515257,921.1448104509925 A2876.1550809913556 2876.1550809913556 0.06902753523805383 0 0 0,914.2953780226508 Z" style="fill: rgb(59, 179, 50);"/><title>ACS → Center
47.0</title></g><g class="link" style="opacity: 0.8;"><path d="M0,1222.5798898071623 A10692.528223733967 10692.528223733967 0.018554151293965093 0 0 198.37940368679025,1220.7394562736147 L881.3921326830113,1208.0652803414603 A10704.842273320744 10704.842273320744 0.018554151293965093 0 1 1080,1206.222727272727 L1080,1218.536776859504 A10692.528223733967 10692.528223733967 0.018554151293965093 0 0 881.6205963132098,1220.3772103930517 L198.60786731698877,1233.051386325206 A10704.842273320744 10704.842273320744 0.018554151293965093 0 1 0,1234.8939393939393 Z" style="fill: rgb(248, 88, 104);"/><title>DOC → Island 
 Campus
54.0</title></g><g class="link" style="opacity: 0.8;"><path d="M0,1255.8962350780532 A4318.2119109541745 4318.2119109541745 0.04607696088058666 0 1 198.89968365880054,1260.4793924481958 L881.7095238859681,1291.9634790440707 A4304.985709546156 4304.985709546156 0.04607696088058666 0 0 1080,1296.5325987144167 L1080,1309.7588001224365 A4318.2119109541745 4318.2119109541745 0.04607696088058666 0 1 881.1003163411995,1305.175642752294 L198.290476114032,1273.691556156419 A4304.985709546156 4304.985709546156 0.04607696088058666 0 0 0,1269.122436486073 Z" style="fill: rgb(251, 191, 173);"/><title>BPL → Library
58.0</title></g><g class="link" style="opacity: 0.8;"><path d="M0,1327.5457606366697 A0 0 0 0 0 0,1327.5457606366697 L1080,1327.5457606366695 A0 0 0 0 1 1080,1327.5457606366695 L1080,1340.9999999999995 A0 0 0 0 0 1080,1340.9999999999995 L0,1340.9999999999998 A0 0 0 0 1 0,1340.9999999999998 Z" style="fill: rgb(251, 191, 173);"/><title>QPL → Library
59.0</title></g><g class="link" style="opacity: 0.8;"><path d="M0,1025.4410774410774 A3639.1266917202697 3639.1266917202697 0.0547366154208655 0 1 199.09402592611295,1030.8913048580864 L881.8042312347835,1068.29791622017 A3622.7079589379005 3622.7079589379005 0.0547366154208655 0 0 1080,1073.7235537190081 L1080,1090.1422865013774 A3639.1266917202697 3639.1266917202697 0.0547366154208655 0 1 880.905974073887,1084.6920590843683 L198.19576876521657,1047.2854477222847 A3622.7079589379005 3622.7079589379005 0.0547366154208655 0 0 0,1041.8598102234466 Z" style="fill: rgb(251, 191, 173);"/><title>NYPD → Police 
 Precinct
72.0</title></g><g class="link" style="opacity: 0.8;"><path d="M0,1289.4406183042547 A8622.947918939362 8622.947918939362 0.023046274342150008 0 1 198.70923219029183,1291.730473395879 L881.7006546952615,1307.4736684226823 A8605.16095842513 8605.16095842513 0.023046274342150008 0 0 1080,1309.7588001224362 L1080,1327.5457606366695 A8622.947918939362 8622.947918939362 0.023046274342150008 0 1 881.2907678097082,1325.2559055450452 L198.29934530473852,1309.5127105182419 A8605.16095842513 8605.16095842513 0.023046274342150008 0 0 0,1307.227578818488 Z" style="fill: rgb(251, 191, 173);"/><title>NYPL → Library
78.0</title></g><g class="link" style="opacity: 0.8;"><path d="M0,1095.4943373125193 A2242.6419784393493 2242.6419784393493 0.0881899533301429 0 0 197.52222178119092,1086.7789501829607 L879.6860190355397,1026.4625058662427 A2274.339254227534 2274.339254227534 0.0881899533301429 0 1 1080,1017.6239363330269 L1080,1049.3212121212118 A2242.6419784393493 2242.6419784393493 0.0881899533301429 0 0 882.477778218809,1058.0365992507705 L200.3139809644603,1118.3530435674884 A2274.339254227534 2274.339254227534 0.0881899533301429 0 1 0,1127.1916131007042 Z" style="fill: rgb(248, 88, 104);"/><title>FDNY → FDNY 
 Facilities
139</title></g><g class="link" style="opacity: 0.8;"><path d="M0,742.6968166513622 A3906.1391457307677 3906.1391457307677 0.051082743760900495 0 1 199.4495365049871,747.7921394805932 L882.2038744250766,782.6994726014098 A3873.757756076651 3873.757756076651 0.051082743760900495 0 0 1080,787.7525558616467 L1080,820.1339455157636 A3906.1391457307677 3906.1391457307677 0.051082743760900495 0 1 880.5504634950129,815.0386226865326 L197.79612557492337,780.131289565716 A3873.757756076651 3873.757756076651 0.051082743760900495 0 0 0,775.0782063054791 Z" style="fill: rgb(248, 88, 104);"/><title>DEP → WPCP
142</title></g><g class="link" style="opacity: 0.8;"><path d="M0,643.2266605448424 A3239.1648837186062 3239.1648837186062 0.06171377267869982 0 1 199.77421926039148,649.3930281433634 L882.3916600147847,691.5734886663985 A3204.0470386007614 3204.0470386007614 0.06171377267869982 0 0 1080,697.6730027548209 L1080,732.790847872666 A3239.1648837186062 3239.1648837186062 0.06171377267869982 0 1 880.2257807396086,726.624480274145 L197.6083399852152,684.4440197511099 A3204.0470386007614 3204.0470386007614 0.06171377267869982 0 0 0,678.3445056626874 Z" style="fill: rgb(248, 88, 104);"/><title>DCLA → Zoo
154</title></g><g class="link" style="opacity: 0.8;"><path d="M0,488.1152433425161 A532.3643588178708 532.3643588178708 0.3732533999233023 0 0 194.12493142267581,451.45979259439554 L860.7627724320771,190.39725556308312 A601.2318213216969 601.2318213216969 0.3732533999233023 0 1 1080,149 L1080,217.86746250382612 A532.3643588178708 532.3643588178708 0.3732533999233023 0 0 885.8750685773241,254.52291325194668 L219.23722756792287,515.5854502832591 A601.2318213216969 601.2318213216969 0.3732533999233023 0 1 0,556.9827058463422 Z" style="fill: rgb(255, 230, 116);"/><title>CUNY → College
302</title></g><g class="link" style="opacity: 0.8;"><path d="M0,149 A2091.134943759343 2091.134943759343 0.10324242713844911 0 1 215.51051604627617,160.13480662356432 L897.3444268870732,230.78017599622927 A1772.337882235009 1772.337882235009 0.10324242713844911 0 0 1080,240.21746250382614 L1080,559.0145240281604 A2091.134943759343 2091.134943759343 0.10324242713844911 0 1 864.4894839537238,547.879717404596 L182.6555731129269,477.2343480319311 A1772.337882235009 1772.337882235009 0.10324242713844911 0 0 0,467.79706152433425 Z" style="fill: rgb(59, 179, 50);"/><title>DOE → School
1.40k</title></g></g><g class="nodes"><g class="node" transform="translate(0,149)"><title>DOE</title><text dy=".35em" text-anchor="end" transform="translate(-4, 159.39852905273438)">DOE</text><line x1="0" x2="0" y1="0" y2="318.79706152433425" style="stroke: rgb(0, 0, 0);"/><rect x="-5" y="-5" width="10" style="fill: none; visibility: hidden; pointer-events: all;" height="323.79706152433425"/></g><g class="node" transform="translate(1080,240.21746250382614)"><title>School</title><text dy=".35em" text-anchor="start" transform="translate(4, 160.0826416015625)">School</text><line x1="0" x2="0" y1="0" y2="320.1652892561983" style="stroke: rgb(0, 0, 0);"/><rect x="-5" y="-5" width="10" style="fill: none; visibility: hidden; pointer-events: all;" height="325.1652892561983"/></g><g class="node" transform="translate(0,488.11524334251607)"><title>CUNY</title><text dy=".35em" text-anchor="end" transform="translate(-4, 36.4860725402832)">CUNY</text><line x1="0" x2="0" y1="0" y2="72.97214569941842" style="stroke: rgb(0, 0, 0);"/><rect x="-5" y="-5" width="10" style="fill: none; visibility: hidden; pointer-events: all;" height="77.97214569941842"/></g><g class="node" transform="translate(1080,149)"><title>College</title><text dy=".35em" text-anchor="start" transform="translate(4, 34.43373107910156)">College</text><line x1="0" x2="0" y1="0" y2="68.86746250382613" style="stroke: rgb(0, 0, 0);"/><rect x="-5" y="-5" width="10" style="fill: none; visibility: hidden; pointer-events: all;" height="73.86746250382613"/></g><g class="node" transform="translate(0,617.6864095500459)"><title>DCLA</title><text dy=".35em" text-anchor="end" transform="translate(-4, 38.19635772705078)">DCLA</text><line x1="0" x2="0" y1="0" y2="76.39271502907866" style="stroke: rgb(0, 0, 0);"/><rect x="-5" y="-5" width="10" style="fill: none; visibility: hidden; pointer-events: all;" height="81.39271502907866"/></g><g class="node" transform="translate(1080,697.6730027548209)"><title>Zoo</title><text dy=".35em" text-anchor="start" transform="translate(4, 17.558921813964844)">Zoo</text><line x1="0" x2="0" y1="0" y2="35.117845117845114" style="stroke: rgb(0, 0, 0);"/><rect x="-5" y="-5" width="10" style="fill: none; visibility: hidden; pointer-events: all;" height="40.117845117845114"/></g><g class="node" transform="translate(0,742.6968166513622)"><title>DEP</title><text dy=".35em" text-anchor="end" transform="translate(-4, 17.444904327392578)">DEP</text><line x1="0" x2="0" y1="0" y2="34.88980716253443" style="stroke: rgb(0, 0, 0);"/><rect x="-5" y="-5" width="10" style="fill: none; visibility: hidden; pointer-events: all;" height="39.88980716253443"/></g><g class="node" transform="translate(1080,787.7525558616467)"><title>WPCP</title><text dy=".35em" text-anchor="start" transform="translate(4, 16.19069480895996)">WPCP</text><line x1="0" x2="0" y1="0" y2="32.38138965411692" style="stroke: rgb(0, 0, 0);"/><rect x="-5" y="-5" width="10" style="fill: none; visibility: hidden; pointer-events: all;" height="37.38138965411692"/></g><g class="node" transform="translate(0,1092.073767982859)"><title>FDNY</title><text dy=".35em" text-anchor="end" transform="translate(-4, 22.46173858642578)">FDNY</text><line x1="0" x2="0" y1="0" y2="44.923477196204466" style="stroke: rgb(0, 0, 0);"/><rect x="-5" y="-5" width="10" style="fill: none; visibility: hidden; pointer-events: all;" height="49.923477196204466"/></g><g class="node" transform="translate(1080,1010.7827976737066)"><title>FDNY 
 Facilities</title><text dy=".35em" text-anchor="start" transform="translate(4, 20.295377731323242)"><tspan x="0" dy="-0.33000000000000007em">FDNY </tspan><tspan x="0" dy="1.1em"> Facilities</tspan></text><line x1="0" x2="0" y1="0" y2="40.5907560453015" style="stroke: rgb(0, 0, 0);"/><rect x="-5" y="-5" width="10" style="fill: none; visibility: hidden; pointer-events: all;" height="45.5907560453015"/></g><g class="node" transform="translate(0,1289.4406183042547)"><title>NYPL</title><text dy=".35em" text-anchor="end" transform="translate(-4, 8.89348030090332)">NYPL</text><line x1="0" x2="0" y1="0" y2="17.78696051423324" style="stroke: rgb(0, 0, 0);"/><rect x="-5" y="-5" width="10" style="fill: none; visibility: hidden; pointer-events: all;" height="22.78696051423324"/></g><g class="node" transform="translate(1080,1296.5325987144167)"><title>Library</title><text dy=".35em" text-anchor="start" transform="translate(4, 22.233699798583984)">Library</text><line x1="0" x2="0" y1="0" y2="44.4674012855831" style="stroke: rgb(0, 0, 0);"/><rect x="-5" y="-5" width="10" style="fill: none; visibility: hidden; pointer-events: all;" height="49.4674012855831"/></g><g class="node" transform="translate(0,1019.284052647689)"><title>NYPD</title><text dy=".35em" text-anchor="end" transform="translate(-4, 11.28787899017334)">NYPD</text><line x1="0" x2="0" y1="0" y2="22.575757575757574" style="stroke: rgb(0, 0, 0);"/><rect x="-5" y="-5" width="10" style="fill: none; visibility: hidden; pointer-events: all;" height="27.575757575757574"/></g><g class="node" transform="translate(1080,1073.7235537190081)"><title>Police 
 Precinct</title><text dy=".35em" text-anchor="start" transform="translate(4, 8.209366798400879)"><tspan x="0" dy="-0.33000000000000007em">Police </tspan><tspan x="0" dy="1.1em"> Precinct</tspan></text><line x1="0" x2="0" y1="0" y2="16.418732782369144" style="stroke: rgb(0, 0, 0);"/><rect x="-5" y="-5" width="10" style="fill: none; visibility: hidden; pointer-events: all;" height="21.418732782369144"/></g><g class="node" transform="translate(0,1327.5457606366697)"><title>QPL</title><text dy=".35em" text-anchor="end" transform="translate(-4, 6.727119445800781)">QPL</text><line x1="0" x2="0" y1="0" y2="13.454239363330272" style="stroke: rgb(0, 0, 0);"/><rect x="-5" y="-5" width="10" style="fill: none; visibility: hidden; pointer-events: all;" height="18.454239363330274"/></g><g class="node" transform="translate(0,1255.8962350780532)"><title>BPL</title><text dy=".35em" text-anchor="end" transform="translate(-4, 6.613101005554199)">BPL</text><line x1="0" x2="0" y1="0" y2="13.22620140801959" style="stroke: rgb(0, 0, 0);"/><rect x="-5" y="-5" width="10" style="fill: none; visibility: hidden; pointer-events: all;" height="18.22620140801959"/></g><g class="node" transform="translate(0,1220.2995102540556)"><title>DOC</title><text dy=".35em" text-anchor="end" transform="translate(-4, 7.639271259307861)">DOC</text><line x1="0" x2="0" y1="0" y2="15.278543005815733" style="stroke: rgb(0, 0, 0);"/><rect x="-5" y="-5" width="10" style="fill: none; visibility: hidden; pointer-events: all;" height="20.278543005815735"/></g><g class="node" transform="translate(1080,1200.0657024793386)"><title>Island 
 Campus</title><text dy=".35em" text-anchor="start" transform="translate(4, 9.2355375289917)"><tspan x="0" dy="-0.33000000000000007em">Island </tspan><tspan x="0" dy="1.1em"> Campus</tspan></text><line x1="0" x2="0" y1="0" y2="18.471074380165287" style="stroke: rgb(0, 0, 0);"/><rect x="-5" y="-5" width="10" style="fill: none; visibility: hidden; pointer-events: all;" height="23.471074380165287"/></g><g class="node" transform="translate(0,895.3682277318641)"><title>ACS</title><text dy=".35em" text-anchor="end" transform="translate(-4, 10.945821762084961)">ACS</text><line x1="0" x2="0" y1="0" y2="21.891643709825527" style="stroke: rgb(0, 0, 0);"/><rect x="-5" y="-5" width="10" style="fill: none; visibility: hidden; pointer-events: all;" height="26.891643709825527"/></g><g class="node" transform="translate(1080,954.9112182430363)"><title>Center</title><text dy=".35em" text-anchor="start" transform="translate(4, 16.76078987121582)">Center</text><line x1="0" x2="0" y1="0" y2="33.521579430670336" style="stroke: rgb(0, 0, 0);"/><rect x="-5" y="-5" width="10" style="fill: none; visibility: hidden; pointer-events: all;" height="38.521579430670336"/></g><g class="node" transform="translate(0,581.4055708601163)"><title>DSNY</title><text dy=".35em" text-anchor="end" transform="translate(-4, 7.98132848739624)">DSNY</text><line x1="0" x2="0" y1="0" y2="15.96265687174778" style="stroke: rgb(0, 0, 0);"/><rect x="-5" y="-5" width="10" style="fill: none; visibility: hidden; pointer-events: all;" height="20.962656871747782"/></g><g class="node" transform="translate(1080,842.4839455157636)"><title>Storage</title><text dy=".35em" text-anchor="start" transform="translate(4, 8.66544246673584)">Storage</text><line x1="0" x2="0" y1="0" y2="17.330884603611874" style="stroke: rgb(0, 0, 0);"/><rect x="-5" y="-5" width="10" style="fill: none; visibility: hidden; pointer-events: all;" height="22.330884603611874"/></g><g class="node" transform="translate(1080,611.2397765534129)"><title>Garden</title><text dy=".35em" text-anchor="start" transform="translate(4, 4.44674015045166)">Garden</text><line x1="0" x2="0" y1="0" y2="8.89348025711662" style="stroke: rgb(0, 0, 0);"/><rect x="-5" y="-5" width="10" style="fill: none; visibility: hidden; pointer-events: all;" height="13.89348025711662"/></g><g class="node" transform="translate(1080,882.1648301193754)"><title>Others</title><text dy=".35em" text-anchor="start" transform="translate(4, 25.19819450378418)">Others</text><line x1="0" x2="0" y1="0" y2="50.39638812366085" style="stroke: rgb(0, 0, 0);"/><rect x="-5" y="-5" width="10" style="fill: none; visibility: hidden; pointer-events: all;" height="55.39638812366085"/></g><g class="node" transform="translate(1080,642.4832568105295)"><title>Harbor</title><text dy=".35em" text-anchor="start" transform="translate(4, 3.6486072540283203)">Harbor</text><line x1="0" x2="0" y1="0" y2="7.2972145699418425" style="stroke: rgb(0, 0, 0);"/><rect x="-5" y="-5" width="10" style="fill: none; visibility: hidden; pointer-events: all;" height="12.297214569941843"/></g><g class="node" transform="translate(0,960.4046525864708)"><title>DPR</title><text dy=".35em" text-anchor="end" transform="translate(-4, 8.551423072814941)">DPR</text><line x1="0" x2="0" y1="0" y2="17.102846648301192" style="stroke: rgb(0, 0, 0);"/><rect x="-5" y="-5" width="10" style="fill: none; visibility: hidden; pointer-events: all;" height="22.102846648301192"/></g><g class="node" transform="translate(0,1062.1779920416284)"><title>HHC</title><text dy=".35em" text-anchor="end" transform="translate(-4, 4.788796901702881)">HHC</text><line x1="0" x2="0" y1="0" y2="9.577594123048668" style="stroke: rgb(0, 0, 0);"/><rect x="-5" y="-5" width="10" style="fill: none; visibility: hidden; pointer-events: all;" height="14.577594123048668"/></g><g class="node" transform="translate(1080,1112.4922865013773)"><title>Hospital</title><text dy=".35em" text-anchor="start" transform="translate(4, 4.5607590675354)">Hospital</text><line x1="0" x2="0" y1="0" y2="9.121518212427302" style="stroke: rgb(0, 0, 0);"/><rect x="-5" y="-5" width="10" style="fill: none; visibility: hidden; pointer-events: all;" height="14.121518212427302"/></g><g class="node" transform="translate(1080,582.7327517600245)"><title>Aquareium</title><text dy=".35em" text-anchor="start" transform="translate(4, 3.07851243019104)">Aquareium</text><line x1="0" x2="0" y1="0" y2="6.1570247933884295" style="stroke: rgb(0, 0, 0);"/><rect x="-5" y="-5" width="10" style="fill: none; visibility: hidden; pointer-events: all;" height="11.15702479338843"/></g><g class="node" transform="translate(0,1157.3154269972451)"><title>DCAS</title><text dy=".35em" text-anchor="end" transform="translate(-4, 5.700948715209961)">DCAS</text><line x1="0" x2="0" y1="0" y2="11.401897765534128" style="stroke: rgb(0, 0, 0);"/><rect x="-5" y="-5" width="10" style="fill: none; visibility: hidden; pointer-events: all;" height="16.40189776553413"/></g><g class="node" transform="translate(1080,1240.886776859504)"><title>Court</title><text dy=".35em" text-anchor="start" transform="translate(4, 2.9644935131073)">Court</text><line x1="0" x2="0" y1="0" y2="5.928986838077747" style="stroke: rgb(0, 0, 0);"/><rect x="-5" y="-5" width="10" style="fill: none; visibility: hidden; pointer-events: all;" height="10.928986838077748"/></g><g class="node" transform="translate(0,1189.035506580961)"><title>DHS</title><text dy=".35em" text-anchor="end" transform="translate(-4, 5.4729108810424805)">DHS</text><line x1="0" x2="0" y1="0" y2="10.945821854912763" style="stroke: rgb(0, 0, 0);"/><rect x="-5" y="-5" width="10" style="fill: none; visibility: hidden; pointer-events: all;" height="15.945821854912763"/></g><g class="node" transform="translate(1080,1269.1657636975817)"><title>Shelter</title><text dy=".35em" text-anchor="start" transform="translate(4, 2.5084176063537598)">Shelter</text><line x1="0" x2="0" y1="0" y2="5.016835016835016" style="stroke: rgb(0, 0, 0);"/><rect x="-5" y="-5" width="10" style="fill: none; visibility: hidden; pointer-events: all;" height="10.016835016835017"/></g><g class="node" transform="translate(0,714.3973063973065)"><title>DOT</title><text dy=".35em" text-anchor="end" transform="translate(-4, 3.99066424369812)">DOT</text><line x1="0" x2="0" y1="0" y2="7.98132843587389" style="stroke: rgb(0, 0, 0);"/><rect x="-5" y="-5" width="10" style="fill: none; visibility: hidden; pointer-events: all;" height="12.981328435873891"/></g><g class="node" transform="translate(0,820.503367003367)"><title>HRA</title><text dy=".35em" text-anchor="end" transform="translate(-4, 3.99066424369812)">HRA</text><line x1="0" x2="0" y1="0" y2="7.98132843587389" style="stroke: rgb(0, 0, 0);"/><rect x="-5" y="-5" width="10" style="fill: none; visibility: hidden; pointer-events: all;" height="12.981328435873891"/></g><g class="node" transform="translate(1080,755.140847872666)"><title>Office</title><text dy=".35em" text-anchor="start" transform="translate(4, 5.13085412979126)">Office</text><line x1="0" x2="0" y1="0" y2="10.261707988980715" style="stroke: rgb(0, 0, 0);"/><rect x="-5" y="-5" width="10" style="fill: none; visibility: hidden; pointer-events: all;" height="15.261707988980715"/></g><g class="node" transform="translate(1080,1143.9638047138046)"><title>Residence</title><text dy=".35em" text-anchor="start" transform="translate(4, 4.674777984619141)">Residence</text><line x1="0" x2="0" y1="0" y2="9.349556167737985" style="stroke: rgb(0, 0, 0);"/><rect x="-5" y="-5" width="10" style="fill: none; visibility: hidden; pointer-events: all;" height="14.349556167737985"/></g><g class="node" transform="translate(0,870.0332108968472)"><title>DOHMH</title><text dy=".35em" text-anchor="end" transform="translate(-4, 2.5084176063537598)">DOHMH</text><line x1="0" x2="0" y1="0" y2="5.016835016835016" style="stroke: rgb(0, 0, 0);"/><rect x="-5" y="-5" width="10" style="fill: none; visibility: hidden; pointer-events: all;" height="10.016835016835017"/></g><g class="node" transform="translate(1080,672.1304713804714)"><title>Museum</title><text dy=".35em" text-anchor="start" transform="translate(4, 1.5962656736373901)">Museum</text><line x1="0" x2="0" y1="0" y2="3.192531374349556" style="stroke: rgb(0, 0, 0);"/><rect x="-5" y="-5" width="10" style="fill: none; visibility: hidden; pointer-events: all;" height="8.192531374349556"/></g><g class="node" transform="translate(0,937.5780532598715)"><title>DFTA</title><text dy=".35em" text-anchor="end" transform="translate(-4, 1.2542088031768799)">DFTA</text><line x1="0" x2="0" y1="0" y2="2.508417508417508" style="stroke: rgb(0, 0, 0);"/><rect x="-5" y="-5" width="10" style="fill: none; visibility: hidden; pointer-events: all;" height="7.508417508417509"/></g><g class="node" transform="translate(0,797.9048056320784)"><title>EDC</title><text dy=".35em" text-anchor="end" transform="translate(-4, 1.14018976688385)">EDC</text><line x1="0" x2="0" y1="0" y2="2.2803795531068256" style="stroke: rgb(0, 0, 0);"/><rect x="-5" y="-5" width="10" style="fill: none; visibility: hidden; pointer-events: all;" height="7.280379553106826"/></g><g class="node" transform="translate(1080,1175.6633608815425)"><title>City Hall</title><text dy=".35em" text-anchor="start" transform="translate(4, 1.0261708498001099)">City Hall</text><line x1="0" x2="0" y1="0" y2="2.052341597796143" style="stroke: rgb(0, 0, 0);"/><rect x="-5" y="-5" width="10" style="fill: none; visibility: hidden; pointer-events: all;" height="7.0523415977961434"/></g><g class="node" transform="translate(0,997.8256810529538)"><title>FIT</title><text dy=".35em" text-anchor="end" transform="translate(-4, 0.5700948238372803)">FIT</text><line x1="0" x2="0" y1="0" y2="1.1401897765534128" style="stroke: rgb(0, 0, 0);"/><rect x="-5" y="-5" width="10" style="fill: none; visibility: hidden; pointer-events: all;" height="6.140189776553413"/></g><g class="node" transform="translate(0,848.8028772574227)"><title>OCME</title><text dy=".35em" text-anchor="end" transform="translate(-4, 0.4560759365558624)">OCME</text><line x1="0" x2="0" y1="0" y2="1" style="stroke: rgb(0, 0, 0);"/><rect x="-5" y="-5" width="10" style="fill: none; visibility: hidden; pointer-events: all;" height="6"/></g></g><g class="slice-titles"/></g></svg>