<?xml version="1.0" standalone="no"?><!DOCTYPE svg PUBLIC "-//W3C//DTD SVG 1.1//EN" "http://www.w3.org/Graphics/SVG/1.1/DTD/svg11.dtd"><svg xmlns="http://www.w3.org/2000/svg" width="1280" height="1500" viewBox="0 0 1280 1500" style="font-family: &quot;Helvetica Neue&quot;, Helvetica, Arial, sans-serif;"><g class="sankey" transform="translate(100,10)"><g class="groups"/><g class="links"><g class="link" style="opacity: 0.8;"><path d="M0,960.5438361091128 A1695.160406005551 1695.160406005551 0.11775307999256435 0 0 199.14938611079629,948.8050422080869 L880.6156515984314,868.1873363100274 A1697.160406005551 1697.160406005551 0.11775307999256435 0 1 1080,856.4346926354231 L1080,858.4346926354231 A1695.160406005551 1695.160406005551 0.11775307999256435 0 0 880.8506138892037,870.173486536449 L199.38434840156862,950.7911924345085 A1697.160406005551 1697.160406005551 0.11775307999256435 0 1 0,962.5438361091128 Z" style="fill: rgb(248, 88, 104);"/><title>DPR → Storage
3.00</title></g><g class="link" style="opacity: 0.8;"><path d="M0,583.0147872517014 A1023.3222870534729 1023.3222870534729 0.19762149659272055 0 1 200.91672305150115,602.9323834756981 L879.4759523071682,738.8036804552835 A1021.3222870534729 1021.3222870534729 0.19762149659272055 0 0 1080,758.6823493609252 L1080,760.6823493609252 A1023.3222870534729 1023.3222870534729 0.19762149659272055 0 1 879.0832769484989,740.7647531369284 L200.52404769283186,604.893456157343 A1021.3222870534729 1021.3222870534729 0.19762149659272055 0 0 0,585.0147872517014 Z" style="fill: rgb(59, 179, 50);"/><title>DSNY → Office
3.00</title></g><g class="link" style="opacity: 0.8;"><path d="M0,1094.642187240635 A1655.1389740719999 1655.1389740719999 0.12063634167757487 0 0 199.18595949174437,1082.6130625193914 L880.5733526112125,1000.0118890569429 A1657.1389740719999 1657.1389740719999 0.12063634167757487 0 1 1080,987.9682288496653 L1080,989.9682288496653 A1655.1389740719999 1655.1389740719999 0.12063634167757487 0 0 880.8140405082555,1001.9973535709087 L199.4266473887875,1084.5985270333572 A1657.1389740719999 1657.1389740719999 0.12063634167757487 0 1 0,1096.642187240635 Z" style="fill: rgb(255, 230, 116);"/><title>FDNY → Center
3.00</title></g><g class="link" style="opacity: 0.8;"><path d="M0,582.3346290045924 A7824.483712462747 7824.483712462747 0.025369933193540195 0 0 198.48533549131946,579.8167141012866 L881.463930085098,562.4858743878699 A7826.483712462747 7826.483712462747 0.025369933193540195 0 1 1080,559.9673158855751 L1080,561.9673158855751 A7824.483712462747 7824.483712462747 0.025369933193540195 0 0 881.5146645086805,564.4852307888809 L198.536069914902,581.8160705022976 A7826.483712462747 7826.483712462747 0.025369933193540195 0 1 0,584.3346290045924 Z" style="fill: rgb(59, 179, 50);"/><title>DSNY → School
3.00</title></g><g class="link" style="opacity: 0.8;"><path d="M0,870.3424860288827 A5075.286530358487 5075.286530358487 0.039140886049350065 0 1 198.6004930650488,874.2296819440041 L881.4777687205183,900.9717613395277 A5073.286530358487 5073.286530358487 0.039140886049350065 0 0 1080,904.8574254412661 L1080,906.8574254412661 A5075.286530358487 5075.286530358487 0.039140886049350065 0 1 881.3995069349512,902.9702295261446 L198.5222312794818,876.2281501306211 A5073.286530358487 5073.286530358487 0.039140886049350065 0 0 0,872.3424860288827 Z" style="fill: rgb(248, 88, 104);"/><title>DOHMH → Others
3.00</title></g><g class="link" style="opacity: 0.8;"><path d="M0,825.6251729098655 A2265.9729706720736 2265.9729706720736 0.0879357650204664 0 1 199.00336295039205,834.3805720237924 L881.1722820070069,894.5227181345863 A2263.9729706720736 2263.9729706720736 0.0879357650204664 0 0 1080,903.2703895313451 L1080,905.2703895313451 A2265.9729706720736 2265.9729706720736 0.0879357650204664 0 1 880.996637049608,896.5149904174182 L198.82771799299314,836.3728443066243 A2263.9729706720736 2263.9729706720736 0.0879357650204664 0 0 0,827.6251729098655 Z" style="fill: rgb(59, 179, 50);"/><title>HRA → Others
3.00</title></g><g class="link" style="opacity: 0.8;"><path d="M0,1234.4950893598182 A15531.612911498498 15531.612911498498 0.0127804824865283 0 1 198.4961029501535,1235.7635446094318 L881.5294573189674,1244.4935157577938 A15529.612911498498 15529.612911498498 0.0127804824865283 0 0 1080,1245.7618076688984 L1080,1247.7618076688984 A15531.612911498498 15531.612911498498 0.0127804824865283 0 1 881.5038970498465,1246.4933524192847 L198.47054268103255,1237.7633812709228 A15529.612911498498 15529.612911498498 0.0127804824865283 0 0 0,1236.4950893598182 Z" style="fill: rgb(251, 191, 173);"/><title>DOC → Court
3.00</title></g><g class="link" style="opacity: 0.8;"><path d="M0,1193.998879544071 A4122.719121631918 4122.719121631918 0.04818059808130548 0 0 198.55823100332725,1189.214626844672 L881.3454450778487,1156.2920514049424 A4124.719121631918 4124.719121631918 0.04818059808130548 0 1 1080,1151.5054777845403 L1080,1153.5054777845403 A4122.719121631918 4122.719121631918 0.04818059808130548 0 0 881.4417689966727,1158.2897304839394 L198.65455492215136,1191.212305923669 A4124.719121631918 4124.719121631918 0.04818059808130548 0 1 0,1195.998879544071 Z" style="fill: rgb(255, 230, 116);"/><title>DHS → Residence
3.00</title></g><g class="link" style="opacity: 0.8;"><path d="M0,1160.3042521994134 A1592.0027416375724 1592.0027416375724 0.1254856741462944 0 0 199.24965577418303,1147.7863329186173 L880.5000310189827,1061.8476136335396 A1594.0027416375724 1594.0027416375724 0.1254856741462944 0 1 1080,1049.3139683505783 L1080,1051.3139683505783 A1592.0027416375724 1592.0027416375724 0.1254856741462944 0 0 880.750344225817,1063.8318876313745 L199.49996898101736,1149.7706069164522 A1594.0027416375724 1594.0027416375724 0.1254856741462944 0 1 0,1162.3042521994134 Z" style="fill: rgb(251, 191, 173);"/><title>DCAS → FDNY 
 Facilities
3.00</title></g><g class="link" style="opacity: 0.8;"><path d="M0,895.6484949925301 A571.5172183186013 571.5172183186013 0.3689832642211206 0 0 206.12758040613323,857.1822605681009 L873.1510849645705,599.248319495127 A573.5172183186013 573.5172183186013 0.3689832642211206 0 1 1080,560.647474132684 L1080,562.647474132684 A571.5172183186013 571.5172183186013 0.3689832642211206 0 0 873.8724195938668,601.1137085571132 L206.84891503542946,859.0476496300871 A573.5172183186013 573.5172183186013 0.3689832642211206 0 1 0,897.6484949925301 Z" style="fill: rgb(255, 230, 116);"/><title>ACS → School
3.00</title></g><g class="link" style="opacity: 0.8;"><path d="M0,849.2307862557404 A3199.997188943627 3199.997188943627 0.06215146205703048 0 1 198.75648661501657,855.4092783608054 L881.367736298242,897.8892769421984 A3197.997188943627 3197.997188943627 0.06215146205703048 0 0 1080,904.0639074863055 L1080,906.0639074863055 A3199.997188943627 3199.997188943627 0.06215146205703048 0 1 881.2435133849834,899.8854153812406 L198.63226370175795,857.4054167998476 A3197.997188943627 3197.997188943627 0.06215146205703048 0 0 0,851.2307862557404 Z" style="fill: rgb(248, 88, 104);"/><title>OCME → Others
4.00</title></g><g class="link" style="opacity: 0.8;"><path d="M0,1093.8486692856745 A1056.0038264644124 1056.0038264644124 0.1909100552721119 0 0 200.37936056676634,1074.663145787763 L879.2411344436775,943.4637950688632 A1058.0038264644124 1058.0038264644124 0.1909100552721119 0 1 1080,924.241935483871 L1080,926.241935483871 A1056.0038264644124 1056.0038264644124 0.1909100552721119 0 0 879.6206394332337,945.4274589817826 L200.75886555632238,1076.6268097006823 A1058.0038264644124 1058.0038264644124 0.1909100552721119 0 1 0,1095.8486692856745 Z" style="fill: rgb(248, 88, 104);"/><title>FDNY → Others
4.00</title></g><g class="link" style="opacity: 0.8;"><path d="M0,1221.4587229568967 A2539.169940637487 2539.169940637487 0.07835223604106112 0 0 198.74614395228906,1213.6686348308963 L881.0973118631161,1160.0952197983518 A2541.169940637487 2541.169940637487 0.07835223604106112 0 1 1080,1152.2989957395007 L1080,1154.2989957395007 A2539.169940637487 2539.169940637487 0.07835223604106112 0 0 881.253856047711,1162.0890838655012 L198.9026881368838,1215.6624988980457 A2541.169940637487 2541.169940637487 0.07835223604106112 0 1 0,1223.4587229568967 Z" style="fill: rgb(248, 88, 104);"/><title>DOC → Residence
4.00</title></g><g class="link" style="opacity: 0.8;"><path d="M0,1024.645659270735 A22903.044694303677 22903.044694303677 0.008665752259180648 0 0 198.4696272585643,1023.785709578818 L881.5130414538355,1017.8664763996125 A22905.044694303677 22905.044694303677 0.008665752259180648 0 1 1080,1017.0064516129032 L1080,1019.0064516129032 A22903.044694303677 22903.044694303677 0.008665752259180648 0 0 881.5303727414357,1019.8664013048202 L198.4869585461645,1025.7856344840256 A22905.044694303677 22905.044694303677 0.008665752259180648 0 1 0,1026.645659270735 Z" style="fill: rgb(59, 179, 50);"/><title>NYPD → FDNY 
 Facilities
4.00</title></g><g class="link" style="opacity: 0.8;"><path d="M0,1157.01682067172 A504.25215985710224 504.25215985710224 0.42719963036524367 0 0 208.92363629113552,1111.6994654649536 L870.247716246649,810.6409487624234 A506.25215985710224 506.25215985710224 0.42719963036524367 0 1 1080,765.1438527084601 L1080,767.1438527084601 A504.25215985710224 504.25215985710224 0.42719963036524367 0 0 871.0763637088645,812.4612079152265 L209.752283753351,1113.519724617757 A506.25215985710224 506.25215985710224 0.42719963036524367 0 1 0,1159.01682067172 Z" style="fill: rgb(255, 230, 116);"/><title>DCAS → Office
4.00</title></g><g class="link" style="opacity: 0.8;"><path d="M0,1062.1945166823436 A1279.807903586569 1279.807903586569 0.15669948583218973 0 0 199.72552516388106,1046.5139740371717 L879.9623568618446,939.0401049916388 A1281.807903586569 1281.807903586569 0.15669948583218973 0 1 1080,923.3350578210591 L1080,925.3350578210591 A1279.807903586569 1279.807903586569 0.15669948583218973 0 0 880.2744748361189,941.0156004662313 L200.03764313815543,1048.489469511764 A1281.807903586569 1281.807903586569 0.15669948583218973 0 1 0,1064.1945166823436 Z" style="fill: rgb(248, 88, 104);"/><title>HHC → Others
4.00</title></g><g class="link" style="opacity: 0.8;"><path d="M0,714.9057157085155 A3933.1826029679673 3933.1826029679673 0.05053280040417474 0 1 198.67015341003588,719.9264637583445 L881.430869183352,754.4576722866286 A3931.1826029679673 3931.1826029679673 0.05053280040417474 0 0 1080,759.4758673158856 L1080,761.4758673158856 A3933.1826029679673 3933.1826029679673 0.05053280040417474 0 1 881.3298465899642,756.4551192660565 L198.56913081664794,721.9239107377724 A3931.1826029679673 3931.1826029679673 0.05053280040417474 0 0 0,716.9057157085155 Z" style="fill: rgb(59, 179, 50);"/><title>DOT → Office
4.00</title></g><g class="link" style="opacity: 0.8;"><path d="M0,678.9438942068278 A1028.9344639078186 1028.9344639078186 0.19650302131313424 0 1 200.89004045684655,698.745402225029 L879.5004412453483,833.8376812683377 A1026.9344639078186 1026.9344639078186 0.19650302131313424 0 0 1080,853.6006999391358 L1080,855.6006999391358 A1028.9344639078186 1028.9344639078186 0.19650302131313424 0 1 879.1099595431534,835.7991919209346 L200.4995587546517,700.7069128776259 A1026.9344639078186 1026.9344639078186 0.19650302131313424 0 0 0,680.9438942068278 Z" style="fill: rgb(59, 179, 50);"/><title>DCLA → Storage
4.00</title></g><g class="link" style="opacity: 0.8;"><path d="M0,998.0926935207212 A13385.480995997259 13385.480995997259 0.014827931149801632 0 0 198.471717514275,996.6212040783166 L881.4986277101403,986.4925857514447 A13387.480995997259 13387.480995997259 0.014827931149801632 0 1 1080,985.0208764455265 L1080,987.0208764455265 A13385.480995997259 13385.480995997259 0.014827931149801632 0 0 881.5282824857251,988.4923658879311 L198.50137228985963,998.620984214803 A13387.480995997259 13387.480995997259 0.014827931149801632 0 1 0,1000.0926935207212 Z" style="fill: rgb(248, 88, 104);"/><title>FIT → Center
5.00</title></g><g class="link" style="opacity: 0.8;"><path d="M0,561.1095695235987 A593.3787886247252 593.3787886247252 0.3549397587716099 0 1 206.21923250020774,598.0963965450208 L874.47583525905,845.7767608281746 A591.3787886247252 591.3787886247252 0.3549397587716099 0 0 1080,882.6389227023737 L1080,884.6389227023737 A593.3787886247252 593.3787886247252 0.3549397587716099 0 1 873.7807674997923,847.6520956809517 L205.52416474095008,599.9717313977978 A591.3787886247252 591.3787886247252 0.3549397587716099 0 0 0,563.1095695235987 Z" style="fill: rgb(251, 191, 173);"/><title>CUNY → Others
5.00</title></g><g class="link" style="opacity: 0.8;"><path d="M0,1019.544472417418 A1101.9794466126527 1101.9794466126527 0.18269648319640686 0 0 200.20965056363448,1001.2046322136099 L879.4269857616998,875.714695769314 A1103.9794466126527 1103.9794466126527 0.18269648319640686 0 1 1080,857.341570298235 L1080,859.341570298235 A1101.9794466126527 1101.9794466126527 0.18269648319640686 0 0 879.7903494363654,877.681410502043 L200.5730142383002,1003.171346946339 A1103.9794466126527 1103.9794466126527 0.18269648319640686 0 1 0,1021.544472417418 Z" style="fill: rgb(59, 179, 50);"/><title>NYPD → Storage
5.00</title></g><g class="link" style="opacity: 0.8;"><path d="M0,1129.5569772588942 A8319.104246277244 8319.104246277244 0.023866655635885525 0 1 198.53034727387472,1131.9262174391308 L881.5173815059065,1148.229929531705 A8317.104246277244 8317.104246277244 0.023866655635885525 0 0 1080,1150.5986001217284 L1080,1152.5986001217284 A8319.104246277244 8319.104246277244 0.023866655635885525 0 1 881.4696527261253,1150.2293599414918 L198.48261849409346,1133.9256478489176 A8317.104246277244 8317.104246277244 0.023866655635885525 0 0 0,1131.5569772588942 Z" style="fill: rgb(255, 230, 116);"/><title>FDNY → Residence
5.00</title></g><g class="link" style="opacity: 0.8;"><path d="M0,1220.3251258783819 A1053.7300807280776 1053.7300807280776 0.1913358147810953 0 0 200.3883782757285,1201.0956883996087 L879.231280720554,1069.6001410429265 A1055.7300807280776 1055.7300807280776 0.1913358147810953 0 1 1080,1050.3342057212417 L1080,1052.3342057212417 A1053.7300807280776 1053.7300807280776 0.1913358147810953 0 0 879.6116217242716,1071.563643200015 L200.768719279446,1203.059190556697 A1055.7300807280776 1055.7300807280776 0.1913358147810953 0 1 0,1222.3251258783819 Z" style="fill: rgb(248, 88, 104);"/><title>DOC → FDNY 
 Facilities
6.00</title></g><g class="link" style="opacity: 0.8;"><path d="M0,688.692829082056 A591.6635923081819 591.6635923081819 0.3561069560744714 0 1 206.27054547018432,725.8131241316244 L874.4267107008959,974.3436488764437 A589.6635923081819 589.6635923081819 0.3561069560744714 0 0 1080,1011.3384662203287 L1080,1013.3384662203287 A591.6635923081819 591.6635923081819 0.3561069560744714 0 1 873.7294545298157,976.2181711707603 L205.57328929910412,727.687646425941 A589.6635923081819 589.6635923081819 0.3561069560744714 0 0 0,690.692829082056 Z" style="fill: rgb(59, 179, 50);"/><title>DCLA → FDNY 
 Facilities
6.00</title></g><g class="link" style="opacity: 0.8;"><path d="M0,974.6004398826977 A4258.0003225209575 4258.0003225209575 0.046669088006562776 0 1 198.64486524568926,979.2365687211885 L881.4484390521968,1011.1255435965417 A4256.0003225209575 4256.0003225209575 0.046669088006562776 0 0 1080,1015.7594948265368 L1080,1017.7594948265368 A4258.0003225209575 4258.0003225209575 0.046669088006562776 0 1 881.3551347543107,1013.123365988046 L198.5515609478032,981.2343911126928 A4256.0003225209575 4256.0003225209575 0.046669088006562776 0 0 0,976.6004398826977 Z" style="fill: rgb(59, 179, 50);"/><title>DPR → FDNY 
 Facilities
7.00</title></g><g class="link" style="opacity: 0.8;"><path d="M0,976.30083550047 A1039.2824898543768 1039.2824898543768 0.19447418277584294 0 1 200.8420233880206,995.8919135251116 L879.5444779248537,1129.5715470556086 A1037.2824898543768 1037.2824898543768 0.19447418277584294 0 0 1080,1149.124923919659 L1080,1151.124923919659 A1039.2824898543768 1039.2824898543768 0.19447418277584294 0 1 879.1579766119794,1131.5338458950175 L200.45552207514623,997.8542123645208 A1037.2824898543768 1037.2824898543768 0.19447418277584294 0 0 0,978.30083550047 Z" style="fill: rgb(255, 230, 116);"/><title>DPR → Residence
8.00</title></g><g class="link" style="opacity: 0.8;"><path d="M0,1092.4883527914567 A782.7892472844577 782.7892472844577 0.26122703146283754 0 0 202.1679643529476,1065.9312919772347 L877.3155033491082,885.440159704953 A784.7892472844577 784.7892472844577 0.26122703146283754 0 1 1080,858.8152465003043 L1080,860.8152465003043 A782.7892472844577 782.7892472844577 0.26122703146283754 0 0 877.8320356470524,887.3723073145263 L202.68449665089184,1067.863439586808 A784.7892472844577 784.7892472844577 0.26122703146283754 0 1 0,1094.4883527914567 Z" style="fill: rgb(255, 230, 116);"/><title>FDNY → Storage
8.00</title></g><g class="link" style="opacity: 0.8;"><path d="M0,1161.644331322968 A12104.361354219835 12104.361354219835 0.01640028485622924 0 1 198.5060752579058,1163.272145899111 L881.527387608966,1174.4748944011887 A12102.320879478508 12102.320879478508 0.01640028485622924 0 0 1080,1176.1024345709068 L1080,1178.1429093122335 A12104.361354219835 12104.361354219835 0.01640028485622924 0 1 881.4939247420942,1176.5150947360905 L198.47261239103406,1165.3123462340127 A12102.320879478508 12102.320879478508 0.01640028485622924 0 0 0,1163.6848060642947 Z" style="fill: rgb(251, 191, 173);"/><title>DCAS → City Hall
9.00</title></g><g class="link" style="opacity: 0.8;"><path d="M0,1063.6479555137496 A2280.969158699353 2280.969158699353 0.08727545479398557 0 0 198.81999407046763,1054.9663914853381 L881.002148559377,995.2770052348679 A2283.00963344068 2283.00963344068 0.08727545479398557 0 1 1080,986.5876749847839 L1080,988.6281497261107 A2280.969158699353 2280.969158699353 0.08727545479398557 0 0 881.1800059295324,997.309713754522 L198.9978514406229,1056.9991000049922 A2283.00963344068 2283.00963344068 0.08727545479398557 0 1 0,1065.6884302550764 Z" style="fill: rgb(248, 88, 104);"/><title>HHC → Center
9.00</title></g><g class="link" style="opacity: 0.8;"><path d="M0,716.3591545399214 A1283.297644763353 1283.297644763353 0.15651580599466475 0 1 200.0372994105043,732.0456902088009 L880.280764803543,839.3925450782502 A1281.2571700220262 1281.2571700220262 0.15651580599466475 0 0 1080,855.0541387705417 L1080,857.0946135118685 A1283.297644763353 1283.297644763353 0.15651580599466475 0 1 879.9627005894956,841.408077842989 L199.719235196457,734.0612229735397 A1281.2571700220262 1281.2571700220262 0.15651580599466475 0 0 0,718.3996292812482 Z" style="fill: rgb(59, 179, 50);"/><title>DOT → Storage
9.00</title></g><g class="link" style="opacity: 0.8;"><path d="M0,938.3916615946438 A4639.537550719601 4639.537550719601 0.04282597252732678 0 1 198.6319774015618,942.6456155867718 L881.474794227939,971.9069145192536 A4637.043637146869 4637.043637146869 0.04282597252732678 0 0 1080,976.1585818624468 L1080,978.6524954351795 A4639.537550719601 4639.537550719601 0.04282597252732678 0 1 881.3680225984382,974.3985414430515 L198.52520577206099,945.1372425105696 A4637.043637146869 4637.043637146869 0.04282597252732678 0 0 0,940.8855751673765 Z" style="fill: rgb(255, 230, 116);"/><title>DFTA → Center
11.0</title></g><g class="link" style="opacity: 0.8;"><path d="M0,1158.470259503126 A785.2967544408177 785.2967544408177 0.26025155818160517 0 0 202.07542487786853,1132.0256087002376 L877.2828321861409,952.2240069673077 A787.7906680135504 787.7906680135504 0.26025155818160517 0 1 1080,925.695374315277 L1080,928.1892878880097 A785.2967544408177 785.2967544408177 0.26025155818160517 0 0 877.9245751221315,954.6339386908979 L202.71716781385905,1134.4355404238281 A787.7906680135504 787.7906680135504 0.26025155818160517 0 1 0,1160.9641730758588 Z" style="fill: rgb(255, 230, 116);"/><title>DCAS → Others
11.0</title></g><g class="link" style="opacity: 0.8;"><path d="M0,826.9652520334199 A1349.1187711184712 1349.1187711184712 0.1487380701981995 0 1 199.9262535392072,841.8610463860168 L880.4433201469062,943.8329281221256 A1346.6248575457385 1346.6248575457385 0.1487380701981995 0 0 1080,958.7011868533172 L1080,961.1951004260499 A1349.1187711184712 1349.1187711184712 0.1487380701981995 0 1 880.0737464607928,946.299306073453 L199.55667985309378,844.3274243373442 A1346.6248575457385 1346.6248575457385 0.1487380701981995 0 0 0,829.4591656061526 Z" style="fill: rgb(255, 230, 116);"/><title>HRA → Center
11.0</title></g><g class="link" style="opacity: 0.8;"><path d="M0,775.8997952747192 A1441.6488884959115 1441.6488884959115 0.13900598894855798 0 1 199.7530826689316,789.8056313743824 L880.5924709038131,885.0607029183078 A1439.1549749231788 1439.1549749231788 0.13900598894855798 0 0 1080,898.942483262325 L1080,901.4363968350577 A1441.6488884959115 1441.6488884959115 0.13900598894855798 0 1 880.2469173310683,887.5305607353945 L199.40752909618686,792.2754891914691 A1439.1549749231788 1439.1549749231788 0.13900598894855798 0 0 0,778.3937088474519 Z" style="fill: rgb(255, 230, 116);"/><title>DEP → Others
11.0</title></g><g class="link" style="opacity: 0.8;"><path d="M0,798.7118906656337 A1719.8519441297922 1719.8519441297922 0.11619600450523859 0 1 199.39053755439497,810.3091338621034 L880.8985935941196,889.8559705060591 A1717.3580305570595 1717.3580305570595 0.11619600450523859 0 0 1080,901.4363968350578 L1080,903.9303104077906 A1719.8519441297922 1719.8519441297922 0.11619600450523859 0 1 880.609462445605,892.3330672113209 L199.10140640588034,812.7862305673652 A1717.3580305570595 1717.3580305570595 0.11619600450523859 0 0 0,801.2058042383665 Z" style="fill: rgb(255, 230, 116);"/><title>EDC → Others
11.0</title></g><g class="link" style="opacity: 0.8;"><path d="M0,1127.496265146904 A22193.855253430418 22193.855253430418 0.008942568240647653 0 0 198.46741987790492,1126.608855010181 L881.5102784270301,1120.5005348089542 A22196.34916700315 22196.34916700315 0.008942568240647653 0 1 1080,1119.6130249543517 L1080,1122.1069385270844 A22193.855253430418 22193.855253430418 0.008942568240647653 0 0 881.532580122095,1122.9943486638074 L198.4897215729699,1129.1026688650343 A22196.34916700315 22196.34916700315 0.008942568240647653 0 1 0,1129.9901787196368 Z" style="fill: rgb(251, 191, 173);"/><title>FDNY → Hospital
11.0</title></g><g class="link" style="opacity: 0.8;"><path d="M0,686.2920378465113 A690.5620188691456 690.5620188691456 0.300065039346989 0 1 204.11793779613188,717.1482363877742 L876.6862332702251,925.2459206419463 A687.8413858807099 687.8413858807099 0.300065039346989 0 0 1080,955.9805538648814 L1080,958.701186853317 A690.5620188691456 690.5620188691456 0.300065039346989 0 1 875.8820622038681,927.8449883120542 L203.31376672977487,719.747304057882 A687.8413858807099 687.8413858807099 0.300065039346989 0 0 0,689.012670834947 Z" style="fill: rgb(59, 179, 50);"/><title>DCLA → Center
12.0</title></g><g class="link" style="opacity: 0.8;"><path d="M0,558.5954185802025 A915.675668464913 915.675668464913 0.22202972519447184 0 1 201.6409168222205,581.0729732530186 L879.008119579462,733.9897133135166 A912.7283160607741 912.7283160607741 0.22202972519447184 0 0 1080,756.394917833232 L1080,759.3422702373708 A915.675668464913 915.675668464913 0.22202972519447184 0 1 878.3590831777796,736.8647155645547 L200.991880420538,583.9479755040567 A912.7283160607741 912.7283160607741 0.22202972519447184 0 0 0,561.5427709843414 Z" style="fill: rgb(59, 179, 50);"/><title>CUNY → Office
13.0</title></g><g class="link" style="opacity: 0.8;"><path d="M0,915.1261273723231 A1803.424248335662 1803.424248335662 0.11075944324540865 0 1 199.33811309367277,926.1767159614185 L880.987666970228,1001.9860959542647 A1800.4768959315234 1800.4768959315234 0.11075944324540865 0 0 1080,1013.0186244674376 L1080,1015.9659768715765 A1803.424248335662 1803.424248335662 0.11075944324540865 0 1 880.6618869063273,1004.9153882824811 L199.01233302977195,929.1060082896349 A1800.4768959315234 1800.4768959315234 0.11075944324540865 0 0 0,918.073479776462 Z" style="fill: rgb(255, 230, 116);"/><title>ACS → FDNY 
 Facilities
13.0</title></g><g class="link" style="opacity: 0.8;"><path d="M0,641.4015935373209 A5439.205171587316 5439.205171587316 0.036522279432580795 0 1 198.60801118961004,645.0288053752315 L881.5078873785861,669.9809608324542 A5436.031099767474 5436.031099767474 0.036522279432580795 0 0 1080,673.6060559951309 L1080,676.7801278149727 A5439.205171587316 5439.205171587316 0.036522279432580795 0 1 881.39198881039,673.1529159770621 L198.49211262141395,648.2007605198394 A5436.031099767474 5436.031099767474 0.036522279432580795 0 0 0,644.5756653571627 Z" style="fill: rgb(251, 191, 173);"/><title>DCLA → Museum
14.0</title></g><g class="link" style="opacity: 0.8;"><path d="M0,595.010678913296 A650.2959956563003 650.2959956563003 0.3208628835807905 0 1 205.09394273579804,628.1994256900324 L876.1216256298721,851.2136803750737 A646.4417655893495 646.4417655893495 0.3208628835807905 0 0 1080,884.2057212416312 L1080,888.059951308582 A650.2959956563003 650.2959956563003 0.3208628835807905 0 1 874.906057264202,854.8712045318456 L203.8783743701279,631.8569498468042 A646.4417655893495 646.4417655893495 0.3208628835807905 0 0 0,598.8649089802468 Z" style="fill: rgb(255, 230, 116);"/><title>DSNY → Others
17.0</title></g><g class="link" style="opacity: 0.8;"><path d="M0,1021.1112709566754 A1740.1224694061032 1740.1224694061032 0.11460564528810879 0 0 198.9915824275904,1009.6959944131917 L880.5417408817525,931.2427172506278 A1744.2034188887567 1744.2034188887567 0.11460564528810879 0 1 1080,919.8006695069995 L1080,923.8816189896532 A1740.1224694061032 1740.1224694061032 0.11460564528810879 0 0 881.0084175724096,935.296895533137 L199.45825911824738,1013.7501726957008 A1744.2034188887567 1744.2034188887567 0.11460564528810879 0 1 0,1025.192220439329 Z" style="fill: rgb(251, 191, 173);"/><title>NYPD → Others
18.0</title></g><g class="link" style="opacity: 0.8;"><path d="M0,871.6825651524372 A1970.1672926446456 1970.1672926446456 0.10132122569629032 0 1 199.27839108074056,881.786776196135 L881.1573208156948,951.112981717261 A1965.8596237462891 1965.8596237462891 0.10132122569629032 0 0 1080,961.19510042605 L1080,965.5027693244067 A1970.1672926446456 1970.1672926446456 0.10132122569629032 0 1 880.7216089192594,955.3985582807089 L198.8426791843052,886.0723527595828 A1965.8596237462891 1965.8596237462891 0.10132122569629032 0 0 0,875.9902340507939 Z" style="fill: rgb(251, 191, 173);"/><title>DOHMH → Center
19.0</title></g><g class="link" style="opacity: 0.8;"><path d="M0,821.5239860565483 A2894.090845073626 2894.090845073626 0.06866953861742564 0 0 198.57972984368305,814.7031163115519 L881.0935839749407,767.7613969967404 A2898.8519528033885 2898.8519528033885 0.06866953861742564 0 1 1080,760.9293061472916 L1080,765.6904138770543 A2894.090845073626 2894.090845073626 0.06866953861742564 0 0 881.420270156317,772.5112836220508 L198.90641602505926,819.4530029368623 A2898.8519528033885 2898.8519528033885 0.06866953861742564 0 1 0,826.285093786311 Z" style="fill: rgb(251, 191, 173);"/><title>HRA → Office
21.0</title></g><g class="link" style="opacity: 0.8;"><path d="M0,690.372987329165 A455.7963477223202 455.7963477223202 0.48875948343355 0 1 214.01050482601062,743.7394474671728 L868.2249827417799,1091.6479279323712 A451.03523999255754 451.03523999255754 0.48875948343355 0 0 1080,1144.4569385270845 L1080,1149.218046256847 A455.7963477223202 455.7963477223202 0.48875948343355 0 1 865.9894951739894,1095.8515861188394 L211.7750172582202,747.9431056536409 A451.03523999255754 451.03523999255754 0.48875948343355 0 0 0,695.1340950589276 Z" style="fill: rgb(59, 179, 50);"/><title>DCLA → Residence
21.0</title></g><g class="link" style="opacity: 0.8;"><path d="M0,718.3996292812483 A1025.4377640228158 1025.4377640228158 0.19749698381098768 0 1 201.20687434362526,738.3333398060283 L879.7718150950866,874.1179050624185 A1020.4499368773503 1020.4499368773503 0.19749698381098768 0 0 1080,893.9546561168595 L1080,898.9424832623251 A1025.4377640228158 1025.4377640228158 0.19749698381098768 0 1 878.7931256563747,879.0087727375451 L200.2281849049134,743.224207481155 A1020.4499368773503 1020.4499368773503 0.19749698381098768 0 0 0,723.3874564267139 Z" style="fill: rgb(248, 88, 104);"/><title>DOT → Others
22.0</title></g><g class="link" style="opacity: 0.8;"><path d="M0,1195.3389586676255 A2374.3325841649303 2374.3325841649303 0.08394757878824732 0 1 199.08544692475382,1203.700240164223 L881.3327774651489,1261.1081700747313 A2369.344757019465 2369.344757019465 0.08394757878824732 0 0 1080,1269.4518867924528 L1080,1274.4397139379182 A2374.3325841649303 2374.3325841649303 0.08394757878824732 0 1 880.9145530752462,1266.0784324413207 L198.66722253485116,1208.6705025308124 A2369.344757019465 2369.344757019465 0.08394757878824732 0 0 0,1200.326785813091 Z" style="fill: rgb(251, 191, 173);"/><title>DHS → Shelter
22.0</title></g><g class="link" style="opacity: 0.8;"><path d="M0,1163.6848060642947 A2271.132402038146 2271.132402038146 0.08779709926597512 0 1 199.142763635343,1172.4325044591285 L881.314470479394,1232.4795684071803 A2265.917855476978 2265.917855476978 0.08779709926597512 0 0 1080,1241.2071819841753 L1080,1246.4217285453437 A2271.132402038146 2271.132402038146 0.08779709926597512 0 1 880.857236364657,1237.67403015051 L198.68552952060605,1177.626966202458 A2265.917855476978 2265.917855476978 0.08779709926597512 0 0 0,1168.899352625463 Z" style="fill: rgb(251, 191, 173);"/><title>DCAS → Court
23.0</title></g><g class="link" style="opacity: 0.8;"><path d="M0,1189.217534443645 A706.7058917977134 706.7058917977134 0.2907765438805696 0 0 202.60993414090956,1159.5511038954348 L875.8300752689275,958.084134445016 A712.147157774585 712.147157774585 0.2907765438805696 0 1 1080,928.1892878880097 L1080,933.6305538648813 A706.7058917977134 706.7058917977134 0.2907765438805696 0 0 877.3900658590904,963.2969844130913 L204.16992473107246,1164.76395386351 A712.147157774585 712.147157774585 0.2907765438805696 0 1 0,1194.6588004205164 Z" style="fill: rgb(251, 191, 173);"/><title>DHS → Others
24.0</title></g><g class="link" style="opacity: 0.8;"><path d="M0,680.3973330382338 A876.617182656589 876.617182656589 0.23285383750268207 0 1 202.28404086688127,704.0556352443398 L879.0761933743895,864.5607364561455 A870.7224778483114 870.7224778483114 0.23285383750268207 0 0 1080,888.059951308582 L1080,893.9546561168595 A876.617182656589 876.617182656589 0.23285383750268207 0 1 877.7159591331188,870.2963539107535 L200.92380662561047,709.7912526989478 A870.7224778483114 870.7224778483114 0.23285383750268207 0 0 0,686.2920378465113 Z" style="fill: rgb(59, 179, 50);"/><title>DCLA → Others
26.0</title></g><g class="link" style="opacity: 0.8;"><path d="M0,961.8839152326673 A3633.693853656421 3633.693853656421 0.05464852030601164 0 0 198.47716720350866,956.4593233868028 L881.1884725041392,919.1129755509045 A3639.8152778804015 3639.8152778804015 0.05464852030601164 0 1 1080,913.6792452830189 L1080,919.8006695069994 A3633.693853656421 3633.693853656421 0.05464852030601164 0 0 881.5228327964913,925.2252613528639 L198.81152749586073,962.5716091887622 A3639.8152778804015 3639.8152778804015 0.05464852030601164 0 1 0,968.0053394566478 Z" style="fill: rgb(248, 88, 104);"/><title>DPR → Others
27.0</title></g><g class="link" style="opacity: 0.8;"><path d="M0,1131.1237757981519 A2535.625306810454 2535.625306810454 0.07858885509006996 0 1 199.06682902333318,1138.9500213459817 L881.413751646887,1192.6855576321022 A2529.5038825864735 2529.5038825864735 0.07858885509006996 0 0 1080,1200.4929093122337 L1080,1206.6143335362144 A2535.625306810454 2535.625306810454 0.07858885509006996 0 1 880.9331709766668,1198.7880879883846 L198.58624835311292,1145.052551702264 A2529.5038825864735 2529.5038825864735 0.07858885509006996 0 0 0,1137.2452000221326 Z" style="fill: rgb(255, 230, 116);"/><title>FDNY → Island 
 Campus
27.0</title></g><g class="link" style="opacity: 0.8;"><path d="M0,619.1830907984286 A5023.182074670496 5023.182074670496 0.03951554594098594 0 0 198.44212878327647,615.2618060067521 L881.316042743032,588.2636166618208 A5029.303498894476 5029.303498894476 0.03951554594098594 0 1 1080,584.3375532562386 L1080,590.4589774802191 A5023.182074670496 5023.182074670496 0.03951554594098594 0 0 881.5578712167236,594.3802622718956 L198.68395725696803,621.3784516168269 A5029.303498894476 5029.303498894476 0.03951554594098594 0 1 0,625.3045150224091 Z" style="fill: rgb(248, 88, 104);"/><title>DCLA → Aquareium
27.0</title></g><g class="link" style="opacity: 0.8;"><path d="M0,1065.6884302550766 A3705.4477918311827 3705.4477918311827 0.05368049307354483 0 1 198.81474847163545,1071.025948894831 L881.5380239375385,1107.7101140319985 A3698.8729287757965 3698.8729287757965 0.05368049307354483 0 0 1080,1113.0381618989652 L1080,1119.6130249543519 A3705.4477918311827 3705.4477918311827 0.05368049307354483 0 1 881.1852515283646,1114.2755063145976 L198.46197606246162,1077.59134117743 A3698.8729287757965 3698.8729287757965 0.05368049307354483 0 0 0,1072.2632933104633 Z" style="fill: rgb(248, 88, 104);"/><title>HHC → Hospital
29.0</title></g><g class="link" style="opacity: 0.8;"><path d="M0,968.0053394566478 A16437.555098956396 16437.555098956396 0.012077722340237518 0 1 198.5233998751289,969.2042092809477 L881.5587457522812,977.4541216829496 A16430.753516485307 16430.753516485307 0.012077722340237518 0 0 1080,978.6524954351796 L1080,985.454077906269 A16437.555098956396 16437.555098956396 0.012077722340237518 0 1 881.4766001248712,984.2552080819692 L198.44125424771877,976.0052956799673 A16430.753516485307 16430.753516485307 0.012077722340237518 0 0 0,974.8069219277372 Z" style="fill: rgb(251, 191, 173);"/><title>DPR → Center
30.0</title></g><g class="link" style="opacity: 0.8;"><path d="M0,634.1465722348254 A17759.49875311308 17759.49875311308 0.011178571088599654 0 1 198.52168468939945,635.2561781720519 L881.5594143929255,642.8918820460576 A17752.243731810584 17752.243731810584 0.011178571088599654 0 0 1080,644.0010346926355 L1080,651.2560559951309 A17759.49875311308 17759.49875311308 0.011178571088599654 0 1 881.4783153106006,650.1464500579043 L198.4405856070745,642.5107461838986 A17752.243731810584 17752.243731810584 0.011178571088599654 0 0 0,641.4015935373208 Z" style="fill: rgb(59, 179, 50);"/><title>DCLA → Harbor
32.0</title></g><g class="link" style="opacity: 0.8;"><path d="M0,896.9885741160846 A19004.071216433 19004.071216433 0.01044633640139625 0 1 198.51931027578604,898.0254832942333 L881.5588450831433,905.1610036089695 A18996.5894757148 18996.5894757148 0.01044633640139625 0 0 1080,906.1975045648205 L1080,913.6792452830189 A19004.071216433 19004.071216433 0.01044633640139625 0 1 881.480689724214,912.6423361048702 L198.4411549168567,905.5068157901339 A18996.5894757148 18996.5894757148 0.01044633640139625 0 0 0,904.4703148342829 Z" style="fill: rgb(255, 230, 116);"/><title>ACS → Others
33.0</title></g><g class="link" style="opacity: 0.8;"><path d="M0,625.3045150224091 A13999.251896864678 13999.251896864678 0.014174289262112838 0 0 198.42280148034934,623.8982403855306 L881.4518728396883,614.2161403331886 A14008.093954077094 14008.093954077094 0.014174289262112838 0 1 1080,612.8089774802191 L1080,621.6510346926356 A13999.251896864678 13999.251896864678 0.014174289262112838 0 0 881.5771985196507,623.057309329514 L198.5481271603116,632.739409381856 A14008.093954077094 14008.093954077094 0.014174289262112838 0 1 0,634.1465722348255 Z" style="fill: rgb(59, 179, 50);"/><title>DCLA → Garden
39.0</title></g><g class="link" style="opacity: 0.8;"><path d="M0,584.3548663752558 A719.3635845503645 719.3635845503645 0.2887432891033246 0 1 204.83717227312783,614.134736187302 L878.19704652171,814.1527029915352 A708.7077720123243 708.7077720123243 0.2887432891033246 0 0 1080,843.4914485696896 L1080,854.1472611077298 A719.3635845503645 719.3635845503645 0.2887432891033246 0 1 875.1628277268721,824.3673912956837 L201.80295347828994,624.3494244914505 A708.7077720123243 708.7077720123243 0.2887432891033246 0 0 0,595.010678913296 Z" style="fill: rgb(251, 191, 173);"/><title>DSNY → Storage
47.0</title></g><g class="link" style="opacity: 0.8;"><path d="M0,904.470314834283 A2881.1543094749786 2881.1543094749786 0.06916464729426308 0 1 199.11518014797358,911.3589267717355 L881.6212379002224,958.6396345914244 A2870.498496936939 2870.498496936939 0.06916464729426308 0 0 1080,965.5027693244066 L1080,976.1585818624468 A2881.1543094749786 2881.1543094749786 0.06916464729426308 0 1 880.8848198520265,969.2699699249944 L198.37876209977762,921.9892621053054 A2870.498496936939 2870.498496936939 0.06916464729426308 0 0 0,915.1261273723233 Z" style="fill: rgb(59, 179, 50);"/><title>ACS → Center
47.0</title></g><g class="link" style="opacity: 0.8;"><path d="M0,1222.9121617883027 A10731.49589349654 10731.49589349654 0.018486857400912937 0 0 198.3803339583276,1221.0783950892173 L881.3933471400196,1208.4501922575123 A10743.7387419445 10743.7387419445 0.018486857400912937 0 1 1080,1206.6143335362142 L1080,1218.8571819841752 A10731.49589349654 10731.49589349654 0.018486857400912937 0 0 881.6196660416724,1220.6909486832606 L198.60665285998041,1233.3191515149656 A10743.7387419445 10743.7387419445 0.018486857400912937 0 1 0,1235.1550102362637 Z" style="fill: rgb(248, 88, 104);"/><title>DOC → Island 
 Campus
54.0</title></g><g class="link" style="opacity: 0.8;"><path d="M0,1256.1533503015546 A4318.173673305528 4318.173673305528 0.04607696088058577 0 1 198.897922407525,1260.736467087963 L881.7077626347024,1292.2205536838392 A4305.023947194755 4305.023947194755 0.04607696088058577 0 0 1080,1296.7897139379183 L1080,1309.9394400486913 A4318.173673305528 4318.173673305528 0.04607696088058577 0 1 881.102077592475,1305.3563232622828 L198.29223736529772,1273.8722366664067 A4305.023947194755 4305.023947194755 0.04607696088058577 0 0 0,1269.3030764123275 Z" style="fill: rgb(251, 191, 173);"/><title>BPL → Library
58.0</title></g><g class="link" style="opacity: 0.8;"><path d="M0,1327.6235544735239 A0 0 0 0 0 0,1327.6235544735239 L1080,1327.6235544735239 A0 0 0 0 0 1080,1327.6235544735239 L1080,1340.9999999999998 A0 0 0 0 0 1080,1340.9999999999998 L0,1340.9999999999998 A0 0 0 0 0 0,1340.9999999999998 Z" style="fill: rgb(251, 191, 173);"/><title>QPL → Library
59.0</title></g><g class="link" style="opacity: 0.8;"><path d="M0,1026.0990981021412 A3640.36877148779 3640.36877148779 0.05471712922220617 0 1 199.09114847793984,1031.5473055306209 L881.801597252378,1068.9405868772155 A3624.044973557175 3624.044973557175 0.05471712922220617 0 0 1080,1074.3643639683505 L1080,1090.688161898965 A3640.36877148779 3640.36877148779 0.05471712922220617 0 1 880.9088515220602,1085.2399544704854 L198.19840274762208,1047.8466731238907 A3624.044973557175 3624.044973557175 0.05471712922220617 0 0 0,1042.4228960327557 Z" style="fill: rgb(248, 88, 104);"/><title>NYPD → Police 
 Precinct
72.0</title></g><g class="link" style="opacity: 0.8;"><path d="M0,1289.6212582305095 A8622.896495894565 8622.896495894565 0.023046274342150896 0 1 198.70804718560683,1291.911099666559 L881.6994696905656,1307.6542946933603 A8605.212381469733 8605.212381469733 0.023046274342150896 0 0 1080,1309.9394400486913 L1080,1327.623554473524 A8622.896495894565 8622.896495894565 0.023046274342150896 0 1 881.2919528143932,1325.3337130374746 L198.30053030943438,1309.5905180106733 A8605.212381469733 8605.212381469733 0.023046274342150896 0 0 0,1307.3053726553424 Z" style="fill: rgb(251, 191, 173);"/><title>NYPL → Library
78.0</title></g><g class="link" style="opacity: 0.8;"><path d="M0,1095.9822663641896 A2252.7681293662117 2252.7681293662117 0.08779709926597601 0 0 197.5325043617068,1087.3053014582663 L879.7042112057526,1027.2582375102156 A2284.282128148926 2284.282128148926 0.08779709926597601 0 1 1080,1018.4598904443093 L1080,1049.9738892270238 A2252.7681293662117 2252.7681293662117 0.08779709926597601 0 0 882.4674956382931,1058.6508541329472 L200.29578879424747,1118.6979180809979 A2284.282128148926 2284.282128148926 0.08779709926597601 0 1 0,1127.4962651469043 Z" style="fill: rgb(248, 88, 104);"/><title>FDNY → FDNY 
 Facilities
139</title></g><g class="link" style="opacity: 0.8;"><path d="M0,743.7056382448957 A3890.1160038669163 3890.1160038669163 0.051293292153861136 0 1 199.44937123608221,748.8219674844078 L882.2012490463699,783.8733044584774 A3857.921846837093 3857.921846837093 0.051293292153861136 0 0 1080,788.9472915398661 L1080,821.1414485696897 A3890.1160038669163 3890.1160038669163 0.051293292153861136 0 1 880.5506287639178,816.0251193301776 L197.79875095363016,780.973782356108 A3857.921846837093 3857.921846837093 0.051293292153861136 0 0 0,775.8997952747193 Z" style="fill: rgb(248, 88, 104);"/><title>DEP → WPCP
142</title></g><g class="link" style="opacity: 0.8;"><path d="M0,644.5756653571626 A3232.710932549905 3232.710932549905 0.06183612593606802 0 1 199.77095260984217,650.7541651054022 L882.3866671117017,693.0183587537133 A3197.7961425316453 3197.7961425316453 0.06183612593606802 0 0 1080,699.1301278149726 L1080,734.0449178332319 A3232.710932549905 3232.710932549905 0.06183612593606802 0 1 880.2290473901579,727.8664180849923 L197.6133328882983,685.6022244366812 A3197.7961425316453 3197.7961425316453 0.06183612593606802 0 0 0,679.4904553754219 Z" style="fill: rgb(248, 88, 104);"/><title>DCLA → Zoo
154</title></g><g class="link" style="opacity: 0.8;"><path d="M0,490.12615503790175 A529.8237237843261 529.8237237843261 0.375337288509348 0 0 194.22614916467143,453.2419622970422 L860.6739528938474,190.6507469738047 A598.2929873266269 598.2929873266269 0.375337288509348 0 1 1080,149 L1080,217.46926354230067 A529.8237237843261 529.8237237843261 0.375337288509348 0 0 885.7738508353286,254.35345628316026 L219.3260471061526,516.9446716063977 A598.2929873266269 598.2929873266269 0.375337288509348 0 1 0,558.5954185802025 Z" style="fill: rgb(255, 230, 116);"/><title>CUNY → College
302</title></g><g class="link" style="opacity: 0.8;"><path d="M0,149 A2100.490416758987 2100.490416758987 0.10279375887347153 0 1 215.53725584846364,160.0877073136161 L897.381756611863,230.42498214605823 A1779.6824435392668 1779.6824435392668 0.10279375887347153 0 0 1080,239.8192635423007 L1080,560.6272367620206 A2100.490416758987 2100.490416758987 0.10279375887347153 0 1 864.4627441515363,549.5395294484046 L182.618243388137,479.2022546159625 A1779.6824435392668 1779.6824435392668 0.10279375887347153 0 0 0,469.80797321972 Z" style="fill: rgb(59, 179, 50);"/><title>DOE → School
1.42k</title></g></g><g class="nodes"><g class="node" transform="translate(0,149)"><title>DOE</title><text dy=".35em" text-anchor="end" transform="translate(-4, 160.40399169921875)">DOE</text><line x1="0" x2="0" y1="0" y2="320.80797321972" style="stroke: rgb(0, 0, 0);"/><rect x="-5" y="-5" width="10" style="fill: none; visibility: hidden; pointer-events: all;" height="325.80797321972"/></g><g class="node" transform="translate(1080,239.8192635423007)"><title>School</title><text dy=".35em" text-anchor="start" transform="translate(4, 161.0841522216797)">School</text><line x1="0" x2="0" y1="0" y2="322.1682897139379" style="stroke: rgb(0, 0, 0);"/><rect x="-5" y="-5" width="10" style="fill: none; visibility: hidden; pointer-events: all;" height="327.1682897139379"/></g><g class="node" transform="translate(0,490.1261550379018)"><title>CUNY</title><text dy=".35em" text-anchor="end" transform="translate(-4, 36.275108337402344)">CUNY</text><line x1="0" x2="0" y1="0" y2="72.55021302495435" style="stroke: rgb(0, 0, 0);"/><rect x="-5" y="-5" width="10" style="fill: none; visibility: hidden; pointer-events: all;" height="77.55021302495435"/></g><g class="node" transform="translate(1080,149)"><title>College</title><text dy=".35em" text-anchor="start" transform="translate(4, 34.2346305847168)">College</text><line x1="0" x2="0" y1="0" y2="68.46926354230067" style="stroke: rgb(0, 0, 0);"/><rect x="-5" y="-5" width="10" style="fill: none; visibility: hidden; pointer-events: all;" height="73.46926354230067"/></g><g class="node" transform="translate(0,619.1830907984286)"><title>DCLA</title><text dy=".35em" text-anchor="end" transform="translate(-4, 37.975502014160156)">DCLA</text><line x1="0" x2="0" y1="0" y2="75.95100426049909" style="stroke: rgb(0, 0, 0);"/><rect x="-5" y="-5" width="10" style="fill: none; visibility: hidden; pointer-events: all;" height="80.95100426049909"/></g><g class="node" transform="translate(1080,699.1301278149726)"><title>Zoo</title><text dy=".35em" text-anchor="start" transform="translate(4, 17.457395553588867)">Zoo</text><line x1="0" x2="0" y1="0" y2="34.91479001825928" style="stroke: rgb(0, 0, 0);"/><rect x="-5" y="-5" width="10" style="fill: none; visibility: hidden; pointer-events: all;" height="39.91479001825928"/></g><g class="node" transform="translate(0,743.7056382448957)"><title>DEP</title><text dy=".35em" text-anchor="end" transform="translate(-4, 17.344036102294922)">DEP</text><line x1="0" x2="0" y1="0" y2="34.6880706025563" style="stroke: rgb(0, 0, 0);"/><rect x="-5" y="-5" width="10" style="fill: none; visibility: hidden; pointer-events: all;" height="39.6880706025563"/></g><g class="node" transform="translate(1080,788.9472915398661)"><title>WPCP</title><text dy=".35em" text-anchor="start" transform="translate(4, 16.097078323364258)">WPCP</text><line x1="0" x2="0" y1="0" y2="32.194157029823494" style="stroke: rgb(0, 0, 0);"/><rect x="-5" y="-5" width="10" style="fill: none; visibility: hidden; pointer-events: all;" height="37.194157029823494"/></g><g class="node" transform="translate(0,1092.5814751286448)"><title>FDNY</title><text dy=".35em" text-anchor="end" transform="translate(-4, 22.33186149597168)">FDNY</text><line x1="0" x2="0" y1="0" y2="44.66372489348752" style="stroke: rgb(0, 0, 0);"/><rect x="-5" y="-5" width="10" style="fill: none; visibility: hidden; pointer-events: all;" height="49.66372489348752"/></g><g class="node" transform="translate(1080,1011.6583079732197)"><title>FDNY 
 Facilities</title><text dy=".35em" text-anchor="start" transform="translate(4, 20.178028106689453)"><tspan x="0" dy="-0.33000000000000007em">FDNY </tspan><tspan x="0" dy="1.1em"> Facilities</tspan></text><line x1="0" x2="0" y1="0" y2="40.35605599513086" style="stroke: rgb(0, 0, 0);"/><rect x="-5" y="-5" width="10" style="fill: none; visibility: hidden; pointer-events: all;" height="45.35605599513086"/></g><g class="node" transform="translate(0,1289.6212582305095)"><title>NYPL</title><text dy=".35em" text-anchor="end" transform="translate(-4, 8.842057228088379)">NYPL</text><line x1="0" x2="0" y1="0" y2="17.68411442483262" style="stroke: rgb(0, 0, 0);"/><rect x="-5" y="-5" width="10" style="fill: none; visibility: hidden; pointer-events: all;" height="22.68411442483262"/></g><g class="node" transform="translate(1080,1296.7897139379183)"><title>Library</title><text dy=".35em" text-anchor="start" transform="translate(4, 22.10514259338379)">Library</text><line x1="0" x2="0" y1="0" y2="44.21028606208156" style="stroke: rgb(0, 0, 0);"/><rect x="-5" y="-5" width="10" style="fill: none; visibility: hidden; pointer-events: all;" height="49.21028606208156"/></g><g class="node" transform="translate(0,1019.9776738781605)"><title>NYPD</title><text dy=".35em" text-anchor="end" transform="translate(-4, 11.222611427307129)">NYPD</text><line x1="0" x2="0" y1="0" y2="22.445222154595253" style="stroke: rgb(0, 0, 0);"/><rect x="-5" y="-5" width="10" style="fill: none; visibility: hidden; pointer-events: all;" height="27.445222154595253"/></g><g class="node" transform="translate(1080,1074.3643639683505)"><title>Police 
 Precinct</title><text dy=".35em" text-anchor="start" transform="translate(4, 8.161898612976074)"><tspan x="0" dy="-0.33000000000000007em">Police </tspan><tspan x="0" dy="1.1em"> Precinct</tspan></text><line x1="0" x2="0" y1="0" y2="16.323797930614727" style="stroke: rgb(0, 0, 0);"/><rect x="-5" y="-5" width="10" style="fill: none; visibility: hidden; pointer-events: all;" height="21.323797930614727"/></g><g class="node" transform="translate(0,1327.6235544735239)"><title>QPL</title><text dy=".35em" text-anchor="end" transform="translate(-4, 6.688222885131836)">QPL</text><line x1="0" x2="0" y1="0" y2="13.376445526475958" style="stroke: rgb(0, 0, 0);"/><rect x="-5" y="-5" width="10" style="fill: none; visibility: hidden; pointer-events: all;" height="18.37644552647596"/></g><g class="node" transform="translate(0,1256.1533503015546)"><title>BPL</title><text dy=".35em" text-anchor="end" transform="translate(-4, 6.574862957000732)">BPL</text><line x1="0" x2="0" y1="0" y2="13.149726110772976" style="stroke: rgb(0, 0, 0);"/><rect x="-5" y="-5" width="10" style="fill: none; visibility: hidden; pointer-events: all;" height="18.149726110772974"/></g><g class="node" transform="translate(0,1220.644967631273)"><title>DOC</title><text dy=".35em" text-anchor="end" transform="translate(-4, 7.595100402832031)">DOC</text><line x1="0" x2="0" y1="0" y2="15.190200852099817" style="stroke: rgb(0, 0, 0);"/><rect x="-5" y="-5" width="10" style="fill: none; visibility: hidden; pointer-events: all;" height="20.190200852099817"/></g><g class="node" transform="translate(1080,1200.4929093122337)"><title>Island 
 Campus</title><text dy=".35em" text-anchor="start" transform="translate(4, 9.182136535644531)"><tspan x="0" dy="-0.33000000000000007em">Island </tspan><tspan x="0" dy="1.1em"> Campus</tspan></text><line x1="0" x2="0" y1="0" y2="18.36427267194157" style="stroke: rgb(0, 0, 0);"/><rect x="-5" y="-5" width="10" style="fill: none; visibility: hidden; pointer-events: all;" height="23.36427267194157"/></g><g class="node" transform="translate(0,896.3084158689757)"><title>ACS</title><text dy=".35em" text-anchor="end" transform="translate(-4, 10.882532119750977)">ACS</text><line x1="0" x2="0" y1="0" y2="21.765063907486304" style="stroke: rgb(0, 0, 0);"/><rect x="-5" y="-5" width="10" style="fill: none; visibility: hidden; pointer-events: all;" height="26.765063907486304"/></g><g class="node" transform="translate(1080,955.9805538648814)"><title>Center</title><text dy=".35em" text-anchor="start" transform="translate(4, 16.663877487182617)">Center</text><line x1="0" x2="0" y1="0" y2="33.327754108338404" style="stroke: rgb(0, 0, 0);"/><rect x="-5" y="-5" width="10" style="fill: none; visibility: hidden; pointer-events: all;" height="38.327754108338404"/></g><g class="node" transform="translate(0,582.994549881038)"><title>DSNY</title><text dy=".35em" text-anchor="end" transform="translate(-4, 7.935179710388184)">DSNY</text><line x1="0" x2="0" y1="0" y2="15.870359099208764" style="stroke: rgb(0, 0, 0);"/><rect x="-5" y="-5" width="10" style="fill: none; visibility: hidden; pointer-events: all;" height="20.870359099208763"/></g><g class="node" transform="translate(1080,843.4914485696896)"><title>Storage</title><text dy=".35em" text-anchor="start" transform="translate(4, 8.615337371826172)">Storage</text><line x1="0" x2="0" y1="0" y2="17.230675593426657" style="stroke: rgb(0, 0, 0);"/><rect x="-5" y="-5" width="10" style="fill: none; visibility: hidden; pointer-events: all;" height="22.230675593426657"/></g><g class="node" transform="translate(1080,612.8089774802191)"><title>Garden</title><text dy=".35em" text-anchor="start" transform="translate(4, 4.4210286140441895)">Garden</text><line x1="0" x2="0" y1="0" y2="8.84205721241631" style="stroke: rgb(0, 0, 0);"/><rect x="-5" y="-5" width="10" style="fill: none; visibility: hidden; pointer-events: all;" height="13.84205721241631"/></g><g class="node" transform="translate(1080,883.0721241631163)"><title>Others</title><text dy=".35em" text-anchor="start" transform="translate(4, 25.27921485900879)">Others</text><line x1="0" x2="0" y1="0" y2="50.558429701765064" style="stroke: rgb(0, 0, 0);"/><rect x="-5" y="-5" width="10" style="fill: none; visibility: hidden; pointer-events: all;" height="55.558429701765064"/></g><g class="node" transform="translate(1080,644.0010346926355)"><title>Harbor</title><text dy=".35em" text-anchor="start" transform="translate(4, 3.6275107860565186)">Harbor</text><line x1="0" x2="0" y1="0" y2="7.255021302495435" style="stroke: rgb(0, 0, 0);"/><rect x="-5" y="-5" width="10" style="fill: none; visibility: hidden; pointer-events: all;" height="12.255021302495436"/></g><g class="node" transform="translate(0,961.2037569855584)"><title>DPR</title><text dy=".35em" text-anchor="end" transform="translate(-4, 8.501977920532227)">DPR</text><line x1="0" x2="0" y1="0" y2="17.003956177723676" style="stroke: rgb(0, 0, 0);"/><rect x="-5" y="-5" width="10" style="fill: none; visibility: hidden; pointer-events: all;" height="22.003956177723676"/></g><g class="node" transform="translate(0,1062.7410778509377)"><title>HHC</title><text dy=".35em" text-anchor="end" transform="translate(-4, 4.761107444763184)">HHC</text><line x1="0" x2="0" y1="0" y2="9.522215459525258" style="stroke: rgb(0, 0, 0);"/><rect x="-5" y="-5" width="10" style="fill: none; visibility: hidden; pointer-events: all;" height="14.522215459525258"/></g><g class="node" transform="translate(1080,1113.0381618989652)"><title>Hospital</title><text dy=".35em" text-anchor="start" transform="translate(4, 4.534388065338135)">Hospital</text><line x1="0" x2="0" y1="0" y2="9.068776628119293" style="stroke: rgb(0, 0, 0);"/><rect x="-5" y="-5" width="10" style="fill: none; visibility: hidden; pointer-events: all;" height="14.068776628119293"/></g><g class="node" transform="translate(1080,584.3375532562386)"><title>Aquareium</title><text dy=".35em" text-anchor="start" transform="translate(4, 3.0607120990753174)">Aquareium</text><line x1="0" x2="0" y1="0" y2="6.121424223980523" style="stroke: rgb(0, 0, 0);"/><rect x="-5" y="-5" width="10" style="fill: none; visibility: hidden; pointer-events: all;" height="11.121424223980522"/></g><g class="node" transform="translate(0,1189.217534443645)"><title>DHS</title><text dy=".35em" text-anchor="end" transform="translate(-4, 5.554625511169434)">DHS</text><line x1="0" x2="0" y1="0" y2="11.109251369446135" style="stroke: rgb(0, 0, 0);"/><rect x="-5" y="-5" width="10" style="fill: none; visibility: hidden; pointer-events: all;" height="16.109251369446135"/></g><g class="node" transform="translate(0,1157.5633818403142)"><title>DCAS</title><text dy=".35em" text-anchor="end" transform="translate(-4, 5.667985439300537)">DCAS</text><line x1="0" x2="0" y1="0" y2="11.335970785149117" style="stroke: rgb(0, 0, 0);"/><rect x="-5" y="-5" width="10" style="fill: none; visibility: hidden; pointer-events: all;" height="16.335970785149115"/></g><g class="node" transform="translate(1080,1241.2071819841753)"><title>Court</title><text dy=".35em" text-anchor="start" transform="translate(4, 2.947352409362793)">Court</text><line x1="0" x2="0" y1="0" y2="5.894704808277541" style="stroke: rgb(0, 0, 0);"/><rect x="-5" y="-5" width="10" style="fill: none; visibility: hidden; pointer-events: all;" height="10.894704808277542"/></g><g class="node" transform="translate(0,715.4522768771095)"><title>DOT</title><text dy=".35em" text-anchor="end" transform="translate(-4, 3.967589855194092)">DOT</text><line x1="0" x2="0" y1="0" y2="7.935179549604382" style="stroke: rgb(0, 0, 0);"/><rect x="-5" y="-5" width="10" style="fill: none; visibility: hidden; pointer-events: all;" height="12.935179549604381"/></g><g class="node" transform="translate(1080,1269.4518867924528)"><title>Shelter</title><text dy=".35em" text-anchor="start" transform="translate(4, 2.4939136505126953)">Shelter</text><line x1="0" x2="0" y1="0" y2="4.987827145465611" style="stroke: rgb(0, 0, 0);"/><rect x="-5" y="-5" width="10" style="fill: none; visibility: hidden; pointer-events: all;" height="9.987827145465612"/></g><g class="node" transform="translate(0,821.5239860565483)"><title>HRA</title><text dy=".35em" text-anchor="end" transform="translate(-4, 3.967589855194092)">HRA</text><line x1="0" x2="0" y1="0" y2="7.935179549604382" style="stroke: rgb(0, 0, 0);"/><rect x="-5" y="-5" width="10" style="fill: none; visibility: hidden; pointer-events: all;" height="12.935179549604381"/></g><g class="node" transform="translate(1080,756.394917833232)"><title>Office</title><text dy=".35em" text-anchor="start" transform="translate(4, 5.101186752319336)">Office</text><line x1="0" x2="0" y1="0" y2="10.202373706634205" style="stroke: rgb(0, 0, 0);"/><rect x="-5" y="-5" width="10" style="fill: none; visibility: hidden; pointer-events: all;" height="15.202373706634205"/></g><g class="node" transform="translate(1080,1144.4569385270845)"><title>Residence</title><text dy=".35em" text-anchor="start" transform="translate(4, 4.647747993469238)">Residence</text><line x1="0" x2="0" y1="0" y2="9.295496043822276" style="stroke: rgb(0, 0, 0);"/><rect x="-5" y="-5" width="10" style="fill: none; visibility: hidden; pointer-events: all;" height="14.295496043822276"/></g><g class="node" transform="translate(0,871.0024069053283)"><title>DOHMH</title><text dy=".35em" text-anchor="end" transform="translate(-4, 2.4939136505126953)">DOHMH</text><line x1="0" x2="0" y1="0" y2="4.987827145465611" style="stroke: rgb(0, 0, 0);"/><rect x="-5" y="-5" width="10" style="fill: none; visibility: hidden; pointer-events: all;" height="9.987827145465612"/></g><g class="node" transform="translate(1080,673.6060559951309)"><title>Museum</title><text dy=".35em" text-anchor="start" transform="translate(4, 1.587035894393921)">Museum</text><line x1="0" x2="0" y1="0" y2="3.174071819841753" style="stroke: rgb(0, 0, 0);"/><rect x="-5" y="-5" width="10" style="fill: none; visibility: hidden; pointer-events: all;" height="8.174071819841753"/></g><g class="node" transform="translate(0,798.7118906656337)"><title>EDC</title><text dy=".35em" text-anchor="end" transform="translate(-4, 1.2469568252563477)">EDC</text><line x1="0" x2="0" y1="0" y2="2.4939135727328057" style="stroke: rgb(0, 0, 0);"/><rect x="-5" y="-5" width="10" style="fill: none; visibility: hidden; pointer-events: all;" height="7.493913572732806"/></g><g class="node" transform="translate(0,938.3916615946438)"><title>DFTA</title><text dy=".35em" text-anchor="end" transform="translate(-4, 1.2469568252563477)">DFTA</text><line x1="0" x2="0" y1="0" y2="2.4939135727328057" style="stroke: rgb(0, 0, 0);"/><rect x="-5" y="-5" width="10" style="fill: none; visibility: hidden; pointer-events: all;" height="7.493913572732806"/></g><g class="node" transform="translate(1080,1176.1024345709068)"><title>City Hall</title><text dy=".35em" text-anchor="start" transform="translate(4, 1.0202373266220093)">City Hall</text><line x1="0" x2="0" y1="0" y2="2.040474741326841" style="stroke: rgb(0, 0, 0);"/><rect x="-5" y="-5" width="10" style="fill: none; visibility: hidden; pointer-events: all;" height="7.040474741326841"/></g><g class="node" transform="translate(0,998.5258949814638)"><title>FIT</title><text dy=".35em" text-anchor="end" transform="translate(-4, 0.5667985081672668)">FIT</text><line x1="0" x2="0" y1="0" y2="1.1335970785149116" style="stroke: rgb(0, 0, 0);"/><rect x="-5" y="-5" width="10" style="fill: none; visibility: hidden; pointer-events: all;" height="6.133597078514912"/></g><g class="node" transform="translate(0,849.7773474243345)"><title>OCME</title><text dy=".35em" text-anchor="end" transform="translate(-4, 0.4534388482570648)">OCME</text><line x1="0" x2="0" y1="0" y2="1" style="stroke: rgb(0, 0, 0);"/><rect x="-5" y="-5" width="10" style="fill: none; visibility: hidden; pointer-events: all;" height="6"/></g></g><g class="slice-titles"/></g></svg>