<?xml version="1.0" standalone="no"?><!DOCTYPE svg PUBLIC "-//W3C//DTD SVG 1.1//EN" "http://www.w3.org/Graphics/SVG/1.1/DTD/svg11.dtd"><svg xmlns="http://www.w3.org/2000/svg" width="1280" height="1500" viewBox="0 0 1280 1500" style="font-family: &quot;Helvetica Neue&quot;, Helvetica, Arial, sans-serif;"><g class="sankey" transform="translate(100,10)"><g class="groups"/><g class="links"><g class="link" style="opacity: 0.8;"><path d="M0,1095.386349912165 A4460.807174458213 4460.807174458213 0.044522917358708725 0 0 198.54253918780617,1090.9657731169875 L881.3684443936745,1060.544267695111 A4462.807174458213 4462.807174458213 0.044522917358708725 0 1 1080,1056.121708937198 L1080,1058.121708937198 A4460.807174458213 4460.807174458213 0.044522917358708725 0 0 881.4574608121939,1062.5422857323756 L198.63155560632552,1092.963791154252 A4462.807174458213 4462.807174458213 0.044522917358708725 0 1 0,1097.386349912165 Z" style="fill: rgb(251, 191, 173);"/><title>DCAS → FDNY 
 Facilities
3.00</title></g><g class="link" style="opacity: 0.8;"><path d="M0,985.5462917215638 A2155.80880870782 2155.80880870782 0.09237937593085355 0 0 198.8691339902549,976.3540503699626 L880.9463699327396,913.1643259966859 A2157.80880870782 2157.80880870782 0.09237937593085355 0 1 1080,903.963556763285 L1080,905.963556763285 A2155.80880870782 2155.80880870782 0.09237937593085355 0 0 881.130866009745,915.1557981148862 L199.05363006726043,978.3455224881629 A2157.80880870782 2157.80880870782 0.09237937593085355 0 1 0,987.5462917215638 Z" style="fill: rgb(255, 230, 116);"/><title>DPR → Storage
3.00</title></g><g class="link" style="opacity: 0.8;"><path d="M0,1126.5016331796223 A1757.0703357531443 1757.0703357531443 0.1135563076623256 0 0 199.09787933214918,1115.1850599110696 L880.6754958421043,1037.4532165299845 A1759.0703357531443 1759.0703357531443 0.1135563076623256 0 1 1080,1026.1237620772945 L1080,1028.1237620772945 A1757.0703357531443 1757.0703357531443 0.1135563076623256 0 0 880.9021206678508,1039.4403353458472 L199.32450415789563,1117.1721787269323 A1759.0703357531443 1759.0703357531443 0.1135563076623256 0 1 0,1128.5016331796223 Z" style="fill: rgb(59, 179, 50);"/><title>FDNY → Center
3.00</title></g><g class="link" style="opacity: 0.8;"><path d="M0,869.0316617259555 A5762.311421155281 5762.311421155281 0.034456057379673055 0 0 198.50724890004238,865.6114347599456 L881.4238526200277,842.0715046481572 A5764.311421155281 5764.311421155281 0.034456057379673055 0 1 1080,838.6500905797102 L1080,840.6500905797102 A5762.311421155281 5762.311421155281 0.034456057379673055 0 0 881.4927510999576,844.0703175457201 L198.57614737997227,867.6102476575085 A5764.311421155281 5764.311421155281 0.034456057379673055 0 1 0,871.0316617259555 Z" style="fill: rgb(251, 191, 173);"/><title>DOHMH → Others
3.00</title></g><g class="link" style="opacity: 0.8;"><path d="M0,728.4484930830041 A1722.41690317836 1722.41690317836 0.11600384614018888 0 1 199.35915666969936,740.0246921025935 L880.8723310221618,819.4393865086416 A1720.41690317836 1720.41690317836 0.11600384614018888 0 0 1080,831.0021437198068 L1080,833.0021437198068 A1722.41690317836 1722.41690317836 0.11600384614018888 0 1 880.6408433303008,821.4259447002174 L199.1276689778382,742.0112502941693 A1720.41690317836 1720.41690317836 0.11600384614018888 0 0 0,730.4484930830041 Z" style="fill: rgb(248, 88, 104);"/><title>HRA → Others
3.00</title></g><g class="link" style="opacity: 0.8;"><path d="M0,1222.2482021299954 A10222.688984852093 10222.688984852093 0.019416472369523596 0 0 198.47608677383406,1220.3212888650926 L881.4850827213803,1207.0579967741971 A10224.688984852093 10224.688984852093 0.019416472369523596 0 1 1080,1205.130706521739 L1080,1207.130706521739 A10222.688984852093 10222.688984852093 0.019416472369523596 0 0 881.523913226166,1209.057619786642 L198.5149172786196,1222.3209118775374 A10224.688984852093 10224.688984852093 0.019416472369523596 0 1 0,1224.2482021299954 Z" style="fill: rgb(251, 191, 173);"/><title>DOC → Court
3.00</title></g><g class="link" style="opacity: 0.8;"><path d="M0,636.4522809617919 A7683.581847124201 7683.581847124201 0.025835387090038298 0 0 198.48622903010428,633.8881540581318 L881.4621059436153,616.2392810487369 A7685.581847124201 7685.581847124201 0.025835387090038298 0 1 1080,613.6744867149758 L1080,615.6744867149758 A7683.581847124201 7683.581847124201 0.025835387090038298 0 0 881.5137709698957,618.2386136186359 L198.53789405638483,635.8874866280308 A7685.581847124201 7685.581847124201 0.025835387090038298 0 1 0,638.4522809617919 Z" style="fill: rgb(59, 179, 50);"/><title>DSNY → School
3.00</title></g><g class="link" style="opacity: 0.8;"><path d="M0,894.2985150417219 A665.962890613256 665.962890613256 0.3110267186266642 0 0 203.80878841136703,862.3455213861191 L875.5791390804375,646.3982594939488 A667.962890613256 667.962890613256 0.3110267186266642 0 1 1080,614.3493055555556 L1080,616.3493055555556 A665.962890613256 665.962890613256 0.3110267186266642 0 0 876.191211588633,648.3022992111584 L204.42086091956244,864.2495611033287 A667.962890613256 667.962890613256 0.3110267186266642 0 1 0,896.2985150417219 Z" style="fill: rgb(248, 88, 104);"/><title>ACS → School
3.00</title></g><g class="link" style="opacity: 0.8;"><path d="M0,637.1270998023716 A55172.33116992193 55172.33116992193 0.0035974331995289877 0 1 198.47834774333487,637.4841064861671 L881.5288471075454,639.9413456296968 A55170.33116992193 55170.33116992193 0.0035974331995289877 0 0 1080,640.2983393719807 L1080,642.2983393719807 A55172.33116992193 55172.33116992193 0.0035974331995289877 0 1 881.5216522566651,641.9413326881852 L198.47115289245457,639.4840935446555 A55170.33116992193 55170.33116992193 0.0035974331995289877 0 0 0,639.1270998023716 Z" style="fill: rgb(251, 191, 173);"/><title>DSNY → Office
3.00</title></g><g class="link" style="opacity: 0.8;"><path d="M0,986.2211105621435 A3230.1879905393403 3230.1879905393403 0.061530129254137034 0 0 198.6284960408414,980.108363373233 L881.2485213360899,938.0535790528608 A3232.1879905393403 3232.1879905393403 0.061530129254137034 0 1 1080,931.9370471014493 L1080,933.9370471014493 A3230.1879905393403 3230.1879905393403 0.061530129254137034 0 0 881.3715039591586,940.0497942903597 L198.75147866391018,982.104578610732 A3232.1879905393403 3232.1879905393403 0.061530129254137034 0 1 0,988.2211105621435 Z" style="fill: rgb(59, 179, 50);"/><title>DPR → Museum
3.00</title></g><g class="link" style="opacity: 0.8;"><path d="M0,1194.0571338383838 A9708.429355428254 9708.429355428254 0.02044524576521889 0 0 198.4773959659479,1192.028103588957 L881.4817163912214,1178.0619663588823 A9710.429355428254 9710.429355428254 0.02044524576521889 0 1 1080,1176.032518115942 L1080,1178.032518115942 A9708.429355428254 9708.429355428254 0.02044524576521889 0 0 881.5226040340522,1180.0615483653687 L198.51828360877857,1194.0276855954435 A9710.429355428254 9710.429355428254 0.02044524576521889 0 1 0,1196.0571338383838 Z" style="fill: rgb(255, 230, 116);"/><title>DHS → Residence
3.00</title></g><g class="link" style="opacity: 0.8;"><path d="M0,672.8536451471234 A5511.191092455595 5511.191092455595 0.03602759236889996 0 0 198.5119952969025,669.2773036781241 L881.4159651051352,644.6632673353433 A5513.191092455595 5513.191092455595 0.03602759236889996 0 1 1080,641.0856280193236 L1080,643.0856280193236 A5511.191092455595 5511.191092455595 0.03602759236889996 0 0 881.4880047030974,646.6619694883229 L198.58403489486477,671.2760058311037 A5513.191092455595 5513.191092455595 0.03602759236889996 0 1 0,674.8536451471234 Z" style="fill: rgb(248, 88, 104);"/><title>DOT → Office
4.00</title></g><g class="link" style="opacity: 0.8;"><path d="M0,1092.12472551603 A458.61402379013117 458.61402379013117 0.48032111732808946 0 0 211.90902165182047,1040.2309856552147 L867.1668503858441,698.8291650347932 A460.61402379013117 460.61402379013117 0.48032111732808946 0 1 1080,646.7091183574878 L1080,648.7091183574878 A458.61402379013117 458.61402379013117 0.48032111732808946 0 0 868.0909783481795,700.6028582183031 L212.83314961415596,1042.0046788387244 A460.61402379013117 460.61402379013117 0.48032111732808946 0 1 0,1094.12472551603 Z" style="fill: rgb(248, 88, 104);"/><title>DCAS → Office
4.00</title></g><g class="link" style="opacity: 0.8;"><path d="M0,1221.4609134826526 A3924.9538380873782 3924.9538380873782 0.050613160538916846 0 0 198.569514380656,1216.4347251198803 L881.329302511174,1181.8485562712683 A3926.9538380873782 3926.9538380873782 0.050613160538916846 0 1 1080,1176.819806763285 L1080,1178.819806763285 A3924.9538380873782 3924.9538380873782 0.050613160538916846 0 0 881.430485619344,1183.8459951260572 L198.67069748882594,1218.4321639746693 A3926.9538380873782 3926.9538380873782 0.050613160538916846 0 1 0,1223.4609134826526 Z" style="fill: rgb(248, 88, 104);"/><title>DOC → Residence
4.00</title></g><g class="link" style="opacity: 0.8;"><path d="M0,752.0282992973212 A2206.513750641926 2206.513750641926 0.0903239245945835 0 1 199.03009558825724,761.0230050110744 L881.1503067278674,822.8028795196192 A2204.513750641926 2204.513750641926 0.0903239245945835 0 0 1080,831.7894323671497 L1080,833.7894323671497 A2206.513750641926 2206.513750641926 0.0903239245945835 0 1 880.9699044117427,824.7947266533965 L198.84969327213267,763.0148521448517 A2204.513750641926 2204.513750641926 0.0903239245945835 0 0 0,754.0282992973212 Z" style="fill: rgb(251, 191, 173);"/><title>OCME → Others
4.00</title></g><g class="link" style="opacity: 0.8;"><path d="M0,1061.909200702679 A884.4128074358601 884.4128074358601 0.22960792139509412 0 0 201.28859821690014,1038.6984103246373 L878.2562102785795,880.4708876631464 A886.4128074358601 886.4128074358601 0.22960792139509412 0 1 1080,857.2076086956522 L1080,859.2076086956522 A884.4128074358601 884.4128074358601 0.22960792139509412 0 0 878.7114017830999,882.4183990736938 L201.7437897214205,1040.6459217351849 A886.4128074358601 886.4128074358601 0.22960792139509412 0 1 0,1063.909200702679 Z" style="fill: rgb(251, 191, 173);"/><title>HHC → Others
4.00</title></g><g class="link" style="opacity: 0.8;"><path d="M0,836.0043917435223 A2659.9225909682173 2659.9225909682173 0.07483455463622124 0 1 198.86838364502745,843.4489798002191 L881.281145806935,894.6125795891379 A2657.9225909682173 2657.9225909682173 0.07483455463622124 0 0 1080,902.0515700483091 L1080,904.0515700483091 A2659.9225909682173 2659.9225909682173 0.07483455463622124 0 1 881.1316163549725,896.6069819916123 L198.718854193065,845.4433822026936 A2657.9225909682173 2657.9225909682173 0.07483455463622124 0 0 0,838.0043917435223 Z" style="fill: rgb(251, 191, 173);"/><title>DCLA → Storage
4.00</title></g><g class="link" style="opacity: 0.8;"><path d="M0,560.5003980017567 A723.7061840183352 723.7061840183352 0.2849978634468173 0 1 203.4739023206581,589.6930746922764 L877.088408481195,787.0441280298074 A721.7061840183352 721.7061840183352 0.2849978634468173 0 0 1080,816.1561292270532 L1080,818.1561292270532 A723.7061840183352 723.7061840183352 0.2849978634468173 0 1 876.5260976793419,788.9634525365335 L202.9115915188051,591.6123991990024 A721.7061840183352 721.7061840183352 0.2849978634468173 0 0 0,562.5003980017567 Z" style="fill: rgb(251, 191, 173);"/><title>CUNY → Others
5.00</title></g><g class="link" style="opacity: 0.8;"><path d="M0,1040.5787906236278 A10068.788451521352 10068.788451521352 0.019713325873299548 0 0 198.4764521497122,1038.6224117769664 L881.4841237521244,1025.1563145507428 A10070.788451521352 10070.788451521352 0.019713325873299548 0 1 1080,1023.1995471014493 L1080,1025.1995471014493 A10068.788451521352 10068.788451521352 0.019713325873299548 0 0 881.5235478502879,1027.1559259481107 L198.5158762478756,1040.6220231743343 A10070.788451521352 10070.788451521352 0.019713325873299548 0 1 0,1042.5787906236278 Z" style="fill: rgb(248, 88, 104);"/><title>FIT → Center
5.00</title></g><g class="link" style="opacity: 0.8;"><path d="M0,940.7096920289857 A4652.165715785075 4652.165715785075 0.042688840296105424 0 0 198.53524675912445,936.4714286597025 L881.379401489073,907.3038837388219 A4654.165715785075 4654.165715785075 0.042688840296105424 0 1 1080,903.0637983091788 L1080,905.0637983091788 A4652.165715785075 4652.165715785075 0.042688840296105424 0 0 881.4647532408756,909.302061678462 L198.62059851092704,938.4696065993426 A4654.165715785075 4654.165715785075 0.042688840296105424 0 1 0,942.7096920289857 Z" style="fill: rgb(59, 179, 50);"/><title>NYPD → Storage
5.00</title></g><g class="link" style="opacity: 0.8;"><path d="M0,1123.8023578173036 A703.439839004054 703.439839004054 0.2930103696448094 0 0 203.17846326926107,1093.8208465229832 L876.2438655440831,890.7609265737167 A705.439839004054 705.439839004054 0.2930103696448094 0 1 1080,860.694172705314 L1080,862.694172705314 A703.439839004054 703.439839004054 0.2930103696448094 0 0 876.8215367307389,892.6756839996344 L203.75613445591702,1095.735603948901 A705.439839004054 705.439839004054 0.2930103696448094 0 1 0,1125.8023578173036 Z" style="fill: rgb(59, 179, 50);"/><title>FDNY → Others
5.00</title></g><g class="link" style="opacity: 0.8;"><path d="M0,958.2549818840582 A1849.4174034934572 1849.4174034934572 0.10794488385328282 0 1 199.24767791236198,969.0193198996876 L880.9677928380872,1042.894675960838 A1847.4174034934572 1847.4174034934572 0.10794488385328282 0 0 1080,1053.647373188406 L1080,1055.647373188406 A1849.4174034934572 1849.4174034934572 0.10794488385328282 0 1 880.752322087638,1044.8830351727765 L199.03220716191268,971.0076791116262 A1847.4174034934572 1847.4174034934572 0.10794488385328282 0 0 0,960.2549818840582 Z" style="fill: rgb(248, 88, 104);"/><title>NYPD → FDNY 
 Facilities
5.00</title></g><g class="link" style="opacity: 0.8;"><path d="M0,1161.3672732762407 A12713.113352960194 12713.113352960194 0.015614711006393112 0 1 198.50352427345405,1162.9170923486456 L881.5277038795188,1173.5831844036768 A12711.113352960194 12711.113352960194 0.015614711006393112 0 0 1080,1175.1327596618357 L1080,1177.1327596618357 A12713.113352960194 12713.113352960194 0.015614711006393112 0 1 881.496475726546,1175.5829405894308 L198.47229612048125,1164.9168485343996 A12711.113352960194 12711.113352960194 0.015614711006393112 0 0 0,1163.3672732762407 Z" style="fill: rgb(59, 179, 50);"/><title>FDNY → Residence
5.00</title></g><g class="link" style="opacity: 0.8;"><path d="M0,1220.3362154150198 A1344.8911500032102 1344.8911500032102 0.14896146853781778 0 0 199.59688549798042,1205.4425423479365 L880.1062921376259,1103.3163650635602 A1346.8911500032102 1346.8911500032102 0.14896146853781778 0 1 1080,1088.400543478261 L1080,1090.400543478261 A1344.8911500032102 1344.8911500032102 0.14896146853781778 0 0 880.4031145020195,1105.2942165453442 L199.893707862374,1207.4203938297205 A1346.8911500032102 1346.8911500032102 0.14896146853781778 0 1 0,1222.3362154150198 Z" style="fill: rgb(248, 88, 104);"/><title>DOC → FDNY 
 Facilities
6.00</title></g><g class="link" style="opacity: 0.8;"><path d="M0,842.9775197628461 A879.2054399882771 879.2054399882771 0.23158901864983394 0 1 201.79910911293337,866.4497505870718 L878.6599397053169,1026.0671537031842 A877.2054399882771 877.2054399882771 0.23158901864983394 0 0 1080,1049.4859903381644 L1080,1051.4859903381644 A879.2054399882771 879.2054399882771 0.23158901864983394 0 1 878.2008908870666,1028.0137595139388 L201.34006029468304,868.3963563978261 A877.2054399882771 877.2054399882771 0.23158901864983394 0 0 0,844.9775197628461 Z" style="fill: rgb(59, 179, 50);"/><title>DCLA → FDNY 
 Facilities
6.00</title></g><g class="link" style="opacity: 0.8;"><path d="M0,994.0939970355734 A2882.899687961711 2882.899687961711 0.06901825640705295 0 1 198.81477907512544,1000.9576465459162 L881.3231478738456,1048.1381229883134 A2880.899687961711 2880.899687961711 0.06901825640705295 0 0 1080,1054.9970108695654 L1080,1056.9970108695654 A2882.899687961711 2882.899687961711 0.06901825640705295 0 1 881.1852209248747,1050.1333613592226 L198.67685212615436,1002.9528849168252 A2880.899687961711 2880.899687961711 0.06901825640705295 0 0 0,996.0939970355734 Z" style="fill: rgb(59, 179, 50);"/><title>DPR → FDNY 
 Facilities
7.00</title></g><g class="link" style="opacity: 0.8;"><path d="M0,1125.2644653052262 A827.0519405001791 827.0519405001791 0.2464133890612279 0 0 201.7405166529031,1100.2821453653396 L877.7716288200138,930.2434575183191 A829.0519405001791 829.0519405001791 0.2464133890612279 0 1 1080,905.2007246376811 L1080,907.2007246376811 A827.0519405001791 827.0519405001791 0.2464133890612279 0 0 878.2594833470969,932.1830445775678 L202.2283711799861,1102.221732424588 A829.0519405001791 829.0519405001791 0.2464133890612279 0 1 0,1127.2644653052262 Z" style="fill: rgb(59, 179, 50);"/><title>FDNY → Storage
8.00</title></g><g class="link" style="opacity: 0.8;"><path d="M0,1096.723759332455 A11146.178820626432 11146.178820626432 0.01781064349500361 0 1 198.51012171954014,1098.4916025695418 L881.5259332475489,1110.657840171324 A11144.154364104692 11144.154364104692 0.01781064349500361 0 0 1080,1112.4253623188406 L1080,1114.4498188405796 A11146.178820626432 11146.178820626432 0.01781064349500361 0 1 881.4898782804598,1112.681975603493 L198.47406675245108,1100.5157380017106 A11144.154364104692 11144.154364104692 0.01781064349500361 0 0 0,1098.748215854194 Z" style="fill: rgb(59, 179, 50);"/><title>DCAS → City Hall
9.00</title></g><g class="link" style="opacity: 0.8;"><path d="M0,1063.3590799297322 A4537.750556153599 4537.750556153599 0.04376669603804739 0 0 198.5389507761308,1059.013689310867 L881.3724737350351,1029.1092253918475 A4539.775012675339 4539.775012675339 0.04376669603804739 0 1 1080,1024.7618961352657 L1080,1026.7863526570047 A4537.750556153599 4537.750556153599 0.04376669603804739 0 0 881.4610492238692,1031.13174327587 L198.6275262649648,1061.0362071948894 A4539.775012675339 4539.775012675339 0.04376669603804739 0 1 0,1065.3835364514712 Z" style="fill: rgb(248, 88, 104);"/><title>HHC → Center
9.00</title></g><g class="link" style="opacity: 0.8;"><path d="M0,995.8812856829164 A1012.4384828760885 1012.4384828760885 0.19983050536889313 0 1 200.97229072135997,1016.028571394259 L879.4295704005958,1153.4389545996241 A1010.4140263543493 1010.4140263543493 0.19983050536889313 0 0 1080,1173.5459541062803 L1080,1175.5704106280193 A1012.4384828760885 1012.4384828760885 0.19983050536889313 0 1 879.02770927864,1155.423124916677 L200.5704295994043,1018.0127417113115 A1010.4140263543493 1010.4140263543493 0.19983050536889313 0 0 0,997.9057422046557 Z" style="fill: rgb(255, 230, 116);"/><title>DPR → Residence
9.00</title></g><g class="link" style="opacity: 0.8;"><path d="M0,679.2521958717612 A824.7225377239603 824.7225377239603 0.24778929760170376 0 1 202.27258724764033,704.4417044605926 L878.2239337514736,875.4495587061591 A822.698081202221 822.698081202221 0.24778929760170376 0 0 1080,900.5772342995169 L1080,902.6016908212562 A824.7225377239603 824.7225377239603 0.24778929760170376 0 1 877.7274127523597,877.4121822324247 L201.77606624852632,706.4043279868582 A822.698081202221 822.698081202221 0.24778929760170376 0 0 0,681.2766523935004 Z" style="fill: rgb(248, 88, 104);"/><title>DOT → Storage
9.00</title></g><g class="link" style="opacity: 0.8;"><path d="M0,729.7859025032939 A702.1301753393458 702.1301753393458 0.2946212064479212 0 1 203.88273392830115,760.0391442245983 L876.8357572501709,964.2484202617159 A699.6558395905535 699.6558395905535 0.2946212064479212 0 0 1080,994.3950483091787 L1080,996.869384057971 A702.1301753393458 702.1301753393458 0.2946212064479212 0 1 876.1172660716989,966.6161423366666 L203.16424274982916,762.406866299549 A699.6558395905535 699.6558395905535 0.2946212064479212 0 0 0,732.2602382520862 Z" style="fill: rgb(251, 191, 173);"/><title>HRA → Center
11.0</title></g><g class="link" style="opacity: 0.8;"><path d="M0,614.3223539745279 A891.9399683425133 891.9399683425133 0.22817585828015075 0 1 201.7577482168338,637.4408687598007 L878.8019491021869,794.6640966792007 A889.465632593721 889.465632593721 0.22817585828015075 0 0 1080,817.7184782608696 L1080,820.1928140096619 A891.9399683425133 891.9399683425133 0.22817585828015075 0 1 878.2422517831662,797.0742992243892 L201.19805089781303,639.8510713049891 A889.465632593721 889.465632593721 0.22817585828015075 0 0 0,616.7966897233202 Z" style="fill: rgb(251, 191, 173);"/><title>DEP → Others
11.0</title></g><g class="link" style="opacity: 0.8;"><path d="M0,1018.2239240228373 A59533.38040534271 59533.38040534271 0.0033339134641121593 0 1 198.47877081577846,1018.5547798524746 L881.5294783902075,1020.8320202402855 A59530.90606959392 59530.90606959392 0.0033339134641121593 0 0 1080,1021.1628623188406 L1080,1023.6371980676329 A59533.38040534271 59533.38040534271 0.0033339134641121593 0 1 881.5212291842215,1023.3063422379956 L198.47052160979248,1021.0291018501847 A59530.90606959392 59530.90606959392 0.0033339134641121593 0 0 0,1020.6982597716296 Z" style="fill: rgb(248, 88, 104);"/><title>DFTA → Center
11.0</title></g><g class="link" style="opacity: 0.8;"><path d="M0,701.5948342116822 A1391.5840433697156 1391.5840433697156 0.14410510475040317 0 1 199.84102579975686,716.0188599478232 L880.5143058071034,814.7920197618095 A1389.1097076209232 1389.1097076209232 0.14410510475040317 0 0 1080,829.1903985507247 L1080,831.664734299517 A1391.5840433697156 1391.5840433697156 0.14410510475040317 0 1 880.158974200243,817.240708563376 L199.4856941928966,718.4675487493897 A1389.1097076209232 1389.1097076209232 0.14410510475040317 0 0 0,704.0691699604745 Z" style="fill: rgb(255, 230, 116);"/><title>EDC → Others
11.0</title></g><g class="link" style="opacity: 0.8;"><path d="M0,1093.574604743083 A778.773715310362 778.773715310362 0.26257750411928305 0 0 202.14673665706712,1066.8814679063332 L877.210998603922,885.4354347388164 A781.2480510591544 781.2480510591544 0.26257750411928305 0 1 1080,858.6574879227053 L1080,861.1318236714976 A778.773715310362 778.773715310362 0.26257750411928305 0 0 877.8532633429329,887.8249605082474 L202.7890013960779,1069.2709936757644 A781.2480510591544 781.2480510591544 0.26257750411928305 0 1 0,1096.0489404918753 Z" style="fill: rgb(255, 230, 116);"/><title>DCAS → Others
11.0</title></g><g class="link" style="opacity: 0.8;"><path d="M0,840.6034255599475 A1144.4191787677757 1144.4191787677757 0.1760987581722433 0 1 200.49080578203103,858.3022781028068 L879.982080291935,979.2122767754993 A1141.7199034054568 1141.7199034054568 0.1760987581722433 0 0 1080,996.8693840579709 L1080,999.5686594202897 A1144.4191787677757 1144.4191787677757 0.1760987581722433 0 1 879.5091942179689,981.8698068774304 L200.01791970806505,860.9598082047379 A1141.7199034054568 1141.7199034054568 0.1760987581722433 0 0 0,843.3027009222662 Z" style="fill: rgb(59, 179, 50);"/><title>DCLA → Center
12.0</title></g><g class="link" style="opacity: 0.8;"><path d="M0,1159.1056488801055 A11411.854866790105 11411.854866790105 0.01739224613495849 0 0 198.46778258579553,1157.37970511083 L881.4852733194888,1145.4992988710949 A11414.554142152425 11414.554142152425 0.01739224613495849 0 1 1080,1143.7729468599034 L1080,1146.4722222222224 A11411.854866790105 11411.854866790105 0.01739224613495849 0 0 881.5322174142044,1148.198165991498 L198.51472668051116,1160.078572231233 A11414.554142152425 11414.554142152425 0.01739224613495849 0 1 0,1161.8049242424245 Z" style="fill: rgb(251, 191, 173);"/><title>FDNY → Hospital
12.0</title></g><g class="link" style="opacity: 0.8;"><path d="M0,558.0138339920949 A2199.8402095942874 2199.8402095942874 0.09061930481040603 0 1 199.07526624496418,567.0400427827233 L881.189361554971,629.0225045907401 A2196.915994618442 2196.915994618442 0.09061930481040603 0 0 1080,638.0367149758454 L1080,640.9609299516908 A2199.8402095942874 2199.8402095942874 0.09061930481040603 0 1 880.9247337550358,631.9347211610624 L198.81063844502896,569.9522593530455 A2196.915994618442 2196.915994618442 0.09061930481040603 0 0 0,560.9380489679403 Z" style="fill: rgb(248, 88, 104);"/><title>CUNY → Office
13.0</title></g><g class="link" style="opacity: 0.8;"><path d="M0,913.6310935441373 A1294.25299694746 1294.25299694746 0.1552142793226705 0 1 200.08090846091446,929.190049613586 L880.3711512138802,1035.6370067712564 A1291.3287819716147 1291.3287819716147 0.1552142793226705 0 0 1080,1051.160809178744 L1080,1054.0850241545893 A1294.25299694746 1294.25299694746 0.1552142793226705 0 1 879.9190915390855,1038.5260680851407 L199.62884878611973,932.0791109274704 A1291.3287819716147 1291.3287819716147 0.1552142793226705 0 0 0,916.5553085199828 Z" style="fill: rgb(251, 191, 173);"/><title>ACS → FDNY 
 Facilities
13.0</title></g><g class="link" style="opacity: 0.8;"><path d="M0,837.4542709705755 A1917.1914423075852 1917.1914423075852 0.10411980175065194 0 1 199.25711484694816,847.83695814819 L881.0701823878705,919.0848503857579 A1914.0422877182134 1914.0422877182134 0.10411980175065194 0 0 1080,929.4504830917874 L1080,932.5996376811595 A1917.1914423075852 1917.1914423075852 0.10411980175065194 0 1 880.7428851530519,922.216950503545 L198.92981761212948,850.9690582659771 A1914.0422877182134 1914.0422877182134 0.10411980175065194 0 0 0,840.6034255599476 Z" style="fill: rgb(59, 179, 50);"/><title>DCLA → Museum
14.0</title></g><g class="link" style="opacity: 0.8;"><path d="M0,638.4645092226614 A992.0396152774774 992.0396152774774 0.2043214362928265 0 1 201.2875738247865,659.1000320115305 L879.5339617979832,799.6415130967058 A987.9907022339992 987.9907022339992 0.2043214362928265 0 0 1080,820.1928140096619 L1080,824.2417270531402 A992.0396152774774 992.0396152774774 0.2043214362928265 0 1 878.7124261752135,803.606204264271 L200.46603820201673,663.0647231790957 A987.9907022339992 987.9907022339992 0.2043214362928265 0 0 0,642.5134222661396 Z" style="fill: rgb(59, 179, 50);"/><title>DSNY → Others
18.0</title></g><g class="link" style="opacity: 0.8;"><path d="M0,936.8734903381645 A1966.9517147334004 1966.9517147334004 0.10126538051320133 0 0 198.8438602151837,926.7968782486166 L880.7240857827053,857.5090141059031 A1971.225567390405 1971.225567390405 0.10126538051320133 0 1 1080,847.4105072463768 L1080,851.6843599033817 A1966.9517147334004 1966.9517147334004 0.10126538051320133 0 0 881.1561397848163,861.7609719929296 L199.27591421729474,931.0488361356431 A1971.225567390405 1971.225567390405 0.10126538051320133 0 1 0,941.1473429951694 Z" style="fill: rgb(255, 230, 116);"/><title>NYPD → Others
19.0</title></g><g class="link" style="opacity: 0.8;"><path d="M0,870.3690711462453 A1375.7007465560857 1375.7007465560857 0.1459004418675658 0 1 200.00400178504657,884.985344443989 L880.6173452895847,984.9977941072591 A1371.426893899081 1371.426893899081 0.1459004418675658 0 0 1080,999.5686594202898 L1080,1003.8425120772947 A1375.7007465560857 1375.7007465560857 0.1459004418675658 0 1 879.9959982149534,989.2262387795511 L199.38265471041535,889.213789116281 A1371.426893899081 1371.426893899081 0.1459004418675658 0 0 0,874.6429238032503 Z" style="fill: rgb(255, 230, 116);"/><title>DOHMH → Center
19.0</title></g><g class="link" style="opacity: 0.8;"><path d="M0,844.6523386034257 A590.7043575014601 590.7043575014601 0.35769970050920885 0 1 206.8176814782261,882.0411580986016 L874.8361937027831,1131.7323928335418 A585.9806256174021 585.9806256174021 0.35769970050920885 0 0 1080,1168.8222222222223 L1080,1173.5459541062803 A590.7043575014601 590.7043575014601 0.35769970050920885 0 1 873.1823185217739,1136.1571346111045 L205.1638062972169,886.4658998761641 A585.9806256174021 585.9806256174021 0.35769970050920885 0 0 0,849.3760704874837 Z" style="fill: rgb(59, 179, 50);"/><title>DCLA → Residence
21.0</title></g><g class="link" style="opacity: 0.8;"><path d="M0,724.3873517786562 A2147.43646387577 2147.43646387577 0.09268299067862329 0 0 198.74600578047458,715.1705659457151 L880.8168111595713,651.7725673113337 A2152.160195759828 2152.160195759828 0.09268299067862329 0 1 1080,642.5355072463768 L1080,647.2592391304348 A2147.43646387577 2147.43646387577 0.09268299067862329 0 0 881.2539942195255,656.476024963376 L199.18318884042876,719.8740235977574 A2152.160195759828 2152.160195759828 0.09268299067862329 0 1 0,729.1110836627142 Z" style="fill: rgb(248, 88, 104);"/><title>HRA → Office
21.0</title></g><g class="link" style="opacity: 0.8;"><path d="M0,674.3035243741766 A1191.8458001728477 1191.8458001728477 0.16905589927851672 0 1 200.5301803649348,691.2944151422662 L880.3024424356266,807.3213842845068 A1186.897128675263 1186.897128675263 0.16905589927851672 0 0 1080,824.2417270531402 L1080,829.1903985507246 A1191.8458001728477 1191.8458001728477 0.16905589927851672 0 1 879.4698196350652,812.199507782635 L199.69755756437328,696.1725386403944 A1186.897128675263 1186.897128675263 0.16905589927851672 0 0 0,679.252195871761 Z" style="fill: rgb(255, 230, 116);"/><title>DOT → Others
22.0</title></g><g class="link" style="opacity: 0.8;"><path d="M0,1195.3945432586738 A2378.0996115371863 2378.0996115371863 0.08381291117190726 0 1 199.0821814240126,1203.742259041207 L881.3320957206917,1261.0578799118366 A2373.1509400396017 2373.1509400396017 0.08381291117190726 0 0 1080,1269.388224637681 L1080,1274.3368961352658 A2378.0996115371863 2378.0996115371863 0.08381291117190726 0 1 880.9178185759873,1265.9891803527325 L198.66790427930832,1208.673559482103 A2373.1509400396017 2373.1509400396017 0.08381291117190726 0 0 0,1200.3432147562585 Z" style="fill: rgb(255, 230, 116);"/><title>DHS → Shelter
22.0</title></g><g class="link" style="opacity: 0.8;"><path d="M0,1098.7482158541943 A1735.3258072432022 1735.3258072432022 0.11523655466297211 0 1 199.53067206447307,1110.2575687758322 L881.0641984190358,1189.1446464615567 A1730.152196132091 1730.152196132091 0.11523655466297211 0 0 1080,1200.6196859903382 L1080,1205.7932971014495 A1735.3258072432022 1735.3258072432022 0.11523655466297211 0 1 880.469327935527,1194.2839441798117 L198.93580158096418,1115.3968664940871 A1730.152196132091 1730.152196132091 0.11523655466297211 0 0 0,1103.9218269653056 Z" style="fill: rgb(251, 191, 173);"/><title>DCAS → Court
23.0</title></g><g class="link" style="opacity: 0.8;"><path d="M0,1189.3211736934563 A581.3005296987747 581.3005296987747 0.3607212944030884 0 0 205.16955617226438,1151.9101171858365 L872.9250296752294,900.0150155462196 A586.6990804234124 586.6990804234124 0.3607212944030884 0 1 1080,862.2565217391304 L1080,867.6550724637682 A581.3005296987747 581.3005296987747 0.3607212944030884 0 0 874.8304438277356,905.0661289713879 L207.07497032477056,1156.9612306110048 A586.6990804234124 586.6990804234124 0.3607212944030884 0 1 0,1194.7197244180938 Z" style="fill: rgb(251, 191, 173);"/><title>DHS → Others
24.0</title></g><g class="link" style="opacity: 0.8;"><path d="M0,1162.9296223100573 A2668.3153147640683 2668.3153147640683 0.07465518328409915 0 1 199.01858036640152,1170.3619588743306 L881.4344070980942,1221.4026961665768 A2662.241945198851 2662.241945198851 0.07465518328409915 0 0 1080,1228.818115942029 L1080,1234.8914855072464 A2668.3153147640683 2668.3153147640683 0.07465518328409915 0 1 880.9814196335985,1227.4591489429731 L198.5655929019058,1176.418411650727 A2662.241945198851 2662.241945198851 0.07465518328409915 0 0 0,1169.0029918752748 Z" style="fill: rgb(59, 179, 50);"/><title>FDNY → Island 
 Campus
27.0</title></g><g class="link" style="opacity: 0.8;"><path d="M0,830.4811429512519 A63436.84504573203 63436.84504573203 0.0031288503660626965 0 1 198.4840719927588,830.7916566852277 L881.5349306408234,832.92882758845 A63430.77167616681 63430.77167616681 0.0031288503660626965 0 0 1080,833.239311594203 L1080,839.3126811594204 A63436.84504573203 63436.84504573203 0.0031288503660626965 0 1 881.5159280072412,839.0021674254446 L198.46506935917648,836.8649965222223 A63430.77167616681 63430.77167616681 0.0031288503660626965 0 0 0,836.5545125164693 Z" style="fill: rgb(59, 179, 50);"/><title>DCLA → Others
27.0</title></g><g class="link" style="opacity: 0.8;"><path d="M0,980.1355127360565 A1378.3051785383038 1378.3051785383038 0.14506281436703938 0 0 199.24033255298176,965.6589359911317 L879.8817340323195,866.2247262951716 A1384.3785481035213 1384.3785481035213 0.14506281436703938 0 1 1080,851.6843599033816 L1080,857.7577294685991 A1378.3051785383038 1378.3051785383038 0.14506281436703938 0 0 880.7596674470182,872.234306213524 L200.11826596768046,971.668515909484 A1384.3785481035213 1384.3785481035213 0.14506281436703938 0 1 0,986.208882301274 Z" style="fill: rgb(255, 230, 116);"/><title>DPR → Others
27.0</title></g><g class="link" style="opacity: 0.8;"><path d="M0,773.7963603425562 A1706.3712929336643 1706.3712929336643 0.1168290010946591 0 0 198.9004661874271,762.164455603587 L880.3916011118455,682.1823029591866 A1712.4446624988818 1712.4446624988818 0.1168290010946591 0 1 1080,670.508997584541 L1080,676.5823671497585 A1706.3712929336643 1706.3712929336643 0.1168290010946591 0 0 881.099533812573,688.2142718887277 L199.60839888815454,768.1964245331282 A1712.4446624988818 1712.4446624988818 0.1168290010946591 0 1 0,779.8697299077737 Z" style="fill: rgb(248, 88, 104);"/><title>DCLA → Aquareium
27.0</title></g><g class="link" style="opacity: 0.8;"><path d="M0,987.5585199824333 A6522.1104852336375 6522.1104852336375 0.030459523700783198 0 1 198.62966138914504,990.5838363284156 L881.5758534332531,1011.3924877508775 A6515.36229682784 6515.36229682784 0.030459523700783198 0 0 1080,1014.4146739130434 L1080,1021.1628623188404 A6522.1104852336375 6522.1104852336375 0.030459523700783198 0 1 881.370338610855,1018.1375459728581 L198.4241465667469,997.3288945503962 A6515.36229682784 6515.36229682784 0.030459523700783198 0 0 0,994.3067083882303 Z" style="fill: rgb(59, 179, 50);"/><title>DPR → Center
30.0</title></g><g class="link" style="opacity: 0.8;"><path d="M0,1065.3835364514714 A2464.060496591482 2464.060496591482 0.08090173666484723 0 1 199.12938744562922,1073.4428893302331 L881.4341355332053,1128.7632733967223 A2457.0873685721585 2457.0873685721585 0.08090173666484723 0 0 1080,1136.7998188405797 L1080,1143.7729468599034 A2464.060496591482 2464.060496591482 0.08090173666484723 0 1 880.8706125543708,1135.7135939811417 L198.5658644667946,1080.3932099146525 A2457.0873685721585 2457.0873685721585 0.08090173666484723 0 0 0,1072.356664470795 Z" style="fill: rgb(251, 191, 173);"/><title>HHC → Hospital
31.0</title></g><g class="link" style="opacity: 0.8;"><path d="M0,788.6423748353099 A2991.498605003897 2991.498605003897 0.06639905623914677 0 0 198.4867598404633,782.0502859401328 L881.035646381232,736.662962688613 A2998.6966726367473 2998.6966726367473 0.06639905623914677 0 1 1080,730.0550120772947 L1080,737.253079710145 A2991.498605003897 2991.498605003897 0.06639905623914677 0 0 881.5132401595367,743.8451686053221 L198.96435361876794,789.2324918568419 A2998.6966726367473 2998.6966726367473 0.06639905623914677 0 1 0,795.8404424681602 Z" style="fill: rgb(255, 230, 116);"/><title>DCLA → Harbor
32.0</title></g><g class="link" style="opacity: 0.8;"><path d="M0,895.6359244620118 A3148.660082233998 3148.660082233998 0.06307403091273112 0 0 198.4670275900393,889.3747908679509 L881.0650838016348,846.2633942982416 A3156.083089480375 3156.083089480375 0.06307403091273112 0 1 1080,839.9875000000001 L1080,847.4105072463768 A3148.660082233998 3148.660082233998 0.06307403091273112 0 0 881.5329724099607,853.6716408404377 L198.9349161983652,896.783037410147 A3156.083089480375 3156.083089480375 0.06307403091273112 0 1 0,903.0589317083885 Z" style="fill: rgb(251, 191, 173);"/><title>ACS → Others
33.0</title></g><g class="link" style="opacity: 0.8;"><path d="M0,779.8697299077736 A2169.425901064727 2169.425901064727 0.09165121001733212 0 0 198.552264896395,770.7645777863637 L880.6448367337463,708.0743383515219 A2178.198545992263 2178.198545992263 0.09165121001733212 0 1 1080,698.9323671497584 L1080,707.7050120772947 A2169.425901064727 2169.425901064727 0.09165121001733212 0 0 881.4477351036049,716.8101641987046 L199.35516326625373,779.5004036335464 A2178.198545992263 2178.198545992263 0.09165121001733212 0 1 0,788.6423748353099 Z" style="fill: rgb(255, 230, 116);"/><title>DCLA → Garden
39.0</title></g><g class="link" style="opacity: 0.8;"><path d="M0,903.0589317083885 A1756.4006857453603 1756.4006857453603 0.11401275725520499 0 1 199.81852381490688,914.4622173332779 L881.3842278058916,992.5078653353573 A1745.8285239096115 1745.8285239096115 0.11401275725520499 0 0 1080,1003.8425120772947 L1080,1014.4146739130435 A1756.4006857453603 1756.4006857453603 0.11401275725520499 0 1 880.1814761850932,1003.0113882881542 L198.6157721941085,924.9657402860747 A1745.8285239096115 1745.8285239096115 0.11401275725520499 0 0 0,913.6310935441373 Z" style="fill: rgb(255, 230, 116);"/><title>ACS → Center
47.0</title></g><g class="link" style="opacity: 0.8;"><path d="M0,642.5134222661396 A749.3427688529421 749.3427688529421 0.2761930173110103 0 1 204.34197641617308,670.9130991163037 L878.5409985510978,862.0060747049663 A738.7706070171932 738.7706070171932 0.2761930173110103 0 0 1080,890.0050724637681 L1080,900.5772342995169 A749.3427688529421 749.3427688529421 0.2761930173110103 0 1 875.6580235838269,872.1775574493529 L201.45900144890211,681.0845818606903 A738.7706070171932 738.7706070171932 0.2761930173110103 0 0 0,653.0855841018885 Z" style="fill: rgb(59, 179, 50);"/><title>DSNY → Storage
47.0</title></g><g class="link" style="opacity: 0.8;"><path d="M0,1223.5856115502854 A15482.910815657122 15482.910815657122 0.012824895877915354 0 1 198.5612758346596,1224.8588928465417 L881.5945005595654,1233.6192031327002 A15470.764076526686 15470.764076526686 0.012824895877915354 0 0 1080,1234.8914855072464 L1080,1247.0382246376814 A15482.910815657122 15482.910815657122 0.012824895877915354 0 1 881.4387241653403,1245.7649433414251 L198.40549944043462,1237.0046330552666 A15470.764076526686 15470.764076526686 0.012824895877915354 0 0 0,1235.7323506807204 Z" style="fill: rgb(248, 88, 104);"/><title>DOC → Island 
 Campus
54.0</title></g><g class="link" style="opacity: 0.8;"><path d="M0,1256.050532498902 A4318.122059042412 4318.122059042412 0.04607696088058577 0 1 198.89554502058388,1260.6335945042356 L881.7053852477612,1292.1176811001117 A4305.075561457871 4305.075561457871 0.04607696088058577 0 0 1080,1296.6868961352657 L1080,1309.7333937198068 A4318.122059042412 4318.122059042412 0.04607696088058577 0 1 881.1044549794161,1305.1503317144732 L198.29461475223883,1273.666245118597 A4305.075561457871 4305.075561457871 0.04607696088058577 0 0 0,1269.097030083443 Z" style="fill: rgb(248, 88, 104);"/><title>BPL → Library
58.0</title></g><g class="link" style="opacity: 0.8;"><path d="M0,1327.5036231884058 A0 0 0 0 0 0,1327.5036231884058 L1080,1327.5036231884058 A0 0 0 0 0 1080,1327.5036231884058 L1080,1340.9999999999998 A0 0 0 0 0 1080,1340.9999999999998 L0,1340.9999999999998 A0 0 0 0 0 0,1340.9999999999998 Z" style="fill: rgb(248, 88, 104);"/><title>QPL → Library
60.0</title></g><g class="link" style="opacity: 0.8;"><path d="M0,942.2720410628021 A13113.460322597057 13113.460322597057 0.015146195421219977 0 1 198.61143867436684,943.7761736493459 L881.637261308594,954.1222074004739 A13097.039730809618 13097.039730809618 0.015146195421219977 0 0 1080,955.6244565217391 L1080,972.0450483091788 A13113.460322597057 13113.460322597057 0.015146195421219977 0 1 881.3885613256331,970.5409157226351 L198.36273869140595,960.194881971507 A13097.039730809618 13097.039730809618 0.015146195421219977 0 0 0,958.6926328502418 Z" style="fill: rgb(255, 230, 116);"/><title>NYPD → Police 
 Precinct
73.0</title></g><g class="link" style="opacity: 0.8;"><path d="M0,1289.4152119016248 A8622.939553416352 8622.939553416352 0.023046274342151563 0 1 198.70903941323297,1291.7050647717551 L881.7004619181847,1307.448259798557 A8605.169323947754 8605.169323947754 0.023046274342151563 0 0 1080,1309.7333937198068 L1080,1327.503623188406 A8622.939553416352 8622.939553416352 0.023046274342151563 0 1 881.290960586767,1325.2137703182757 L198.29953808181529,1309.4705752914738 A8605.169323947754 8605.169323947754 0.023046274342151563 0 0 0,1307.185441370224 Z" style="fill: rgb(255, 230, 116);"/><title>NYPL → Library
79.0</title></g><g class="link" style="opacity: 0.8;"><path d="M0,1127.8390425999123 A2480.8598652134924 2480.8598652134924 0.0797309207815522 0 0 197.5917369201193,1119.9577814847241 L879.9179881840155,1065.439708052954 A2512.126471493686 2512.126471493686 0.0797309207815522 0 1 1080,1057.459118357488 L1080,1088.7257246376812 A2480.8598652134924 2480.8598652134924 0.0797309207815522 0 0 882.4082630798807,1096.6069857528694 L200.0820118159846,1151.1250591846394 A2512.126471493686 2512.126471493686 0.0797309207815522 0 1 0,1159.1056488801055 Z" style="fill: rgb(59, 179, 50);"/><title>FDNY → FDNY 
 Facilities
139</title></g><g class="link" style="opacity: 0.8;"><path d="M0,582.380928853755 A545.4341958217299 545.4341958217299 0.3773798292470869 0 0 200.9848318326076,544.0005362372823 L867.245202137447,279.9097678888935 A577.3756209425028 577.3756209425028 0.3773798292470869 0 1 1080,239.28176328502417 L1080,271.2231884057971 A545.4341958217299 545.4341958217299 0.3773798292470869 0 0 879.0151681673924,309.60358102226985 L212.75479786255306,573.6943493706586 A577.3756209425028 577.3756209425028 0.3773798292470869 0 1 0,614.3223539745279 Z" style="fill: rgb(248, 88, 104);"/><title>DEP → WPCP
142</title></g><g class="link" style="opacity: 0.8;"><path d="M0,795.8404424681601 A4816.28117696138 4816.28117696138 0.04109279379259889 0 0 197.8587536476157,791.7745858304152 L880.7181637765889,763.6981796824917 A4850.921877444473 4850.921877444473 0.04109279379259889 0 1 1080,759.6030797101449 L1080,794.2437801932366 A4816.28117696138 4816.28117696138 0.04109279379259889 0 0 882.1412463523843,798.3096368309815 L199.2818362234111,826.3860429789049 A4850.921877444473 4850.921877444473 0.04109279379259889 0 1 0,830.4811429512517 Z" style="fill: rgb(251, 191, 173);"/><title>DCLA → Zoo
154</title></g><g class="link" style="opacity: 0.8;"><path d="M0,490.0820707070707 A530.1521514302968 530.1521514302968 0.375291627156759 0 0 194.32402381841572,453.1838877688603 L860.7760044451466,190.6261815368082 A598.0839147153209 598.0839147153209 0.375291627156759 0 1 1080,149 L1080,216.93176328502415 A530.1521514302968 530.1521514302968 0.375291627156759 0 0 885.6759761815842,253.82994622323457 L219.22399555485342,516.3876524552867 A598.0839147153209 598.0839147153209 0.375291627156759 0 1 0,558.0138339920949 Z" style="fill: rgb(255, 230, 116);"/><title>CUNY → College
302</title></g><g class="link" style="opacity: 0.8;"><path d="M0,149 A1392.2508198889282 1392.2508198889282 0.16307613676620236 0 1 226.0378991912708,167.4716478199273 L906.0394955892552,279.3572662814586 A1071.486931000039 1071.486931000039 0.16307613676620236 0 0 1080,293.5731884057971 L1080,614.337077294686 A1392.2508198889282 1392.2508198889282 0.16307613676620236 0 1 853.9621008087292,595.8654294747587 L173.96050441074482,483.9798110132275 A1071.486931000039 1071.486931000039 0.16307613676620236 0 0 0,469.7638888888889 Z" style="fill: rgb(255, 230, 116);"/><title>DOE → School
1.43k</title></g></g><g class="nodes"><g class="node" transform="translate(0,149)"><title>DOE</title><text dy=".35em" text-anchor="end" transform="translate(-4, 160.38194274902344)">DOE</text><line x1="0" x2="0" y1="0" y2="320.7638888888889" style="stroke: rgb(0, 0, 0);"/><rect x="-5" y="-5" width="10" style="fill: none; visibility: hidden; pointer-events: all;" height="325.7638888888889"/></g><g class="node" transform="translate(1080,293.5731884057971)"><title>School</title><text dy=".35em" text-anchor="start" transform="translate(4, 161.0567626953125)">School</text><line x1="0" x2="0" y1="0" y2="322.1135265700483" style="stroke: rgb(0, 0, 0);"/><rect x="-5" y="-5" width="10" style="fill: none; visibility: hidden; pointer-events: all;" height="327.1135265700483"/></g><g class="node" transform="translate(0,490.0820707070707)"><title>CUNY</title><text dy=".35em" text-anchor="end" transform="translate(-4, 35.99033737182617)">CUNY</text><line x1="0" x2="0" y1="0" y2="71.98067632850241" style="stroke: rgb(0, 0, 0);"/><rect x="-5" y="-5" width="10" style="fill: none; visibility: hidden; pointer-events: all;" height="76.98067632850241"/></g><g class="node" transform="translate(1080,149)"><title>College</title><text dy=".35em" text-anchor="start" transform="translate(4, 33.96588134765625)">College</text><line x1="0" x2="0" y1="0" y2="67.93176328502416" style="stroke: rgb(0, 0, 0);"/><rect x="-5" y="-5" width="10" style="fill: none; visibility: hidden; pointer-events: all;" height="72.93176328502416"/></g><g class="node" transform="translate(0,773.7963603425562)"><title>DCLA</title><text dy=".35em" text-anchor="end" transform="translate(-4, 37.78985595703125)">DCLA</text><line x1="0" x2="0" y1="0" y2="75.57971014492753" style="stroke: rgb(0, 0, 0);"/><rect x="-5" y="-5" width="10" style="fill: none; visibility: hidden; pointer-events: all;" height="80.57971014492753"/></g><g class="node" transform="translate(1080,759.6030797101449)"><title>Zoo</title><text dy=".35em" text-anchor="start" transform="translate(4, 17.320350646972656)">Zoo</text><line x1="0" x2="0" y1="0" y2="34.640700483091784" style="stroke: rgb(0, 0, 0);"/><rect x="-5" y="-5" width="10" style="fill: none; visibility: hidden; pointer-events: all;" height="39.640700483091784"/></g><g class="node" transform="translate(0,582.380928853755)"><title>DEP</title><text dy=".35em" text-anchor="end" transform="translate(-4, 17.2078800201416)">DEP</text><line x1="0" x2="0" y1="0" y2="34.41576086956522" style="stroke: rgb(0, 0, 0);"/><rect x="-5" y="-5" width="10" style="fill: none; visibility: hidden; pointer-events: all;" height="39.41576086956522"/></g><g class="node" transform="translate(1080,239.28176328502417)"><title>WPCP</title><text dy=".35em" text-anchor="start" transform="translate(4, 15.970712661743164)">WPCP</text><line x1="0" x2="0" y1="0" y2="31.941425120772948" style="stroke: rgb(0, 0, 0);"/><rect x="-5" y="-5" width="10" style="fill: none; visibility: hidden; pointer-events: all;" height="36.94142512077295"/></g><g class="node" transform="translate(0,1124.2400087834872)"><title>FDNY</title><text dy=".35em" text-anchor="end" transform="translate(-4, 22.38149070739746)">FDNY</text><line x1="0" x2="0" y1="0" y2="44.76298309178744" style="stroke: rgb(0, 0, 0);"/><rect x="-5" y="-5" width="10" style="fill: none; visibility: hidden; pointer-events: all;" height="49.76298309178744"/></g><g class="node" transform="translate(1080,1049.8111714975846)"><title>FDNY 
 Facilities</title><text dy=".35em" text-anchor="start" transform="translate(4, 20.132095336914062)"><tspan x="0" dy="-0.33000000000000007em">FDNY </tspan><tspan x="0" dy="1.1em"> Facilities</tspan></text><line x1="0" x2="0" y1="0" y2="40.26419082125604" style="stroke: rgb(0, 0, 0);"/><rect x="-5" y="-5" width="10" style="fill: none; visibility: hidden; pointer-events: all;" height="45.26419082125604"/></g><g class="node" transform="translate(0,1289.4152119016248)"><title>NYPL</title><text dy=".35em" text-anchor="end" transform="translate(-4, 8.885114669799805)">NYPL</text><line x1="0" x2="0" y1="0" y2="17.770229468599034" style="stroke: rgb(0, 0, 0);"/><rect x="-5" y="-5" width="10" style="fill: none; visibility: hidden; pointer-events: all;" height="22.770229468599034"/></g><g class="node" transform="translate(1080,1296.6868961352657)"><title>Library</title><text dy=".35em" text-anchor="start" transform="translate(4, 22.156551361083984)">Library</text><line x1="0" x2="0" y1="0" y2="44.3131038647343" style="stroke: rgb(0, 0, 0);"/><rect x="-5" y="-5" width="10" style="fill: none; visibility: hidden; pointer-events: all;" height="49.3131038647343"/></g><g class="node" transform="translate(0,936.8734903381645)"><title>NYPD</title><text dy=".35em" text-anchor="end" transform="translate(-4, 11.471920013427734)">NYPD</text><line x1="0" x2="0" y1="0" y2="22.943840579710145" style="stroke: rgb(0, 0, 0);"/><rect x="-5" y="-5" width="10" style="fill: none; visibility: hidden; pointer-events: all;" height="27.943840579710145"/></g><g class="node" transform="translate(1080,955.6244565217391)"><title>Police 
 Precinct</title><text dy=".35em" text-anchor="start" transform="translate(4, 8.210295677185059)"><tspan x="0" dy="-0.33000000000000007em">Police </tspan><tspan x="0" dy="1.1em"> Precinct</tspan></text><line x1="0" x2="0" y1="0" y2="16.420591787439612" style="stroke: rgb(0, 0, 0);"/><rect x="-5" y="-5" width="10" style="fill: none; visibility: hidden; pointer-events: all;" height="21.420591787439612"/></g><g class="node" transform="translate(0,1327.5036231884058)"><title>QPL</title><text dy=".35em" text-anchor="end" transform="translate(-4, 6.748188495635986)">QPL</text><line x1="0" x2="0" y1="0" y2="13.496376811594203" style="stroke: rgb(0, 0, 0);"/><rect x="-5" y="-5" width="10" style="fill: none; visibility: hidden; pointer-events: all;" height="18.496376811594203"/></g><g class="node" transform="translate(0,1256.050532498902)"><title>BPL</title><text dy=".35em" text-anchor="end" transform="translate(-4, 6.523248672485352)">BPL</text><line x1="0" x2="0" y1="0" y2="13.046497584541063" style="stroke: rgb(0, 0, 0);"/><rect x="-5" y="-5" width="10" style="fill: none; visibility: hidden; pointer-events: all;" height="18.046497584541065"/></g><g class="node" transform="translate(0,1220.66139657444)"><title>DOC</title><text dy=".35em" text-anchor="end" transform="translate(-4, 7.535477161407471)">DOC</text><line x1="0" x2="0" y1="0" y2="15.070954106280194" style="stroke: rgb(0, 0, 0);"/><rect x="-5" y="-5" width="10" style="fill: none; visibility: hidden; pointer-events: all;" height="20.070954106280194"/></g><g class="node" transform="translate(1080,1228.818115942029)"><title>Island 
 Campus</title><text dy=".35em" text-anchor="start" transform="translate(4, 9.110054016113281)"><tspan x="0" dy="-0.33000000000000007em">Island </tspan><tspan x="0" dy="1.1em"> Campus</tspan></text><line x1="0" x2="0" y1="0" y2="18.220108695652176" style="stroke: rgb(0, 0, 0);"/><rect x="-5" y="-5" width="10" style="fill: none; visibility: hidden; pointer-events: all;" height="23.220108695652176"/></g><g class="node" transform="translate(0,637.114871541502)"><title>DSNY</title><text dy=".35em" text-anchor="end" transform="translate(-4, 7.985356330871582)">DSNY</text><line x1="0" x2="0" y1="0" y2="15.970712560386474" style="stroke: rgb(0, 0, 0);"/><rect x="-5" y="-5" width="10" style="fill: none; visibility: hidden; pointer-events: all;" height="20.970712560386474"/></g><g class="node" transform="translate(1080,890.0050724637681)"><title>Storage</title><text dy=".35em" text-anchor="start" transform="translate(4, 8.54770565032959)">Storage</text><line x1="0" x2="0" y1="0" y2="17.095410628019323" style="stroke: rgb(0, 0, 0);"/><rect x="-5" y="-5" width="10" style="fill: none; visibility: hidden; pointer-events: all;" height="22.095410628019323"/></g><g class="node" transform="translate(0,894.961105621432)"><title>ACS</title><text dy=".35em" text-anchor="end" transform="translate(-4, 10.797101974487305)">ACS</text><line x1="0" x2="0" y1="0" y2="21.594202898550726" style="stroke: rgb(0, 0, 0);"/><rect x="-5" y="-5" width="10" style="fill: none; visibility: hidden; pointer-events: all;" height="26.594202898550726"/></g><g class="node" transform="translate(1080,994.3950483091787)"><title>Center</title><text dy=".35em" text-anchor="start" transform="translate(4, 16.533061981201172)">Center</text><line x1="0" x2="0" y1="0" y2="33.0661231884058" style="stroke: rgb(0, 0, 0);"/><rect x="-5" y="-5" width="10" style="fill: none; visibility: hidden; pointer-events: all;" height="38.0661231884058"/></g><g class="node" transform="translate(1080,698.9323671497584)"><title>Garden</title><text dy=".35em" text-anchor="start" transform="translate(4, 4.386322498321533)">Garden</text><line x1="0" x2="0" y1="0" y2="8.772644927536232" style="stroke: rgb(0, 0, 0);"/><rect x="-5" y="-5" width="10" style="fill: none; visibility: hidden; pointer-events: all;" height="13.772644927536232"/></g><g class="node" transform="translate(1080,816.5937801932367)"><title>Others</title><text dy=".35em" text-anchor="start" transform="translate(4, 25.5306453704834)">Others</text><line x1="0" x2="0" y1="0" y2="51.0612922705314" style="stroke: rgb(0, 0, 0);"/><rect x="-5" y="-5" width="10" style="fill: none; visibility: hidden; pointer-events: all;" height="56.0612922705314"/></g><g class="node" transform="translate(1080,730.0550120772947)"><title>Harbor</title><text dy=".35em" text-anchor="start" transform="translate(4, 3.599033832550049)">Harbor</text><line x1="0" x2="0" y1="0" y2="7.1980676328502415" style="stroke: rgb(0, 0, 0);"/><rect x="-5" y="-5" width="10" style="fill: none; visibility: hidden; pointer-events: all;" height="12.198067632850242"/></g><g class="node" transform="translate(0,1062.459321475626)"><title>HHC</title><text dy=".35em" text-anchor="end" transform="translate(-4, 4.948671340942383)">HHC</text><line x1="0" x2="0" y1="0" y2="9.897342995169081" style="stroke: rgb(0, 0, 0);"/><rect x="-5" y="-5" width="10" style="fill: none; visibility: hidden; pointer-events: all;" height="14.897342995169081"/></g><g class="node" transform="translate(1080,1136.7998188405797)"><title>Hospital</title><text dy=".35em" text-anchor="start" transform="translate(4, 4.8362016677856445)">Hospital</text><line x1="0" x2="0" y1="0" y2="9.672403381642512" style="stroke: rgb(0, 0, 0);"/><rect x="-5" y="-5" width="10" style="fill: none; visibility: hidden; pointer-events: all;" height="14.672403381642512"/></g><g class="node" transform="translate(0,980.1355127360565)"><title>DPR</title><text dy=".35em" text-anchor="end" transform="translate(-4, 8.885114669799805)">DPR</text><line x1="0" x2="0" y1="0" y2="17.770229468599034" style="stroke: rgb(0, 0, 0);"/><rect x="-5" y="-5" width="10" style="fill: none; visibility: hidden; pointer-events: all;" height="22.770229468599034"/></g><g class="node" transform="translate(1080,670.508997584541)"><title>Aquareium</title><text dy=".35em" text-anchor="start" transform="translate(4, 3.03668475151062)">Aquareium</text><line x1="0" x2="0" y1="0" y2="6.073369565217392" style="stroke: rgb(0, 0, 0);"/><rect x="-5" y="-5" width="10" style="fill: none; visibility: hidden; pointer-events: all;" height="11.07336956521739"/></g><g class="node" transform="translate(0,1189.3211736934563)"><title>DHS</title><text dy=".35em" text-anchor="end" transform="translate(-4, 5.511020660400391)">DHS</text><line x1="0" x2="0" y1="0" y2="11.022041062801932" style="stroke: rgb(0, 0, 0);"/><rect x="-5" y="-5" width="10" style="fill: none; visibility: hidden; pointer-events: all;" height="16.022041062801932"/></g><g class="node" transform="translate(0,1092.6748462889768)"><title>DCAS</title><text dy=".35em" text-anchor="end" transform="translate(-4, 5.623490333557129)">DCAS</text><line x1="0" x2="0" y1="0" y2="11.246980676328503" style="stroke: rgb(0, 0, 0);"/><rect x="-5" y="-5" width="10" style="fill: none; visibility: hidden; pointer-events: all;" height="16.246980676328505"/></g><g class="node" transform="translate(1080,1200.6196859903382)"><title>Court</title><text dy=".35em" text-anchor="start" transform="translate(4, 2.9242148399353027)">Court</text><line x1="0" x2="0" y1="0" y2="5.848429951690822" style="stroke: rgb(0, 0, 0);"/><rect x="-5" y="-5" width="10" style="fill: none; visibility: hidden; pointer-events: all;" height="10.848429951690822"/></g><g class="node" transform="translate(1080,1269.388224637681)"><title>Shelter</title><text dy=".35em" text-anchor="start" transform="translate(4, 2.4743356704711914)">Shelter</text><line x1="0" x2="0" y1="0" y2="4.948671497584541" style="stroke: rgb(0, 0, 0);"/><rect x="-5" y="-5" width="10" style="fill: none; visibility: hidden; pointer-events: all;" height="9.948671497584542"/></g><g class="node" transform="translate(0,673.4037659200703)"><title>DOT</title><text dy=".35em" text-anchor="end" transform="translate(-4, 3.936443328857422)">DOT</text><line x1="0" x2="0" y1="0" y2="7.8728864734299515" style="stroke: rgb(0, 0, 0);"/><rect x="-5" y="-5" width="10" style="fill: none; visibility: hidden; pointer-events: all;" height="12.87288647342995"/></g><g class="node" transform="translate(0,724.3873517786562)"><title>HRA</title><text dy=".35em" text-anchor="end" transform="translate(-4, 3.936443328857422)">HRA</text><line x1="0" x2="0" y1="0" y2="7.8728864734299515" style="stroke: rgb(0, 0, 0);"/><rect x="-5" y="-5" width="10" style="fill: none; visibility: hidden; pointer-events: all;" height="12.87288647342995"/></g><g class="node" transform="translate(1080,638.0367149758454)"><title>Office</title><text dy=".35em" text-anchor="start" transform="translate(4, 5.061141490936279)">Office</text><line x1="0" x2="0" y1="0" y2="10.122282608695652" style="stroke: rgb(0, 0, 0);"/><rect x="-5" y="-5" width="10" style="fill: none; visibility: hidden; pointer-events: all;" height="15.122282608695652"/></g><g class="node" transform="translate(1080,1168.8222222222223)"><title>Residence</title><text dy=".35em" text-anchor="start" transform="translate(4, 4.723731994628906)">Residence</text><line x1="0" x2="0" y1="0" y2="9.447463768115941" style="stroke: rgb(0, 0, 0);"/><rect x="-5" y="-5" width="10" style="fill: none; visibility: hidden; pointer-events: all;" height="14.447463768115941"/></g><g class="node" transform="translate(0,869.6942523056656)"><title>DOHMH</title><text dy=".35em" text-anchor="end" transform="translate(-4, 2.4743356704711914)">DOHMH</text><line x1="0" x2="0" y1="0" y2="4.948671497584541" style="stroke: rgb(0, 0, 0);"/><rect x="-5" y="-5" width="10" style="fill: none; visibility: hidden; pointer-events: all;" height="9.948671497584542"/></g><g class="node" transform="translate(1080,929.4504830917874)"><title>Museum</title><text dy=".35em" text-anchor="start" transform="translate(4, 1.9119867086410522)">Museum</text><line x1="0" x2="0" y1="0" y2="3.8239734299516908" style="stroke: rgb(0, 0, 0);"/><rect x="-5" y="-5" width="10" style="fill: none; visibility: hidden; pointer-events: all;" height="8.82397342995169"/></g><g class="node" transform="translate(0,701.5948342116822)"><title>EDC</title><text dy=".35em" text-anchor="end" transform="translate(-4, 1.2371678352355957)">EDC</text><line x1="0" x2="0" y1="0" y2="2.4743357487922704" style="stroke: rgb(0, 0, 0);"/><rect x="-5" y="-5" width="10" style="fill: none; visibility: hidden; pointer-events: all;" height="7.474335748792271"/></g><g class="node" transform="translate(0,1018.2239240228373)"><title>DFTA</title><text dy=".35em" text-anchor="end" transform="translate(-4, 1.2371678352355957)">DFTA</text><line x1="0" x2="0" y1="0" y2="2.4743357487922704" style="stroke: rgb(0, 0, 0);"/><rect x="-5" y="-5" width="10" style="fill: none; visibility: hidden; pointer-events: all;" height="7.474335748792271"/></g><g class="node" transform="translate(1080,1112.4253623188406)"><title>City Hall</title><text dy=".35em" text-anchor="start" transform="translate(4, 1.01222825050354)">City Hall</text><line x1="0" x2="0" y1="0" y2="2.0244565217391304" style="stroke: rgb(0, 0, 0);"/><rect x="-5" y="-5" width="10" style="fill: none; visibility: hidden; pointer-events: all;" height="7.024456521739131"/></g><g class="node" transform="translate(0,1041.0164415898114)"><title>FIT</title><text dy=".35em" text-anchor="end" transform="translate(-4, 0.5623490214347839)">FIT</text><line x1="0" x2="0" y1="0" y2="1.1246980676328502" style="stroke: rgb(0, 0, 0);"/><rect x="-5" y="-5" width="10" style="fill: none; visibility: hidden; pointer-events: all;" height="6.12469806763285"/></g><g class="node" transform="translate(0,752.5784200702681)"><title>OCME</title><text dy=".35em" text-anchor="end" transform="translate(-4, 0.4498792588710785)">OCME</text><line x1="0" x2="0" y1="0" y2="1" style="stroke: rgb(0, 0, 0);"/><rect x="-5" y="-5" width="10" style="fill: none; visibility: hidden; pointer-events: all;" height="6"/></g></g><g class="slice-titles"/></g></svg>