<?xml version="1.0" standalone="no"?><!DOCTYPE svg PUBLIC "-//W3C//DTD SVG 1.1//EN" "http://www.w3.org/Graphics/SVG/1.1/DTD/svg11.dtd"><svg xmlns="http://www.w3.org/2000/svg" width="1280" height="1500" viewBox="0 0 1280 1500" style="font-family: &quot;Helvetica Neue&quot;, Helvetica, Arial, sans-serif;"><g class="sankey" transform="translate(100,10)"><g class="groups"/><g class="links"><g class="link" style="opacity: 0.8;"><path d="M0,1194.3040204476374 A9672.92848569359 9672.92848569359 0.02052030328050991 0 0 198.47749620794053,1192.267539778274 L881.4814660656871,1178.2501236219323 A9674.92848569359 9674.92848569359 0.02052030328050991 0 1 1080,1176.2132218844981 L1080,1178.2132218844981 A9672.92848569359 9672.92848569359 0.02052030328050991 0 0 881.5225037920595,1180.2497025538614 L198.51853393431293,1194.2671187102032 A9674.92848569359 9674.92848569359 0.02052030328050991 0 1 0,1196.3040204476374 Z" style="fill: rgb(255, 230, 116);"/><title>DHS → Residence
3.00</title></g><g class="link" style="opacity: 0.8;"><path d="M0,637.4993782812932 A7668.906726701054 7668.906726701054 0.025884848960864737 0 0 198.48632543606405,634.9303405589579 L881.4619106469894,617.2476712361666 A7670.906726701054 7670.906726701054 0.025884848960864737 0 1 1080,614.6779635258359 L1080,616.6779635258359 A7668.906726701054 7668.906726701054 0.025884848960864737 0 0 881.513674563936,619.2470012481712 L198.53808935301063,636.9296705709625 A7670.906726701054 7670.906726701054 0.025884848960864737 0 1 0,639.4993782812932 Z" style="fill: rgb(59, 179, 50);"/><title>DSNY → School
3.00</title></g><g class="link" style="opacity: 0.8;"><path d="M0,638.178709588284 A55514.62509875777 55514.62509875777 0.0035752513680999964 0 1 198.4783164943169,638.5335149025161 L881.5288339931858,640.9756026049547 A55512.62509875777 55512.62509875777 0.0035752513680999964 0 0 1080,641.3303951367781 L1080,643.3303951367781 A55514.62509875777 55514.62509875777 0.0035752513680999964 0 1 881.5216835056831,642.975589822546 L198.47116600681414,640.5335021201074 A55512.62509875777 55512.62509875777 0.0035752513680999964 0 0 0,640.178709588284 Z" style="fill: rgb(59, 179, 50);"/><title>DSNY → Office
3.00</title></g><g class="link" style="opacity: 0.8;"><path d="M0,986.3462973197015 A2160.856592543822 2160.856592543822 0.09216199667715497 0 0 198.86705492981858,977.1758129254017 L880.9488819022545,914.135203220572 A2162.856592543822 2162.856592543822 0.09216199667715497 0 1 1080,904.9562310030395 L1080,906.9562310030395 A2160.856592543822 2160.856592543822 0.09216199667715497 0 0 881.1329450701814,916.1267153973394 L199.05111809774561,979.1673251021691 A2162.856592543822 2162.856592543822 0.09216199667715497 0 1 0,988.3462973197015 Z" style="fill: rgb(248, 88, 104);"/><title>DPR → Storage
3.00</title></g><g class="link" style="opacity: 0.8;"><path d="M0,1095.698051948052 A4509.07347983284 4509.07347983284 0.04404559273036268 0 0 198.5406042848341,1091.3249256328627 L881.3713330099682,1061.2297772620109 A4511.07347983284 4511.07347983284 0.04404559273036268 0 1 1080,1056.8547112462004 L1080,1058.8547112462004 A4509.07347983284 4509.07347983284 0.04404559273036268 0 0 881.4593957151659,1063.2278375613896 L198.6286669900319,1093.3229859322414 A4511.07347983284 4511.07347983284 0.04404559273036268 0 1 0,1097.698051948052 Z" style="fill: rgb(251, 191, 173);"/><title>DCAS → FDNY 
 Facilities
3.00</title></g><g class="link" style="opacity: 0.8;"><path d="M0,959.2348024316109 A1850.1220042379346 1850.1220042379346 0.10790331174258827 0 1 199.24712235571673,969.9949567883542 L880.9682657342572,1043.8417510316933 A1848.1220042379346 1848.1220042379346 0.10790331174258827 0 0 1080,1054.5902735562308 L1080,1056.5902735562308 A1850.1220042379346 1850.1220042379346 0.10790331174258827 0 1 880.7528776442833,1045.8301191994876 L199.03173426574284,971.9833249561485 A1848.1220042379346 1848.1220042379346 0.10790331174258827 0 0 0,961.2348024316109 Z" style="fill: rgb(255, 230, 116);"/><title>NYPD → FDNY 
 Facilities
3.00</title></g><g class="link" style="opacity: 0.8;"><path d="M0,1126.6590909090908 A1774.0607775432663 1774.0607775432663 0.11245666737510263 0 0 199.08472192726154,1115.4530765021877 L880.6908384994755,1038.4771582250205 A1776.0607775432663 1776.0607775432663 0.11245666737510263 0 1 1080,1027.2585106382978 L1080,1029.2585106382978 A1774.0607775432663 1774.0607775432663 0.11245666737510263 0 0 880.9152780727385,1040.4645250452008 L199.3091615005246,1117.440443322368 A1776.0607775432663 1776.0607775432663 0.11245666737510263 0 1 0,1128.6590909090908 Z" style="fill: rgb(255, 230, 116);"/><title>FDNY → Center
3.00</title></g><g class="link" style="opacity: 0.8;"><path d="M0,1222.5477341807127 A10178.8791518765 10178.8791518765 0.01950006132745652 0 0 198.47618864074693,1220.6125239326964 L881.4848137081996,1207.2921254427658 A10180.8791518765 10180.8791518765 0.01950006132745652 0 1 1080,1205.356534954407 L1080,1207.356534954407 A10178.8791518765 10178.8791518765 0.01950006132745652 0 0 881.523811359253,1209.2917452024233 L198.51518629180052,1222.6121436923538 A10180.8791518765 10180.8791518765 0.01950006132745652 0 1 0,1224.5477341807127 Z" style="fill: rgb(248, 88, 104);"/><title>DOC → Court
3.00</title></g><g class="link" style="opacity: 0.8;"><path d="M0,729.2502763194253 A1717.3982331429395 1717.3982331429395 0.1163472570900086 0 1 199.36407431397393,740.8611085605341 L880.8680955700594,820.5119596965777 A1715.3982331429395 1715.3982331429395 0.1163472570900086 0 0 1080,832.1092705167173 L1080,834.1092705167173 A1717.3982331429395 1717.3982331429395 0.1163472570900086 0 1 880.6359256860261,822.4984382756085 L199.13190442994053,742.8475871395649 A1715.3982331429395 1715.3982331429395 0.1163472570900086 0 0 0,731.2502763194253 Z" style="fill: rgb(59, 179, 50);"/><title>HRA → Others
3.00</title></g><g class="link" style="opacity: 0.8;"><path d="M0,870.3659159988947 A5729.17217049149 5729.17217049149 0.034655543645076614 0 0 198.50783576273642,866.9258732160495 L881.422867022987,843.2496023319679 A5731.17217049149 5731.17217049149 0.034655543645076614 0 1 1080,839.808358662614 L1080,841.808358662614 A5729.17217049149 5729.17217049149 0.034655543645076614 0 0 881.4921642372635,845.2484014454592 L198.57713297701292,868.9246723295407 A5731.17217049149 5731.17217049149 0.034655543645076614 0 1 0,872.3659159988947 Z" style="fill: rgb(248, 88, 104);"/><title>DOHMH → Others
3.00</title></g><g class="link" style="opacity: 0.8;"><path d="M0,895.6658607350097 A665.2155800222248 665.2155800222248 0.3114097580218418 0 0 203.82264758931433,863.670697498273 L875.5645506251878,647.4486529399113 A667.2155800222248 667.2155800222248 0.3114097580218418 0 1 1080,615.3572948328268 L1080,617.3572948328268 A665.2155800222248 665.2155800222248 0.3114097580218418 0 0 876.1773524106857,649.3524580695636 L204.4354493748122,865.5745026279252 A667.2155800222248 667.2155800222248 0.3114097580218418 0 1 0,897.6658607350097 Z" style="fill: rgb(255, 230, 116);"/><title>ACS → School
3.00</title></g><g class="link" style="opacity: 0.8;"><path d="M0,987.0256286266924 A3243.6143144972743 3243.6143144972743 0.06127464253703674 0 0 198.62695965386592,980.938325925657 L881.2505677335512,939.0583813362236 A3245.6143144972743 3245.6143144972743 0.06127464253703674 0 1 1080,932.9673252279636 L1080,934.9673252279636 A3243.6143144972743 3243.6143144972743 0.06127464253703674 0 0 881.3730403461341,941.054627928999 L198.74943226644882,982.9345725184323 A3245.6143144972743 3245.6143144972743 0.06127464253703674 0 1 0,989.0256286266924 Z" style="fill: rgb(255, 230, 116);"/><title>DPR → Museum
3.00</title></g><g class="link" style="opacity: 0.8;"><path d="M0,1062.585797181542 A885.9426587304514 885.9426587304514 0.2291918790774332 0 0 201.27785217073068,1039.4186717063624 L878.2677666112813,881.4829506901239 A887.9426587304514 887.9426587304514 0.2291918790774332 0 1 1080,858.2635258358662 L1080,860.2635258358662 A885.9426587304514 885.9426587304514 0.2291918790774332 0 0 878.7221478292693,883.4306513110458 L201.73223338871867,1041.3663723272841 A887.9426587304514 887.9426587304514 0.2291918790774332 0 1 0,1064.585797181542 Z" style="fill: rgb(248, 88, 104);"/><title>HHC → Others
4.00</title></g><g class="link" style="opacity: 0.8;"><path d="M0,1124.0549875656259 A705.1407139193287 705.1407139193287 0.292244421881783 0 0 203.1525956363632,1094.1567851285563 L876.2711999504575,891.6431854777335 A707.1407139193287 707.1407139193287 0.292244421881783 0 1 1080,861.6601823708206 L1080,863.6601823708206 A705.1407139193287 705.1407139193287 0.292244421881783 0 0 876.8474043636368,893.5583848078901 L203.7288000495425,1096.071984458713 A707.1407139193287 707.1407139193287 0.292244421881783 0 1 0,1126.0549875656259 Z" style="fill: rgb(248, 88, 104);"/><title>FDNY → Others
4.00</title></g><g class="link" style="opacity: 0.8;"><path d="M0,1221.7551809892236 A3915.4849861749735 3915.4849861749735 0.05073581386924997 0 0 198.57010123770516,1216.7167923087206 L881.3284706623589,1182.0467373271715 A3917.4849861749735 3917.4849861749735 0.05073581386924997 0 1 1080,1177.0057750759877 L1080,1179.0057750759877 A3915.4849861749735 3915.4849861749735 0.05073581386924997 0 0 881.4298987622948,1184.0441637564907 L198.67152933764112,1218.7142187380398 A3917.4849861749735 3917.4849861749735 0.05073581386924997 0 1 0,1223.7551809892236 Z" style="fill: rgb(248, 88, 104);"/><title>DOC → Residence
4.00</title></g><g class="link" style="opacity: 0.8;"><path d="M0,837.2536612323846 A2670.7307275454823 2670.7307275454823 0.07453005487391651 0 1 198.86548098474867,844.6678211261118 L881.2834411652335,895.6228512311424 A2668.7307275454823 2668.7307275454823 0.07453005487391651 0 0 1080,903.0314589665653 L1080,905.0314589665653 A2670.7307275454823 2670.7307275454823 0.07453005487391651 0 1 881.1345190152514,897.6172990728381 L198.7165588347665,846.6622689678076 A2668.7307275454823 2668.7307275454823 0.07453005487391651 0 0 0,839.2536612323846 Z" style="fill: rgb(59, 179, 50);"/><title>DCLA → Storage
4.00</title></g><g class="link" style="opacity: 0.8;"><path d="M0,673.7818458137607 A5530.157329428114 5530.157329428114 0.035903909422132285 0 0 198.51161151833676,670.2177914801588 L881.4165960896233,645.6882916141075 A5532.157329428114 5532.157329428114 0.035903909422132285 0 1 1080,642.1229483282674 L1080,644.1229483282674 A5530.157329428114 5530.157329428114 0.035903909422132285 0 0 881.4883884816633,647.6870026618693 L198.5834039103767,672.2165025279206 A5532.157329428114 5532.157329428114 0.035903909422132285 0 1 0,675.7818458137607 Z" style="fill: rgb(59, 179, 50);"/><title>DOT → Office
4.00</title></g><g class="link" style="opacity: 0.8;"><path d="M0,1092.4146172975961 A459.18979310465386 459.18979310465386 0.47955464444319706 0 0 211.86287017468507,1040.6182339737577 L867.2143616220313,699.8060248955692 A461.18979310465386 461.18979310465386 0.47955464444319706 0 1 1080,647.7840425531914 L1080,649.7840425531914 A459.18979310465386 459.18979310465386 0.47955464444319706 0 0 868.1371298253149,701.5804258770299 L212.7856383779687,1042.3926349552182 A461.18979310465386 461.18979310465386 0.47955464444319706 0 1 0,1094.4146172975961 Z" style="fill: rgb(251, 191, 173);"/><title>DCAS → Office
4.00</title></g><g class="link" style="opacity: 0.8;"><path d="M0,752.851892788063 A2198.6433545151176 2198.6433545151176 0.09064982985068282 0 1 199.03379465808456,761.8792652329244 L881.1472568018982,823.8826630294111 A2196.6433545151176 2196.6433545151176 0.09064982985068282 0 0 1080,832.9018237082066 L1080,834.9018237082066 A2198.6433545151176 2198.6433545151176 0.09064982985068282 0 1 880.9662053419155,825.8744512633452 L198.8527431981019,763.8710534668585 A2196.6433545151176 2196.6433545151176 0.09064982985068282 0 0 0,754.851892788063 Z" style="fill: rgb(248, 88, 104);"/><title>OCME → Others
4.00</title></g><g class="link" style="opacity: 0.8;"><path d="M0,942.025075987842 A4611.983895161816 4611.983895161816 0.043061309705014095 0 0 198.53669660305064,937.7497902471887 L881.3772073909284,908.327595657588 A4613.983895161816 4613.983895161816 0.043061309705014095 0 1 1080,904.0504559270518 L1080,906.0504559270518 A4611.983895161816 4611.983895161816 0.043061309705014095 0 0 881.4633033969493,910.3257416677051 L198.62279260907155,939.7479362573058 A4613.983895161816 4613.983895161816 0.043061309705014095 0 1 0,944.025075987842 Z" style="fill: rgb(59, 179, 50);"/><title>NYPD → Storage
5.00</title></g><g class="link" style="opacity: 0.8;"><path d="M0,561.3113429124068 A722.0686442572231 722.0686442572231 0.2856974435826092 0 1 203.49821792839916,590.5801587058593 L877.0654354570423,788.4291228518389 A720.0686442572231 720.0686442572231 0.2856974435826092 0 0 1080,817.6168693009118 L1080,819.6168693009118 A722.0686442572231 722.0686442572231 0.2856974435826092 0 1 876.5017820716008,790.3480535074593 L202.9345645429576,592.4990893614797 A720.0686442572231 720.0686442572231 0.2856974435826092 0 0 0,563.3113429124068 Z" style="fill: rgb(248, 88, 104);"/><title>CUNY → Others
5.00</title></g><g class="link" style="opacity: 0.8;"><path d="M0,1161.5314313346228 A12703.40056873055 12703.40056873055 0.01562665331046742 0 1 198.5035574815478,1163.0824360335293 L881.5276945531192,1173.7566862969281 A12701.40056873055 12701.40056873055 0.01562665331046742 0 0 1080,1175.3074468085103 L1080,1177.3074468085103 A12703.40056873055 12703.40056873055 0.01562665331046742 0 1 881.4964425184522,1175.7564421096038 L198.47230544688077,1165.082191846205 A12701.40056873055 12701.40056873055 0.01562665331046742 0 0 0,1163.5314313346228 Z" style="fill: rgb(255, 230, 116);"/><title>FDNY → Residence
5.00</title></g><g class="link" style="opacity: 0.8;"><path d="M0,1041.2486184028737 A10333.49197084206 10333.49197084206 0.01920822528801147 0 0 198.47583645665364,1039.3423755021033 L881.4857494550562,1026.2213534866826 A10335.49197084206 10335.49197084206 0.01920822528801147 0 1 1080,1024.3147416413374 L1080,1026.3147416413374 A10333.49197084206 10333.49197084206 0.01920822528801147 0 0 881.5241635433464,1028.2209845421078 L198.5142505449438,1041.3420065575285 A10335.49197084206 10335.49197084206 0.01920822528801147 0 1 0,1043.2486184028737 Z" style="fill: rgb(248, 88, 104);"/><title>FIT → Center
5.00</title></g><g class="link" style="opacity: 0.8;"><path d="M0,844.2734180712904 A879.8161259849719 879.8161259849719 0.23141979778697186 0 1 201.79436507089466,867.7277923596803 L878.6643543344696,1027.2264498468744 A877.8161259849719 877.8161259849719 0.23141979778697186 0 0 1080,1050.6275075987842 L1080,1052.6275075987842 A879.8161259849719 879.8161259849719 0.23141979778697186 0 1 878.2056349291054,1029.1731333103944 L201.33564566553034,869.6744758232003 A877.8161259849719 877.8161259849719 0.23141979778697186 0 0 0,846.2734180712904 Z" style="fill: rgb(59, 179, 50);"/><title>DCLA → FDNY 
 Facilities
6.00</title></g><g class="link" style="opacity: 0.8;"><path d="M0,1220.6229621442387 A1351.4802628998343 1351.4802628998343 0.148220896429895 0 0 199.58494391170413,1205.8044931068487 L880.119698546805,1104.1897903768997 A1353.4802628998343 1353.4802628998343 0.148220896429895 0 1 1080,1089.3493920972644 L1080,1091.3493920972644 A1351.4802628998343 1351.4802628998343 0.148220896429895 0 0 880.4150560882958,1106.1678611346545 L199.8803014531949,1207.7825638646034 A1353.4802628998343 1353.4802628998343 0.148220896429895 0 1 0,1222.6229621442387 Z" style="fill: rgb(248, 88, 104);"/><title>DOC → FDNY 
 Facilities
6.00</title></g><g class="link" style="opacity: 0.8;"><path d="M0,994.9511605415861 A2889.104766599542 2889.104766599542 0.06886932876557728 0 1 198.81345747788382,1001.7999424107844 L881.324172323414,1048.8784516421 A2887.104766599542 2887.104766599542 0.06886932876557728 0 0 1080,1055.7224924012157 L1080,1057.7224924012157 A2889.104766599542 2889.104766599542 0.06886932876557728 0 1 881.1865425221162,1050.8737105320172 L198.67582767658595,1003.7952013007019 A2887.104766599542 2887.104766599542 0.06886932876557728 0 0 0,996.9511605415861 Z" style="fill: rgb(251, 191, 173);"/><title>DPR → FDNY 
 Facilities
7.00</title></g><g class="link" style="opacity: 0.8;"><path d="M0,996.6494888090633 A1015.0144320960029 1015.0144320960029 0.199301242772834 0 1 200.9570778819334,1016.7415368909534 L879.4388910255568,1153.7831039077478 A1013.0144320960029 1013.0144320960029 0.199301242772834 0 0 1080,1173.8355623100301 L1080,1175.8355623100301 A1015.0144320960029 1015.0144320960029 0.199301242772834 0 1 879.0429221180666,1155.7435142281402 L200.5611089744432,1018.7019472113458 A1013.0144320960029 1013.0144320960029 0.199301242772834 0 0 0,998.6494888090633 Z" style="fill: rgb(251, 191, 173);"/><title>DPR → Residence
8.00</title></g><g class="link" style="opacity: 0.8;"><path d="M0,1125.4136501796074 A830.0133643913815 830.0133643913815 0.2454838890219695 0 0 201.71460808587548,1100.5297175897606 L877.7993404437756,931.1455646402571 A832.0133643913815 832.0133643913815 0.2454838890219695 0 1 1080,906.2016717325229 L1080,908.2016717325229 A830.0133643913815 830.0133643913815 0.2454838890219695 0 0 878.2853919141245,933.0856043223698 L202.2006595562245,1102.469757271873 A832.0133643913815 832.0133643913815 0.2454838890219695 0 1 0,1127.4136501796074 Z" style="fill: rgb(255, 230, 116);"/><title>FDNY → Storage
8.00</title></g><g class="link" style="opacity: 0.8;"><path d="M0,1064.0386847195357 A4589.8706384682655 4589.8706384682655 0.043268899927741966 0 0 198.5366898141487,1059.742782385305 L881.3751559438689,1030.1786608642033 A4591.908632389238 4591.908632389238 0.043268899927741966 0 1 1080,1025.8808510638298 L1080,1027.9188449848023 A4589.8706384682655 4589.8706384682655 0.043268899927741966 0 0 881.4633101858514,1032.214747319033 L198.62484405613105,1061.7788688401347 A4591.908632389238 4591.908632389238 0.043268899927741966 0 1 0,1066.0766786405081 Z" style="fill: rgb(248, 88, 104);"/><title>HHC → Center
9.00</title></g><g class="link" style="opacity: 0.8;"><path d="M0,1097.0377176015475 A10710.277434504074 10710.277434504074 0.018535827169941177 0 1 198.51248362883413,1098.877566823132 L881.525290111141,1111.5392242764522 A10708.2394405831 10708.2394405831 0.018535827169941177 0 0 1080,1113.3787234042552 L1080,1115.4167173252276 A10710.277434504074 10710.277434504074 0.018535827169941177 0 1 881.4875163711658,1113.5768681036432 L198.474709888859,1100.915210650323 A10708.2394405831 10708.2394405831 0.018535827169941177 0 0 0,1099.07571152252 Z" style="fill: rgb(251, 191, 173);"/><title>DCAS → City Hall
9.00</title></g><g class="link" style="opacity: 0.8;"><path d="M0,680.2164962696878 A824.7325816761067 824.7325816761067 0.2477882536633671 0 1 202.2742159677429,705.4061004688043 L878.2256231700222,876.4132192550717 A822.6945877551341 822.6945877551341 0.2477882536633671 0 0 1080,901.5405775075988 L1080,903.5785714285714 A824.7325816761067 824.7325816761067 0.2477882536633671 0 1 877.7257840322571,878.3889672294549 L201.7743768299778,707.3818484431876 A822.6945877551341 822.6945877551341 0.2477882536633671 0 0 0,682.2544901906605 Z" style="fill: rgb(59, 179, 50);"/><title>DOT → Storage
9.00</title></g><g class="link" style="opacity: 0.8;"><path d="M0,702.5726720088422 A1387.9183381170847 1387.9183381170847 0.1444822711285898 0 1 199.83264136700032,717.0339744943137 L880.4933926310888,816.0674588125174 A1385.6539004271149 1385.6539004271149 0.1444822711285898 0 0 1080,830.5051671732522 L1080,832.7696048632217 A1387.9183381170847 1387.9183381170847 0.1444822711285898 0 1 880.1673586329997,818.3083023777502 L199.50660736891112,719.2748180595465 A1385.6539004271149 1385.6539004271149 0.1444822711285898 0 0 0,704.8371096988118 Z" style="fill: rgb(255, 230, 116);"/><title>EDC → Others
10.0</title></g><g class="link" style="opacity: 0.8;"><path d="M0,1018.873445703233 A51699.220386737084 51699.220386737084 0.0038391318136543617 0 1 198.4796341640044,1019.254440910129 L881.5299286347579,1021.8767739094275 A51696.72950527811 51696.72950527811 0.0038391318136543617 0 0 1080,1022.2577507598785 L1080,1024.7486322188452 A51699.220386737084 51699.220386737084 0.0038391318136543617 0 1 881.5203658359956,1024.367637011949 L198.4700713652422,1021.7453040126506 A51696.72950527811 51696.72950527811 0.0038391318136543617 0 0 0,1021.3643271621996 Z" style="fill: rgb(255, 230, 116);"/><title>DFTA → Center
11.0</title></g><g class="link" style="opacity: 0.8;"><path d="M0,1159.4744404531639 A11556.516678725822 11556.516678725822 0.017174655635470604 0 0 198.4694369184268,1157.7700764418214 L881.4877851533847,1146.0383179946048 A11559.007560184788 11559.007560184788 0.017174655635470604 0 1 1080,1144.3335866261395 L1080,1146.8244680851062 A11556.516678725822 11556.516678725822 0.017174655635470604 0 0 881.5305630815733,1148.5288320964487 L198.5122148466153,1160.2605905436653 A11559.007560184788 11559.007560184788 0.017174655635470604 0 1 0,1161.9653219121305 Z" style="fill: rgb(251, 191, 173);"/><title>FDNY → Hospital
11.0</title></g><g class="link" style="opacity: 0.8;"><path d="M0,730.5899419729207 A701.8758440767676 701.8758440767676 0.2947412095282471 0 1 203.8894785063112,760.8566876502551 L876.8341032011599,965.1516099788026 A699.384962617801 699.384962617801 0.2947412095282471 0 0 1080,995.3109422492402 L1080,997.8018237082068 A701.8758440767676 701.8758440767676 0.2947412095282471 0 1 876.1105214936888,967.5350780308723 L203.1658967988402,763.2401557023248 A699.384962617801 699.384962617801 0.2947412095282471 0 0 0,733.0808234318873 Z" style="fill: rgb(248, 88, 104);"/><title>HRA → Center
11.0</title></g><g class="link" style="opacity: 0.8;"><path d="M0,615.3506493506493 A890.1728416584912 890.1728416584912 0.22865443075384984 0 1 201.77296950305586,638.5198250398021 L878.79163157792,796.0786350168091 A887.6819601995245 887.6819601995245 0.22865443075384984 0 0 1080,819.1829787234042 L1080,821.6738601823708 A890.1728416584912 890.1728416584912 0.22865443075384984 0 1 878.227030496944,798.5046844932181 L201.20836842207993,640.945874516211 A887.6819601995245 887.6819601995245 0.22865443075384984 0 0 0,617.841530809616 Z" style="fill: rgb(255, 230, 116);"/><title>DEP → Others
11.0</title></g><g class="link" style="opacity: 0.8;"><path d="M0,1093.86750483559 A781.0870647538318 781.0870647538318 0.261745995418202 0 0 202.1199248879521,1067.2634012472474 L877.2355160147214,886.4053572717545 A783.5779462127985 783.5779462127985 0.261745995418202 0 1 1080,859.7164133738602 L1080,862.2072948328268 A781.0870647538318 781.0870647538318 0.261745995418202 0 0 877.8800751120478,888.8113984211692 L202.76448398527856,1069.6694423966621 A783.5779462127985 783.5779462127985 0.261745995418202 0 1 0,1096.3583862945566 Z" style="fill: rgb(255, 230, 116);"/><title>DCAS → Others
11.0</title></g><g class="link" style="opacity: 0.8;"><path d="M0,841.876761536336 A1146.824896612485 1146.824896612485 0.17571961811163916 0 1 200.48416627116632,859.536726633149 L879.9908676110114,980.1837027227523 A1144.1075713845214 1144.1075713845214 0.17571961811163916 0 0 1080,997.8018237082067 L1080,1000.5191489361703 A1146.824896612485 1146.824896612485 0.17571961811163916 0 1 879.5158337288336,982.8591838393572 L200.00913238898863,862.2122077497539 A1144.1075713845214 1144.1075713845214 0.17571961811163916 0 0 0,844.5940867642995 Z" style="fill: rgb(59, 179, 50);"/><title>DCLA → Center
12.0</title></g><g class="link" style="opacity: 0.8;"><path d="M0,915.1210279082619 A1297.4003097353989 1297.4003097353989 0.15483009650660695 0 1 200.07499555483804,930.6408596523464 L880.3789696281219,1036.8222212734672 A1294.4565407384384 1294.4565407384384 0.15483009650660695 0 0 1080,1052.306838905775 L1080,1055.2506079027355 A1297.4003097353989 1297.4003097353989 0.15483009650660695 0 1 879.9250044451619,1039.7307761586508 L199.62103037187808,933.5494145375302 A1294.4565407384384 1294.4565407384384 0.15483009650660695 0 0 0,918.0647969052224 Z" style="fill: rgb(255, 230, 116);"/><title>ACS → FDNY 
 Facilities
13.0</title></g><g class="link" style="opacity: 0.8;"><path d="M0,558.8014644929539 A2193.817993975107 2193.817993975107 0.09087051594914408 0 1 199.07912782327892,567.8529053658568 L881.1880059891146,630.0076652659266 A2190.8742249781462 2190.8742249781462 0.09087051594914408 0 0 1080,639.0469604863222 L1080,641.9907294832826 A2193.817993975107 2193.817993975107 0.09087051594914408 0 1 880.9208721767211,632.9392886103797 L198.8119940108854,570.7845287103099 A2190.8742249781462 2190.8742249781462 0.09087051594914408 0 0 0,561.7452334899143 Z" style="fill: rgb(59, 179, 50);"/><title>CUNY → Office
13.0</title></g><g class="link" style="opacity: 0.8;"><path d="M0,838.7065487703785 A1922.2500574811297 1922.2500574811297 0.10384343078768188 0 1 199.25448103677365,849.0614900714987 L881.0741333893249,920.1195830811306 A1919.0798447151724 1919.0798447151724 0.10384343078768188 0 0 1080,930.4574468085107 L1080,933.6276595744682 A1922.2500574811297 1922.2500574811297 0.10384343078768188 0 1 880.7455189632263,923.272718273348 L198.92586661067514,852.2146252637161 A1919.0798447151724 1919.0798447151724 0.10384343078768188 0 0 0,841.8767615363361 Z" style="fill: rgb(251, 191, 173);"/><title>DCLA → Museum
14.0</title></g><g class="link" style="opacity: 0.8;"><path d="M0,639.5183752417795 A989.7462102038537 989.7462102038537 0.2047932295453596 0 1 201.27945563349738,660.2010470990633 L879.5034057985062,801.071632034838 A985.8966661309055 985.8966661309055 0.2047932295453596 0 0 1080,821.6738601823707 L1080,825.523404255319 A989.7462102038537 989.7462102038537 0.2047932295453596 0 1 878.7205443665026,804.8407323980351 L200.4965942014939,663.9701474622605 A985.8966661309055 985.8966661309055 0.2047932295453596 0 0 0,643.3679193147277 Z" style="fill: rgb(59, 179, 50);"/><title>DSNY → Others
17.0</title></g><g class="link" style="opacity: 0.8;"><path d="M0,938.3829787234042 A1960.574050996822 1960.574050996822 0.10160271506630791 0 0 198.85709682583175,928.2720687482451 L880.7294838960061,858.7525990147901 A1964.6500388387674 1964.6500388387674 0.10160271506630791 0 1 1080,848.6206686930091 L1080,852.6966565349544 A1960.574050996822 1960.574050996822 0.10160271506630791 0 0 881.1429031741682,862.8075665101135 L199.2705161039939,932.3270362435685 A1964.6500388387674 1964.6500388387674 0.10160271506630791 0 1 0,942.4589665653496 Z" style="fill: rgb(251, 191, 173);"/><title>NYPD → Others
18.0</title></g><g class="link" style="opacity: 0.8;"><path d="M0,871.7055816523902 A1379.7152722105752 1379.7152722105752 0.145468434543091 0 1 199.99791398839642,886.277979739018 L880.6257489981614,985.9921926500631 A1375.412840599633 1375.412840599633 0.145468434543091 0 0 1080,1000.5191489361703 L1080,1004.8215805471125 A1379.7152722105752 1379.7152722105752 0.145468434543091 0 1 880.0020860116036,990.2491824604847 L199.37425100183867,890.5349695494396 A1375.412840599633 1375.412840599633 0.145468434543091 0 0 0,876.0080132633324 Z" style="fill: rgb(255, 230, 116);"/><title>DOHMH → Center
19.0</title></g><g class="link" style="opacity: 0.8;"><path d="M0,725.1552915169937 A2154.5168641028426 2154.5168641028426 0.09237567608406927 0 0 198.7420172404429,715.9692942705309 L880.8193314145489,652.7821078895597 A2159.2721832517786 2159.2721832517786 0.09237567608406927 0 1 1080,643.5758358662614 L1080,648.3311550151976 A2154.5168641028426 2154.5168641028426 0.09237567608406927 0 0 881.2579827595572,657.5171522616604 L199.18066858545117,720.7043386426316 A2159.2721832517786 2159.2721832517786 0.09237567608406927 0 1 0,729.9106106659299 Z" style="fill: rgb(251, 191, 173);"/><title>HRA → Office
21.0</title></g><g class="link" style="opacity: 0.8;"><path d="M0,845.9527493782813 A592.1611762244708 592.1611762244708 0.3567090650339433 0 1 206.7781560473985,883.2286646620902 L874.8823650480628,1132.1978950764415 A587.4058570755345 587.4058570755345 0.3567090650339433 0 0 1080,1169.1744680851061 L1080,1173.9297872340421 A592.1611762244708 592.1611762244708 0.3567090650339433 0 1 873.2218439526015,1136.6538719502332 L205.1176349519372,887.684641535882 A587.4058570755345 587.4058570755345 0.3567090650339433 0 0 0,850.7080685272175 Z" style="fill: rgb(59, 179, 50);"/><title>DCLA → Residence
21.0</title></g><g class="link" style="opacity: 0.8;"><path d="M0,675.2347333517547 A1189.1937887242416 1189.1937887242416 0.1694462594285593 0 1 200.54155551277364,692.266011306763 L880.298551872777,808.5634736196172 A1184.2120258063082 1184.2120258063082 0.1694462594285593 0 0 1080,825.5234042553191 L1080,830.5051671732522 A1189.1937887242416 1189.1937887242416 0.1694462594285593 0 1 879.4584444872263,813.4738892182439 L199.701448127223,697.1764269053897 A1184.2120258063082 1184.2120258063082 0.1694462594285593 0 0 0,680.2164962696878 Z" style="fill: rgb(248, 88, 104);"/><title>DOT → Others
22.0</title></g><g class="link" style="opacity: 0.8;"><path d="M0,1195.643686101133 A2374.915200780053 2374.915200780053 0.08392672228002951 0 1 199.084940701895,1204.0028665677257 L881.3326716721308,1261.3965001425702 A2369.9334378621197 2369.9334378621197 0.08392672228002951 0 0 1080,1269.7381458966565 L1080,1274.7199088145899 A2374.915200780053 2374.915200780053 0.08392672228002951 0 1 880.915059298105,1266.360728347997 L198.66732832786926,1208.9670947731527 A2369.9334378621197 2369.9334378621197 0.08392672228002951 0 0 0,1200.6254490190663 Z" style="fill: rgb(255, 230, 116);"/><title>DHS → Shelter
22.0</title></g><g class="link" style="opacity: 0.8;"><path d="M0,1099.0757115225201 A1737.6608092280296 1737.6608092280296 0.1150807429428673 0 1 199.53019987053077,1110.5694409849098 L881.0678423455861,1189.3493827509187 A1732.4526025410994 1732.4526025410994 0.1150807429428673 0 0 1080,1200.8086626139816 L1080,1206.0168693009118 A1737.6608092280296 1737.6608092280296 0.1150807429428673 0 1 880.4698001294691,1194.5231398385222 L198.93215765441388,1115.7431980725132 A1732.4526025410994 1732.4526025410994 0.1150807429428673 0 0 0,1104.2839182094503 Z" style="fill: rgb(255, 230, 116);"/><title>DCAS → Court
23.0</title></g><g class="link" style="opacity: 0.8;"><path d="M0,1189.529704338215 A582.2472652519702 582.2472652519702 0.36004525819461164 0 0 205.1353709808362,1152.1965217322643 L872.9499115031523,900.7947175226393 A587.6819157078974 587.6819157078974 0.36004525819461164 0 1 1080,863.1130699088145 L1080,868.5477203647416 A582.2472652519702 582.2472652519702 0.36004525819461164 0 0 874.8646290191638,905.8809029706924 L207.05008849684774,1157.2827071803174 A587.6819157078974 587.6819157078974 0.36004525819461164 0 1 0,1194.964354794142 Z" style="fill: rgb(251, 191, 173);"/><title>DHS → Others
24.0</title></g><g class="link" style="opacity: 0.8;"><path d="M0,1163.0975407571152 A2665.922078022733 2665.922078022733 0.07472319333901378 0 1 199.02088278342765,1170.5367404627518 L881.4355484295506,1221.6240618402826 A2659.8080962598146 2659.8080962598146 0.07472319333901378 0 0 1080,1229.0462006079026 L1080,1235.1601823708204 A2665.922078022733 2665.922078022733 0.07472319333901378 0 1 880.9791172165724,1227.7209826651838 L198.56445157044928,1176.633661287653 A2659.8080962598146 2659.8080962598146 0.07472319333901378 0 0 0,1169.211522520033 Z" style="fill: rgb(255, 230, 116);"/><title>FDNY → Island 
 Campus
27.0</title></g><g class="link" style="opacity: 0.8;"><path d="M0,980.8926499032882 A1380.957651429356 1380.957651429356 0.14477721740224014 0 0 199.23349664319954,966.4451699899028 L879.8844270934349,867.2081004870772 A1387.0716331922738 1387.0716331922738 0.14477721740224014 0 1 1080,852.6966565349544 L1080,858.8106382978724 A1380.957651429356 1380.957651429356 0.14477721740224014 0 0 880.7665033568005,873.2581182112579 L200.1155729065651,972.4951877140834 A1387.0716331922738 1387.0716331922738 0.14477721740224014 0 1 0,987.0066316662062 Z" style="fill: rgb(248, 88, 104);"/><title>DPR → Others
27.0</title></g><g class="link" style="opacity: 0.8;"><path d="M0,831.6867919314727 A65582.6518096522 65582.6518096522 0.003026472461380658 0 1 198.48378664268802,831.9871450178825 L881.5347171264991,834.0543861603861 A65576.53782788927 65576.53782788927 0.003026472461380658 0 0 1080,834.3547112462005 L1080,840.4686930091185 A65582.6518096522 65582.6518096522 0.003026472461380658 0 1 881.5162133573119,840.1683399227087 L198.46528287350083,838.1010987802051 A65576.53782788927 65576.53782788927 0.003026472461380658 0 0 0,837.8007736943907 Z" style="fill: rgb(59, 179, 50);"/><title>DCLA → Others
27.0</title></g><g class="link" style="opacity: 0.8;"><path d="M0,774.6229621442387 A1710.4451701322603 1710.4451701322603 0.11654635835118565 0 0 198.89517387826407,763.0195709415856 L880.393875845715,683.2317975851807 A1716.559151895178 1716.559151895178 0.11654635835118565 0 1 1080,671.5869300911854 L1080,677.7009118541034 A1710.4451701322603 1710.4451701322603 0.11654635835118565 0 0 881.1048261217359,689.3043030567566 L199.60612415428494,769.0920764131614 A1716.559151895178 1716.559151895178 0.11654635835118565 0 1 0,780.7369439071567 Z" style="fill: rgb(248, 88, 104);"/><title>DCLA → Aquareium
27.0</title></g><g class="link" style="opacity: 0.8;"><path d="M0,1066.0766786405084 A2454.5433651943235 2454.5433651943235 0.08121098672933003 0 1 199.11685008196633,1074.166363171143 L881.4158658393081,1129.6986758837932 A2447.9764958934115 2447.9764958934115 0.08121098672933003 0 0 1080,1137.7667173252278 L1080,1144.3335866261398 A2454.5433651943235 2454.5433651943235 0.08121098672933003 0 1 880.8831499180336,1136.243902095505 L198.58413416069192,1080.711589382855 A2447.9764958934115 2447.9764958934115 0.08121098672933003 0 0 0,1072.6435479414204 Z" style="fill: rgb(248, 88, 104);"/><title>HHC → Hospital
29.0</title></g><g class="link" style="opacity: 0.8;"><path d="M0,988.3652942801879 A6463.754162626387 6463.754162626387 0.030735005723504516 0 1 198.63224505704548,991.4180161887374 L881.5765145882784,1012.4149241484338 A6456.960849556478 6456.960849556478 0.030735005723504516 0 0 1080,1015.4644376899696 L1080,1022.2577507598785 A6463.754162626387 6463.754162626387 0.030735005723504516 0 1 881.3677549429545,1019.205028851329 L198.4234854117215,998.2081208916326 A6456.960849556478 6456.960849556478 0.030735005723504516 0 0 0,995.1586073500968 Z" style="fill: rgb(251, 191, 173);"/><title>DPR → Center
30.0</title></g><g class="link" style="opacity: 0.8;"><path d="M0,789.5682508980382 A3004.302837061374 3004.302837061374 0.06611474427244679 0 0 198.4840391174856,783.0044990458204 L881.0372291291206,737.811802078139 A3011.549037669277 3011.549037669277 0.06611474427244679 0 1 1080,731.2322188449848 L1080,738.4784194528875 A3004.302837061374 3004.302837061374 0.06611474427244679 0 0 881.5159608825144,745.0421713051053 L198.96277087087933,790.2348682727867 A3011.549037669277 3011.549037669277 0.06611474427244679 0 1 0,796.8144515059408 Z" style="fill: rgb(59, 179, 50);"/><title>DCLA → Harbor
32.0</title></g><g class="link" style="opacity: 0.8;"><path d="M0,897.0055263885051 A3136.8983745313676 3136.8983745313676 0.06331060489518459 0 0 198.46628838302914,890.7209166823357 L881.0609299655374,847.447605069401 A3144.371018908267 3144.371018908267 0.06331060489518459 0 1 1080,841.1480243161094 L1080,848.6206686930092 A3136.8983745313676 3136.8983745313676 0.06331060489518459 0 0 881.5337116169709,854.9052783991787 L198.9390700344625,898.1785900121133 A3144.371018908267 3144.371018908267 0.06331060489518459 0 1 0,904.4781707654049 Z" style="fill: rgb(59, 179, 50);"/><title>ACS → Others
33.0</title></g><g class="link" style="opacity: 0.8;"><path d="M0,780.7369439071566 A2176.092309141597 2176.092309141597 0.09136761971067808 0 0 198.5478576316597,771.6602060375074 L880.646369067382,709.1644861475872 A2184.923616132479 2184.923616132479 0.09136761971067808 0 1 1080,700.0509118541033 L1080,708.8822188449849 A2176.092309141597 2176.092309141597 0.09136761971067808 0 0 881.4521423683402,717.958956714634 L199.35363093261802,780.4546766045544 A2184.923616132479 2184.923616132479 0.09136761971067808 0 1 0,789.5682508980382 Z" style="fill: rgb(59, 179, 50);"/><title>DCLA → Garden
39.0</title></g><g class="link" style="opacity: 0.8;"><path d="M0,643.3679193147278 A749.2748821758732 749.2748821758732 0.2762342276143015 0 1 204.35317148166044,671.773444141396 L878.5495037080553,862.8956735539389 A738.6320250330161 738.6320250330161 0.2762342276143015 0 0 1080,890.8977203647416 L1080,901.5405775075988 A749.2748821758732 749.2748821758732 0.2762342276143015 0 1 875.6468285183395,873.1350526809306 L201.4504962919447,682.0128232683877 A738.6320250330161 738.6320250330161 0.2762342276143015 0 0 0,654.0107764575849 Z" style="fill: rgb(251, 191, 173);"/><title>DSNY → Storage
47.0</title></g><g class="link" style="opacity: 0.8;"><path d="M0,904.4781707654048 A1763.9852049658698 1763.9852049658698 0.11351753501710493 0 1 199.81346582484676,915.8315312717644 L881.3920920029663,993.5367195914409 A1753.3423478230125 1753.3423478230125 0.11351753501710493 0 0 1080,1004.8215805471125 L1080,1015.4644376899696 A1763.9852049658698 1763.9852049658698 0.11351753501710493 0 1 880.1865341751533,1004.11107718361 L198.60790799703372,926.4058888639335 A1753.3423478230125 1753.3423478230125 0.11351753501710493 0 0 0,915.1210279082619 Z" style="fill: rgb(59, 179, 50);"/><title>ACS → Center
47.0</title></g><g class="link" style="opacity: 0.8;"><path d="M0,1223.8873998342083 A15528.37397175309 15528.37397175309 0.012787361008728126 0 1 198.56151240149208,1225.156956004473 L881.5948467212143,1233.8916259244531 A15516.146008227255 15516.146008227255 0.012787361008728126 0 0 1080,1235.1601823708206 L1080,1247.3881458966566 A15528.37397175309 15528.37397175309 0.012787361008728126 0 1 881.4384875985079,1246.118589726392 L198.40515327878566,1237.3839198064118 A15516.146008227255 15516.146008227255 0.012787361008728126 0 0 0,1236.1153633600443 Z" style="fill: rgb(248, 88, 104);"/><title>DOC → Island 
 Campus
54.0</title></g><g class="link" style="opacity: 0.8;"><path d="M0,1256.433545178226 A4318.1656795510535 4318.1656795510535 0.04607696088058577 0 1 198.89755420993092,1261.0166534804202 L881.7073944371083,1292.5007400762963 A4305.0319409492295 4305.0319409492295 0.04607696088058577 0 0 1080,1297.0699088145898 L1080,1310.2036474164133 A4318.1656795510535 4318.1656795510535 0.04607696088058577 0 1 881.102445790069,1305.6205391142191 L198.2926055628918,1274.136452518343 A4305.0319409492295 4305.0319409492295 0.04607696088058577 0 0 0,1269.5672837800496 Z" style="fill: rgb(251, 191, 173);"/><title>BPL → Library
58.0</title></g><g class="link" style="opacity: 0.8;"><path d="M0,1327.6398176291793 A0 0 0 0 1 0,1327.6398176291793 L1080,1327.6398176291796 A0 0 0 0 0 1080,1327.6398176291796 L1080,1341.0000000000005 A0 0 0 0 1 1080,1341.0000000000005 L0,1341.0000000000002 A0 0 0 0 0 0,1341.0000000000002 Z" style="fill: rgb(251, 191, 173);"/><title>QPL → Library
59.0</title></g><g class="link" style="opacity: 0.8;"><path d="M0,943.5911854103343 A13400.790315326094 13400.790315326094 0.014821112562042549 0 1 198.60735030433096,945.0630032999741 L881.6342835474384,955.1869636658563 A13384.486363958315 13384.486363958315 0.014821112562042549 0 0 1080,956.656990881459 L1080,972.9609422492401 A13400.790315326094 13400.790315326094 0.014821112562042549 0 1 881.392649695669,971.4891243596004 L198.36571645256163,961.3651639937182 A13384.486363958315 13384.486363958315 0.014821112562042549 0 0 0,959.8951367781154 Z" style="fill: rgb(251, 191, 173);"/><title>NYPD → Police 
 Precinct
72.0</title></g><g class="link" style="opacity: 0.8;"><path d="M0,1289.8854655982316 A8622.772523788435 8622.772523788435 0.023046274342151563 0 1 198.7051903433524,1292.1752741130383 L881.6966128483042,1307.9184691398402 A8605.33635357567 8605.33635357567 0.023046274342151563 0 0 1080,1310.2036474164136 L1080,1327.6398176291793 A8622.772523788435 8622.772523788435 0.023046274342151563 0 1 881.2948096566475,1325.3500091143726 L198.30338715169586,1309.6068140875707 A8605.33635357567 8605.33635357567 0.023046274342151563 0 0 0,1307.3216358109973 Z" style="fill: rgb(251, 191, 173);"/><title>NYPL → Library
77.0</title></g><g class="link" style="opacity: 0.8;"><path d="M0,1127.9987565625863 A2501.1658045234653 2501.1658045234653 0.07908064433747075 0 0 197.58770909295274,1120.1820007952135 L879.9257671184902,1066.1095018887884 A2532.641488414043 2532.641488414043 0.07908064433747075 0 1 1080,1058.194376899696 L1080,1089.6700607902733 A2501.1658045234653 2501.1658045234653 0.07908064433747075 0 0 882.4122909070473,1097.486816557646 L200.07423288150986,1151.5593154640712 A2532.641488414043 2532.641488414043 0.07908064433747075 0 1 0,1159.4744404531637 Z" style="fill: rgb(251, 191, 173);"/><title>FDNY → FDNY 
 Facilities
139</title></g><g class="link" style="opacity: 0.8;"><path d="M0,583.195634153081 A544.8463018888879 544.8463018888879 0.3777527598656989 0 0 200.9570792914832,544.7817018503341 L867.183102781379,280.41701296222396 A577.0013170864563 577.0013170864563 0.3777527598656989 0 1 1080,239.73601823708208 L1080,271.89103343465047 A544.8463018888879 544.8463018888879 0.3777527598656989 0 0 879.0429207085168,310.30496573739737 L212.81689721862105,574.6696546255074 A577.0013170864563 577.0013170864563 0.3777527598656989 0 1 0,615.3506493506494 Z" style="fill: rgb(248, 88, 104);"/><title>DEP → WPCP
142</title></g><g class="link" style="opacity: 0.8;"><path d="M0,796.8144515059408 A4849.8481393552565 4849.8481393552565 0.04080798964173393 0 0 197.85762684265163,792.7768051753379 L880.7196979888097,764.895098069309 A4884.720479780789 4884.720479780789 0.04080798964173393 0 1 1080,760.8284194528875 L1080,795.7007598784195 A4849.8481393552565 4849.8481393552565 0.04080798964173393 0 0 882.1423731573484,799.7384062090224 L199.2803020111904,827.6201133150513 A4884.720479780789 4884.720479780789 0.04080798964173393 0 1 0,831.6867919314728 Z" style="fill: rgb(248, 88, 104);"/><title>DCLA → Zoo
154</title></g><g class="link" style="opacity: 0.8;"><path d="M0,490.4154462558717 A529.4741540158648 529.4741540158648 0.3756369030783566 0 0 194.2455873625311,453.49741245475053 L860.6659693601248,190.6863068389115 A597.8601722529468 597.8601722529468 0.3756369030783566 0 1 1080,149 L1080,217.38601823708206 A529.4741540158648 529.4741540158648 0.3756369030783566 0 0 885.7544126374689,254.30405203820322 L219.33403063987518,517.1151576540423 A597.8601722529468 597.8601722529468 0.3756369030783566 0 1 0,558.8014644929538 Z" style="fill: rgb(255, 230, 116);"/><title>CUNY → College
302</title></g><g class="link" style="opacity: 0.8;"><path d="M0,149.00000000000003 A1386.9530405096996 1386.9530405096996 0.16382091930481835 0 1 226.19699280707903,167.56944771704468 L906.1704871962044,279.9706489806782 A1065.8557760720098 1065.8557760720098 0.16382091930481835 0 0 1080,294.2410334346505 L1080,615.3382978723405 A1386.9530405096996 1386.9530405096996 0.16382091930481835 0 1 853.803007192921,596.7688501552958 L173.82951280379558,484.36764889166227 A1065.8557760720098 1065.8557760720098 0.16382091930481835 0 0 0,470.09726443769 Z" style="fill: rgb(59, 179, 50);"/><title>DOE → School
1.42k</title></g></g><g class="nodes"><g class="node" transform="translate(0,149)"><title>DOE</title><text dy=".35em" text-anchor="end" transform="translate(-4, 160.5486297607422)">DOE</text><line x1="0" x2="0" y1="0" y2="321.09726443768994" style="stroke: rgb(0, 0, 0);"/><rect x="-5" y="-5" width="10" style="fill: none; visibility: hidden; pointer-events: all;" height="326.09726443768994"/></g><g class="node" transform="translate(1080,294.2410334346505)"><title>School</title><text dy=".35em" text-anchor="start" transform="translate(4, 161.22796630859375)">School</text><line x1="0" x2="0" y1="0" y2="322.4559270516717" style="stroke: rgb(0, 0, 0);"/><rect x="-5" y="-5" width="10" style="fill: none; visibility: hidden; pointer-events: all;" height="327.4559270516717"/></g><g class="node" transform="translate(0,490.41544625587176)"><title>CUNY</title><text dy=".35em" text-anchor="end" transform="translate(-4, 36.23100280761719)">CUNY</text><line x1="0" x2="0" y1="0" y2="72.46200607902735" style="stroke: rgb(0, 0, 0);"/><rect x="-5" y="-5" width="10" style="fill: none; visibility: hidden; pointer-events: all;" height="77.46200607902735"/></g><g class="node" transform="translate(1080,149)"><title>College</title><text dy=".35em" text-anchor="start" transform="translate(4, 34.19300842285156)">College</text><line x1="0" x2="0" y1="0" y2="68.38601823708207" style="stroke: rgb(0, 0, 0);"/><rect x="-5" y="-5" width="10" style="fill: none; visibility: hidden; pointer-events: all;" height="73.38601823708207"/></g><g class="node" transform="translate(0,774.6229621442387)"><title>DCLA</title><text dy=".35em" text-anchor="end" transform="translate(-4, 38.04255294799805)">DCLA</text><line x1="0" x2="0" y1="0" y2="76.08510638297872" style="stroke: rgb(0, 0, 0);"/><rect x="-5" y="-5" width="10" style="fill: none; visibility: hidden; pointer-events: all;" height="81.08510638297872"/></g><g class="node" transform="translate(1080,760.8284194528875)"><title>Zoo</title><text dy=".35em" text-anchor="start" transform="translate(4, 17.43617057800293)">Zoo</text><line x1="0" x2="0" y1="0" y2="34.87234042553192" style="stroke: rgb(0, 0, 0);"/><rect x="-5" y="-5" width="10" style="fill: none; visibility: hidden; pointer-events: all;" height="39.87234042553192"/></g><g class="node" transform="translate(0,583.195634153081)"><title>DEP</title><text dy=".35em" text-anchor="end" transform="translate(-4, 17.322948455810547)">DEP</text><line x1="0" x2="0" y1="0" y2="34.64589665653495" style="stroke: rgb(0, 0, 0);"/><rect x="-5" y="-5" width="10" style="fill: none; visibility: hidden; pointer-events: all;" height="39.64589665653495"/></g><g class="node" transform="translate(1080,239.73601823708208)"><title>WPCP</title><text dy=".35em" text-anchor="start" transform="translate(4, 16.07750701904297)">WPCP</text><line x1="0" x2="0" y1="0" y2="32.15501519756839" style="stroke: rgb(0, 0, 0);"/><rect x="-5" y="-5" width="10" style="fill: none; visibility: hidden; pointer-events: all;" height="37.15501519756839"/></g><g class="node" transform="translate(0,1124.6021000276319)"><title>FDNY</title><text dy=".35em" text-anchor="end" transform="translate(-4, 22.304710388183594)">FDNY</text><line x1="0" x2="0" y1="0" y2="44.609422492401215" style="stroke: rgb(0, 0, 0);"/><rect x="-5" y="-5" width="10" style="fill: none; visibility: hidden; pointer-events: all;" height="49.609422492401215"/></g><g class="node" transform="translate(1080,1050.9481762917933)"><title>FDNY 
 Facilities</title><text dy=".35em" text-anchor="start" transform="translate(4, 20.040273666381836)"><tspan x="0" dy="-0.33000000000000007em">FDNY </tspan><tspan x="0" dy="1.1em"> Facilities</tspan></text><line x1="0" x2="0" y1="0" y2="40.08054711246201" style="stroke: rgb(0, 0, 0);"/><rect x="-5" y="-5" width="10" style="fill: none; visibility: hidden; pointer-events: all;" height="45.08054711246201"/></g><g class="node" transform="translate(0,1289.8854655982316)"><title>NYPL</title><text dy=".35em" text-anchor="end" transform="translate(-4, 8.718085289001465)">NYPL</text><line x1="0" x2="0" y1="0" y2="17.43617021276596" style="stroke: rgb(0, 0, 0);"/><rect x="-5" y="-5" width="10" style="fill: none; visibility: hidden; pointer-events: all;" height="22.43617021276596"/></g><g class="node" transform="translate(1080,1297.0699088145898)"><title>Library</title><text dy=".35em" text-anchor="start" transform="translate(4, 21.965045928955078)">Library</text><line x1="0" x2="0" y1="0" y2="43.93009118541033" style="stroke: rgb(0, 0, 0);"/><rect x="-5" y="-5" width="10" style="fill: none; visibility: hidden; pointer-events: all;" height="48.93009118541033"/></g><g class="node" transform="translate(0,938.3829787234042)"><title>NYPD</title><text dy=".35em" text-anchor="end" transform="translate(-4, 11.095745086669922)">NYPD</text><line x1="0" x2="0" y1="0" y2="22.191489361702125" style="stroke: rgb(0, 0, 0);"/><rect x="-5" y="-5" width="10" style="fill: none; visibility: hidden; pointer-events: all;" height="27.191489361702125"/></g><g class="node" transform="translate(1080,956.656990881459)"><title>Police 
 Precinct</title><text dy=".35em" text-anchor="start" transform="translate(4, 8.151975631713867)"><tspan x="0" dy="-0.33000000000000007em">Police </tspan><tspan x="0" dy="1.1em"> Precinct</tspan></text><line x1="0" x2="0" y1="0" y2="16.303951367781153" style="stroke: rgb(0, 0, 0);"/><rect x="-5" y="-5" width="10" style="fill: none; visibility: hidden; pointer-events: all;" height="21.303951367781153"/></g><g class="node" transform="translate(0,1327.6398176291793)"><title>QPL</title><text dy=".35em" text-anchor="end" transform="translate(-4, 6.680091381072998)">QPL</text><line x1="0" x2="0" y1="0" y2="13.360182370820668" style="stroke: rgb(0, 0, 0);"/><rect x="-5" y="-5" width="10" style="fill: none; visibility: hidden; pointer-events: all;" height="18.360182370820667"/></g><g class="node" transform="translate(0,1256.433545178226)"><title>BPL</title><text dy=".35em" text-anchor="end" transform="translate(-4, 6.566869258880615)">BPL</text><line x1="0" x2="0" y1="0" y2="13.133738601823708" style="stroke: rgb(0, 0, 0);"/><rect x="-5" y="-5" width="10" style="fill: none; visibility: hidden; pointer-events: all;" height="18.13373860182371"/></g><g class="node" transform="translate(0,1220.9436308372478)"><title>DOC</title><text dy=".35em" text-anchor="end" transform="translate(-4, 7.585866451263428)">DOC</text><line x1="0" x2="0" y1="0" y2="15.171732522796352" style="stroke: rgb(0, 0, 0);"/><rect x="-5" y="-5" width="10" style="fill: none; visibility: hidden; pointer-events: all;" height="20.171732522796354"/></g><g class="node" transform="translate(1080,1229.0462006079026)"><title>Island 
 Campus</title><text dy=".35em" text-anchor="start" transform="translate(4, 9.17097282409668)"><tspan x="0" dy="-0.33000000000000007em">Island </tspan><tspan x="0" dy="1.1em"> Campus</tspan></text><line x1="0" x2="0" y1="0" y2="18.3419452887538" style="stroke: rgb(0, 0, 0);"/><rect x="-5" y="-5" width="10" style="fill: none; visibility: hidden; pointer-events: all;" height="23.3419452887538"/></g><g class="node" transform="translate(0,896.3261950815142)"><title>ACS</title><text dy=".35em" text-anchor="end" transform="translate(-4, 10.869300842285156)">ACS</text><line x1="0" x2="0" y1="0" y2="21.738601823708205" style="stroke: rgb(0, 0, 0);"/><rect x="-5" y="-5" width="10" style="fill: none; visibility: hidden; pointer-events: all;" height="26.738601823708205"/></g><g class="node" transform="translate(1080,995.3109422492402)"><title>Center</title><text dy=".35em" text-anchor="start" transform="translate(4, 16.643617630004883)">Center</text><line x1="0" x2="0" y1="0" y2="33.28723404255319" style="stroke: rgb(0, 0, 0);"/><rect x="-5" y="-5" width="10" style="fill: none; visibility: hidden; pointer-events: all;" height="38.28723404255319"/></g><g class="node" transform="translate(0,638.1597126277977)"><title>DSNY</title><text dy=".35em" text-anchor="end" transform="translate(-4, 7.92553186416626)">DSNY</text><line x1="0" x2="0" y1="0" y2="15.851063829787233" style="stroke: rgb(0, 0, 0);"/><rect x="-5" y="-5" width="10" style="fill: none; visibility: hidden; pointer-events: all;" height="20.851063829787233"/></g><g class="node" transform="translate(1080,890.8977203647416)"><title>Storage</title><text dy=".35em" text-anchor="start" transform="translate(4, 8.604863166809082)">Storage</text><line x1="0" x2="0" y1="0" y2="17.209726443768997" style="stroke: rgb(0, 0, 0);"/><rect x="-5" y="-5" width="10" style="fill: none; visibility: hidden; pointer-events: all;" height="22.209726443768997"/></g><g class="node" transform="translate(1080,700.0509118541033)"><title>Garden</title><text dy=".35em" text-anchor="start" transform="translate(4, 4.415653705596924)">Garden</text><line x1="0" x2="0" y1="0" y2="8.831306990881458" style="stroke: rgb(0, 0, 0);"/><rect x="-5" y="-5" width="10" style="fill: none; visibility: hidden; pointer-events: all;" height="13.831306990881458"/></g><g class="node" transform="translate(1080,818.0507598784194)"><title>Others</title><text dy=".35em" text-anchor="start" transform="translate(4, 25.24847984313965)">Others</text><line x1="0" x2="0" y1="0" y2="50.49696048632219" style="stroke: rgb(0, 0, 0);"/><rect x="-5" y="-5" width="10" style="fill: none; visibility: hidden; pointer-events: all;" height="55.49696048632219"/></g><g class="node" transform="translate(1080,731.2322188449848)"><title>Harbor</title><text dy=".35em" text-anchor="start" transform="translate(4, 3.6231002807617188)">Harbor</text><line x1="0" x2="0" y1="0" y2="7.246200607902735" style="stroke: rgb(0, 0, 0);"/><rect x="-5" y="-5" width="10" style="fill: none; visibility: hidden; pointer-events: all;" height="12.246200607902736"/></g><g class="node" transform="translate(0,980.8926499032882)"><title>DPR</title><text dy=".35em" text-anchor="end" transform="translate(-4, 8.831307411193848)">DPR</text><line x1="0" x2="0" y1="0" y2="17.662613981762917" style="stroke: rgb(0, 0, 0);"/><rect x="-5" y="-5" width="10" style="fill: none; visibility: hidden; pointer-events: all;" height="22.662613981762917"/></g><g class="node" transform="translate(0,1063.132909643548)"><title>HHC</title><text dy=".35em" text-anchor="end" transform="translate(-4, 4.755319118499756)">HHC</text><line x1="0" x2="0" y1="0" y2="9.51063829787234" style="stroke: rgb(0, 0, 0);"/><rect x="-5" y="-5" width="10" style="fill: none; visibility: hidden; pointer-events: all;" height="14.51063829787234"/></g><g class="node" transform="translate(1080,1137.7667173252278)"><title>Hospital</title><text dy=".35em" text-anchor="start" transform="translate(4, 4.528875350952148)">Hospital</text><line x1="0" x2="0" y1="0" y2="9.057750759878418" style="stroke: rgb(0, 0, 0);"/><rect x="-5" y="-5" width="10" style="fill: none; visibility: hidden; pointer-events: all;" height="14.057750759878418"/></g><g class="node" transform="translate(1080,671.5869300911854)"><title>Aquareium</title><text dy=".35em" text-anchor="start" transform="translate(4, 3.0569908618927)">Aquareium</text><line x1="0" x2="0" y1="0" y2="6.113981762917933" style="stroke: rgb(0, 0, 0);"/><rect x="-5" y="-5" width="10" style="fill: none; visibility: hidden; pointer-events: all;" height="11.113981762917934"/></g><g class="node" transform="translate(0,1189.529704338215)"><title>DHS</title><text dy=".35em" text-anchor="end" transform="translate(-4, 5.547872543334961)">DHS</text><line x1="0" x2="0" y1="0" y2="11.095744680851062" style="stroke: rgb(0, 0, 0);"/><rect x="-5" y="-5" width="10" style="fill: none; visibility: hidden; pointer-events: all;" height="16.095744680851062"/></g><g class="node" transform="translate(0,1092.9617297596021)"><title>DCAS</title><text dy=".35em" text-anchor="end" transform="translate(-4, 5.6610941886901855)">DCAS</text><line x1="0" x2="0" y1="0" y2="11.322188449848024" style="stroke: rgb(0, 0, 0);"/><rect x="-5" y="-5" width="10" style="fill: none; visibility: hidden; pointer-events: all;" height="16.322188449848024"/></g><g class="node" transform="translate(1080,1200.8086626139816)"><title>Court</title><text dy=".35em" text-anchor="start" transform="translate(4, 2.9437689781188965)">Court</text><line x1="0" x2="0" y1="0" y2="5.887537993920972" style="stroke: rgb(0, 0, 0);"/><rect x="-5" y="-5" width="10" style="fill: none; visibility: hidden; pointer-events: all;" height="10.887537993920972"/></g><g class="node" transform="translate(1080,1269.7381458966565)"><title>Shelter</title><text dy=".35em" text-anchor="start" transform="translate(4, 2.4908814430236816)">Shelter</text><line x1="0" x2="0" y1="0" y2="4.98176291793313" style="stroke: rgb(0, 0, 0);"/><rect x="-5" y="-5" width="10" style="fill: none; visibility: hidden; pointer-events: all;" height="9.98176291793313"/></g><g class="node" transform="translate(0,674.3289582757668)"><title>DOT</title><text dy=".35em" text-anchor="end" transform="translate(-4, 3.96276593208313)">DOT</text><line x1="0" x2="0" y1="0" y2="7.925531914893616" style="stroke: rgb(0, 0, 0);"/><rect x="-5" y="-5" width="10" style="fill: none; visibility: hidden; pointer-events: all;" height="12.925531914893616"/></g><g class="node" transform="translate(0,725.1552915169937)"><title>HRA</title><text dy=".35em" text-anchor="end" transform="translate(-4, 3.96276593208313)">HRA</text><line x1="0" x2="0" y1="0" y2="7.925531914893616" style="stroke: rgb(0, 0, 0);"/><rect x="-5" y="-5" width="10" style="fill: none; visibility: hidden; pointer-events: all;" height="12.925531914893616"/></g><g class="node" transform="translate(1080,639.0469604863222)"><title>Office</title><text dy=".35em" text-anchor="start" transform="translate(4, 5.094985008239746)">Office</text><line x1="0" x2="0" y1="0" y2="10.189969604863222" style="stroke: rgb(0, 0, 0);"/><rect x="-5" y="-5" width="10" style="fill: none; visibility: hidden; pointer-events: all;" height="15.189969604863222"/></g><g class="node" transform="translate(1080,1169.1744680851061)"><title>Residence</title><text dy=".35em" text-anchor="start" transform="translate(4, 4.642097473144531)">Residence</text><line x1="0" x2="0" y1="0" y2="9.28419452887538" style="stroke: rgb(0, 0, 0);"/><rect x="-5" y="-5" width="10" style="fill: none; visibility: hidden; pointer-events: all;" height="14.28419452887538"/></g><g class="node" transform="translate(0,871.0262503453993)"><title>DOHMH</title><text dy=".35em" text-anchor="end" transform="translate(-4, 2.4908814430236816)">DOHMH</text><line x1="0" x2="0" y1="0" y2="4.98176291793313" style="stroke: rgb(0, 0, 0);"/><rect x="-5" y="-5" width="10" style="fill: none; visibility: hidden; pointer-events: all;" height="9.98176291793313"/></g><g class="node" transform="translate(1080,930.4574468085107)"><title>Museum</title><text dy=".35em" text-anchor="start" transform="translate(4, 1.924772024154663)">Museum</text><line x1="0" x2="0" y1="0" y2="3.849544072948328" style="stroke: rgb(0, 0, 0);"/><rect x="-5" y="-5" width="10" style="fill: none; visibility: hidden; pointer-events: all;" height="8.849544072948328"/></g><g class="node" transform="translate(0,1018.873445703233)"><title>DFTA</title><text dy=".35em" text-anchor="end" transform="translate(-4, 1.2454407215118408)">DFTA</text><line x1="0" x2="0" y1="0" y2="2.490881458966565" style="stroke: rgb(0, 0, 0);"/><rect x="-5" y="-5" width="10" style="fill: none; visibility: hidden; pointer-events: all;" height="7.490881458966565"/></g><g class="node" transform="translate(0,702.5726720088422)"><title>EDC</title><text dy=".35em" text-anchor="end" transform="translate(-4, 1.132218837738037)">EDC</text><line x1="0" x2="0" y1="0" y2="2.2644376899696046" style="stroke: rgb(0, 0, 0);"/><rect x="-5" y="-5" width="10" style="fill: none; visibility: hidden; pointer-events: all;" height="7.264437689969604"/></g><g class="node" transform="translate(1080,1113.3787234042552)"><title>City Hall</title><text dy=".35em" text-anchor="start" transform="translate(4, 1.0189969539642334)">City Hall</text><line x1="0" x2="0" y1="0" y2="2.037993920972644" style="stroke: rgb(0, 0, 0);"/><rect x="-5" y="-5" width="10" style="fill: none; visibility: hidden; pointer-events: all;" height="7.037993920972644"/></g><g class="node" transform="translate(0,1041.6825089803813)"><title>FIT</title><text dy=".35em" text-anchor="end" transform="translate(-4, 0.5661094188690186)">FIT</text><line x1="0" x2="0" y1="0" y2="1.1322188449848023" style="stroke: rgb(0, 0, 0);"/><rect x="-5" y="-5" width="10" style="fill: none; visibility: hidden; pointer-events: all;" height="6.132218844984802"/></g><g class="node" transform="translate(0,753.3990052500691)"><title>OCME</title><text dy=".35em" text-anchor="end" transform="translate(-4, 0.45288756489753723)">OCME</text><line x1="0" x2="0" y1="0" y2="1" style="stroke: rgb(0, 0, 0);"/><rect x="-5" y="-5" width="10" style="fill: none; visibility: hidden; pointer-events: all;" height="6"/></g></g><g class="slice-titles"/></g></svg>