<?xml version="1.0" standalone="no"?><!DOCTYPE svg PUBLIC "-//W3C//DTD SVG 1.1//EN" "http://www.w3.org/Graphics/SVG/1.1/DTD/svg11.dtd"><svg xmlns="http://www.w3.org/2000/svg" width="1280" height="1500" viewBox="0 0 1280 1500" style="font-family: &quot;Helvetica Neue&quot;, Helvetica, Arial, sans-serif;"><g class="sankey" transform="translate(100,10)"><g class="groups"/><g class="links"><g class="link" style="opacity: 0.8;"><path d="M0,774.0834618137767 A1126.915280802532 1126.915280802532 0.17853505415841253 0 0 200.12674821051343,756.1710370747155 L879.5180755812662,633.5704717418598 A1128.915280802532 1128.915280802532 0.17853505415841253 0 1 1080,615.6262568140521 L1080,617.6262568140521 A1126.915280802532 1126.915280802532 0.17853505415841253 0 0 879.8732517894866,635.5386815531133 L200.4819244187338,758.139246885969 A1128.915280802532 1128.915280802532 0.17853505415841253 0 1 0,776.0834618137767 Z" style="fill: rgb(59, 179, 50);"/><title>ACS → School
3.00</title></g><g class="link" style="opacity: 0.8;"><path d="M0,1023.9195666538185 A2317.170934946467 2317.170934946467 0.08590400770280282 0 0 198.80954004536997,1015.3750433529499 L881.01886317077,956.6259442951482 A2319.170934946467 2319.170934946467 0.08590400770280282 0 1 1080,948.0740460327072 L1080,950.0740460327072 A2317.170934946467 2317.170934946467 0.08590400770280282 0 0 881.19045995463,958.6185693335758 L198.98113682923,1017.3676683913775 A2319.170934946467 2319.170934946467 0.08590400770280282 0 1 0,1025.9195666538185 Z" style="fill: rgb(255, 230, 116);"/><title>DPR → Museum
3.00</title></g><g class="link" style="opacity: 0.8;"><path d="M0,638.4238065084521 A55326.82945109267 55326.82945109267 0.003587387191137603 0 1 198.47833358404557,638.7798162060612 L881.5288411749476,641.2301933594888 A55324.82945109267 55324.82945109267 0.003587387191137603 0 0 1080,641.5861901877649 L1080,643.5861901877649 A55326.82945109267 55326.82945109267 0.003587387191137603 0 1 881.5216664159544,643.2301804901558 L198.47115882505238,640.7798033367283 A55324.82945109267 55324.82945109267 0.003587387191137603 0 0 0,640.4238065084521 Z" style="fill: rgb(59, 179, 50);"/><title>DSNY → Office
3.00</title></g><g class="link" style="opacity: 0.8;"><path d="M0,637.746944000881 A7676.928618960561 7676.928618960561 0.02585778806294381 0 0 198.48627265716019,635.1805930194885 L881.4620175295776,617.5164138758226 A7678.928618960561 7678.928618960561 0.02585778806294381 0 1 1080,614.9493943064808 L1080,616.9493943064808 A7676.928618960561 7676.928618960561 0.02585778806294381 0 0 881.5137273428398,619.5157452878733 L198.53798247042246,637.1799244315391 A7678.928618960561 7678.928618960561 0.02585778806294381 0 1 0,639.746944000881 Z" style="fill: rgb(251, 191, 173);"/><title>DSNY → School
3.00</title></g><g class="link" style="opacity: 0.8;"><path d="M0,1160.6827129563349 A2200.640306089128 2200.640306089128 0.0904840255896815 0 0 198.85119001704172,1151.6801417615613 L880.9680887724389,1089.790462236225 A2202.640306089128 2202.640306089128 0.0904840255896815 0 1 1080,1080.7797092671108 L1080,1082.7797092671108 A2200.640306089128 2200.640306089128 0.0904840255896815 0 0 881.1488099829583,1091.7822804618843 L199.03191122756104,1153.6719599872206 A2202.640306089128 2202.640306089128 0.0904840255896815 0 1 0,1162.6827129563349 Z" style="fill: rgb(251, 191, 173);"/><title>DCAS → FDNY 
 Facilities
3.00</title></g><g class="link" style="opacity: 0.8;"><path d="M0,1234.485339463686 A15194.83271292134 15194.83271292134 0.013063812778985717 0 1 198.49680364043425,1235.78192044362 L881.5293232419593,1244.7054370460758 A15192.83271292134 15192.83271292134 0.013063812778985717 0 0 1080,1246.0018473652326 L1080,1248.0018473652326 A15194.83271292134 15194.83271292134 0.013063812778985717 0 1 881.5031963595658,1246.7052663852985 L198.47067675804064,1237.7817497828428 A15192.83271292134 15192.83271292134 0.013063812778985717 0 0 0,1236.485339463686 Z" style="fill: rgb(248, 88, 104);"/><title>DOC → Court
3.00</title></g><g class="link" style="opacity: 0.8;"><path d="M0,1194.3125240900831 A4128.359741401205 4128.359741401205 0.04811464565926982 0 0 198.5579345122633,1189.5348300191413 L881.3458733208956,1156.6573557058796 A4130.359741401205 4130.359741401205 0.04811464565926982 0 1 1080,1151.877347062386 L1080,1153.877347062386 A4128.359741401205 4128.359741401205 0.04811464565926982 0 0 881.4420654877367,1158.6550411333278 L198.65412667910428,1191.5325154465895 A4130.359741401205 4130.359741401205 0.04811464565926982 0 1 0,1196.3125240900831 Z" style="fill: rgb(255, 230, 116);"/><title>DHS → Residence
3.00</title></g><g class="link" style="opacity: 0.8;"><path d="M0,729.385923131986 A4021.647620678168 4021.647620678168 0.049393819787284965 0 0 198.56377386013548,724.4810142312093 L881.3374786649047,690.7287594201182 A4023.647620678168 4023.647620678168 0.049393819787284965 0 1 1080,685.8214112658993 L1080,687.8214112658993 A4021.647620678168 4021.647620678168 0.049393819787284965 0 0 881.4362261398646,692.726320166676 L198.66252133509533,726.4785749777672 A4023.647620678168 4023.647620678168 0.049393819787284965 0 1 0,731.385923131986 Z" style="fill: rgb(59, 179, 50);"/><title>HRA → Others
3.00</title></g><g class="link" style="opacity: 0.8;"><path d="M0,1093.2097764440282 A1045.9373246968485 1045.9373246968485 0.19280979478631854 0 0 200.419765839402,1073.8282488935793 L879.1969994081763,941.3070799642982 A1047.9373246968485 1047.9373246968485 0.19280979478631854 0 1 1080,921.8884918231373 L1080,923.8884918231373 A1045.9373246968485 1045.9373246968485 0.19280979478631854 0 0 879.580234160598,943.2700193735863 L200.8030005918237,1075.7911883028673 A1047.9373246968485 1047.9373246968485 0.19280979478631854 0 1 0,1095.2097764440282 Z" style="fill: rgb(251, 191, 173);"/><title>FDNY → Center
3.00</title></g><g class="link" style="opacity: 0.8;"><path d="M0,1024.5964291613898 A4383.561630107188 4383.561630107188 0.045308757212220385 0 0 198.5457814574453,1020.0977282222035 L881.363632029481,989.138912163198 A4385.561630107188 4385.561630107188 0.045308757212220385 0 1 1080,984.6381586917017 L1080,986.6381586917017 A4383.561630107188 4383.561630107188 0.045308757212220385 0 0 881.4542185425547,991.136859630888 L198.63636797051896,1022.0956756898935 A4385.561630107188 4385.561630107188 0.045308757212220385 0 1 0,1026.5964291613898 Z" style="fill: rgb(248, 88, 104);"/><title>DPR → Storage
3.00</title></g><g class="link" style="opacity: 0.8;"><path d="M0,1221.5121414019052 A2550.6833147105726 2550.6833147105726 0.07799673609113178 0 0 198.74332137616946,1213.757544558053 L881.1008432676889,1160.4276972391326 A2552.6833147105726 2552.6833147105726 0.07799673609113178 0 1 1080,1152.6670199878859 L1080,1154.6670199878859 A2550.6833147105726 2550.6833147105726 0.07799673609113178 0 0 881.2566786238305,1162.421616831738 L198.89915673231107,1215.7514641506584 A2552.6833147105726 2552.6833147105726 0.07799673609113178 0 1 0,1223.5121414019052 Z" style="fill: rgb(248, 88, 104);"/><title>DOC → Residence
4.00</title></g><g class="link" style="opacity: 0.8;"><path d="M0,1054.5034965034963 A29781.541880731907 29781.541880731907 0.006664240210471517 0 0 198.4698798465247,1053.8421685789956 L881.5167917717117,1049.2901124939142 A29783.541880731907 29783.541880731907 0.006664240210471517 0 1 1080,1048.6287401574803 L1080,1050.6287401574803 A29781.541880731907 29781.541880731907 0.006664240210471517 0 0 881.5301201534753,1051.290068081981 L198.48320822828822,1055.8421241670624 A29783.541880731907 29783.541880731907 0.006664240210471517 0 1 0,1056.5034965034963 Z" style="fill: rgb(59, 179, 50);"/><title>NYPD → FDNY 
 Facilities
4.00</title></g><g class="link" style="opacity: 0.8;"><path d="M0,1157.4112108364077 A418.87560959748527 418.87560959748527 0.5415013645113356 0 0 215.898184099775,1097.4851108054972 L863.0709696100472,708.2286124217146 A420.87560959748527 420.87560959748527 0.5415013645113356 0 1 1080,648.0163840096911 L1080,650.0163840096911 A418.87560959748527 418.87560959748527 0.5415013645113356 0 0 864.101815900225,709.9424840406016 L216.92903038995286,1099.1989824243842 A420.87560959748527 420.87560959748527 0.5415013645113356 0 1 0,1159.4112108364077 Z" style="fill: rgb(255, 230, 116);"/><title>DCAS → Office
4.00</title></g><g class="link" style="opacity: 0.8;"><path d="M0,980.9264908320026 A666.1160689467453 666.1160689467453 0.3109483286543653 0 0 203.80595445868607,948.9821259498972 L875.5821222926196,733.0910948766499 A668.1160689467453 668.1160689467453 0.3109483286543653 0 1 1080,701.0508176862508 L1080,703.0508176862508 A666.1160689467453 666.1160689467453 0.3109483286543653 0 0 876.1940455413138,734.9951825683562 L204.4178777073804,950.8862136416035 A668.1160689467453 668.1160689467453 0.3109483286543653 0 1 0,982.9264908320026 Z" style="fill: rgb(251, 191, 173);"/><title>HHC → Others
4.00</title></g><g class="link" style="opacity: 0.8;"><path d="M0,752.9756070700952 A2645.3030225583693 2645.3030225583693 0.07519326011910743 0 0 198.72157183553742,745.500823431701 L881.1281833190585,694.0915191926614 A2647.3030225583693 2647.3030225583693 0.07519326011910743 0 1 1080,686.6110841913991 L1080,688.6110841913991 A2645.3030225583693 2645.3030225583693 0.07519326011910743 0 0 881.2784281644626,696.0858678297933 L198.87181668094144,747.4951720688329 A2647.3030225583693 2647.3030225583693 0.07519326011910743 0 1 0,754.9756070700952 Z" style="fill: rgb(248, 88, 104);"/><title>OCME → Others
4.00</title></g><g class="link" style="opacity: 0.8;"><path d="M0,674.1970155828424 A5502.0026969981045 5502.0026969981045 0.03608781899514635 0 0 198.51218280810147,670.6146909327067 L881.4156572189795,645.9594899527475 A5504.0026969981045 5504.0026969981045 0.03608781899514635 0 1 1080,642.3758631132647 L1080,644.3758631132647 A5502.0026969981045 5502.0026969981045 0.03608781899514635 0 0 881.4878171918986,647.9581877634004 L198.58434278102058,672.6133887433596 A5504.0026969981045 5504.0026969981045 0.03608781899514635 0 1 0,676.1970155828424 Z" style="fill: rgb(59, 179, 50);"/><title>DOT → Office
4.00</title></g><g class="link" style="opacity: 0.8;"><path d="M0,884.7627883927097 A1781.60710062478 1781.60710062478 0.11210232642536333 0 1 199.3042474430642,895.9457370279761 L880.9194879106769,972.67809090739 A1779.60710062478 1779.60710062478 0.11210232642536333 0 0 1080,983.8484857662021 L1080,985.8484857662021 A1781.60710062478 1781.60710062478 0.11210232642536333 0 1 880.6957525569358,974.6655371309357 L199.08051208932298,897.9331832515218 A1779.60710062478 1779.60710062478 0.11210232642536333 0 0 0,886.7627883927097 Z" style="fill: rgb(59, 179, 50);"/><title>DCLA → Storage
4.00</title></g><g class="link" style="opacity: 0.8;"><path d="M0,959.5930152524639 A3696.765921233312 3696.765921233312 0.05374445483619805 0 0 198.58503583275441,954.2553081302271 L881.3075269964514,917.5273907747434 A3698.765921233312 3698.765921233312 0.05374445483619805 0 1 1080,912.1867958812838 L1080,914.1867958812838 A3696.765921233312 3696.765921233312 0.05374445483619805 0 0 881.4149641672456,919.5245030035206 L198.69247300354854,956.2524203590044 A3698.765921233312 3698.765921233312 0.05374445483619805 0 1 0,961.5930152524639 Z" style="fill: rgb(255, 230, 116);"/><title>FIT → Center
5.00</title></g><g class="link" style="opacity: 0.8;"><path d="M0,1092.3072931006002 A516.3273945514354 516.3273945514354 0.41528323361749697 0 0 208.31182569163124,1048.4205420603819 L870.8812760965371,756.2757959276976 A518.3273945514354 518.3273945514354 0.41528323361749697 0 1 1080,712.2190490611749 L1080,714.2190490611749 A516.3273945514354 516.3273945514354 0.41528323361749697 0 0 871.6881743083687,758.105800101393 L209.1187239034629,1050.2505462340775 A518.3273945514354 518.3273945514354 0.41528323361749697 0 1 0,1094.3072931006002 Z" style="fill: rgb(248, 88, 104);"/><title>FDNY → Others
5.00</title></g><g class="link" style="opacity: 0.8;"><path d="M0,1053.4882027421397 A2584.1190068223277 2584.1190068223277 0.07698243670944138 0 0 198.73534802107162,1045.8348570275543 L881.1108391340119,993.1999111191068 A2586.1190068223277 2586.1190068223277 0.07698243670944138 0 1 1080,985.54064203513 L1080,987.54064203513 A2584.1190068223277 2584.1190068223277 0.07698243670944138 0 0 881.2646519789284,995.1939877497151 L198.88916086598812,1047.828933658163 A2586.1190068223277 2586.1190068223277 0.07698243670944138 0 1 0,1055.4882027421397 Z" style="fill: rgb(59, 179, 50);"/><title>NYPD → Storage
5.00</title></g><g class="link" style="opacity: 0.8;"><path d="M0,561.6881091349595 A1612.4427130768347 1612.4427130768347 0.1240292219946928 0 1 199.47766012646716,574.074521307025 L880.7697628157666,659.0106291366405 A1610.4427130768347 1610.4427130768347 0.1240292219946928 0 0 1080,671.3816777710477 L1080,673.3816777710477 A1612.4427130768347 1612.4427130768347 0.1240292219946928 0 1 880.5223398735329,660.9952655989823 L199.23023718423335,576.0591577693667 A1610.4427130768347 1610.4427130768347 0.1240292219946928 0 0 0,563.6881091349595 Z" style="fill: rgb(248, 88, 104);"/><title>CUNY → Others
5.00</title></g><g class="link" style="opacity: 0.8;"><path d="M0,1129.9859726887287 A8339.986551500988 8339.986551500988 0.023806858482933846 0 1 198.53012497001953,1132.3492736046478 L881.5174842494304,1148.6121295427815 A8337.986551500988 8337.986551500988 0.023806858482933846 0 0 1080,1150.974863718958 L1080,1152.974863718958 A8339.986551500988 8339.986551500988 0.023806858482933846 0 1 881.4698750299805,1150.6115628030389 L198.48251575056958,1134.3487068649051 A8337.986551500988 8337.986551500988 0.023806858482933846 0 0 0,1131.9859726887287 Z" style="fill: rgb(251, 191, 173);"/><title>FDNY → Residence
5.00</title></g><g class="link" style="opacity: 0.8;"><path d="M0,885.890892571995 A1118.2968508034614 1118.2968508034614 0.18028334225943143 0 1 200.51994157867125,904.0152116577146 L879.8386750827897,1027.8293851881715 A1116.2968508034614 1116.2968508034614 0.18028334225943143 0 0 1080,1045.9212901271953 L1080,1047.9212901271953 A1118.2968508034614 1118.2968508034614 0.18028334225943143 0 1 879.4800584213287,1029.7969710414757 L200.16132491721038,905.9827975110188 A1116.2968508034614 1116.2968508034614 0.18028334225943143 0 0 0,887.890892571995 Z" style="fill: rgb(59, 179, 50);"/><title>DCLA → FDNY 
 Facilities
6.00</title></g><g class="link" style="opacity: 0.8;"><path d="M0,1220.3840372226198 A1282.2258994653846 1282.2258994653846 0.15639748091132333 0 0 199.72037204897032,1204.7342429512482 L879.9681066003344,1097.4692076541735 A1284.2258994653846 1284.2258994653846 0.15639748091132333 0 1 1080,1081.7950030284674 L1080,1083.7950030284674 A1282.2258994653846 1282.2258994653846 0.15639748091132333 0 0 880.2796279510297,1099.444797299839 L200.0318933996656,1206.7098325969137 A1284.2258994653846 1284.2258994653846 0.15639748091132333 0 1 0,1222.3840372226198 Z" style="fill: rgb(248, 88, 104);"/><title>DOC → FDNY 
 Facilities
6.00</title></g><g class="link" style="opacity: 0.8;"><path d="M0,1025.724533340675 A8080.58425525826 8080.58425525826 0.024571611627535628 0 1 198.5329987869845,1028.1637939407963 L881.5161394912675,1044.949168693866 A8078.58425525826 8078.58425525826 0.024571611627535628 0 0 1080,1047.3878255602663 L1080,1049.3878255602663 A8080.58425525826 8080.58425525826 0.024571611627535628 0 1 881.4670012130155,1046.948564960145 L198.48386050873248,1030.163190207075 A8078.58425525826 8078.58425525826 0.024571611627535628 0 0 0,1027.724533340675 Z" style="fill: rgb(248, 88, 104);"/><title>DPR → FDNY 
 Facilities
7.00</title></g><g class="link" style="opacity: 0.8;"><path d="M0,1094.4506910412422 A1643.5070569217855 1643.5070569217855 0.12150119616509492 0 0 199.19711863157605,1082.334437722501 L880.5604764237142,999.1381751754955 A1645.5070569217855 1645.5070569217855 0.12150119616509492 0 1 1080,987.0071774682009 L1080,989.0071774682009 A1643.5070569217855 1643.5070569217855 0.12150119616509492 0 0 880.802881368424,1001.123430786942 L199.43952357628578,1084.3196933339475 A1645.5070569217855 1645.5070569217855 0.12150119616509492 0 1 0,1096.4506910412422 Z" style="fill: rgb(251, 191, 173);"/><title>FDNY → Storage
8.00</title></g><g class="link" style="opacity: 0.8;"><path d="M0,1027.5142062661748 A1454.9702361281015 1454.9702361281015 0.1376873867895354 0 1 199.69867617527203,1041.2839612839946 L880.5800275604298,1135.6296864528458 A1452.939648605388 1452.939648605388 0.1376873867895354 0 0 1080,1149.3802241066016 L1080,1151.4108116293153 A1454.9702361281015 1454.9702361281015 0.1376873867895354 0 1 880.301323824728,1137.6410566114955 L199.41997243957016,1043.2953314426443 A1452.939648605388 1452.939648605388 0.1376873867895354 0 0 0,1029.5447937888885 Z" style="fill: rgb(251, 191, 173);"/><title>DPR → Residence
9.00</title></g><g class="link" style="opacity: 0.8;"><path d="M0,982.3777325037167 A2558.7169247129846 2558.7169247129846 0.07775012422063599 0 0 198.74018398985982,974.6478011092692 L881.1020965946104,921.4869138080275 A2560.7475122356977 2560.7475122356977 0.07775012422063599 0 1 1080,913.7508479709265 L1080,915.78143549364 A2558.7169247129846 2558.7169247129846 0.07775012422063599 0 0 881.2598160101402,923.5113668880875 L198.89790340538946,976.6722541893292 A2560.7475122356977 2560.7475122356977 0.07775012422063599 0 1 0,984.4083200264301 Z" style="fill: rgb(248, 88, 104);"/><title>HHC → Center
9.00</title></g><g class="link" style="opacity: 0.8;"><path d="M0,680.6119156434117 A626.0871251785469 626.0871251785469 0.33415997367835804 0 1 205.34137845028948,715.2432042538574 L875.324604963535,947.8476875726413 A624.0565376558335 624.0565376558335 0.33415997367835804 0 0 1080,982.3666565717746 L1080,984.397244094488 A626.0871251785469 626.0871251785469 0.33415997367835804 0 1 874.6586215497105,949.7659554840424 L204.67539503646503,717.1614721652584 A624.0565376558335 624.0565376558335 0.33415997367835804 0 0 0,682.6425031661252 Z" style="fill: rgb(59, 179, 50);"/><title>DOT → Storage
9.00</title></g><g class="link" style="opacity: 0.8;"><path d="M0,702.960684984307 A9454.820979726455 9454.820979726455 0.020993776927533903 0 0 198.47782231321244,700.8772088980181 L881.4795511166611,686.5363160384759 A9456.851567249169 9456.851567249169 0.020993776927533903 0 1 1080,684.4523924894003 L1080,686.4829800121137 A9454.820979726455 9454.820979726455 0.020993776927533903 0 0 881.5221776867876,688.5664560984026 L198.5204488833388,702.9073489579448 A9456.851567249169 9456.851567249169 0.020993776927533903 0 1 0,704.9912725070204 Z" style="fill: rgb(251, 191, 173);"/><title>EDC → Others
9.00</title></g><g class="link" style="opacity: 0.8;"><path d="M0,1162.0211442101206 A12113.556670428663 12113.556670428663 0.016387824738860024 0 1 198.50595824768763,1163.6477210398732 L881.5273171752925,1174.8419574918496 A12111.52608290595 12111.52608290595 0.016387824738860024 0 0 1080,1176.4682616595999 L1080,1178.4988491823135 A12113.556670428663 12113.556670428663 0.016387824738860024 0 1 881.4940417523125,1176.872272352561 L198.4726828247075,1165.6780359005845 A12111.52608290595 12111.52608290595 0.016387824738860024 0 0 0,1164.0517317328342 Z" style="fill: rgb(251, 191, 173);"/><title>DCAS → City Hall
9.00</title></g><g class="link" style="opacity: 0.8;"><path d="M0,912.6239744507461 A25843.752168810173 25843.752168810173 0.007679604496063863 0 0 198.46784451997476,911.8618934297974 L881.5130962007275,906.6162729211013 A25846.233998004598 25846.233998004598 0.007679604496063863 0 1 1080,905.8541187159295 L1080,908.335947910357 A25843.752168810173 25843.752168810173 0.007679604496063863 0 0 881.5321554800252,909.0980289313057 L198.48690379927243,914.3436494400019 A25846.233998004598 25846.233998004598 0.007679604496063863 0 1 0,915.1058036451736 Z" style="fill: rgb(255, 230, 116);"/><title>DFTA → Center
11.0</title></g><g class="link" style="opacity: 0.8;"><path d="M0,1158.8624525081218 A458.61943103896414 458.61943103896414 0.47999285718307094 0 0 211.77799709838433,1107.037640990483 L867.0759615863894,765.8883637822017 A461.10126023339177 461.10126023339177 0.47999285718307094 0 1 1080,713.7831011508176 L1080,716.2649303452451 A458.61943103896414 458.61943103896414 0.47999285718307094 0 0 868.2220029016157,768.0897418628839 L212.9240384136105,1109.2390190711653 A461.10126023339177 461.10126023339177 0.47999285718307094 0 1 0,1161.3442817025493 Z" style="fill: rgb(255, 230, 116);"/><title>DCAS → Others
11.0</title></g><g class="link" style="opacity: 0.8;"><path d="M0,730.7243543857717 A1121.677380942558 1121.677380942558 0.17976280433084768 0 1 200.5516588668915,748.7989177150841 L879.8920827743534,872.251709585107 A1119.1955517481306 1119.1955517481306 0.17976280433084768 0 0 1080,890.2862810417927 L1080,892.7681102362202 A1121.677380942558 1121.677380942558 0.17976280433084768 0 1 879.4483411331084,874.6935469069077 L200.1079172256466,751.2407550368848 A1119.1955517481306 1119.1955517481306 0.17976280433084768 0 0 0,733.2061835801992 Z" style="fill: rgb(255, 230, 116);"/><title>HRA → Center
11.0</title></g><g class="link" style="opacity: 0.8;"><path d="M0,615.608501734486 A3061.262115363865 3061.262115363865 0.06498480366708281 0 1 198.7955288348234,622.0701200646529 L881.3656388563417,666.4893500995878 A3058.7802861694377 3058.7802861694377 0.06498480366708281 0 0 1080,672.9457298606904 L1080,675.427559055118 A3061.262115363865 3061.262115363865 0.06498480366708281 0 1 881.2044711651766,668.9659407249511 L198.63436114365842,624.5467106900162 A3058.7802861694377 3058.7802861694377 0.06498480366708281 0 0 0,618.0903309289135 Z" style="fill: rgb(255, 230, 116);"/><title>DEP → Others
11.0</title></g><g class="link" style="opacity: 0.8;"><path d="M0,879.4454049887121 A7386.79378945262 7386.79378945262 0.026882503852962536 0 1 198.55159597525144,882.114347742742 L881.5211782945953,900.4787041678221 A7384.086339422336 7384.086339422336 0.026882503852962536 0 0 1080,903.1466686856448 L1080,905.8541187159295 A7386.79378945262 7386.79378945262 0.026882503852962536 0 1 881.4484040247485,903.1851759618996 L198.47882170540467,884.8208195368195 A7384.086339422336 7384.086339422336 0.026882503852962536 0 0 0,882.1528550189968 Z" style="fill: rgb(59, 179, 50);"/><title>DCLA → Center
12.0</title></g><g class="link" style="opacity: 0.8;"><path d="M0,1096.3531743846704 A2250.587037140691 2250.587037140691 0.08844829079942329 0 0 198.80113309611272,1087.5556280805781 L880.959709686264,1027.0620364513545 A2253.294487170975 2253.294487170975 0.08844829079942329 0 1 1080,1018.2539067231979 L1080,1020.9613567534826 A2250.587037140691 2250.587037140691 0.08844829079942329 0 0 881.1988669038874,1029.7589030575748 L199.04029031373602,1090.2524946867984 A2253.294487170975 2253.294487170975 0.08844829079942329 0 1 0,1099.060624414955 Z" style="fill: rgb(255, 230, 116);"/><title>FDNY → Hospital
12.0</title></g><g class="link" style="opacity: 0.8;"><path d="M0,793.2459391002698 A738.6332684259199 738.6332684259199 0.2789718209736103 0 1 203.39549728454006,821.8021857109983 L877.4121747130414,1014.8685053803648 A735.7001975597783 735.7001975597783 0.2789718209736103 0 0 1080,1043.3113567534826 L1080,1046.2444276196245 A738.6332684259199 738.6332684259199 0.2789718209736103 0 1 876.6045027154598,1017.6881810088959 L202.5878252869586,824.6218613395293 A735.7001975597783 735.7001975597783 0.2789718209736103 0 0 0,796.1790099664114 Z" style="fill: rgb(255, 230, 116);"/><title>ACS → FDNY 
 Facilities
13.0</title></g><g class="link" style="opacity: 0.8;"><path d="M0,559.1909861791752 A2197.108611296076 2197.108611296076 0.09073307762358573 0 1 199.07701363308033,568.2286222840197 L881.1887479163505,630.2891169228322 A2194.1755404299342 2194.1755404299342 0.09073307762358573 0 0 1080,639.3146880678377 L1080,642.2477589339793 A2197.108611296076 2197.108611296076 0.09073307762358573 0 1 880.9229863669196,633.2101228291348 L198.81125208364958,571.1496281903222 A2194.1755404299342 2194.1755404299342 0.09073307762358573 0 0 0,562.1240570453168 Z" style="fill: rgb(59, 179, 50);"/><title>CUNY → Office
13.0</title></g><g class="link" style="opacity: 0.8;"><path d="M0,882.1528550189968 A2769.6671906894594 2769.6671906894594 0.07186909793058627 0 1 198.88216939073482,889.3026738390815 L881.3446475568904,938.4352583316141 A2766.508498987461 2766.508498987461 0.07186909793058627 0 0 1080,945.5769230769229 L1080,948.7356147789217 A2769.6671906894594 2769.6671906894594 0.07186909793058627 0 1 881.1178306092651,941.5857959588369 L198.65535244310956,892.4532114663043 A2766.508498987461 2766.508498987461 0.07186909793058627 0 0 0,885.3115467209956 Z" style="fill: rgb(251, 191, 173);"/><title>DCLA → Museum
14.0</title></g><g class="link" style="opacity: 0.8;"><path d="M0,1049.86297560707 A561.8343068357469 561.8343068357469 0.3754853955700628 0 0 206.03820872606877,1010.7198250792876 L872.4724603065943,748.0199156351578 A565.895481881174 565.895481881174 0.3754853955700628 0 1 1080,708.5938219261053 L1080,712.6549969715323 A561.8343068357469 561.8343068357469 0.3754853955700628 0 0 873.9617912739313,751.7981474993146 L207.52753969340574,1014.4980569434445 A565.895481881174 565.895481881174 0.3754853955700628 0 1 0,1053.9241506524968 Z" style="fill: rgb(251, 191, 173);"/><title>NYPD → Others
18.0</title></g><g class="link" style="opacity: 0.8;"><path d="M0,639.7622377622378 A4912.985989637738 4912.985989637738 0.040444558938806496 0 1 198.64938388925395,643.7799288002465 L881.5148237682362,671.4131891229742 A4908.924814592312 4908.924814592312 0.040444558938806496 0 0 1080,675.4275590551181 L1080,679.4887341005451 A4912.985989637738 4912.985989637738 0.040444558938806496 0 1 881.350616110746,675.4710430625364 L198.48517623176377,647.8377827398086 A4908.924814592312 4908.924814592312 0.040444558938806496 0 0 0,643.8234128076648 Z" style="fill: rgb(255, 230, 116);"/><title>DSNY → Others
18.0</title></g><g class="link" style="opacity: 0.8;"><path d="M0,935.4239854633555 A6460.859465380205 6460.859465380205 0.03072241485662075 0 0 198.4619811091529,932.3751299916834 L881.4063388863881,911.3868263050085 A6465.146261261489 6465.146261261489 0.03072241485662075 0 1 1080,908.3359479103572 L1080,912.6227437916411 A6460.859465380205 6460.859465380205 0.03072241485662075 0 0 881.5380188908471,915.6715992633133 L198.5936611136119,936.6599029499881 A6465.146261261489 6465.146261261489 0.03072241485662075 0 1 0,939.7107813446395 Z" style="fill: rgb(255, 230, 116);"/><title>DOHMH → Center
19.0</title></g><g class="link" style="opacity: 0.8;"><path d="M0,887.5677550795662 A721.5112860086475 721.5112860086475 0.2865250257214207 0 1 203.91397599885894,916.9824970785003 L877.4250911711205,1115.4206059852738 A716.7732484556494 716.7732484556494 0.2865250257214207 0 0 1080,1144.6421865536036 L1080,1149.3802241066019 A721.5112860086475 721.5112860086475 0.2865250257214207 0 1 876.086024001141,1119.9654821076676 L202.57490882887961,921.5273732008941 A716.7732484556494 716.7732484556494 0.2865250257214207 0 0 0,892.3057926325642 Z" style="fill: rgb(59, 179, 50);"/><title>DCLA → Residence
21.0</title></g><g class="link" style="opacity: 0.8;"><path d="M0,1195.6509553438686 A2376.543517311596 2376.543517311596 0.08386445566192191 0 1 199.07398073773533,1204.003466872991 L881.3229065860984,1261.3544192206055 A2371.805479758598 2371.805479758598 0.08386445566192191 0 0 1080,1269.6902786190183 L1080,1274.4283161720166 A2376.543517311596 2376.543517311596 0.08386445566192191 0 1 880.9260192622647,1266.0758046428941 L198.67709341390156,1208.7248522952798 A2371.805479758598 2371.805479758598 0.08386445566192191 0 0 0,1200.388992896867 Z" style="fill: rgb(255, 230, 116);"/><title>DHS → Shelter
21.0</title></g><g class="link" style="opacity: 0.8;"><path d="M0,725.3094543252023 A2157.0668220632306 2157.0668220632306 0.09226611632987325 0 0 198.7419151685252,716.1343720852598 L880.8215445037521,653.0223402643851 A2161.804859616229 2161.804859616229 0.09226611632987325 0 1 1080,643.8271047849788 L1080,648.5651423379769 A2157.0668220632306 2157.0668220632306 0.09226611632987325 0 0 881.2580848314748,657.7402245779194 L199.1784554962479,720.8522563987941 A2161.804859616229 2161.804859616229 0.09226611632987325 0 1 0,730.0474918782004 Z" style="fill: rgb(255, 230, 116);"/><title>HRA → Office
21.0</title></g><g class="link" style="opacity: 0.8;"><path d="M0,675.6482572545565 A45559.90071380721 45559.90071380721 0.004356605953431458 0 1 198.48590680853258,676.080620380047 L881.535717826749,679.0564180801365 A45554.93705541836 45554.93705541836 0.004356605953431458 0 0 1080,679.4887341005451 L1080,684.4523924894004 A45559.90071380721 45559.90071380721 0.004356605953431458 0 1 881.5140931914674,684.0200293639099 L198.464282173251,681.0442316638204 A45554.93705541836 45554.93705541836 0.004356605953431458 0 0 0,680.6119156434117 Z" style="fill: rgb(248, 88, 104);"/><title>DOT → Others
22.0</title></g><g class="link" style="opacity: 0.8;"><path d="M0,1164.051731732834 A2274.018964049166 2274.018964049166 0.08768424809481679 0 1 199.14023141313737,1172.7880606373335 L881.3142037881578,1232.7577441616606 A2268.829684824453 2268.829684824453 0.08768424809481679 0 0 1080,1241.4741368867349 L1080,1246.663416111447 A2274.018964049166 2274.018964049166 0.08768424809481679 0 1 880.8597685868626,1237.9270872069476 L198.68579621184227,1177.9574036826205 A2268.829684824453 2268.829684824453 0.08768424809481679 0 0 0,1169.2410109575462 Z" style="fill: rgb(255, 230, 116);"/><title>DCAS → Court
23.0</title></g><g class="link" style="opacity: 0.8;"><path d="M0,1189.5591927757282 A437.9510057820241 437.9510057820241 0.5072950296262264 0 0 212.76304339184284,1134.40443936842 L864.6063184743499,772.1016264210778 A443.36590584259346 443.36590584259346 0.5072950296262264 0 1 1080,716.2649303452453 L1080,721.6798304058146 A437.9510057820241 437.9510057820241 0.5072950296262264 0 0 867.2369566081571,776.8345838131227 L215.39368152565007,1139.1373967604652 A443.36590584259346 443.36590584259346 0.5072950296262264 0 1 0,1194.9740928362976 Z" style="fill: rgb(251, 191, 173);"/><title>DHS → Others
24.0</title></g><g class="link" style="opacity: 0.8;"><path d="M0,822.5889543527339 A2235.8503990784548 2235.8503990784548 0.08896733922857014 0 0 198.6553529892961,813.7462018233392 L880.8033937838334,752.8966757586289 A2241.942161646595 2241.942161646595 0.08896733922857014 0 1 1080,744.0298304058147 L1080,750.1215929739551 A2235.8503990784548 2235.8503990784548 0.08896733922857014 0 0 881.344647010704,758.9643455033498 L199.19660621616663,819.8138715680601 A2241.942161646595 2241.942161646595 0.08896733922857014 0 1 0,828.6807169208744 Z" style="fill: rgb(248, 88, 104);"/><title>DCLA → Aquareium
27.0</title></g><g class="link" style="opacity: 0.8;"><path d="M0,1131.5500247783712 A2538.1588586056764 2538.1588586056764 0.07850940980054277 0 1 199.0647100507222,1139.3682674331255 L881.413059473125,1193.0493708684085 A2532.067096037536 2532.067096037536 0.07850940980054277 0 0 1080,1200.8488491823134 L1080,1206.9406117504539 A2538.1588586056764 2538.1588586056764 0.07850940980054277 0 1 880.9352899492778,1199.1223690956995 L198.58694052687494,1145.4412656604165 A2532.067096037536 2532.067096037536 0.07850940980054277 0 0 0,1137.6417873465116 Z" style="fill: rgb(251, 191, 173);"/><title>FDNY → Island 
 Campus
27.0</title></g><g class="link" style="opacity: 0.8;"><path d="M0,816.4971917845934 A1461.179878727708 1461.179878727708 0.13670480628528137 0 0 199.12873093289676,802.865027819951 L880.0410872619756,709.1968108696506 A1467.2716412958484 1467.2716412958484 0.13670480628528137 0 1 1080,695.5078134463961 L1080,701.5995760145365 A1461.179878727708 1461.179878727708 0.13670480628528137 0 0 880.8712690671033,715.2317399791789 L199.95891273802437,808.8999569294793 A1467.2716412958484 1467.2716412958484 0.13670480628528137 0 1 0,822.5889543527338 Z" style="fill: rgb(59, 179, 50);"/><title>DCLA → Others
27.0</title></g><g class="link" style="opacity: 0.8;"><path d="M0,1011.7207477561808 A609.150071582856 609.150071582856 0.34202606495062815 0 0 204.30679500704707,976.4369874543993 L873.6500492185365,738.1386724300188 A615.2418341509964 615.2418341509964 0.34202606495062815 0 1 1080,702.5020593579649 L1080,708.5938219261053 A609.150071582856 609.150071582856 0.34202606495062815 0 0 875.6932049929529,743.8775822278868 L206.34995078146352,982.1758972522673 A615.2418341509964 615.2418341509964 0.34202606495062815 0 1 0,1017.8125103243212 Z" style="fill: rgb(248, 88, 104);"/><title>DPR → Others
27.0</title></g><g class="link" style="opacity: 0.8;"><path d="M0,1017.8125103243214 A1726.6920522127841 1726.6920522127841 0.11541607992745151 0 0 198.84587413599598,1006.3247495922599 L880.3746509320647,927.3142281960841 A1733.4606772884956 1733.4606772884956 0.11541607992745151 0 1 1080,915.7814354936401 L1080,922.5500605693518 A1726.6920522127841 1726.6920522127841 0.11541607992745151 0 0 881.1541258640041,934.0378213014133 L199.6253490679353,1013.0483426975891 A1733.4606772884956 1733.4606772884956 0.11541607992745151 0 1 0,1024.581135400033 Z" style="fill: rgb(251, 191, 173);"/><title>DPR → Center
30.0</title></g><g class="link" style="opacity: 0.8;"><path d="M0,984.4083200264303 A6523.400563747696 6523.400563747696 0.030454066911911326 0 1 198.63337017948885,987.4331507848917 L881.5796001300456,1008.2380732098553 A6516.4063178361275 6516.4063178361275 0.030454066911911326 0 0 1080,1011.2596608116291 L1080,1018.2539067231978 A6523.400563747696 6523.400563747696 0.030454066911911326 0 1 881.3666298205111,1015.2290759647364 L198.42039986995434,994.4241535397728 A6516.4063178361275 6516.4063178361275 0.030454066911911326 0 0 0,991.4025659379989 Z" style="fill: rgb(248, 88, 104);"/><title>HHC → Hospital
31.0</title></g><g class="link" style="opacity: 0.8;"><path d="M0,837.4799295192996 A5168.761517102112 5168.761517102112 0.038397643544697324 0 0 198.419496322349,833.6700408600826 L881.3033459254896,807.4360159877572 A5175.981383849537 5175.981383849537 0.038397643544697324 0 1 1080,803.6208055723803 L1080,810.8406723198061 A5168.761517102112 5168.761517102112 0.038397643544697324 0 0 881.580503677651,814.6505609790231 L198.6966540745105,840.8845858513486 A5175.981383849537 5175.981383849537 0.038397643544697324 0 1 0,844.6997962667255 Z" style="fill: rgb(59, 179, 50);"/><title>DCLA → Harbor
32.0</title></g><g class="link" style="opacity: 0.8;"><path d="M0,775.4218930675623 A2012.1383660188183 2012.1383660188183 0.0988944670807419 0 0 198.66515349812894,765.5904367882187 L880.5997286001494,697.9301613432561 A2019.5838536021013 2019.5838536021013 0.0988944670807419 0 1 1080,688.0623258631132 L1080,695.507813446396 A2012.1383660188183 2012.1383660188183 0.0988944670807419 0 0 881.3348465018711,705.3392697257397 L199.40027139985054,772.9995451707022 A2019.5838536021013 2019.5838536021013 0.0988944670807419 0 1 0,782.8673806508451 Z" style="fill: rgb(59, 179, 50);"/><title>ACS → Others
33.0</title></g><g class="link" style="opacity: 0.8;"><path d="M0,828.6807169208744 A3116.6936882325076 3116.6936882325076 0.06370845933181046 0 0 198.42546235372933,822.357887952268 L881.014332504911,778.8122728839382 A3125.492900830933 3125.492900830933 0.06370845933181046 0 1 1080,772.4715929739551 L1080,781.2708055723803 A3116.6936882325076 3116.6936882325076 0.06370845933181046 0 0 881.5745376462708,787.5936345409866 L198.98566749508907,831.1392496093164 A3125.492900830933 3125.492900830933 0.06370845933181046 0 1 0,837.4799295192995 Z" style="fill: rgb(59, 179, 50);"/><title>DCLA → Garden
39.0</title></g><g class="link" style="opacity: 0.8;"><path d="M0,782.8673806508452 A1613.6565407380824 1613.6565407380824 0.1242619249089627 0 1 200.00043717942052,795.3096144971752 L881.2859060880431,880.4059011336668 A1603.277982288658 1603.277982288658 0.1242619249089627 0 0 1080,892.7681102362203 L1080,903.146668685645 A1613.6565407380824 1613.6565407380824 0.1242619249089627 0 1 879.9995628205794,890.704434839315 L198.7140939119569,805.6081482028234 A1603.277982288658 1603.277982288658 0.1242619249089627 0 0 0,793.2459391002699 Z" style="fill: rgb(59, 179, 50);"/><title>ACS → Center
46.0</title></g><g class="link" style="opacity: 0.8;"><path d="M0,643.8234128076648 A588.0066991266516 588.0066991266516 0.36163317312186427 0 1 208.03808983236732,681.8555385250355 L875.7136925980482,934.4162272237811 A577.40251984137 577.40251984137 0.36163317312186427 0 0 1080,971.7624772864929 L1080,982.3666565717745 A588.0066991266516 588.0066991266516 0.36163317312186427 0 1 871.9619101676327,944.3345308544037 L204.28630740195186,691.7738421556581 A577.40251984137 577.40251984137 0.36163317312186427 0 0 0,654.4275920929464 Z" style="fill: rgb(251, 191, 173);"/><title>DSNY → Storage
47.0</title></g><g class="link" style="opacity: 0.8;"><path d="M0,1222.9633830736193 A10915.770994539387 10915.770994539387 0.01817490058346305 0 0 198.38213036731395,1221.160545697709 L881.3964474653349,1208.7454613446946 A10927.95451967567 10927.95451967567 0.01817490058346305 0 1 1080,1206.9406117504539 L1080,1219.1241368867347 A10915.770994539387 10915.770994539387 0.01817490058346305 0 0 881.617869632686,1220.926974262645 L198.60355253466503,1233.3420586156594 A10927.95451967567 10927.95451967567 0.01817490058346305 0 1 0,1235.1469082099002 Z" style="fill: rgb(248, 88, 104);"/><title>DOC → Island 
 Campus
54.0</title></g><g class="link" style="opacity: 0.8;"><path d="M0,1256.1419525356532 A4318.1418144900435 4318.1418144900435 0.04607696088058599 0 1 198.8964549695094,1260.7250355085368 L881.7062951966805,1292.2091221044125 A4305.055806010334 4305.055806010334 0.04607696088058599 0 0 1080,1296.7783161720165 L1080,1309.8643246517256 A4318.1418144900435 4318.1418144900435 0.04607696088058599 0 1 881.1035450304905,1305.281241678842 L198.29370480331957,1273.7971550829664 A4305.055806010334 4305.055806010334 0.04607696088058599 0 0 0,1269.2279610153623 Z" style="fill: rgb(255, 230, 116);"/><title>BPL → Library
58.0</title></g><g class="link" style="opacity: 0.8;"><path d="M0,1327.4627498485765 A0 0 0 0 0 0,1327.4627498485765 L1080,1327.462749848576 A0 0 0 0 1 1080,1327.462749848576 L1080,1340.9999999999995 A0 0 0 0 0 1080,1340.9999999999995 L0,1341 A0 0 0 0 1 0,1341 Z" style="fill: rgb(251, 191, 173);"/><title>QPL → Library
60.0</title></g><g class="link" style="opacity: 0.8;"><path d="M0,1055.9547381752104 A3524.2389657813433 3524.2389657813433 0.05653069513274156 0 1 199.12158287424595,1061.5844782588197 L881.8089999901136,1100.218435707586 A3507.7686447637784 3507.7686447637784 0.05653069513274156 0 0 1080,1105.8218655360386 L1080,1122.2921865536039 A3524.2389657813433 3524.2389657813433 0.05653069513274156 0 1 880.878417125754,1116.6624464699946 L198.19100000988632,1078.0284890212283 A3507.7686447637784 3507.7686447637784 0.05653069513274156 0 0 0,1072.4250591927757 Z" style="fill: rgb(248, 88, 104);"/><title>NYPD → Police 
 Precinct
73.0</title></g><g class="link" style="opacity: 0.8;"><path d="M0,1289.5461428335443 A8622.853651280671 8622.853651280671 0.023046274342150008 0 1 198.70705986427814,1291.8359728920498 L881.6984823692478,1307.579167918853 A8605.25522608382 8605.25522608382 0.023046274342150008 0 0 1080,1309.8643246517258 L1080,1327.462749848576 A8622.853651280671 8622.853651280671 0.023046274342150008 0 1 881.2929401357219,1325.1729197900706 L198.30151763075222,1309.4297247632674 A8605.25522608382 8605.25522608382 0.023046274342150008 0 0 0,1307.1445680303946 Z" style="fill: rgb(251, 191, 173);"/><title>NYPL → Library
78.0</title></g><g class="link" style="opacity: 0.8;"><path d="M0,1099.060624414955 A3563.6898184192237 3563.6898184192237 0.055527080010915775 0 0 197.77961889068885,1093.568150755616 L880.4798746333669,1055.6207905294575 A3595.0511146033546 3595.0511146033546 0.055527080010915775 0 1 1080,1050.0799818291944 L1080,1081.4412780133252 A3563.6898184192237 3563.6898184192237 0.055527080010915775 0 0 882.2203811093112,1086.9337516726644 L199.52012536663315,1124.8811118988228 A3595.0511146033546 3595.0511146033546 0.055527080010915775 0 1 0,1130.421920599086 Z" style="fill: rgb(248, 88, 104);"/><title>FDNY → FDNY 
 Facilities
139</title></g><g class="link" style="opacity: 0.8;"><path d="M0,583.570343042784 A544.0755341146044 544.0755341146044 0.37839741122136505 0 0 200.99876375671212,545.0812840146532 L867.1653239732151,280.2429988594244 A576.1136928063063 576.1136928063063 0.37839741122136505 0 1 1080,239.487492428831 L1080,271.525651120533 A544.0755341146044 544.0755341146044 0.37839741122136505 0 0 879.001236243288,310.0147101486637 L212.83467602678493,574.8529953038926 A576.1136928063063 576.1136928063063 0.37839741122136505 0 1 0,615.6085017344859 Z" style="fill: rgb(248, 88, 104);"/><title>DEP → WPCP
142</title></g><g class="link" style="opacity: 0.8;"><path d="M0,844.6997962667255 A15186.205660613268 15186.205660613268 0.013055437356893407 0 0 198.25692461380856,843.405612454536 L881.2894691541277,834.4878171879272 A15220.951269335255 15220.951269335255 0.013055437356893407 0 1 1080,833.190672319806 L1080,867.9362810417927 A15186.205660613268 15186.205660613268 0.013055437356893407 0 0 881.7430753861914,869.2304648539821 L198.7105308458723,878.1482601205909 A15220.951269335255 15220.951269335255 0.013055437356893407 0 1 0,879.4454049887121 Z" style="fill: rgb(248, 88, 104);"/><title>DCLA → Zoo
154</title></g><g class="link" style="opacity: 0.8;"><path d="M0,491.0534937503441 A528.7382193783131 528.7382193783131 0.37629756324836405 0 0 194.30051618188705,454.0585143284145 L860.6603444764785,190.76245231849902 A596.8757118071441 596.8757118071441 0.37629756324836405 0 1 1080,149 L1080,217.13749242883102 A528.7382193783131 528.7382193783131 0.37629756324836405 0 0 885.6994838181129,254.13247185076062 L219.33965552352154,517.4285338606761 A596.8757118071441 596.8757118071441 0.37629756324836405 0 1 0,559.1909861791751 Z" style="fill: rgb(255, 230, 116);"/><title>CUNY → College
302</title></g><g class="link" style="opacity: 0.8;"><path d="M0,149.00000000000003 A1390.2553533850075 1390.2553533850075 0.16341345836838395 0 1 226.17665499308285,167.52138925354672 L906.1655398913274,279.6405139820369 A1068.5200414528451 1068.5200414528451 0.16341345836838395 0 0 1080,293.875651120533 L1080,615.6109630526954 A1390.2553533850075 1390.2553533850075 0.16341345836838395 0 1 853.8233450069172,597.0895737991486 L173.8344601086727,484.9704490706585 A1068.5200414528451 1068.5200414528451 0.16341345836838395 0 0 0,470.7353119321624 Z" style="fill: rgb(59, 179, 50);"/><title>DOE → School
1.43k</title></g></g><g class="nodes"><g class="node" transform="translate(0,149)"><title>DOE</title><text dy=".35em" text-anchor="end" transform="translate(-4, 160.86766052246094)">DOE</text><line x1="0" x2="0" y1="0" y2="321.73531193216235" style="stroke: rgb(0, 0, 0);"/><rect x="-5" y="-5" width="10" style="fill: none; visibility: hidden; pointer-events: all;" height="326.73531193216235"/></g><g class="node" transform="translate(1080,293.875651120533)"><title>School</title><text dy=".35em" text-anchor="start" transform="translate(4, 161.54452514648438)">School</text><line x1="0" x2="0" y1="0" y2="323.0890369473047" style="stroke: rgb(0, 0, 0);"/><rect x="-5" y="-5" width="10" style="fill: none; visibility: hidden; pointer-events: all;" height="328.0890369473047"/></g><g class="node" transform="translate(0,491.05349375034416)"><title>CUNY</title><text dy=".35em" text-anchor="end" transform="translate(-4, 36.099334716796875)">CUNY</text><line x1="0" x2="0" y1="0" y2="72.19866747425803" style="stroke: rgb(0, 0, 0);"/><rect x="-5" y="-5" width="10" style="fill: none; visibility: hidden; pointer-events: all;" height="77.19866747425803"/></g><g class="node" transform="translate(1080,149)"><title>College</title><text dy=".35em" text-anchor="start" transform="translate(4, 34.06874465942383)">College</text><line x1="0" x2="0" y1="0" y2="68.13749242883101" style="stroke: rgb(0, 0, 0);"/><rect x="-5" y="-5" width="10" style="fill: none; visibility: hidden; pointer-events: all;" height="73.13749242883101"/></g><g class="node" transform="translate(0,816.4971917845934)"><title>DCLA</title><text dy=".35em" text-anchor="end" transform="translate(-4, 37.904300689697266)">DCLA</text><line x1="0" x2="0" y1="0" y2="75.80860084797092" style="stroke: rgb(0, 0, 0);"/><rect x="-5" y="-5" width="10" style="fill: none; visibility: hidden; pointer-events: all;" height="80.80860084797092"/></g><g class="node" transform="translate(1080,833.190672319806)"><title>Zoo</title><text dy=".35em" text-anchor="start" transform="translate(4, 17.372804641723633)">Zoo</text><line x1="0" x2="0" y1="0" y2="34.74560872198668" style="stroke: rgb(0, 0, 0);"/><rect x="-5" y="-5" width="10" style="fill: none; visibility: hidden; pointer-events: all;" height="39.74560872198668"/></g><g class="node" transform="translate(0,583.570343042784)"><title>DEP</title><text dy=".35em" text-anchor="end" transform="translate(-4, 17.259994506835938)">DEP</text><line x1="0" x2="0" y1="0" y2="34.51998788612962" style="stroke: rgb(0, 0, 0);"/><rect x="-5" y="-5" width="10" style="fill: none; visibility: hidden; pointer-events: all;" height="39.51998788612962"/></g><g class="node" transform="translate(1080,239.487492428831)"><title>WPCP</title><text dy=".35em" text-anchor="start" transform="translate(4, 16.019079208374023)">WPCP</text><line x1="0" x2="0" y1="0" y2="32.038158691702" style="stroke: rgb(0, 0, 0);"/><rect x="-5" y="-5" width="10" style="fill: none; visibility: hidden; pointer-events: all;" height="37.038158691702"/></g><g class="node" transform="translate(0,1092.7432410109575)"><title>FDNY</title><text dy=".35em" text-anchor="end" transform="translate(-4, 22.44927406311035)">FDNY</text><line x1="0" x2="0" y1="0" y2="44.89854633555421" style="stroke: rgb(0, 0, 0);"/><rect x="-5" y="-5" width="10" style="fill: none; visibility: hidden; pointer-events: all;" height="49.89854633555421"/></g><g class="node" transform="translate(1080,1043.3113567534826)"><title>FDNY 
 Facilities</title><text dy=".35em" text-anchor="start" transform="translate(4, 20.08025360107422)"><tspan x="0" dy="-0.33000000000000007em">FDNY </tspan><tspan x="0" dy="1.1em"> Facilities</tspan></text><line x1="0" x2="0" y1="0" y2="40.16050878255603" style="stroke: rgb(0, 0, 0);"/><rect x="-5" y="-5" width="10" style="fill: none; visibility: hidden; pointer-events: all;" height="45.16050878255603"/></g><g class="node" transform="translate(0,1289.5461428335443)"><title>NYPL</title><text dy=".35em" text-anchor="end" transform="translate(-4, 8.799212455749512)">NYPL</text><line x1="0" x2="0" y1="0" y2="17.598425196850393" style="stroke: rgb(0, 0, 0);"/><rect x="-5" y="-5" width="10" style="fill: none; visibility: hidden; pointer-events: all;" height="22.598425196850393"/></g><g class="node" transform="translate(1080,1296.7783161720165)"><title>Library</title><text dy=".35em" text-anchor="start" transform="translate(4, 22.110841751098633)">Library</text><line x1="0" x2="0" y1="0" y2="44.22168382798304" style="stroke: rgb(0, 0, 0);"/><rect x="-5" y="-5" width="10" style="fill: none; visibility: hidden; pointer-events: all;" height="49.22168382798304"/></g><g class="node" transform="translate(0,1049.86297560707)"><title>NYPD</title><text dy=".35em" text-anchor="end" transform="translate(-4, 11.281042098999023)">NYPD</text><line x1="0" x2="0" y1="0" y2="22.562083585705633" style="stroke: rgb(0, 0, 0);"/><rect x="-5" y="-5" width="10" style="fill: none; visibility: hidden; pointer-events: all;" height="27.562083585705633"/></g><g class="node" transform="translate(1080,1105.8218655360386)"><title>Police 
 Precinct</title><text dy=".35em" text-anchor="start" transform="translate(4, 8.235160827636719)"><tspan x="0" dy="-0.33000000000000007em">Police </tspan><tspan x="0" dy="1.1em"> Precinct</tspan></text><line x1="0" x2="0" y1="0" y2="16.470321017565112" style="stroke: rgb(0, 0, 0);"/><rect x="-5" y="-5" width="10" style="fill: none; visibility: hidden; pointer-events: all;" height="21.470321017565112"/></g><g class="node" transform="translate(0,1327.4627498485765)"><title>QPL</title><text dy=".35em" text-anchor="end" transform="translate(-4, 6.768625259399414)">QPL</text><line x1="0" x2="0" y1="0" y2="13.53725015142338" style="stroke: rgb(0, 0, 0);"/><rect x="-5" y="-5" width="10" style="fill: none; visibility: hidden; pointer-events: all;" height="18.53725015142338"/></g><g class="node" transform="translate(0,1256.1419525356532)"><title>BPL</title><text dy=".35em" text-anchor="end" transform="translate(-4, 6.543004035949707)">BPL</text><line x1="0" x2="0" y1="0" y2="13.086008479709268" style="stroke: rgb(0, 0, 0);"/><rect x="-5" y="-5" width="10" style="fill: none; visibility: hidden; pointer-events: all;" height="18.086008479709268"/></g><g class="node" transform="translate(0,1220.7071747150487)"><title>DOC</title><text dy=".35em" text-anchor="end" transform="translate(-4, 7.558298110961914)">DOC</text><line x1="0" x2="0" y1="0" y2="15.116596002422774" style="stroke: rgb(0, 0, 0);"/><rect x="-5" y="-5" width="10" style="fill: none; visibility: hidden; pointer-events: all;" height="20.116596002422774"/></g><g class="node" transform="translate(1080,1200.8488491823134)"><title>Island 
 Campus</title><text dy=".35em" text-anchor="start" transform="translate(4, 9.137643814086914)"><tspan x="0" dy="-0.33000000000000007em">Island </tspan><tspan x="0" dy="1.1em"> Campus</tspan></text><line x1="0" x2="0" y1="0" y2="18.27528770442156" style="stroke: rgb(0, 0, 0);"/><rect x="-5" y="-5" width="10" style="fill: none; visibility: hidden; pointer-events: all;" height="23.27528770442156"/></g><g class="node" transform="translate(0,638.4085127470954)"><title>DSNY</title><text dy=".35em" text-anchor="end" transform="translate(-4, 8.009539604187012)">DSNY</text><line x1="0" x2="0" y1="0" y2="16.019079345851" style="stroke: rgb(0, 0, 0);"/><rect x="-5" y="-5" width="10" style="fill: none; visibility: hidden; pointer-events: all;" height="21.019079345851"/></g><g class="node" transform="translate(1080,971.7624772864929)"><title>Storage</title><text dy=".35em" text-anchor="start" transform="translate(4, 8.573592185974121)">Storage</text><line x1="0" x2="0" y1="0" y2="17.14718352513628" style="stroke: rgb(0, 0, 0);"/><rect x="-5" y="-5" width="10" style="fill: none; visibility: hidden; pointer-events: all;" height="22.14718352513628"/></g><g class="node" transform="translate(0,774.7450305599912)"><title>ACS</title><text dy=".35em" text-anchor="end" transform="translate(-4, 10.716989517211914)">ACS</text><line x1="0" x2="0" y1="0" y2="21.433979406420352" style="stroke: rgb(0, 0, 0);"/><rect x="-5" y="-5" width="10" style="fill: none; visibility: hidden; pointer-events: all;" height="26.433979406420352"/></g><g class="node" transform="translate(1080,890.2862810417927)"><title>Center</title><text dy=".35em" text-anchor="start" transform="translate(4, 16.470321655273438)">Center</text><line x1="0" x2="0" y1="0" y2="32.940642035130224" style="stroke: rgb(0, 0, 0);"/><rect x="-5" y="-5" width="10" style="fill: none; visibility: hidden; pointer-events: all;" height="37.940642035130224"/></g><g class="node" transform="translate(1080,772.4715929739551)"><title>Garden</title><text dy=".35em" text-anchor="start" transform="translate(4, 4.399606227874756)">Garden</text><line x1="0" x2="0" y1="0" y2="8.799212598425196" style="stroke: rgb(0, 0, 0);"/><rect x="-5" y="-5" width="10" style="fill: none; visibility: hidden; pointer-events: all;" height="13.799212598425196"/></g><g class="node" transform="translate(1080,671.8176256814052)"><title>Others</title><text dy=".35em" text-anchor="start" transform="translate(4, 24.931102752685547)">Others</text><line x1="0" x2="0" y1="0" y2="49.86220472440945" style="stroke: rgb(0, 0, 0);"/><rect x="-5" y="-5" width="10" style="fill: none; visibility: hidden; pointer-events: all;" height="54.86220472440945"/></g><g class="node" transform="translate(1080,803.6208055723803)"><title>Harbor</title><text dy=".35em" text-anchor="start" transform="translate(4, 3.609933376312256)">Harbor</text><line x1="0" x2="0" y1="0" y2="7.219866747425803" style="stroke: rgb(0, 0, 0);"/><rect x="-5" y="-5" width="10" style="fill: none; visibility: hidden; pointer-events: all;" height="12.219866747425803"/></g><g class="node" transform="translate(0,981.4752491602885)"><title>HHC</title><text dy=".35em" text-anchor="end" transform="translate(-4, 4.963658332824707)">HHC</text><line x1="0" x2="0" y1="0" y2="9.927316777710478" style="stroke: rgb(0, 0, 0);"/><rect x="-5" y="-5" width="10" style="fill: none; visibility: hidden; pointer-events: all;" height="14.927316777710478"/></g><g class="node" transform="translate(1080,1011.2596608116291)"><title>Hospital</title><text dy=".35em" text-anchor="start" transform="translate(4, 4.850848197937012)">Hospital</text><line x1="0" x2="0" y1="0" y2="9.701695941853423" style="stroke: rgb(0, 0, 0);"/><rect x="-5" y="-5" width="10" style="fill: none; visibility: hidden; pointer-events: all;" height="14.701695941853423"/></g><g class="node" transform="translate(0,1011.7207477561808)"><title>DPR</title><text dy=".35em" text-anchor="end" transform="translate(-4, 8.912022590637207)">DPR</text><line x1="0" x2="0" y1="0" y2="17.82404603270745" style="stroke: rgb(0, 0, 0);"/><rect x="-5" y="-5" width="10" style="fill: none; visibility: hidden; pointer-events: all;" height="22.82404603270745"/></g><g class="node" transform="translate(1080,744.0298304058147)"><title>Aquareium</title><text dy=".35em" text-anchor="start" transform="translate(4, 3.0458812713623047)">Aquareium</text><line x1="0" x2="0" y1="0" y2="6.091762568140521" style="stroke: rgb(0, 0, 0);"/><rect x="-5" y="-5" width="10" style="fill: none; visibility: hidden; pointer-events: all;" height="11.09176256814052"/></g><g class="node" transform="translate(0,1189.5591927757282)"><title>DHS</title><text dy=".35em" text-anchor="end" transform="translate(-4, 5.414899826049805)">DHS</text><line x1="0" x2="0" y1="0" y2="10.829800121138703" style="stroke: rgb(0, 0, 0);"/><rect x="-5" y="-5" width="10" style="fill: none; visibility: hidden; pointer-events: all;" height="15.829800121138703"/></g><g class="node" transform="translate(0,1157.9599691646936)"><title>DCAS</title><text dy=".35em" text-anchor="end" transform="translate(-4, 5.640521049499512)">DCAS</text><line x1="0" x2="0" y1="0" y2="11.281041792852816" style="stroke: rgb(0, 0, 0);"/><rect x="-5" y="-5" width="10" style="fill: none; visibility: hidden; pointer-events: all;" height="16.281041792852818"/></g><g class="node" transform="translate(1080,1241.4741368867349)"><title>Court</title><text dy=".35em" text-anchor="start" transform="translate(4, 2.9330708980560303)">Court</text><line x1="0" x2="0" y1="0" y2="5.866141732283465" style="stroke: rgb(0, 0, 0);"/><rect x="-5" y="-5" width="10" style="fill: none; visibility: hidden; pointer-events: all;" height="10.866141732283465"/></g><g class="node" transform="translate(0,674.7457739111283)"><title>DOT</title><text dy=".35em" text-anchor="end" transform="translate(-4, 3.948364734649658)">DOT</text><line x1="0" x2="0" y1="0" y2="7.896729254996972" style="stroke: rgb(0, 0, 0);"/><rect x="-5" y="-5" width="10" style="fill: none; visibility: hidden; pointer-events: all;" height="12.896729254996972"/></g><g class="node" transform="translate(1080,1269.6902786190183)"><title>Shelter</title><text dy=".35em" text-anchor="start" transform="translate(4, 2.369018793106079)">Shelter</text><line x1="0" x2="0" y1="0" y2="4.738037552998183" style="stroke: rgb(0, 0, 0);"/><rect x="-5" y="-5" width="10" style="fill: none; visibility: hidden; pointer-events: all;" height="9.738037552998183"/></g><g class="node" transform="translate(0,725.3094543252023)"><title>HRA</title><text dy=".35em" text-anchor="end" transform="translate(-4, 3.948364734649658)">HRA</text><line x1="0" x2="0" y1="0" y2="7.896729254996972" style="stroke: rgb(0, 0, 0);"/><rect x="-5" y="-5" width="10" style="fill: none; visibility: hidden; pointer-events: all;" height="12.896729254996972"/></g><g class="node" transform="translate(1080,639.3146880678377)"><title>Office</title><text dy=".35em" text-anchor="start" transform="translate(4, 5.0764689445495605)">Office</text><line x1="0" x2="0" y1="0" y2="10.152937613567534" style="stroke: rgb(0, 0, 0);"/><rect x="-5" y="-5" width="10" style="fill: none; visibility: hidden; pointer-events: all;" height="15.152937613567534"/></g><g class="node" transform="translate(1080,1144.6421865536036)"><title>Residence</title><text dy=".35em" text-anchor="start" transform="translate(4, 4.738037586212158)">Residence</text><line x1="0" x2="0" y1="0" y2="9.476075105996365" style="stroke: rgb(0, 0, 0);"/><rect x="-5" y="-5" width="10" style="fill: none; visibility: hidden; pointer-events: all;" height="14.476075105996365"/></g><g class="node" transform="translate(0,935.4239854633555)"><title>DOHMH</title><text dy=".35em" text-anchor="end" transform="translate(-4, 2.1433980464935303)">DOHMH</text><line x1="0" x2="0" y1="0" y2="4.28679588128407" style="stroke: rgb(0, 0, 0);"/><rect x="-5" y="-5" width="10" style="fill: none; visibility: hidden; pointer-events: all;" height="9.286795881284071"/></g><g class="node" transform="translate(1080,945.5769230769229)"><title>Museum</title><text dy=".35em" text-anchor="start" transform="translate(4, 1.9177770614624023)">Museum</text><line x1="0" x2="0" y1="0" y2="3.8355542095699575" style="stroke: rgb(0, 0, 0);"/><rect x="-5" y="-5" width="10" style="fill: none; visibility: hidden; pointer-events: all;" height="8.835554209569958"/></g><g class="node" transform="translate(0,912.6239744507461)"><title>DFTA</title><text dy=".35em" text-anchor="end" transform="translate(-4, 1.2409145832061768)">DFTA</text><line x1="0" x2="0" y1="0" y2="2.4818291944276196" style="stroke: rgb(0, 0, 0);"/><rect x="-5" y="-5" width="10" style="fill: none; visibility: hidden; pointer-events: all;" height="7.48182919442762"/></g><g class="node" transform="translate(1080,1176.4682616595999)"><title>City Hall</title><text dy=".35em" text-anchor="start" transform="translate(4, 1.0152937173843384)">City Hall</text><line x1="0" x2="0" y1="0" y2="2.030587522713507" style="stroke: rgb(0, 0, 0);"/><rect x="-5" y="-5" width="10" style="fill: none; visibility: hidden; pointer-events: all;" height="7.030587522713507"/></g><g class="node" transform="translate(0,702.960684984307)"><title>EDC</title><text dy=".35em" text-anchor="end" transform="translate(-4, 1.0152937173843384)">EDC</text><line x1="0" x2="0" y1="0" y2="2.030587522713507" style="stroke: rgb(0, 0, 0);"/><rect x="-5" y="-5" width="10" style="fill: none; visibility: hidden; pointer-events: all;" height="7.030587522713507"/></g><g class="node" transform="translate(0,960.0289631628214)"><title>FIT</title><text dy=".35em" text-anchor="end" transform="translate(-4, 0.5640521049499512)">FIT</text><line x1="0" x2="0" y1="0" y2="1.1281041792852817" style="stroke: rgb(0, 0, 0);"/><rect x="-5" y="-5" width="10" style="fill: none; visibility: hidden; pointer-events: all;" height="6.128104179285282"/></g><g class="node" transform="translate(0,753.5243653983811)"><title>OCME</title><text dy=".35em" text-anchor="end" transform="translate(-4, 0.451241672039032)">OCME</text><line x1="0" x2="0" y1="0" y2="1" style="stroke: rgb(0, 0, 0);"/><rect x="-5" y="-5" width="10" style="fill: none; visibility: hidden; pointer-events: all;" height="6"/></g></g><g class="slice-titles"/></g></svg>