<?xml version="1.0" encoding="UTF-8"?>
<svg width="1261px" height="1347px" viewBox="0 0 1261 1347" version="1.1" xmlns="http://www.w3.org/2000/svg" xmlns:xlink="http://www.w3.org/1999/xlink">
    <!-- Generator: Sketch 41 (35326) - http://www.bohemiancoding.com/sketch -->
    <title>Untitled</title>
    <desc>Created with Sketch.</desc>
    <defs>
        <rect id="path-1" x="0" y="534" width="115" height="49"></rect>
        <mask id="mask-2" maskContentUnits="userSpaceOnUse" maskUnits="objectBoundingBox" x="0" y="0" width="115" height="49" fill="white">
            <use xlink:href="#path-1"></use>
        </mask>
        <rect id="path-3" x="0" y="745" width="115" height="49"></rect>
        <mask id="mask-4" maskContentUnits="userSpaceOnUse" maskUnits="objectBoundingBox" x="0" y="0" width="115" height="49" fill="white">
            <use xlink:href="#path-3"></use>
        </mask>
        <rect id="path-5" x="1142" y="710" width="115" height="49"></rect>
        <mask id="mask-6" maskContentUnits="userSpaceOnUse" maskUnits="objectBoundingBox" x="0" y="0" width="115" height="49" fill="white">
            <use xlink:href="#path-5"></use>
        </mask>
        <rect id="path-7" x="1146" y="191" width="115" height="49"></rect>
        <mask id="mask-8" maskContentUnits="userSpaceOnUse" maskUnits="objectBoundingBox" x="0" y="0" width="115" height="49" fill="white">
            <use xlink:href="#path-7"></use>
        </mask>
    </defs>
    <g id="Page-1" stroke="none" stroke-width="1" fill="none" fill-rule="evenodd">
        <g id="Group" transform="translate(18.000000, 103.000000)">
            <g transform="translate(73.000000, 5.000000)" opacity="0.8">
                <g id="DCAS-→-FDNY-Facilities-3.00" transform="translate(0.000000, 907.000000)" fill="#FBBFAD">
                    <path d="M0,39.3863499 C66.2054506,39.3863499 132.402697,37.9124592 198.542539,34.9657731 L881.368444,4.5442677 C947.53794,1.5962605 1013.76487,0.121708937 1080,0.121708937 L1080,2.12170894 C1013.79455,2.12170894 947.597303,3.59559969 881.457461,6.54228573 L198.631556,36.9637912 C132.46206,39.9117983 66.2351337,41.3863499 3.80251386e-13,41.3863499 L0,39.3863499 Z" id="Shape"></path>
                </g>
                <g id="DPR-→-Storage-3.00" transform="translate(0.000000, 754.000000)" fill="#FFE674">
                    <path d="M0,82.5462917 C66.3958958,82.5462917 132.756346,79.4789415 198.869134,73.3540504 L880.94637,10.164326 C947.120492,4.03375263 1013.54251,0.963556763 1080,0.963556763 L1080,2.96355676 C1013.6041,2.96355676 947.243654,6.03090696 881.130866,12.1557981 L199.05363,75.3455225 C132.879508,81.4760959 66.457493,84.5462917 1.0413892e-13,84.5462917 L0,82.5462917 Z" id="Shape"></path>
                </g>
                <g id="FDNY-→-Center-3.00" transform="translate(0.000000, 877.000000)" fill="#3BB332">
                    <path d="M0,100.501633 C66.5266797,100.501633 132.999671,96.7233585 199.097879,89.1850599 L880.675496,11.4532165 C946.848941,3.9063374 1013.3976,0.123762077 1080,0.123762077 L1080,2.12376208 C1013.47332,2.12376208 947.000329,5.90203675 880.902121,13.4403353 L199.324504,91.1721787 C133.151059,98.7190579 66.6024042,102.501633 3.64153152e-14,102.501633 L0,100.501633 Z" id="Shape"></path>
                </g>
                <g id="DOHMH-→-Others-3.00" transform="translate(0.000000, 689.000000)" fill="#FBBFAD">
                    <path d="M0,31.0316617 C66.1838146,31.0316617 132.362718,29.8914169 198.507249,27.6114348 L881.423853,4.07150465 C947.591341,1.79073119 1013.79321,0.65009058 1080,0.65009058 L1080,2.65009058 C1013.81619,2.65009058 947.637282,3.79033543 881.492751,6.07031755 L198.576147,29.6102477 C132.408659,31.8910211 66.2067859,33.0316617 4.18887147e-13,33.0316617 L0,31.0316617 Z" id="Shape"></path>
                </g>
                <g id="HRA-→-Others-3.00" transform="translate(0.000000, 579.000000)" fill="#F85868">
                    <path d="M0,0.448493083 C66.6210068,0.448493083 133.185903,4.31372055 199.359157,12.0246921 L880.872331,91.4393865 C946.968747,99.1414044 1013.45635,103.002144 1080,103.002144 L1080,105.002144 C1013.37899,105.002144 946.814097,101.136916 880.640843,93.4259447 L199.127669,14.0112503 C133.031253,6.30923241 66.5436493,2.44849308 1.11244347e-13,2.44849308 L0,0.448493083 Z" id="Shape"></path>
                </g>
                <g id="DOC-→-Court-3.00" transform="translate(0.000000, 1056.000000)" fill="#FBBFAD">
                    <path d="M0,17.2482021 C66.1633724,17.2482021 132.325186,16.6058674 198.476087,15.3212889 L881.485083,2.05799677 C947.648926,0.773166881 1013.82368,0.130706522 1080,0.130706522 L1080,2.13070652 C1013.83663,2.13070652 947.674814,2.77304121 881.523913,4.05761979 L198.514917,17.3209119 C132.351074,18.6057418 66.1763168,19.2482021 -4.17277324e-13,19.2482021 L0,17.2482021 Z" id="Shape"></path>
                </g>
                <g id="DSNY-→-School-3.00" transform="translate(0.000000, 464.000000)" fill="#3BB332">
                    <path d="M0,23.452281 C66.1703572,23.452281 132.337954,22.5975007 198.486229,20.8881541 L881.462106,3.23928105 C947.627599,1.52948949 1013.81242,0.674486715 1080,0.674486715 L1080,2.67448671 C1013.82964,2.67448671 947.662046,3.529267 881.513771,5.23861362 L198.537894,22.8874866 C132.372401,24.5972782 66.1875811,25.452281 8.16569035e-13,25.452281 L0,23.452281 Z" id="Shape"></path>
                </g>
                <g id="ACS-→-School-3.00" transform="translate(0.000000, 465.000000)" fill="#F85868">
                    <path d="M0,280.298515 C69.1835707,280.298515 137.944655,269.518202 203.808788,248.345521 L875.579139,32.3982595 C941.641074,11.1619935 1010.60866,0.349305556 1080,0.349305556 L1080,2.34930556 C1010.81643,2.34930556 942.055345,13.1296184 876.191212,34.3022992 L204.420861,250.249561 C138.358926,271.485827 69.3913408,282.298515 9.76996262e-15,282.298515 L0,280.298515 Z" id="Shape"></path>
                </g>
                <g id="DSNY-→-Office-3.00" transform="translate(0.000000, 488.000000)" fill="#FBBFAD">
                    <path d="M0,0.127099802 C66.1596098,0.127099802 132.319166,0.246102223 198.478348,0.484106486 L881.528847,2.94134563 C947.685631,3.17934127 1013.84279,3.29833937 1080,3.29833937 L1080,5.29833937 C1013.84039,5.29833937 947.680834,5.17933695 881.521652,4.94133269 L198.471153,2.48409354 C132.314369,2.24609791 66.1572115,2.1270998 -2.17985352e-13,2.1270998 L0,0.127099802 Z" id="Shape"></path>
                </g>
                <g id="DPR-→-Museum-3.00" transform="translate(0.000000, 782.000000)" fill="#3BB332">
                    <path d="M0,55.2211106 C66.2565209,55.2211106 132.497358,53.1825637 198.628496,49.1083634 L881.248521,7.05357905 C947.420605,2.97685611 1013.70246,0.937047101 1080,0.937047101 L1080,2.9370471 C1013.74348,2.9370471 947.502642,4.97559392 881.371504,9.04979429 L198.751479,51.1045786 C132.579395,55.1813016 66.2975442,57.2211106 -1.81410442e-13,57.2211106 L0,55.2211106 Z" id="Shape"></path>
                </g>
                <g id="DHS-→-Residence-3.00" transform="translate(0.000000, 1027.000000)" fill="#FFE674">
                    <path d="M0,18.0571338 C66.1643176,18.0571338 132.326907,17.3807551 198.477396,16.0281036 L881.481716,2.06196636 C947.645833,0.709036211 1013.82205,0.0325181159 1080,0.0325181159 L1080,2.03251812 C1013.83568,2.03251812 947.673093,2.70889687 881.522604,4.06154837 L198.518284,18.0276856 C132.354167,19.3806157 66.1779479,20.0571338 8.27171664e-13,20.0571338 L0,18.0571338 Z" id="Shape"></path>
                </g>
                <g id="DOT-→-Office-4.00" transform="translate(0.000000, 492.000000)" fill="#F85868">
                    <path d="M0,31.8536451 C66.1867718,31.8536451 132.368174,30.6613379 198.511995,28.2773037 L881.415965,3.66326734 C947.58379,1.27836796 1013.78921,0.0856280193 1080,0.0856280193 L1080,2.08562802 C1013.81323,2.08562802 947.631826,3.27793527 881.488005,5.66196949 L198.584035,30.2760058 C132.41621,32.6609052 66.2107909,33.8536451 2.47579734e-13,33.8536451 L0,31.8536451 Z" id="Shape"></path>
                </g>
                <g id="DCAS-→-Office-4.00" transform="translate(0.000000, 497.000000)" fill="#F85868">
                    <path d="M0,446.124726 C73.7823039,446.124726 146.475437,428.323131 211.909022,394.230986 L867.16685,52.829165 C932.885789,18.5883453 1005.89593,0.709118357 1080,0.709118357 L1080,2.70911836 C1006.2177,2.70911836 933.524563,20.5107131 868.090978,54.6028582 L212.83315,396.004679 C147.114211,430.245499 74.104066,448.124726 -3.01980663e-14,448.124726 L0,446.124726 Z" id="Shape"></path>
                </g>
                <g id="DOC-→-Residence-4.00" transform="translate(0.000000, 1027.000000)" fill="#F85868">
                    <path d="M0,45.4609135 C66.2216404,45.4609135 132.432676,43.7849808 198.569514,40.4347251 L881.329303,5.84855627 C947.499842,2.49659341 1013.74462,0.819806763 1080,0.819806763 L1080,2.81980676 C1013.77836,2.81980676 947.567324,4.49573942 881.430486,7.84599513 L198.670697,42.432164 C132.500158,45.7841268 66.2553843,47.4609135 4.07007761e-13,47.4609135 L0,45.4609135 Z" id="Shape"></path>
                </g>
                <g id="OCME-→-Others-4.00" transform="translate(0.000000, 603.000000)" fill="#FBBFAD">
                    <path d="M0,0.0282992973 C66.4449544,0.0282992973 132.856,3.02959318 199.030096,9.02300501 L881.150307,70.8028795 C947.264422,76.7908589 1013.61527,79.7894324 1080,79.7894324 L1080,81.7894324 C1013.55505,81.7894324 947.144,78.7881385 880.969904,72.7947267 L198.849693,11.0148521 C132.735578,5.02687279 66.3847282,2.0282993 1.47881707e-13,2.0282993 L0,0.0282992973 Z" id="Shape"></path>
                </g>
                <g id="HHC-→-Others-4.00" transform="translate(0.000000, 708.000000)" fill="#FBBFAD">
                    <path d="M0,204.909201 C67.7638388,204.909201 135.303174,197.121172 201.288598,181.69841 L878.25621,23.4708877 C944.390854,8.01324895 1012.08292,0.207608696 1080,0.207608696 L1080,2.2076087 C1012.23616,2.2076087 944.696826,9.9956372 878.711402,25.4183991 L201.74379,183.645922 C135.609146,199.10356 67.9170791,206.909201 -3.01980663e-14,206.909201 L0,204.909201 Z" id="Shape"></path>
                </g>
                <g id="DCLA-→-Storage-4.00" transform="translate(0.000000, 687.000000)" fill="#FBBFAD">
                    <path d="M0,0.00439174352 C66.3591165,0.00439174352 132.694993,2.48765864 198.868384,7.4489798 L881.281146,58.6125796 C947.404781,63.5701703 1013.69078,66.05157 1080,66.05157 L1080,68.05157 C1013.64088,68.05157 947.305007,65.5683032 881.131616,60.606982 L198.718854,9.4433822 C132.595219,4.48579146 66.309221,2.00439174 -1.56319402e-13,2.00439174 L0,0.00439174352 Z" id="Shape"></path>
                </g>
                <g id="CUNY-→-Others-5.00" transform="translate(0.000000, 411.000000)" fill="#FBBFAD">
                    <path d="M0,0.500398002 C68.8681476,0.500398002 137.383741,10.330423 203.473902,29.6930747 L877.088408,227.044128 C942.995927,246.35327 1011.32217,256.156129 1080,256.156129 L1080,258.156129 C1011.13185,258.156129 942.616259,248.326104 876.526098,228.963453 L202.911592,31.6123992 C137.004073,12.3032573 68.6778269,2.500398 5.77315973e-14,2.500398 L0,0.500398002 Z" id="Shape"></path>
                </g>
                <g id="FIT-→-Center-5.00" transform="translate(0.000000, 874.000000)" fill="#F85868">
                    <path d="M0,17.5787906 C66.1636383,17.5787906 132.32567,16.9266327 198.476452,15.6224118 L881.484124,2.15631455 C947.648046,0.851834603 1013.82322,0.199547101 1080,0.199547101 L1080,2.1995471 C1013.83636,2.1995471 947.67433,2.85170506 881.523548,4.15592595 L198.515876,17.6220232 C132.351954,18.9265031 66.1767806,19.5787906 -2.82496249e-13,19.5787906 L0,17.5787906 Z" id="Shape"></path>
                </g>
                <g id="NYPD-→-Storage-5.00" transform="translate(0.000000, 754.000000)" fill="#3BB332">
                    <path d="M0,37.709692 C66.2010331,37.709692 132.394525,36.2966157 198.535247,33.4714287 L881.379401,4.30388374 C947.548558,1.4774821 1013.77051,0.0637983092 1080,0.0637983092 L1080,2.06379831 C1013.79897,2.06379831 947.605475,3.4768746 881.464753,6.30206168 L198.620599,35.4696066 C132.451442,38.2960082 66.2294934,39.709692 4.43756143e-13,39.709692 L0,37.709692 Z" id="Shape"></path>
                </g>
                <g id="FDNY-→-Others-5.00" transform="translate(0.000000, 711.000000)" fill="#3BB332">
                    <path d="M0,263.802358 C68.8282092,263.802358 137.283801,253.700883 203.178463,233.820847 L876.243866,30.7609266 C942.325878,10.8243676 1010.9761,0.694172705 1080,0.694172705 L1080,2.69417271 C1011.17179,2.69417271 942.716199,12.7956474 876.821537,32.675684 L203.756134,235.735604 C137.674122,255.672163 69.0238996,265.802358 1.59872116e-14,265.802358 L0,263.802358 Z" id="Shape"></path>
                </g>
                <g id="NYPD-→-FDNY-Facilities-5.00" transform="translate(0.000000, 809.000000)" fill="#F85868">
                    <path d="M0,0.254981884 C66.5612076,0.254981884 133.073883,3.84832322 199.247678,11.0193199 L880.967793,84.894676 C947.070026,92.0579178 1013.51077,95.6473732 1080,95.6473732 L1080,97.6473732 C1013.43879,97.6473732 946.926117,94.0540318 880.752322,86.8830352 L199.032207,13.0076791 C132.929974,5.84443731 66.4892269,2.25498188 7.39408534e-14,2.25498188 L0,0.254981884 Z" id="Shape"></path>
                </g>
                <g id="FDNY-→-Residence-5.00" transform="translate(0.000000, 1012.000000)" fill="#3BB332">
                    <path d="M0,0.367273276 C66.1708665,0.367273276 132.340725,0.883895379 198.503524,1.91709235 L881.527704,12.5831844 C947.680095,13.6162188 1013.83954,14.1327597 1080,14.1327597 L1080,16.1327597 C1013.82913,16.1327597 947.659275,15.6161376 881.496476,14.5829406 L198.472296,3.91684853 C132.319905,2.8838141 66.1604566,2.36727328 2.30648833e-13,2.36727328 L0,0.367273276 Z" id="Shape"></path>
                </g>
                <g id="DOC-→-FDNY-Facilities-6.00" transform="translate(0.000000, 939.000000)" fill="#F85868">
                    <path d="M0,132.336215 C66.8098747,132.336215 133.526881,127.357875 199.596885,117.442542 L880.106292,15.3163651 C946.27455,5.38628739 1013.09077,0.400543478 1080,0.400543478 L1080,2.40054348 C1013.19013,2.40054348 946.473119,7.37888405 880.403115,17.2942165 L199.893708,119.420394 C133.72545,129.350472 66.9092283,134.336215 3.95239397e-14,134.336215 L0,132.336215 Z" id="Shape"></path>
                </g>
                <g id="DCLA-→-FDNY-Facilities-6.00" transform="translate(0.000000, 693.000000)" fill="#3BB332">
                    <path d="M0,0.977519763 C67.9473806,0.977519763 135.665726,8.8541682 201.799109,24.4497506 L878.65994,184.067154 C944.642884,199.62726 1012.20718,207.48599 1080,207.48599 L1080,209.48599 C1012.05262,209.48599 944.334274,201.609342 878.200891,186.01376 L201.34006,26.3963564 C135.357116,10.8362505 67.7928152,2.97751976 -6.97220059e-14,2.97751976 L0,0.977519763 Z" id="Shape"></path>
                </g>
                <g id="DPR-→-FDNY-Facilities-7.00" transform="translate(0.000000, 845.000000)" fill="#3BB332">
                    <path d="M0,0.0939970356 C66.3308194,0.0939970356 132.641881,2.38324277 198.814779,6.95764655 L881.323148,54.138123 C947.450139,58.7093533 1013.7152,60.9970109 1080,60.9970109 L1080,62.9970109 C1013.66918,62.9970109 947.358119,60.7077651 881.185221,56.1333614 L198.676852,8.95288492 C132.549861,4.38165462 66.2848027,2.09399704 5.66213743e-14,2.09399704 L0,0.0939970356 Z" id="Shape"></path>
                </g>
                <g id="FDNY-→-Storage-8.00" transform="translate(0.000000, 756.000000)" fill="#3BB332">
                    <path d="M0,220.264465 C68.0182881,220.264465 135.776821,211.87366 201.740517,195.282145 L877.771629,25.2434575 C943.89484,8.61182056 1011.81723,0.200724638 1080,0.200724638 L1080,2.20072464 C1011.98171,2.20072464 944.223179,10.5915297 878.259483,27.1830446 L202.228371,197.221732 C136.10516,213.853369 68.1827719,222.264465 8.70414851e-14,222.264465 L0,220.264465 Z" id="Shape"></path>
                </g>
                <g id="DCAS-→-City-Hall-9.00" transform="translate(0.000000, 947.000000)" fill="#3BB332">
                    <path d="M0,0.723759332 C66.1739764,0.723759332 132.346641,1.31306378 198.510122,2.49160257 L881.525933,14.6578402 C947.677397,15.8361649 1013.83804,16.4253623 1080,16.4253623 L1080,18.4498188 C1013.82602,18.4498188 947.653359,17.8605144 881.489878,16.6819756 L198.474067,4.515738 C132.322603,3.33741327 66.1619574,2.74821585 4.19053681e-13,2.74821585 L0,0.723759332 Z" id="Shape"></path>
                </g>
                <g id="HHC-→-Center-9.00" transform="translate(0.000000, 875.000000)" fill="#F85868">
                    <path d="M0,39.3590799 C66.2034251,39.3590799 132.398923,37.9102695 198.538951,35.0136893 L881.372474,5.10922539 C947.542009,2.21135289 1013.76704,0.761896135 1080,0.761896135 L1080,2.78635266 C1013.79657,2.78635266 947.601077,4.23516305 881.461049,7.13174328 L198.627526,37.0362072 C132.457991,39.9340797 66.2329608,41.3835365 -2.81663581e-13,41.3835365 L0,39.3590799 Z" id="Shape"></path>
                </g>
                <g id="DPR-→-Residence-9.00" transform="translate(0.000000, 846.000000)" fill="#FFE674">
                    <path d="M0,0.881285683 C67.4948577,0.881285683 134.820565,7.63062536 200.972291,21.0285714 L879.42957,158.438955 C945.44902,171.81011 1012.6401,178.545954 1080,178.545954 L1080,180.570411 C1012.50514,180.570411 945.179435,173.821071 879.027709,160.423125 L200.57043,23.0127417 C134.55098,9.64158601 67.359896,2.9057422 3.90798505e-14,2.9057422 L0,0.881285683 Z" id="Shape"></path>
                </g>
                <g id="DOT-→-Storage-9.00" transform="translate(0.000000, 530.000000)" fill="#F85868">
                    <path d="M0,0.252195872 C68.2064085,0.252195872 136.149408,8.71330663 202.272587,25.4417045 L878.223934,196.449559 C944.1848,213.136893 1011.96102,221.577234 1080,221.577234 L1080,223.601691 C1011.79359,223.601691 943.850592,215.14058 877.727413,198.412182 L201.776066,27.404328 C135.8152,10.7169936 68.0389814,2.27665239 1.59872116e-14,2.27665239 L0,0.252195872 Z" id="Shape"></path>
                </g>
                <g id="HRA-→-Center-11.0" transform="translate(0.000000, 580.000000)" fill="#FBBFAD">
                    <path d="M0,0.785902503 C69.0791121,0.785902503 137.780089,10.9801313 203.882734,31.0391442 L876.835757,235.24842 C942.705454,255.236744 1011.16433,265.395048 1080,265.395048 L1080,267.869384 C1010.92089,267.869384 942.219911,257.675155 876.117266,237.616142 L203.164243,33.4068663 C137.294546,13.4185422 68.8356744,3.26023825 3.10862447e-15,3.26023825 L0,0.785902503 Z" id="Shape"></path>
                </g>
                <g id="DEP-→-Others-11.0" transform="translate(0.000000, 465.000000)" fill="#FBBFAD">
                    <path d="M0,0.322353975 C67.9134023,0.322353975 135.604618,8.07878655 201.757748,23.4408688 L878.801949,180.664097 C944.771564,195.983563 1012.275,203.718478 1080,203.718478 L1080,206.192814 C1012.0866,206.192814 944.395382,198.436381 878.242252,183.074299 L201.198051,25.8510713 C135.228436,10.5316051 67.7250034,2.79668972 9.76996262e-15,2.79668972 L0,0.322353975 Z" id="Shape"></path>
                </g>
                <g id="DFTA-→-Center-11.0" transform="translate(0.000000, 869.000000)" fill="#F85868">
                    <path d="M0,0.223924023 C66.1597282,0.223924023 132.31941,0.334209453 198.478771,0.554779852 L881.529478,2.83202024 C947.686089,3.05258147 1013.84302,3.16286232 1080,3.16286232 L1080,5.63719807 C1013.84027,5.63719807 947.68059,5.52691264 881.521229,5.30634224 L198.470522,3.02910185 C132.313911,2.80854062 66.1569784,2.69825977 -5.74304493e-13,2.69825977 L0,0.223924023 Z" id="Shape"></path>
                </g>
                <g id="EDC-→-Others-11.0" transform="translate(0.000000, 552.000000)" fill="#FFE674">
                    <path d="M0,0.594834212 C66.8737223,0.594834212 133.660462,5.41533415 199.841026,15.0188599 L880.514306,113.79202 C946.577196,123.37847 1013.24518,128.190399 1080,128.190399 L1080,130.664734 C1013.12628,130.664734 946.339538,125.844234 880.158974,116.240709 L199.485694,17.4675487 C133.422804,7.88109871 66.754816,3.06916996 2.04281037e-14,3.06916996 L0,0.594834212 Z" id="Shape"></path>
                </g>
                <g id="DCAS-→-Others-11.0" transform="translate(0.000000, 709.000000)" fill="#FFE674">
                    <path d="M0,235.574605 C68.2608973,235.574605 136.22554,226.599988 202.146737,208.881468 L877.210999,27.4354347 C943.341641,9.66061913 1011.52222,0.657487923 1080,0.657487923 L1080,3.13182367 C1011.7391,3.13182367 943.77446,12.1064405 877.853263,29.8249605 L202.789001,211.270994 C136.658359,229.045809 68.4777772,238.04894 7.99360578e-14,238.04894 L0,235.574605 Z" id="Shape"></path>
                </g>
                <g id="DCLA-→-Center-12.0" transform="translate(0.000000, 691.000000)" fill="#3BB332">
                    <path d="M0,0.60342556 C67.2203659,0.60342556 134.310027,6.52594162 200.490806,18.3022781 L879.98208,139.212277 C946.006762,150.960837 1012.93818,156.869384 1080,156.869384 L1080,159.568659 C1012.77963,159.568659 945.689973,153.646143 879.509194,141.869807 L200.01792,20.9598082 C133.993238,9.21124788 67.0618171,3.30270092 -8.0380147e-14,3.30270092 L0,0.60342556 Z" id="Shape"></path>
                </g>
                <g id="FDNY-→-Hospital-12.0" transform="translate(0.000000, 994.000000)" fill="#FBBFAD">
                    <path d="M0,16.1056489 C66.1596798,16.1056489 132.318109,15.5303125 198.467783,14.3797051 L881.485273,2.49929887 C947.650594,1.34841929 1013.82467,0.77294686 1080,0.77294686 L1080,3.47222222 C1013.84032,3.47222222 947.681891,4.04755857 881.532217,5.19816599 L198.514727,17.0785722 C132.349406,18.2294518 66.1753287,18.8049242 4.18332036e-13,18.8049242 L0,16.1056489 Z" id="Shape"></path>
                </g>
                <g id="CUNY-→-Office-13.0" transform="translate(0.000000, 409.000000)" fill="#F85868">
                    <path d="M0,0.0138339921 C66.4607007,0.0138339921 132.887262,3.02565973 199.075266,9.04004278 L881.189362,71.0225046 C947.289383,77.0288928 1013.62764,80.036715 1080,80.036715 L1080,82.96093 C1013.5393,82.96093 947.112738,79.9491042 880.924734,73.9347212 L198.810638,11.9522594 C132.710617,5.94587113 66.3723554,2.93804897 4.45199433e-14,2.93804897 L0,0.0138339921 Z" id="Shape"></path>
                </g>
                <g id="ACS-→-FDNY-Facilities-13.0" transform="translate(0.000000, 764.000000)" fill="#FBBFAD">
                    <path d="M0,0.631093544 C66.995811,0.631093544 133.890492,5.83304618 200.080908,16.1900496 L880.371151,122.637007 C946.412018,132.97061 1013.15556,138.160809 1080,138.160809 L1080,141.085024 C1013.00419,141.085024 946.109508,135.883072 879.919092,125.526068 L199.628849,19.0791109 C133.587982,8.74550795 66.8444417,3.55530852 5.81756865e-14,3.55530852 L0,0.631093544 Z" id="Shape"></path>
                </g>
                <g id="DCLA-→-Museum-14.0" transform="translate(0.000000, 688.000000)" fill="#3BB332">
                    <path d="M0,0.454270971 C66.5542298,0.454270971 133.063314,3.91985873 199.257115,10.8369581 L881.070182,82.0848504 C947.155254,88.9905879 1013.55509,92.4504831 1080,92.4504831 L1080,95.5996377 C1013.44577,95.5996377 946.936686,92.1340499 880.742885,85.2169505 L198.929818,13.9690583 C132.844746,7.06332079 66.4449086,3.60342556 -6.77236045e-14,3.60342556 L0,0.454270971 Z" id="Shape"></path>
                </g>
                <g id="DSNY-→-Others-18.0" transform="translate(0.000000, 489.000000)" fill="#3BB332">
                    <path d="M0,0.464509223 C67.6238113,0.464509223 135.070413,7.3789742 201.287574,21.100032 L879.533962,161.641513 C945.480864,175.30657 1012.65219,182.192814 1080,182.192814 L1080,186.241727 C1012.37619,186.241727 944.929587,179.327262 878.712426,165.606204 L200.466038,25.0647232 C134.519136,11.3996665 67.3478113,4.51342227 -5.01820807e-14,4.51342227 L0,0.464509223 Z" id="Shape"></path>
                </g>
                <g id="NYPD-→-Others-19.0" transform="translate(0.000000, 698.000000)" fill="#FFE674">
                    <path d="M0,89.8734903 C66.4088928,89.8734903 132.775177,86.5103123 198.84386,79.7968782 L880.724086,10.5090141 C946.936325,3.78099292 1013.44681,0.410507246 1080,0.410507246 L1080,4.6843599 C1013.59111,4.6843599 947.224823,8.04753796 881.15614,14.760972 L199.275914,84.0488361 C133.063675,90.7768573 66.553188,94.147343 -1.68309811e-13,94.147343 L0,89.8734903 Z" id="Shape"></path>
                </g>
                <g id="DOHMH-→-Center-19.0" transform="translate(0.000000, 721.000000)" fill="#FFE674">
                    <path d="M0,0.369071146 C66.9348023,0.369071146 133.780355,5.25413774 200.004002,14.9853444 L880.617345,114.997794 C946.635257,124.698769 1013.27314,129.568659 1080,129.568659 L1080,133.842512 C1013.0652,133.842512 946.219645,128.957445 879.995998,119.226239 L199.382655,19.2137891 C133.364743,9.51281409 66.7268578,4.6429238 -5.59552404e-14,4.6429238 L0,0.369071146 Z" id="Shape"></path>
                </g>
                <g id="DCLA-→-Residence-21.0" transform="translate(0.000000, 695.000000)" fill="#3BB332">
                    <path d="M0,0.652338603 C70.6199359,0.652338603 140.667657,13.3156736 206.817681,38.0411581 L874.836194,287.732393 C940.457231,312.260153 1009.9448,324.822222 1080,324.822222 L1080,329.545954 C1009.38006,329.545954 939.332343,316.882619 873.182319,292.157135 L205.163806,42.4658999 C139.542769,17.9381396 70.0552039,5.37607049 2.84217094e-14,5.37607049 L0,0.652338603 Z" id="Shape"></path>
                </g>
                <g id="HRA-→-Office-21.0" transform="translate(0.000000, 493.000000)" fill="#F85868">
                    <path d="M0,82.3873518 C66.3554867,82.3873518 132.675316,79.3117898 198.746006,73.1705659 L880.816811,9.77256731 C947.032837,3.6178346 1013.49855,0.535507246 1080,0.535507246 L1080,5.25923913 C1013.64451,5.25923913 947.324684,8.33480115 881.253994,14.476025 L199.183189,77.8740236 C132.967163,84.0287563 66.5014494,87.1110837 1.38777878e-13,87.1110837 L0,82.3873518 Z" id="Shape"></path>
                </g>
                <g id="DOT-→-Others-22.0" transform="translate(0.000000, 525.000000)" fill="#FFE674">
                    <path d="M0,0.303524374 C67.2028728,0.303524374 134.285348,5.987412 200.53018,17.2944151 L880.302442,133.321384 C946.272219,144.58144 1013.07616,150.241727 1080,150.241727 L1080,155.190399 C1012.79713,155.190399 945.714652,149.506511 879.46982,138.199508 L199.697558,22.1725386 C133.727781,10.9124834 66.9238393,5.25219587 -8.65973959e-14,5.25219587 L0,0.303524374 Z" id="Shape"></path>
                </g>
                <g id="DHS-→-Shelter-22.0" transform="translate(0.000000, 1046.000000)" fill="#FFE674">
                    <path d="M0,0.394543259 C66.4482085,0.394543259 132.867222,3.17955921 199.082181,8.74225904 L881.332096,66.0578799 C947.409266,71.6090041 1013.69007,74.3882246 1080,74.3882246 L1080,79.3368961 C1013.55179,79.3368961 947.132778,76.5518802 880.917819,70.9891804 L198.667904,13.6735595 C132.590734,8.12243527 66.3099341,5.34321476 4.46309656e-14,5.34321476 L0,0.394543259 Z" id="Shape"></path>
                </g>
                <g id="DCAS-→-Court-23.0" transform="translate(0.000000, 949.000000)" fill="#FBBFAD">
                    <path d="M0,0.748215854 C66.6761031,0.748215854 133.296791,4.5910386 199.530672,12.2575688 L881.064198,91.1446465 C947.100613,98.78832 1013.52268,102.619686 1080,102.619686 L1080,107.793297 C1013.3239,107.793297 946.703209,103.950474 880.469328,96.2839442 L198.935802,17.3968665 C132.899387,9.75319292 66.4773184,5.92182697 4.13002965e-14,5.92182697 L0,0.748215854 Z" id="Shape"></path>
                </g>
                <g id="DHS-→-Others-24.0" transform="translate(0.000000, 713.000000)" fill="#FBBFAD">
                    <path d="M0,327.321174 C70.0859206,327.321174 139.594191,314.646887 205.169556,289.910117 L872.92503,38.0150155 C939.109395,13.0485151 1009.26319,0.256521739 1080,0.256521739 L1080,5.65507246 C1009.91408,5.65507246 940.405809,18.3293594 874.830444,43.066129 L207.07497,294.961231 C140.890605,319.927731 70.7368101,332.719724 -2.7533531e-14,332.719724 L0,327.321174 Z" id="Shape"></path>
                </g>
                <g id="FDNY-→-Island-Campus-27.0" transform="translate(0.000000, 1013.000000)" fill="#3BB332">
                    <path d="M0,0.92962231 C66.4089007,0.92962231 132.794655,3.40879421 199.01858,8.36195887 L881.434407,59.4026962 C947.507599,64.3445869 1013.74225,66.8181159 1080,66.8181159 L1080,72.8914855 C1013.5911,72.8914855 947.205345,70.4123136 880.98142,65.4591489 L198.565593,14.4184117 C132.492401,9.47652091 66.257747,7.00299188 2.02282635e-13,7.00299188 L0,0.92962231 Z" id="Shape"></path>
                </g>
                <g id="DCLA-→-Others-27.0" transform="translate(0.000000, 681.000000)" fill="#3BB332">
                    <path d="M0,0.481142951 C66.1614788,0.481142951 132.322917,0.584647656 198.484072,0.791656685 L881.534931,2.92882759 C947.689751,3.1358168 1013.84486,3.23931159 1080,3.23931159 L1080,9.31268116 C1013.83852,9.31268116 947.677083,9.20917645 881.515928,9.00216743 L198.465069,6.86499652 C132.310249,6.65800731 66.1551446,6.55451252 -3.32781025e-12,6.55451252 L0,0.481142951 Z" id="Shape"></path>
                </g>
                <g id="DPR-→-Others-27.0" transform="translate(0.000000, 702.000000)" fill="#FFE674">
                    <path d="M0,129.135513 C66.6761762,129.135513 133.264468,124.297283 199.240333,114.658936 L879.881734,15.2247263 C946.148315,5.54390889 1013.03002,0.684359903 1080,0.684359903 L1080,6.75772947 C1013.32382,6.75772947 946.735532,11.5959593 880.759667,21.2343062 L200.118266,120.668516 C133.851685,130.349333 66.9699784,135.208882 -9.14823772e-14,135.208882 L0,129.135513 Z" id="Shape"></path>
                </g>
                <g id="DCLA-→-Aquareium-27.0" transform="translate(0.000000, 521.000000)" fill="#F85868">
                    <path d="M0,103.79636 C66.47012,103.79636 132.883456,99.9124398 198.900466,92.1644556 L880.391601,12.182303 C946.643581,4.40674187 1013.2933,0.508997585 1080,0.508997585 L1080,6.58236715 C1013.52988,6.58236715 947.116544,10.4662877 881.099534,18.2142719 L199.608399,98.1964245 C133.356419,105.971986 66.7067025,109.86973 -1.33226763e-14,109.86973 L0,103.79636 Z" id="Shape"></path>
                </g>
                <g id="DPR-→-Center-30.0" transform="translate(0.000000, 838.000000)" fill="#3BB332">
                    <path d="M0,0.558519982 C66.2214063,0.558519982 132.438972,1.56707572 198.629661,3.58383633 L881.575853,24.3924878 C947.698057,26.4071617 1013.84711,27.4146739 1080,27.4146739 L1080,34.1628623 C1013.77859,34.1628623 947.561028,33.1543066 881.370339,31.137546 L198.424147,10.3288946 C132.301943,8.31422061 66.1528894,7.30670839 -7.03548331e-13,7.30670839 L0,0.558519982 Z" id="Shape"></path>
                </g>
                <g id="HHC-→-Hospital-31.0" transform="translate(0.000000, 916.000000)" fill="#FBBFAD">
                    <path d="M0,0.383536451 C66.4579867,0.383536451 132.888769,3.07218589 199.129387,8.44288933 L881.434136,63.7632734 C947.487297,69.1187781 1013.73009,71.7998188 1080,71.7998188 L1080,78.7729469 C1013.54201,78.7729469 947.111231,76.0842974 880.870613,70.713594 L198.565864,15.3932099 C132.512703,10.0377052 66.269915,7.35666447 -8.10462808e-14,7.35666447 L0,0.383536451 Z" id="Shape"></path>
                </g>
                <g id="DCLA-→-Harbor-32.0" transform="translate(0.000000, 581.000000)" fill="#FFE674">
                    <path d="M0,58.6423748 C66.2169769,58.6423748 132.415699,56.4438007 198.48676,52.0502859 L881.035646,6.66296269 C947.265686,2.25887639 1013.62369,0.0550120773 1080,0.0550120773 L1080,7.25307971 C1013.78302,7.25307971 947.584301,9.45165387 881.51324,13.8451686 L198.964354,59.2324919 C132.734314,63.6365782 66.3763065,65.8404425 -1.97841743e-13,65.8404425 L0,58.6423748 Z" id="Shape"></path>
                </g>
                <g id="ACS-→-Others-33.0" transform="translate(0.000000, 690.000000)" fill="#FBBFAD">
                    <path d="M0,56.6359245 C66.2050484,56.6359245 132.393628,54.5478419 198.467028,50.3747909 L881.065084,7.2633943 C947.294252,3.08050526 1013.63887,0.9875 1080,0.9875 L1080,8.41050725 C1013.79495,8.41050725 947.606372,10.4985898 881.532972,14.6716408 L198.934916,57.7830374 C132.705748,61.9659265 66.3611277,64.0589317 -3.43058915e-14,64.0589317 L0,56.6359245 Z" id="Shape"></path>
                </g>
                <g id="DCLA-→-Garden-39.0" transform="translate(0.000000, 549.000000)" fill="#FFE674">
                    <path d="M0,81.8697299 C66.2884371,81.8697299 132.542043,78.8314913 198.552265,72.7645778 L880.644837,10.0743384 C946.921989,3.98289167 1013.44351,0.93236715 1080,0.93236715 L1080,9.70501208 C1013.71156,9.70501208 947.457957,12.7432507 881.447735,18.8101642 L199.355163,81.5004036 C133.078011,87.5918503 66.5564918,90.6423748 9.52571355e-14,90.6423748 L0,81.8697299 Z" id="Shape"></path>
                </g>
                <g id="ACS-→-Center-47.0" transform="translate(0.000000, 754.000000)" fill="#FFE674">
                    <path d="M0,0.0589317084 C66.7687777,0.0589317084 133.483237,3.86620652 199.818524,11.4622173 L881.384228,89.5078653 C947.320228,97.0581541 1013.63312,100.842512 1080,100.842512 L1080,111.414674 C1013.23122,111.414674 946.516763,107.607399 880.181476,100.011388 L198.615772,21.9657403 C132.679772,14.4154515 66.3668817,10.6310935 -3.15303339e-14,10.6310935 L0,0.0589317084 Z" id="Shape"></path>
                </g>
                <g id="DSNY-→-Storage-47.0" transform="translate(0.000000, 493.000000)" fill="#3BB332">
                    <path d="M0,0.513422266 C69.097593,0.513422266 137.863144,10.0705356 204.341976,28.9130991 L878.540999,220.006075 C944.081909,238.582796 1011.87728,248.005072 1080,248.005072 L1080,258.577234 C1010.90241,258.577234 942.136856,249.020121 875.658024,230.177557 L201.459001,39.0845819 C135.918091,20.5078601 68.1227241,11.0855841 -6.52811138e-14,11.0855841 L0,0.513422266 Z" id="Shape"></path>
                </g>
                <g id="DOC-→-Island-Campus-54.0" transform="translate(0.000000, 1074.000000)" fill="#F85868">
                    <path d="M0,0.58561155 C66.1891332,0.58561155 132.377586,1.01004738 198.561276,1.85889285 L881.594501,10.6192031 C947.726268,11.4673827 1013.86279,11.8914855 1080,11.8914855 L1080,24.0382246 C1013.81087,24.0382246 947.622414,23.6137888 881.438724,22.7649433 L198.405499,14.0046331 C132.273732,13.1564535 66.1372061,12.7323507 -4.72399897e-14,12.7323507 L0,0.58561155 Z" id="Shape"></path>
                </g>
                <g id="BPL-→-Library-58.0" transform="translate(0.000000, 1107.000000)" fill="#F85868">
                    <path d="M0,0.0505324989 C66.324914,0.0505324989 132.641025,1.5786253 198.895545,4.6335945 L881.705385,36.1176811 C947.759728,39.1634202 1013.87548,40.6868961 1080,40.6868961 L1080,53.7333937 C1013.67509,53.7333937 947.358975,52.2053009 881.104455,49.1503317 L198.294615,17.6662451 C132.240272,14.620506 66.1245242,13.0970301 3.33510997e-13,13.0970301 L0,0.0505324989 Z" id="Shape"></path>
                </g>
                <g id="QPL-→-Library-60.0" transform="translate(0.000000, 1178.000000)" fill="#F85868">
                    <polygon id="Shape" points="0 0.503623188 1080 0.503623188 1080 14 0 14"></polygon>
                </g>
                <g id="NYPD-→-Police-Precinct-73.0" transform="translate(0.000000, 793.000000)" fill="#FFE674">
                    <path d="M0,0.272041063 C66.2066607,0.272041063 132.412372,0.773432969 198.611439,1.77617365 L881.637261,12.1222074 C947.753434,13.1236925 1013.87624,13.6244565 1080,13.6244565 L1080,30.0450483 C1013.79334,30.0450483 947.587628,29.5436564 881.388561,28.5409157 L198.362739,18.194882 C132.246566,17.1933969 66.1237571,16.6926329 8.4771079e-13,16.6926329 L0,0.272041063 Z" id="Shape"></path>
                </g>
                <g id="NYPL-→-Library-79.0" transform="translate(0.000000, 1140.000000)" fill="#FFE674">
                    <path d="M0,0.415211902 C66.2429432,0.415211902 132.483687,1.17854687 198.709039,2.70506477 L881.700462,18.4482598 C947.789336,19.9716318 1013.89357,20.7333937 1080,20.7333937 L1080,38.5036232 C1013.75706,38.5036232 947.516313,37.7402882 881.290961,36.2137703 L198.299538,20.4705753 C132.210664,18.9472032 66.1064292,18.1854414 -8.30446822e-13,18.1854414 L0,0.415211902 Z" id="Shape"></path>
                </g>
                <g id="FDNY-→-FDNY-Facilities-139" transform="translate(0.000000, 908.000000)" fill="#3BB332">
                    <path d="M0,70.8390426 C65.9424806,70.8390426 131.858744,68.2098675 197.591737,62.9577815 L879.917988,8.43970805 C946.479423,3.12142935 1013.22644,0.459118357 1080,0.459118357 L1080,31.7257246 C1014.05752,31.7257246 948.141256,34.3548998 882.408263,39.6069858 L200.082012,94.1250592 C133.520577,99.4433379 66.7735625,102.105649 1.21680443e-13,102.105649 L0,70.8390426 Z" id="Shape"></path>
                </g>
                <g id="DEP-→-WPCP-142" transform="translate(0.000000, 90.000000)" fill="#F85868">
                    <path d="M0,343.380929 C68.816253,343.380929 137.01095,330.358358 200.984832,305.000536 L867.245202,40.9097679 C934.965488,14.0669551 1007.15377,0.281763285 1080,0.281763285 L1080,32.2231884 C1011.18375,32.2231884 942.98905,45.2457594 879.015168,70.603581 L212.754798,334.694349 C145.034512,361.537162 72.8462335,375.322354 -3.73034936e-14,375.322354 L0,343.380929 Z" id="Shape"></path>
                </g>
                <g id="DCLA-→-Zoo-154" transform="translate(0.000000, 610.000000)" fill="#FBBFAD">
                    <path d="M0,36.8404425 C65.973804,36.8404425 131.940644,35.4848708 197.858754,32.7745858 L880.718164,4.69817968 C947.110384,1.96840118 1013.55168,0.60307971 1080,0.60307971 L1080,35.2437802 C1014.0262,35.2437802 948.059356,36.5993518 882.141246,39.3096368 L199.281836,67.386043 C132.889616,70.1158215 66.4483151,71.481143 7.32747196e-15,71.481143 L0,36.8404425 Z" id="Shape"></path>
                </g>
                <g id="CUNY-→-College-302" fill="#FFE674">
                    <path d="M0,341.082071 C66.515843,341.082071 132.437632,328.564863 194.324024,304.183888 L860.776004,41.6261815 C930.592292,14.1211175 1004.96106,-5.68434189e-14 1080,-5.68434189e-14 L1080,67.9317633 C1013.48416,67.9317633 947.562368,80.4489714 885.675976,104.829946 L219.223996,367.387652 C149.407708,394.892716 75.0389405,409.013834 -1.59872116e-14,409.013834 L0,341.082071 Z" id="Shape"></path>
                </g>
                <g id="DOE-→-School-1.43k" fill="#FFE674">
                    <path d="M0,0 C75.7229197,-8.52651283e-14 151.319631,6.17770663 226.037899,18.4716478 L906.039496,130.357266 C963.543249,139.818778 1021.72306,144.573188 1080,144.573188 L1080,465.337077 C1004.27708,465.337077 928.680369,459.159371 853.962101,446.865429 L173.960504,334.979811 C116.456751,325.518299 58.276941,320.763889 -3.5971226e-14,320.763889 L0,0 Z" id="Shape"></path>
                </g>
            </g>
            <g>
                <g id="DOE" transform="translate(40.000000, 0.000000)">
                    <text fill="#000000" font-family="Helvetica" font-size="13" font-weight="normal">
                        <tspan x="0" y="165.381943">DOE</tspan>
                    </text>
                    <path d="M33,5 L33,325.763889" id="Shape" stroke="#000000" fill="#000000"></path>
                    <rect id="Rectangle-path" x="28" y="0" width="10" height="325.763889"></rect>
                </g>
                <g id="School" transform="translate(1148.000000, 144.573188)">
                    <text fill="#000000" font-family="Helvetica" font-size="13" font-weight="normal">
                        <tspan x="9" y="166.056763">School</tspan>
                    </text>
                    <path d="M5,5 L5,327.113527" id="Shape" stroke="#000000" fill="#000000"></path>
                    <rect id="Rectangle-path" x="0" y="0" width="10" height="327.113527"></rect>
                </g>
                <g id="CUNY" transform="translate(32.000000, 341.082071)">
                    <text fill="#000000" font-family="Helvetica" font-size="13" font-weight="normal">
                        <tspan x="0" y="40.9903374">CUNY</tspan>
                    </text>
                    <path d="M41,5 L41,76.9806763" id="Shape" stroke="#000000" fill="#000000"></path>
                    <rect id="Rectangle-path" x="36" y="0" width="10" height="76.9806763"></rect>
                </g>
                <g id="College" transform="translate(1148.000000, 0.000000)">
                    <text fill="#000000" font-family="Helvetica" font-size="13" font-weight="normal">
                        <tspan x="9" y="38.9658813">College</tspan>
                    </text>
                    <path d="M5,5 L5,72.9317633" id="Shape" stroke="#000000" fill="#000000"></path>
                    <rect id="Rectangle-path" x="0" y="0" width="10" height="72.9317633"></rect>
                </g>
                <g id="DCLA" transform="translate(0.000000, 624.796360)">
                    <text stroke="#D71F1F" stroke-width="3" fill="#EE0C0C" font-family="Helvetica-Bold, Helvetica" font-size="24" font-weight="bold">
                        <tspan x="0" y="51">DCLA</tspan>
                    </text>
                    <path d="M73,5 L73,80.5797101" id="Shape" stroke="#F51717" stroke-width="5" fill="#000000"></path>
                    <rect id="Rectangle-path" x="68" y="0" width="10" height="80.5797101"></rect>
                </g>
                <g id="Zoo" transform="translate(1148.000000, 610.603080)">
                    <text stroke="#E61E1E" stroke-width="4" fill="#E81818" font-family="Helvetica" font-size="24" font-weight="normal">
                        <tspan x="10" y="29">Zoo</tspan>
                    </text>
                    <path d="M5,5 L5,39.6407005" id="Shape" stroke="#000000" fill="#000000"></path>
                    <rect id="Rectangle-path" x="0" y="0" width="10" height="39.6407005"></rect>
                </g>
                <g id="DEP" transform="translate(11.000000, 433.380929)">
                    <text stroke="#EC1111" stroke-width="3" fill="#D61F1F" font-family="Helvetica-Bold, Helvetica" font-size="24" font-weight="bold">
                        <tspan x="0" y="33">DEP</tspan>
                    </text>
                    <path d="M62,5 L62,39.4157609" id="Shape" stroke="#E81313" stroke-width="5" fill="#000000"></path>
                    <rect id="Rectangle-path" x="57" y="0" width="10" height="39.4157609"></rect>
                </g>
                <g id="WPCP" transform="translate(1148.000000, 94.281763)">
                    <text stroke="#D62020" stroke-width="4" fill="#DB2121" font-family="Helvetica" font-size="24" font-weight="normal">
                        <tspan x="9" y="23.9707127">WPCP</tspan>
                    </text>
                    <path d="M5,8 L5,39.9414251" id="Shape" stroke="#000000" fill="#000000"></path>
                    <rect id="Rectangle-path" x="0" y="3" width="10" height="36.9414251"></rect>
                </g>
                <g id="FDNY" transform="translate(33.000000, 975.240009)">
                    <text fill="#000000" font-family="Helvetica" font-size="13" font-weight="normal">
                        <tspan x="0" y="27.3814907">FDNY</tspan>
                    </text>
                    <path d="M40,5 L40,49.7629831" id="Shape" stroke="#000000" fill="#000000"></path>
                    <rect id="Rectangle-path" x="35" y="0" width="10" height="49.7629831"></rect>
                </g>
                <g id="FDNY-Facilities" transform="translate(1148.000000, 900.811171)">
                    <g id="Group" transform="translate(9.000000, 12.132095)" font-size="13" font-family="Helvetica" fill="#000000" font-weight="normal">
                        <text id="FDNY">
                            <tspan x="0" y="13">FDNY</tspan>
                        </text>
                        <text id="Facilities">
                            <tspan x="0" y="13">Facilities</tspan>
                        </text>
                    </g>
                    <path d="M5,5 L5,45.2641908" id="Shape" stroke="#000000" fill="#000000"></path>
                    <rect id="Rectangle-path" x="0" y="0" width="10" height="45.2641908"></rect>
                </g>
                <g id="NYPL" transform="translate(35.000000, 1140.415212)">
                    <text fill="#000000" font-family="Helvetica" font-size="13" font-weight="normal">
                        <tspan x="0" y="13.8851147">NYPL</tspan>
                    </text>
                    <path d="M38,5 L38,22.7702295" id="Shape" stroke="#000000" fill="#000000"></path>
                    <rect id="Rectangle-path" x="33" y="0" width="10" height="22.7702295"></rect>
                </g>
                <g id="Library" transform="translate(1148.000000, 1147.686896)">
                    <text fill="#000000" font-family="Helvetica" font-size="13" font-weight="normal">
                        <tspan x="9" y="27.1565514">Library</tspan>
                    </text>
                    <path d="M5,5 L5,49.3131039" id="Shape" stroke="#000000" fill="#000000"></path>
                    <rect id="Rectangle-path" x="0" y="0" width="10" height="49.3131039"></rect>
                </g>
                <g id="NYPD" transform="translate(32.000000, 787.873490)">
                    <text fill="#000000" font-family="Helvetica" font-size="13" font-weight="normal">
                        <tspan x="0" y="16.47192">NYPD</tspan>
                    </text>
                    <path d="M41,5 L41,27.9438406" id="Shape" stroke="#000000" fill="#000000"></path>
                    <rect id="Rectangle-path" x="36" y="0" width="10" height="27.9438406"></rect>
                </g>
                <g id="Police-Precinct" transform="translate(1148.000000, 806.624457)">
                    <g id="Group" transform="translate(9.000000, 0.210296)" font-size="13" font-family="Helvetica" fill="#000000" font-weight="normal">
                        <text id="Police">
                            <tspan x="0" y="13">Police</tspan>
                        </text>
                        <text id="Precinct">
                            <tspan x="0" y="13">Precinct</tspan>
                        </text>
                    </g>
                    <path d="M5,5 L5,21.4205918" id="Shape" stroke="#000000" fill="#000000"></path>
                    <rect id="Rectangle-path" x="0" y="0" width="10" height="21.4205918"></rect>
                </g>
                <g id="QPL" transform="translate(42.000000, 1176.503623)">
                    <text fill="#000000" font-family="Helvetica" font-size="13" font-weight="normal">
                        <tspan x="0" y="13.7481885">QPL</tspan>
                    </text>
                    <path d="M31,7 L31,20.4963768" id="Shape" stroke="#000000" fill="#000000"></path>
                    <rect id="Rectangle-path" x="26" y="2" width="10" height="18.4963768"></rect>
                </g>
                <g id="BPL" transform="translate(44.000000, 1105.050532)">
                    <text fill="#000000" font-family="Helvetica" font-size="13" font-weight="normal">
                        <tspan x="0" y="13.5232487">BPL</tspan>
                    </text>
                    <path d="M29,7 L29,20.0464976" id="Shape" stroke="#000000" fill="#000000"></path>
                    <rect id="Rectangle-path" x="24" y="2" width="10" height="18.0464976"></rect>
                </g>
                <g id="DOC" transform="translate(40.000000, 1070.661397)">
                    <text fill="#000000" font-family="Helvetica" font-size="13" font-weight="normal">
                        <tspan x="0" y="13.5354772">DOC</tspan>
                    </text>
                    <path d="M33,6 L33,21.0709541" id="Shape" stroke="#000000" fill="#000000"></path>
                    <rect id="Rectangle-path" x="28" y="1" width="10" height="20.0709541"></rect>
                </g>
                <g id="Island-Campus" transform="translate(1148.000000, 1079.818116)">
                    <g id="Group" transform="translate(9.000000, 1.110054)" font-size="13" font-family="Helvetica" fill="#000000" font-weight="normal">
                        <text id="Island">
                            <tspan x="0" y="13">Island</tspan>
                        </text>
                        <text id="Campus">
                            <tspan x="0" y="13">Campus</tspan>
                        </text>
                    </g>
                    <path d="M5,5 L5,23.2201087" id="Shape" stroke="#000000" fill="#000000"></path>
                    <rect id="Rectangle-path" x="0" y="0" width="10" height="23.2201087"></rect>
                </g>
                <g id="DSNY" transform="translate(32.000000, 487.114872)">
                    <text fill="#000000" font-family="Helvetica" font-size="13" font-weight="normal">
                        <tspan x="0" y="13.9853563">DSNY</tspan>
                    </text>
                    <path d="M41,6 L41,21.9707126" id="Shape" stroke="#000000" fill="#000000"></path>
                    <rect id="Rectangle-path" x="36" y="1" width="10" height="20.9707126"></rect>
                </g>
                <g id="Storage" transform="translate(1148.000000, 741.005072)">
                    <text fill="#000000" font-family="Helvetica" font-size="13" font-weight="normal">
                        <tspan x="9" y="13.5477057">Storage</tspan>
                    </text>
                    <path d="M5,5 L5,22.0954106" id="Shape" stroke="#000000" fill="#000000"></path>
                    <rect id="Rectangle-path" x="0" y="0" width="10" height="22.0954106"></rect>
                </g>
                <g id="ACS" transform="translate(42.000000, 745.961106)">
                    <text fill="#000000" font-family="Helvetica" font-size="13" font-weight="normal">
                        <tspan x="0" y="15.797102">ACS</tspan>
                    </text>
                    <path d="M31,5 L31,26.5942029" id="Shape" stroke="#000000" fill="#000000"></path>
                    <rect id="Rectangle-path" x="26" y="0" width="10" height="26.5942029"></rect>
                </g>
                <g id="Center" transform="translate(1148.000000, 845.395048)">
                    <text fill="#000000" font-family="Helvetica" font-size="13" font-weight="normal">
                        <tspan x="9" y="21.533062">Center</tspan>
                    </text>
                    <path d="M5,5 L5,38.0661232" id="Shape" stroke="#000000" fill="#000000"></path>
                    <rect id="Rectangle-path" x="0" y="0" width="10" height="38.0661232"></rect>
                </g>
                <g id="Garden" transform="translate(1148.000000, 545.932367)">
                    <text fill="#000000" font-family="Helvetica" font-size="13" font-weight="normal">
                        <tspan x="9" y="13.3863225">Garden</tspan>
                    </text>
                    <path d="M5,9 L5,17.7726449" id="Shape" stroke="#000000" fill="#000000"></path>
                    <rect id="Rectangle-path" x="0" y="4" width="10" height="13.7726449"></rect>
                </g>
                <g id="Others" transform="translate(1148.000000, 667.593780)">
                    <text fill="#000000" font-family="Helvetica" font-size="13" font-weight="normal">
                        <tspan x="9" y="30.5306454">Others</tspan>
                    </text>
                    <path d="M5,5 L5,56.0612923" id="Shape" stroke="#000000" fill="#000000"></path>
                    <rect id="Rectangle-path" x="0" y="0" width="10" height="56.0612923"></rect>
                </g>
                <g id="Harbor" transform="translate(1148.000000, 576.055012)">
                    <text fill="#000000" font-family="Helvetica" font-size="13" font-weight="normal">
                        <tspan x="9" y="13.5990338">Harbor</tspan>
                    </text>
                    <path d="M5,10 L5,17.1980676" id="Shape" stroke="#000000" fill="#000000"></path>
                    <rect id="Rectangle-path" x="0" y="5" width="10" height="12.1980676"></rect>
                </g>
                <g id="HHC" transform="translate(40.000000, 909.459321)">
                    <text fill="#000000" font-family="Helvetica" font-size="13" font-weight="normal">
                        <tspan x="0" y="13.9486713">HHC</tspan>
                    </text>
                    <path d="M33,9 L33,18.897343" id="Shape" stroke="#000000" fill="#000000"></path>
                    <rect id="Rectangle-path" x="28" y="4" width="10" height="14.897343"></rect>
                </g>
                <g id="Hospital" transform="translate(1148.000000, 983.799819)">
                    <text fill="#000000" font-family="Helvetica" font-size="13" font-weight="normal">
                        <tspan x="9" y="13.8362017">Hospital</tspan>
                    </text>
                    <path d="M5,9 L5,18.6724034" id="Shape" stroke="#000000" fill="#000000"></path>
                    <rect id="Rectangle-path" x="0" y="4" width="10" height="14.6724034"></rect>
                </g>
                <g id="DPR" transform="translate(41.000000, 831.135513)">
                    <text fill="#000000" font-family="Helvetica" font-size="13" font-weight="normal">
                        <tspan x="0" y="13.8851147">DPR</tspan>
                    </text>
                    <path d="M32,5 L32,22.7702295" id="Shape" stroke="#000000" fill="#000000"></path>
                    <rect id="Rectangle-path" x="27" y="0" width="10" height="22.7702295"></rect>
                </g>
                <g id="Aquareium" transform="translate(1148.000000, 516.508998)">
                    <text fill="#000000" font-family="Helvetica" font-size="13" font-weight="normal">
                        <tspan x="9" y="13.0366848">Aquareium</tspan>
                    </text>
                    <path d="M5,10 L5,16.0733696" id="Shape" stroke="#000000" fill="#000000"></path>
                    <rect id="Rectangle-path" x="0" y="5" width="10" height="11.0733696"></rect>
                </g>
                <g id="DHS" transform="translate(41.000000, 1037.321174)">
                    <text fill="#000000" font-family="Helvetica" font-size="13" font-weight="normal">
                        <tspan x="0" y="13.5110207">DHS</tspan>
                    </text>
                    <path d="M32,8 L32,19.0220411" id="Shape" stroke="#000000" fill="#000000"></path>
                    <rect id="Rectangle-path" x="27" y="3" width="10" height="16.0220411"></rect>
                </g>
                <g id="DCAS" transform="translate(32.000000, 940.674846)">
                    <text fill="#000000" font-family="Helvetica" font-size="13" font-weight="normal">
                        <tspan x="0" y="13.6234903">DCAS</tspan>
                    </text>
                    <path d="M41,8 L41,19.2469807" id="Shape" stroke="#000000" fill="#000000"></path>
                    <rect id="Rectangle-path" x="36" y="3" width="10" height="16.2469807"></rect>
                </g>
                <g id="Court" transform="translate(1148.000000, 1045.619686)">
                    <text fill="#000000" font-family="Helvetica" font-size="13" font-weight="normal">
                        <tspan x="9" y="13.9242148">Court</tspan>
                    </text>
                    <path d="M5,11 L5,16.84843" id="Shape" stroke="#000000" fill="#000000"></path>
                    <rect id="Rectangle-path" x="0" y="6" width="10" height="10.84843"></rect>
                </g>
                <g id="Shelter" transform="translate(1148.000000, 1114.388225)">
                    <text fill="#000000" font-family="Helvetica" font-size="13" font-weight="normal">
                        <tspan x="9" y="13.4743357">Shelter</tspan>
                    </text>
                    <path d="M5,11 L5,15.9486715" id="Shape" stroke="#000000" fill="#000000"></path>
                    <rect id="Rectangle-path" x="0" y="6" width="10" height="9.9486715"></rect>
                </g>
                <g id="DOT" transform="translate(41.000000, 519.403766)">
                    <text fill="#000000" font-family="Helvetica" font-size="13" font-weight="normal">
                        <tspan x="0" y="13.9364433">DOT</tspan>
                    </text>
                    <path d="M32,10 L32,17.8728865" id="Shape" stroke="#000000" fill="#000000"></path>
                    <rect id="Rectangle-path" x="27" y="5" width="10" height="12.8728865"></rect>
                </g>
                <g id="HRA" transform="translate(41.000000, 570.387352)">
                    <text fill="#000000" font-family="Helvetica" font-size="13" font-weight="normal">
                        <tspan x="0" y="13.9364433">HRA</tspan>
                    </text>
                    <path d="M32,10 L32,17.8728865" id="Shape" stroke="#000000" fill="#000000"></path>
                    <rect id="Rectangle-path" x="27" y="5" width="10" height="12.8728865"></rect>
                </g>
                <g id="Office" transform="translate(1148.000000, 486.036715)">
                    <text fill="#000000" font-family="Helvetica" font-size="13" font-weight="normal">
                        <tspan x="9" y="13.0611415">Office</tspan>
                    </text>
                    <path d="M5,8 L5,18.1222826" id="Shape" stroke="#000000" fill="#000000"></path>
                    <rect id="Rectangle-path" x="0" y="3" width="10" height="15.1222826"></rect>
                </g>
                <g id="Residence" transform="translate(1148.000000, 1015.822222)">
                    <text fill="#000000" font-family="Helvetica" font-size="13" font-weight="normal">
                        <tspan x="9" y="13.723732">Residence</tspan>
                    </text>
                    <path d="M5,9 L5,18.4474638" id="Shape" stroke="#000000" fill="#000000"></path>
                    <rect id="Rectangle-path" x="0" y="4" width="10" height="14.4474638"></rect>
                </g>
                <g id="DOHMH" transform="translate(19.000000, 714.694252)">
                    <text fill="#000000" font-family="Helvetica" font-size="13" font-weight="normal">
                        <tspan x="0" y="13.4743357">DOHMH</tspan>
                    </text>
                    <path d="M54,11 L54,15.9486715" id="Shape" stroke="#000000" fill="#000000"></path>
                    <rect id="Rectangle-path" x="49" y="6" width="10" height="9.9486715"></rect>
                </g>
                <g id="Museum" transform="translate(1148.000000, 773.450483)">
                    <text fill="#000000" font-family="Helvetica" font-size="13" font-weight="normal">
                        <tspan x="9" y="13.9119867">Museum</tspan>
                    </text>
                    <path d="M5,12 L5,15.8239734" id="Shape" stroke="#000000" fill="#000000"></path>
                    <rect id="Rectangle-path" x="0" y="7" width="10" height="8.82397343"></rect>
                </g>
                <g id="EDC" transform="translate(41.000000, 545.594834)">
                    <text fill="#000000" font-family="Helvetica" font-size="13" font-weight="normal">
                        <tspan x="0" y="13.2371678">EDC</tspan>
                    </text>
                    <path d="M32,12 L32,14.4743357" id="Shape" stroke="#000000" fill="#000000"></path>
                    <rect id="Rectangle-path" x="27" y="7" width="10" height="7.47433575"></rect>
                </g>
                <g id="DFTA" transform="translate(36.000000, 862.223924)">
                    <text fill="#000000" font-family="Helvetica" font-size="13" font-weight="normal">
                        <tspan x="0" y="13.2371678">DFTA</tspan>
                    </text>
                    <path d="M37,12 L37,14.4743357" id="Shape" stroke="#000000" fill="#000000"></path>
                    <rect id="Rectangle-path" x="32" y="7" width="10" height="7.47433575"></rect>
                </g>
                <g id="City-Hall" transform="translate(1148.000000, 956.425362)">
                    <text fill="#000000" font-family="Helvetica" font-size="13" font-weight="normal">
                        <tspan x="9" y="13.0122283">City Hall</tspan>
                    </text>
                    <path d="M5,12 L5,14.0244565" id="Shape" stroke="#000000" fill="#000000"></path>
                    <rect id="Rectangle-path" x="0" y="7" width="10" height="7.02445652"></rect>
                </g>
                <g id="FIT" transform="translate(49.000000, 884.016442)">
                    <text fill="#000000" font-family="Helvetica" font-size="13" font-weight="normal">
                        <tspan x="0" y="13.562349">FIT</tspan>
                    </text>
                    <path d="M24,13 L24,14.1246981" id="Shape" stroke="#000000" fill="#000000"></path>
                    <rect id="Rectangle-path" x="19" y="8" width="10" height="6.12469807"></rect>
                </g>
                <g id="OCME" transform="translate(30.000000, 595.578420)">
                    <text fill="#000000" font-family="Helvetica" font-size="13" font-weight="normal">
                        <tspan x="0" y="13.4498793">OCME</tspan>
                    </text>
                    <path d="M43,13 L43,14" id="Shape" stroke="#000000" fill="#000000"></path>
                    <rect id="Rectangle-path" x="38" y="8" width="10" height="6"></rect>
                </g>
            </g>
        </g>
        <use id="Rectangle" stroke="#EE0C0C" mask="url(#mask-2)" stroke-width="10" xlink:href="#path-1"></use>
        <use id="Rectangle" stroke="#EE0C0C" mask="url(#mask-4)" stroke-width="10" xlink:href="#path-3"></use>
        <use id="Rectangle" stroke="#EE0C0C" mask="url(#mask-6)" stroke-width="10" xlink:href="#path-5"></use>
        <use id="Rectangle" stroke="#EE0C0C" mask="url(#mask-8)" stroke-width="10" xlink:href="#path-7"></use>
    </g>
</svg>